%TF.GenerationSoftware,KiCad,Pcbnew,8.0.2-1*%
%TF.CreationDate,2024-05-20T08:59:52+08:00*%
%TF.ProjectId,amp_controller,616d705f-636f-46e7-9472-6f6c6c65722e,rev?*%
%TF.SameCoordinates,Original*%
%TF.FileFunction,Copper,L4,Bot*%
%TF.FilePolarity,Positive*%
%FSLAX46Y46*%
G04 Gerber Fmt 4.6, Leading zero omitted, Abs format (unit mm)*
G04 Created by KiCad (PCBNEW 8.0.2-1) date 2024-05-20 08:59:52*
%MOMM*%
%LPD*%
G01*
G04 APERTURE LIST*
G04 Aperture macros list*
%AMRoundRect*
0 Rectangle with rounded corners*
0 $1 Rounding radius*
0 $2 $3 $4 $5 $6 $7 $8 $9 X,Y pos of 4 corners*
0 Add a 4 corners polygon primitive as box body*
4,1,4,$2,$3,$4,$5,$6,$7,$8,$9,$2,$3,0*
0 Add four circle primitives for the rounded corners*
1,1,$1+$1,$2,$3*
1,1,$1+$1,$4,$5*
1,1,$1+$1,$6,$7*
1,1,$1+$1,$8,$9*
0 Add four rect primitives between the rounded corners*
20,1,$1+$1,$2,$3,$4,$5,0*
20,1,$1+$1,$4,$5,$6,$7,0*
20,1,$1+$1,$6,$7,$8,$9,0*
20,1,$1+$1,$8,$9,$2,$3,0*%
G04 Aperture macros list end*
%TA.AperFunction,ComponentPad*%
%ADD10R,1.500000X2.500000*%
%TD*%
%TA.AperFunction,ComponentPad*%
%ADD11O,1.500000X2.500000*%
%TD*%
%TA.AperFunction,ComponentPad*%
%ADD12RoundRect,0.250000X-0.725000X0.600000X-0.725000X-0.600000X0.725000X-0.600000X0.725000X0.600000X0*%
%TD*%
%TA.AperFunction,ComponentPad*%
%ADD13O,1.950000X1.700000*%
%TD*%
%TA.AperFunction,ComponentPad*%
%ADD14RoundRect,0.250000X0.725000X-0.600000X0.725000X0.600000X-0.725000X0.600000X-0.725000X-0.600000X0*%
%TD*%
%TA.AperFunction,ComponentPad*%
%ADD15R,1.000000X1.000000*%
%TD*%
%TA.AperFunction,ComponentPad*%
%ADD16R,1.700000X1.700000*%
%TD*%
%TA.AperFunction,ComponentPad*%
%ADD17O,1.700000X1.700000*%
%TD*%
%TA.AperFunction,ComponentPad*%
%ADD18RoundRect,0.250000X-0.750000X0.600000X-0.750000X-0.600000X0.750000X-0.600000X0.750000X0.600000X0*%
%TD*%
%TA.AperFunction,ComponentPad*%
%ADD19O,2.000000X1.700000*%
%TD*%
%TA.AperFunction,ComponentPad*%
%ADD20R,2.400000X2.400000*%
%TD*%
%TA.AperFunction,ComponentPad*%
%ADD21C,2.400000*%
%TD*%
%TA.AperFunction,ViaPad*%
%ADD22C,0.800000*%
%TD*%
%TA.AperFunction,Conductor*%
%ADD23C,0.250000*%
%TD*%
%TA.AperFunction,Conductor*%
%ADD24C,0.200000*%
%TD*%
G04 APERTURE END LIST*
D10*
%TO.P,U2,1,Vin*%
%TO.N,/+18V*%
X143957597Y-70873725D03*
D11*
%TO.P,U2,2,GND*%
%TO.N,GND*%
X146497597Y-70873725D03*
%TO.P,U2,3,Vout*%
%TO.N,+5V*%
X149037597Y-70873725D03*
%TD*%
D12*
%TO.P,FP_LED1,1,Pin_1*%
%TO.N,/DRV*%
X157292597Y-114173725D03*
D13*
%TO.P,FP_LED1,2,Pin_2*%
%TO.N,/R*%
X157292597Y-116673725D03*
%TO.P,FP_LED1,3,Pin_3*%
%TO.N,/G*%
X157292597Y-119173725D03*
%TO.P,FP_LED1,4,Pin_4*%
%TO.N,/B*%
X157292597Y-121673725D03*
%TD*%
D14*
%TO.P,DISPLAY1,1,Pin_1*%
%TO.N,/SCL*%
X109704930Y-84021376D03*
D13*
%TO.P,DISPLAY1,2,Pin_2*%
%TO.N,/SDA*%
X109704930Y-81521376D03*
%TO.P,DISPLAY1,3,Pin_3*%
%TO.N,GND*%
X109704930Y-79021376D03*
%TO.P,DISPLAY1,4,Pin_4*%
%TO.N,/DISP_3V3*%
X109704930Y-76521376D03*
%TD*%
D14*
%TO.P,AMP1,1,Pin_1*%
%TO.N,GND*%
X116987597Y-113358725D03*
D13*
%TO.P,AMP1,2,Pin_2*%
%TO.N,/AMP1_CLIP*%
X116987597Y-110858725D03*
%TO.P,AMP1,3,Pin_3*%
%TO.N,/AMP1_FAULT*%
X116987597Y-108358725D03*
%TO.P,AMP1,4,Pin_4*%
%TO.N,/AMP1_RESET*%
X116987597Y-105858725D03*
%TD*%
D12*
%TO.P,MUSIC_THRU1,1,Pin_1*%
%TO.N,/M+*%
X165031560Y-78573725D03*
D13*
%TO.P,MUSIC_THRU1,2,Pin_2*%
%TO.N,/MG*%
X165031560Y-81073725D03*
%TO.P,MUSIC_THRU1,3,Pin_3*%
%TO.N,/M-*%
X165031560Y-83573725D03*
%TD*%
D15*
%TO.P,TPVR1,1,1*%
%TO.N,/ADC_VREF*%
X148211380Y-79611496D03*
%TD*%
D16*
%TO.P,J1,1,Pin_1*%
%TO.N,Net-(J1-Pin_1)*%
X164917597Y-89288725D03*
D17*
%TO.P,J1,2,Pin_2*%
%TO.N,Net-(J1-Pin_2)*%
X162377597Y-89288725D03*
%TD*%
D15*
%TO.P,TPAG1,1,1*%
%TO.N,AGND*%
X159091346Y-95867811D03*
%TD*%
D18*
%TO.P,TRIGGER1,1,Pin_1*%
%TO.N,Net-(D4-K)*%
X164912597Y-107703725D03*
D19*
%TO.P,TRIGGER1,2,Pin_2*%
%TO.N,Net-(TRIGGER1-Pin_2)*%
X164912597Y-110203725D03*
%TD*%
D14*
%TO.P,AMP4,1,Pin_1*%
%TO.N,GND*%
X109669355Y-98981975D03*
D13*
%TO.P,AMP4,2,Pin_2*%
%TO.N,/AMP4_CLIP*%
X109669355Y-96481975D03*
%TO.P,AMP4,3,Pin_3*%
%TO.N,/AMP4_FAULT*%
X109669355Y-93981975D03*
%TO.P,AMP4,4,Pin_4*%
%TO.N,/AMP4_RESET*%
X109669355Y-91481975D03*
%TD*%
D16*
%TO.P,GPIO16\u002C17,1,Pin_1*%
%TO.N,GND*%
X147064682Y-121049736D03*
D17*
%TO.P,GPIO16\u002C17,2,Pin_2*%
%TO.N,/GPIO17*%
X149604682Y-121049736D03*
%TO.P,GPIO16\u002C17,3,Pin_3*%
%TO.N,/GPIO16*%
X152144682Y-121049736D03*
%TD*%
D15*
%TO.P,TPG1,1,1*%
%TO.N,GND*%
X154063475Y-73240747D03*
%TD*%
D20*
%TO.P,POWER1,1,Pin_1*%
%TO.N,/+18V*%
X123962597Y-69603725D03*
D21*
%TO.P,POWER1,2,Pin_2*%
%TO.N,GND*%
X120462597Y-69603725D03*
%TO.P,POWER1,3,Pin_3*%
%TO.N,/-18V*%
X116962597Y-69603725D03*
%TD*%
D12*
%TO.P,MUSIC_IN1,1,Pin_1*%
%TO.N,/M+*%
X164912597Y-95003725D03*
D13*
%TO.P,MUSIC_IN1,2,Pin_2*%
%TO.N,/MG*%
X164912597Y-97503725D03*
%TO.P,MUSIC_IN1,3,Pin_3*%
%TO.N,/M-*%
X164912597Y-100003725D03*
%TD*%
D14*
%TO.P,AMP3,1,Pin_1*%
%TO.N,GND*%
X117011573Y-98871566D03*
D13*
%TO.P,AMP3,2,Pin_2*%
%TO.N,/AMP3_CLIP*%
X117011573Y-96371566D03*
%TO.P,AMP3,3,Pin_3*%
%TO.N,/AMP3_FAULT*%
X117011573Y-93871566D03*
%TO.P,AMP3,4,Pin_4*%
%TO.N,/AMP3_RESET*%
X117011573Y-91371566D03*
%TD*%
D16*
%TO.P,GPIO3\u002C2\u002CG1,1,Pin_1*%
%TO.N,GND*%
X117922597Y-79128725D03*
D17*
%TO.P,GPIO3\u002C2\u002CG1,2,Pin_2*%
%TO.N,Net-(GPIO3\u002C2\u002CG1-Pin_2)*%
X117922597Y-81668725D03*
%TO.P,GPIO3\u002C2\u002CG1,3,Pin_3*%
%TO.N,Net-(GPIO3\u002C2\u002CG1-Pin_3)*%
X117922597Y-84208725D03*
%TD*%
D14*
%TO.P,AMP2,1,Pin_1*%
%TO.N,GND*%
X109667597Y-113418725D03*
D13*
%TO.P,AMP2,2,Pin_2*%
%TO.N,/AMP2_CLIP*%
X109667597Y-110918725D03*
%TO.P,AMP2,3,Pin_3*%
%TO.N,/AMP2_FAULT*%
X109667597Y-108418725D03*
%TO.P,AMP2,4,Pin_4*%
%TO.N,/AMP2_RESET*%
X109667597Y-105918725D03*
%TD*%
D15*
%TO.P,TP-PEAK1,1,1*%
%TO.N,/PEAK*%
X151577597Y-98178725D03*
%TD*%
D12*
%TO.P,FP_BUTTON1,1,Pin_1*%
%TO.N,GND*%
X157292597Y-100083725D03*
D13*
%TO.P,FP_BUTTON1,2,Pin_2*%
%TO.N,/FP_BUTTON*%
X157292597Y-102583725D03*
%TO.P,FP_BUTTON1,3,Pin_3*%
%TO.N,GND*%
X157292597Y-105083725D03*
%TO.P,FP_BUTTON1,4,Pin_4*%
%TO.N,/DRV*%
X157292597Y-107583725D03*
%TD*%
D22*
%TO.N,GND*%
X113264570Y-72810338D03*
X140395895Y-105944570D03*
X125990370Y-93291069D03*
X140147597Y-94368725D03*
X125941703Y-106041905D03*
X140249893Y-80588900D03*
X120921864Y-118592659D03*
X148816788Y-112255167D03*
X125891346Y-80518505D03*
X147756142Y-100347798D03*
X159879048Y-72449363D03*
X145227597Y-118646739D03*
%TO.N,+5V*%
X153004444Y-109241967D03*
X149672597Y-98178725D03*
%TO.N,+5VA*%
X155977709Y-79397180D03*
X150775633Y-85441217D03*
X154956465Y-93759590D03*
%TO.N,-5VA*%
X159197597Y-88018725D03*
X157909854Y-79381852D03*
%TO.N,AGND*%
X153308062Y-82289452D03*
X150927036Y-95362204D03*
X146783134Y-96003250D03*
X159855886Y-79358957D03*
X146861969Y-85674601D03*
X148654899Y-96444429D03*
%TD*%
D23*
%TO.N,+5V*%
X149037597Y-95003725D02*
X149672597Y-95638725D01*
X149672597Y-95638725D02*
X149672597Y-98178725D01*
X149672597Y-105910120D02*
X153004444Y-109241967D01*
X149037597Y-70873725D02*
X149037597Y-95003725D01*
X149672597Y-98178725D02*
X149672597Y-105910120D01*
D24*
%TO.N,/M-*%
X165031560Y-83573725D02*
X163642597Y-84962688D01*
X163642597Y-98813725D02*
X163722597Y-98813725D01*
X163642597Y-84962688D02*
X163642597Y-98813725D01*
X163722597Y-98813725D02*
X164912597Y-100003725D01*
D23*
%TO.N,+5VA*%
X155963823Y-79313168D02*
X155963823Y-85478725D01*
X155926315Y-85441217D02*
X155963823Y-85478725D01*
X154752597Y-93555722D02*
X154956465Y-93759590D01*
X155963823Y-85478725D02*
X155963823Y-88077499D01*
X155963823Y-88077499D02*
X154752597Y-89288725D01*
X150775633Y-85441217D02*
X155926315Y-85441217D01*
X154752597Y-89288725D02*
X154752597Y-93555722D01*
%TO.N,-5VA*%
X159197597Y-88018725D02*
X157909854Y-86730982D01*
X157909854Y-86730982D02*
X157909854Y-79381852D01*
%TO.N,/DRV*%
X157292597Y-114173725D02*
X157292597Y-107583725D01*
%TD*%
M02*
