%TF.GenerationSoftware,KiCad,Pcbnew,7.0.9*%
%TF.CreationDate,2023-12-26T12:13:05+08:00*%
%TF.ProjectId,amp_controller,616d705f-636f-46e7-9472-6f6c6c65722e,rev?*%
%TF.SameCoordinates,Original*%
%TF.FileFunction,Copper,L4,Bot*%
%TF.FilePolarity,Positive*%
%FSLAX46Y46*%
G04 Gerber Fmt 4.6, Leading zero omitted, Abs format (unit mm)*
G04 Created by KiCad (PCBNEW 7.0.9) date 2023-12-26 12:13:05*
%MOMM*%
%LPD*%
G01*
G04 APERTURE LIST*
G04 Aperture macros list*
%AMRoundRect*
0 Rectangle with rounded corners*
0 $1 Rounding radius*
0 $2 $3 $4 $5 $6 $7 $8 $9 X,Y pos of 4 corners*
0 Add a 4 corners polygon primitive as box body*
4,1,4,$2,$3,$4,$5,$6,$7,$8,$9,$2,$3,0*
0 Add four circle primitives for the rounded corners*
1,1,$1+$1,$2,$3*
1,1,$1+$1,$4,$5*
1,1,$1+$1,$6,$7*
1,1,$1+$1,$8,$9*
0 Add four rect primitives between the rounded corners*
20,1,$1+$1,$2,$3,$4,$5,0*
20,1,$1+$1,$4,$5,$6,$7,0*
20,1,$1+$1,$6,$7,$8,$9,0*
20,1,$1+$1,$8,$9,$2,$3,0*%
G04 Aperture macros list end*
%TA.AperFunction,ComponentPad*%
%ADD10R,2.500000X1.500000*%
%TD*%
%TA.AperFunction,ComponentPad*%
%ADD11O,2.500000X1.500000*%
%TD*%
%TA.AperFunction,ComponentPad*%
%ADD12RoundRect,0.250000X0.600000X0.725000X-0.600000X0.725000X-0.600000X-0.725000X0.600000X-0.725000X0*%
%TD*%
%TA.AperFunction,ComponentPad*%
%ADD13O,1.700000X1.950000*%
%TD*%
%TA.AperFunction,ComponentPad*%
%ADD14RoundRect,0.250000X0.725000X-0.600000X0.725000X0.600000X-0.725000X0.600000X-0.725000X-0.600000X0*%
%TD*%
%TA.AperFunction,ComponentPad*%
%ADD15O,1.950000X1.700000*%
%TD*%
%TA.AperFunction,ComponentPad*%
%ADD16RoundRect,0.250000X-0.750000X0.600000X-0.750000X-0.600000X0.750000X-0.600000X0.750000X0.600000X0*%
%TD*%
%TA.AperFunction,ComponentPad*%
%ADD17O,2.000000X1.700000*%
%TD*%
%TA.AperFunction,ComponentPad*%
%ADD18R,2.400000X2.400000*%
%TD*%
%TA.AperFunction,ComponentPad*%
%ADD19C,2.400000*%
%TD*%
%TA.AperFunction,ComponentPad*%
%ADD20R,1.700000X1.700000*%
%TD*%
%TA.AperFunction,ComponentPad*%
%ADD21O,1.700000X1.700000*%
%TD*%
%TA.AperFunction,ComponentPad*%
%ADD22RoundRect,0.250000X-0.725000X0.600000X-0.725000X-0.600000X0.725000X-0.600000X0.725000X0.600000X0*%
%TD*%
%TA.AperFunction,ComponentPad*%
%ADD23R,1.500000X1.050000*%
%TD*%
%TA.AperFunction,ComponentPad*%
%ADD24O,1.500000X1.050000*%
%TD*%
%TA.AperFunction,ViaPad*%
%ADD25C,0.800000*%
%TD*%
G04 APERTURE END LIST*
D10*
%TO.P,U2,1,Vin*%
%TO.N,/+18V*%
X146497597Y-56239255D03*
D11*
%TO.P,U2,2,GND*%
%TO.N,GND*%
X146497597Y-58779255D03*
%TO.P,U2,3,Vout*%
%TO.N,+5V*%
X146497597Y-61319255D03*
%TD*%
D12*
%TO.P,FP_LED1,1,Pin_1*%
%TO.N,/DRV*%
X164722047Y-122806760D03*
D13*
%TO.P,FP_LED1,2,Pin_2*%
%TO.N,/R*%
X162222047Y-122806760D03*
%TO.P,FP_LED1,3,Pin_3*%
%TO.N,/G*%
X159722047Y-122806760D03*
%TO.P,FP_LED1,4,Pin_4*%
%TO.N,/B*%
X157222047Y-122806760D03*
%TD*%
D14*
%TO.P,AMP2,1,Pin_1*%
%TO.N,GND*%
X104103296Y-114546777D03*
D15*
%TO.P,AMP2,2,Pin_2*%
%TO.N,/AMP2_CLIP*%
X104103296Y-112046777D03*
%TO.P,AMP2,3,Pin_3*%
%TO.N,/AMP2_FAULT*%
X104103296Y-109546777D03*
%TO.P,AMP2,4,Pin_4*%
%TO.N,/AMP2_RESET*%
X104103296Y-107046777D03*
%TD*%
D14*
%TO.P,AMP1,1,Pin_1*%
%TO.N,GND*%
X111774370Y-121370371D03*
D15*
%TO.P,AMP1,2,Pin_2*%
%TO.N,/AMP1_CLIP*%
X111774370Y-118870371D03*
%TO.P,AMP1,3,Pin_3*%
%TO.N,/AMP1_FAULT*%
X111774370Y-116370371D03*
%TO.P,AMP1,4,Pin_4*%
%TO.N,/AMP1_RESET*%
X111774370Y-113870371D03*
%TD*%
D16*
%TO.P,TRIGGER1,1,Pin_1*%
%TO.N,Net-(D4-K)*%
X172588655Y-97851212D03*
D17*
%TO.P,TRIGGER1,2,Pin_2*%
%TO.N,Net-(TRIGGER1-Pin_2)*%
X172588655Y-100351212D03*
%TD*%
D18*
%TO.P,POWER1,1,Pin_1*%
%TO.N,/+18V*%
X119605020Y-56152903D03*
D19*
%TO.P,POWER1,2,Pin_2*%
%TO.N,GND*%
X116105020Y-56152903D03*
%TO.P,POWER1,3,Pin_3*%
%TO.N,/-18V*%
X112605020Y-56152903D03*
%TD*%
D20*
%TO.P,GPIO16\u002C17,1,Pin_1*%
%TO.N,Net-(GPIO16\u002C17-Pin_1)*%
X148564694Y-122507219D03*
D21*
%TO.P,GPIO16\u002C17,2,Pin_2*%
%TO.N,Net-(GPIO16\u002C17-Pin_2)*%
X148564694Y-119967219D03*
%TD*%
D14*
%TO.P,MUSIC_IN1,1,Pin_1*%
%TO.N,/M+*%
X166784304Y-85995563D03*
D15*
%TO.P,MUSIC_IN1,2,Pin_2*%
%TO.N,/MG*%
X166784304Y-83495563D03*
%TO.P,MUSIC_IN1,3,Pin_3*%
%TO.N,/M-*%
X166784304Y-80995563D03*
%TD*%
D22*
%TO.P,DISPLAY1,1,Pin_1*%
%TO.N,/SDA*%
X104892442Y-72412621D03*
D15*
%TO.P,DISPLAY1,2,Pin_2*%
%TO.N,/SCL*%
X104892442Y-74912621D03*
%TO.P,DISPLAY1,3,Pin_3*%
%TO.N,GND*%
X104892442Y-77412621D03*
%TO.P,DISPLAY1,4,Pin_4*%
%TO.N,/DISP_3V3*%
X104892442Y-79912621D03*
%TD*%
D23*
%TO.P,U3,1,GND*%
%TO.N,GND*%
X118120802Y-62098029D03*
D24*
%TO.P,U3,2,VI*%
%TO.N,/-18V*%
X118120802Y-63368029D03*
%TO.P,U3,3,VO*%
%TO.N,-5V*%
X118120802Y-64638029D03*
%TD*%
D14*
%TO.P,AMP3,1,Pin_1*%
%TO.N,GND*%
X111760000Y-105163725D03*
D15*
%TO.P,AMP3,2,Pin_2*%
%TO.N,/AMP3_CLIP*%
X111760000Y-102663725D03*
%TO.P,AMP3,3,Pin_3*%
%TO.N,/AMP3_FAULT*%
X111760000Y-100163725D03*
%TO.P,AMP3,4,Pin_4*%
%TO.N,/AMP3_RESET*%
X111760000Y-97663725D03*
%TD*%
D14*
%TO.P,MUSIC_THRU1,1,Pin_1*%
%TO.N,/M+*%
X172038734Y-86015172D03*
D15*
%TO.P,MUSIC_THRU1,2,Pin_2*%
%TO.N,/MG*%
X172038734Y-83515172D03*
%TO.P,MUSIC_THRU1,3,Pin_3*%
%TO.N,/M-*%
X172038734Y-81015172D03*
%TD*%
D20*
%TO.P,GPIO2\u002C3,1,Pin_1*%
%TO.N,Net-(GPIO2\u002C3-Pin_1)*%
X118214756Y-82976485D03*
D21*
%TO.P,GPIO2\u002C3,2,Pin_2*%
%TO.N,Net-(GPIO2\u002C3-Pin_2)*%
X118214756Y-85516485D03*
%TD*%
D22*
%TO.P,FP_BUTTON1,1,Pin_1*%
%TO.N,GND*%
X172583225Y-107027622D03*
D15*
%TO.P,FP_BUTTON1,2,Pin_2*%
%TO.N,/FP_BUTTON*%
X172583225Y-109527622D03*
%TO.P,FP_BUTTON1,3,Pin_3*%
%TO.N,GND*%
X172583225Y-112027622D03*
%TO.P,FP_BUTTON1,4,Pin_4*%
%TO.N,/DRV*%
X172583225Y-114527622D03*
%TD*%
D14*
%TO.P,AMP4,1,Pin_1*%
%TO.N,GND*%
X104140000Y-97543725D03*
D15*
%TO.P,AMP4,2,Pin_2*%
%TO.N,/AMP4_CLIP*%
X104140000Y-95043725D03*
%TO.P,AMP4,3,Pin_3*%
%TO.N,/AMP4_FAULT*%
X104140000Y-92543725D03*
%TO.P,AMP4,4,Pin_4*%
%TO.N,/AMP4_RESET*%
X104140000Y-90043725D03*
%TD*%
D25*
%TO.N,GND*%
X113561400Y-80049156D03*
X158521920Y-102910934D03*
X145401613Y-105962143D03*
X120725786Y-118506050D03*
X159259207Y-86182328D03*
X145373604Y-80590538D03*
X120725786Y-93201686D03*
X153073990Y-116570685D03*
X152396888Y-83827166D03*
X120671074Y-105894902D03*
X157888690Y-116552516D03*
X162830570Y-116661528D03*
X164175296Y-94782986D03*
X145510385Y-118533406D03*
X145519251Y-93224431D03*
X120643718Y-80481114D03*
%TO.N,-5V*%
X161072253Y-80955626D03*
%TO.N,+5V*%
X157238279Y-80955626D03*
X154117597Y-77975119D03*
X167645714Y-114701471D03*
X111234565Y-83562417D03*
%TO.N,+5VA*%
X155620288Y-84575728D03*
X157557680Y-95030782D03*
%TO.N,-5VA*%
X161038090Y-87309918D03*
%TD*%
%TA.AperFunction,Conductor*%
%TO.N,-5VA*%
G36*
X151437355Y-83756827D02*
G01*
X151483110Y-83809631D01*
X151493636Y-83848177D01*
X151511214Y-84015422D01*
X151511215Y-84015425D01*
X151569706Y-84195443D01*
X151569709Y-84195450D01*
X151664355Y-84359382D01*
X151791017Y-84500054D01*
X151944153Y-84611314D01*
X151944158Y-84611317D01*
X152117080Y-84688308D01*
X152117085Y-84688310D01*
X152302242Y-84727666D01*
X152302243Y-84727666D01*
X152491532Y-84727666D01*
X152491534Y-84727666D01*
X152676691Y-84688310D01*
X152849618Y-84611317D01*
X153002759Y-84500054D01*
X153129421Y-84359382D01*
X153224067Y-84195450D01*
X153282562Y-84015422D01*
X153298949Y-83859505D01*
X153325532Y-83794893D01*
X153382830Y-83754908D01*
X153423025Y-83748471D01*
X154867699Y-83757321D01*
X154934613Y-83777415D01*
X154980044Y-83830498D01*
X154989563Y-83899716D01*
X154960150Y-83963093D01*
X154959086Y-83964290D01*
X154887754Y-84043512D01*
X154793109Y-84207443D01*
X154793106Y-84207450D01*
X154743741Y-84359382D01*
X154734614Y-84387472D01*
X154714828Y-84575728D01*
X154734614Y-84763984D01*
X154734615Y-84763987D01*
X154793106Y-84944005D01*
X154793109Y-84944012D01*
X154887755Y-85107944D01*
X154994388Y-85226372D01*
X155014417Y-85248616D01*
X155167553Y-85359876D01*
X155167558Y-85359879D01*
X155340480Y-85436870D01*
X155340485Y-85436872D01*
X155525642Y-85476228D01*
X155525643Y-85476228D01*
X155714932Y-85476228D01*
X155714934Y-85476228D01*
X155900091Y-85436872D01*
X156073018Y-85359879D01*
X156226159Y-85248616D01*
X156352821Y-85107944D01*
X156447467Y-84944012D01*
X156505962Y-84763984D01*
X156525748Y-84575728D01*
X156505962Y-84387472D01*
X156447467Y-84207444D01*
X156352821Y-84043512D01*
X156289845Y-83973570D01*
X156259615Y-83910580D01*
X156268240Y-83841245D01*
X156312981Y-83787579D01*
X156379633Y-83766621D01*
X156382697Y-83766601D01*
X164977388Y-83819248D01*
X165044302Y-83839343D01*
X165089733Y-83892426D01*
X165100623Y-83942616D01*
X165152801Y-94211673D01*
X165133458Y-94278812D01*
X165080887Y-94324834D01*
X165011780Y-94335129D01*
X164948077Y-94306427D01*
X164921416Y-94274303D01*
X164917396Y-94267341D01*
X164907829Y-94250770D01*
X164781167Y-94110098D01*
X164747414Y-94085575D01*
X164628030Y-93998837D01*
X164628025Y-93998834D01*
X164455103Y-93921843D01*
X164455098Y-93921841D01*
X164309297Y-93890851D01*
X164269942Y-93882486D01*
X164080650Y-93882486D01*
X164048193Y-93889384D01*
X163895493Y-93921841D01*
X163895488Y-93921843D01*
X163722566Y-93998834D01*
X163722561Y-93998837D01*
X163569425Y-94110097D01*
X163442762Y-94250771D01*
X163348117Y-94414701D01*
X163348114Y-94414708D01*
X163320867Y-94498567D01*
X163289622Y-94594730D01*
X163269836Y-94782986D01*
X163289622Y-94971242D01*
X163289623Y-94971245D01*
X163348114Y-95151263D01*
X163348117Y-95151270D01*
X163442763Y-95315202D01*
X163518275Y-95399066D01*
X163569425Y-95455874D01*
X163722561Y-95567134D01*
X163722566Y-95567137D01*
X163895488Y-95644128D01*
X163895493Y-95644130D01*
X164080650Y-95683486D01*
X164080651Y-95683486D01*
X164269940Y-95683486D01*
X164269942Y-95683486D01*
X164455099Y-95644130D01*
X164628026Y-95567137D01*
X164781167Y-95455874D01*
X164907829Y-95315202D01*
X164927164Y-95281711D01*
X164977730Y-95233495D01*
X165046337Y-95220271D01*
X165111202Y-95246238D01*
X165151731Y-95303151D01*
X165158550Y-95343080D01*
X165173020Y-98190973D01*
X165153677Y-98258112D01*
X165101106Y-98304134D01*
X165048262Y-98315601D01*
X145586502Y-98196387D01*
X145519585Y-98176292D01*
X145474154Y-98123209D01*
X145463264Y-98073023D01*
X145447806Y-95030782D01*
X156652220Y-95030782D01*
X156672006Y-95219038D01*
X156672007Y-95219041D01*
X156730498Y-95399059D01*
X156730501Y-95399066D01*
X156825147Y-95562998D01*
X156848521Y-95588957D01*
X156951809Y-95703670D01*
X157104945Y-95814930D01*
X157104950Y-95814933D01*
X157277872Y-95891924D01*
X157277877Y-95891926D01*
X157463034Y-95931282D01*
X157463035Y-95931282D01*
X157652324Y-95931282D01*
X157652326Y-95931282D01*
X157837483Y-95891926D01*
X158010410Y-95814933D01*
X158163551Y-95703670D01*
X158290213Y-95562998D01*
X158384859Y-95399066D01*
X158443354Y-95219038D01*
X158463140Y-95030782D01*
X158443354Y-94842526D01*
X158384859Y-94662498D01*
X158290213Y-94498566D01*
X158163551Y-94357894D01*
X158118048Y-94324834D01*
X158010414Y-94246633D01*
X158010409Y-94246630D01*
X157837487Y-94169639D01*
X157837482Y-94169637D01*
X157681109Y-94136400D01*
X157652326Y-94130282D01*
X157463034Y-94130282D01*
X157434251Y-94136400D01*
X157277877Y-94169637D01*
X157277872Y-94169639D01*
X157104950Y-94246630D01*
X157104945Y-94246633D01*
X156951809Y-94357893D01*
X156825146Y-94498567D01*
X156730501Y-94662497D01*
X156730498Y-94662504D01*
X156672007Y-94842522D01*
X156672006Y-94842526D01*
X156652220Y-95030782D01*
X145447806Y-95030782D01*
X145443837Y-94249559D01*
X145463180Y-94182422D01*
X145515751Y-94136400D01*
X145567835Y-94124931D01*
X145613895Y-94124931D01*
X145613897Y-94124931D01*
X145799054Y-94085575D01*
X145971981Y-94008582D01*
X146125122Y-93897319D01*
X146251784Y-93756647D01*
X146346430Y-93592715D01*
X146404925Y-93412687D01*
X146424711Y-93224431D01*
X146404925Y-93036175D01*
X146346430Y-92856147D01*
X146251784Y-92692215D01*
X146125122Y-92551543D01*
X146125121Y-92551542D01*
X145971985Y-92440282D01*
X145971980Y-92440279D01*
X145799058Y-92363288D01*
X145799053Y-92363286D01*
X145653252Y-92332296D01*
X145613897Y-92323931D01*
X145557424Y-92323931D01*
X145490385Y-92304246D01*
X145444630Y-92251442D01*
X145433426Y-92200561D01*
X145406831Y-86966476D01*
X145402846Y-86182328D01*
X158353747Y-86182328D01*
X158373533Y-86370584D01*
X158373534Y-86370587D01*
X158432025Y-86550605D01*
X158432028Y-86550612D01*
X158526674Y-86714544D01*
X158653336Y-86855216D01*
X158806472Y-86966476D01*
X158806477Y-86966479D01*
X158979399Y-87043470D01*
X158979404Y-87043472D01*
X159164561Y-87082828D01*
X159164562Y-87082828D01*
X159353851Y-87082828D01*
X159353853Y-87082828D01*
X159539010Y-87043472D01*
X159711937Y-86966479D01*
X159865078Y-86855216D01*
X159991740Y-86714544D01*
X160086386Y-86550612D01*
X160144881Y-86370584D01*
X160164667Y-86182328D01*
X160144881Y-85994072D01*
X160086386Y-85814044D01*
X159991740Y-85650112D01*
X159865078Y-85509440D01*
X159865077Y-85509439D01*
X159711941Y-85398179D01*
X159711936Y-85398176D01*
X159539014Y-85321185D01*
X159539009Y-85321183D01*
X159393208Y-85290193D01*
X159353853Y-85281828D01*
X159164561Y-85281828D01*
X159132104Y-85288726D01*
X158979404Y-85321183D01*
X158979399Y-85321185D01*
X158806477Y-85398176D01*
X158806472Y-85398179D01*
X158653336Y-85509439D01*
X158526673Y-85650113D01*
X158432028Y-85814043D01*
X158432025Y-85814050D01*
X158390906Y-85940603D01*
X158373533Y-85994072D01*
X158353747Y-86182328D01*
X145402846Y-86182328D01*
X145391055Y-83861769D01*
X145410398Y-83794633D01*
X145462969Y-83748611D01*
X145515053Y-83737142D01*
X151370316Y-83737142D01*
X151437355Y-83756827D01*
G37*
%TD.AperFunction*%
%TD*%
%TA.AperFunction,Conductor*%
%TO.N,-5V*%
G36*
X144708484Y-58439685D02*
G01*
X144754239Y-58492489D01*
X144764183Y-58561647D01*
X144762336Y-58571592D01*
X144753407Y-58610712D01*
X144753405Y-58610723D01*
X144743307Y-58835580D01*
X144743307Y-58835585D01*
X144773522Y-59058642D01*
X144773523Y-59058645D01*
X144843080Y-59272720D01*
X144949743Y-59470933D01*
X144949745Y-59470936D01*
X145090086Y-59646918D01*
X145090088Y-59646919D01*
X145090089Y-59646921D01*
X145259601Y-59795020D01*
X145452833Y-59910470D01*
X145511699Y-59932562D01*
X145567546Y-59974547D01*
X145591829Y-60040061D01*
X145576838Y-60108304D01*
X145527332Y-60157608D01*
X145521928Y-60160375D01*
X145353630Y-60241422D01*
X145353622Y-60241426D01*
X145171524Y-60373728D01*
X145171522Y-60373729D01*
X145015963Y-60536431D01*
X144891960Y-60724288D01*
X144803496Y-60931259D01*
X144803492Y-60931272D01*
X144753407Y-61150712D01*
X144753405Y-61150723D01*
X144743307Y-61375580D01*
X144743307Y-61375585D01*
X144773522Y-61598642D01*
X144773523Y-61598645D01*
X144843080Y-61812720D01*
X144949743Y-62010933D01*
X144949745Y-62010936D01*
X145090086Y-62186918D01*
X145090088Y-62186919D01*
X145090089Y-62186921D01*
X145259601Y-62335020D01*
X145452833Y-62450470D01*
X145663573Y-62529562D01*
X145885047Y-62569755D01*
X145885050Y-62569755D01*
X147053745Y-62569755D01*
X147053752Y-62569755D01*
X147184885Y-62557953D01*
X147253419Y-62571549D01*
X147303723Y-62620040D01*
X147320000Y-62681454D01*
X147320000Y-73660000D01*
X162435819Y-73660000D01*
X162502858Y-73679685D01*
X162548613Y-73732489D01*
X162559819Y-73784181D01*
X162546233Y-83107823D01*
X162526451Y-83174833D01*
X162473580Y-83220511D01*
X162422233Y-83231642D01*
X153127626Y-83231642D01*
X153060587Y-83211957D01*
X153035476Y-83190614D01*
X153002758Y-83154277D01*
X152849622Y-83043017D01*
X152849617Y-83043014D01*
X152676695Y-82966023D01*
X152676690Y-82966021D01*
X152530889Y-82935031D01*
X152491534Y-82926666D01*
X152302242Y-82926666D01*
X152269785Y-82933564D01*
X152117085Y-82966021D01*
X152117080Y-82966023D01*
X151944158Y-83043014D01*
X151944153Y-83043017D01*
X151791017Y-83154277D01*
X151758300Y-83190614D01*
X151698813Y-83227263D01*
X151666150Y-83231642D01*
X144766053Y-83231642D01*
X144774377Y-92680252D01*
X144757765Y-92742359D01*
X144692072Y-92856145D01*
X144692071Y-92856148D01*
X144640967Y-93013430D01*
X144633577Y-93036175D01*
X144613791Y-93224431D01*
X144633577Y-93412687D01*
X144634370Y-93415127D01*
X144692072Y-93592716D01*
X144758725Y-93708163D01*
X144775338Y-93770054D01*
X144779999Y-99060000D01*
X144780000Y-99060000D01*
X147196000Y-99060000D01*
X147263039Y-99079685D01*
X147308794Y-99132489D01*
X147320000Y-99184000D01*
X147320000Y-119413427D01*
X147308382Y-119465831D01*
X147290793Y-119503549D01*
X147290788Y-119503563D01*
X147229632Y-119731805D01*
X147229630Y-119731815D01*
X147209035Y-119967218D01*
X147209035Y-119967219D01*
X147229630Y-120202622D01*
X147229632Y-120202632D01*
X147290788Y-120430874D01*
X147290791Y-120430883D01*
X147308382Y-120468605D01*
X147320000Y-120521010D01*
X147320000Y-121308024D01*
X147300315Y-121375063D01*
X147295267Y-121382335D01*
X147270898Y-121414887D01*
X147270896Y-121414890D01*
X147220602Y-121549736D01*
X147214195Y-121609335D01*
X147214194Y-121609354D01*
X147214194Y-121796000D01*
X147194509Y-121863039D01*
X147141705Y-121908794D01*
X147090194Y-121920000D01*
X139233625Y-121920000D01*
X139166586Y-121900315D01*
X139120831Y-121847511D01*
X139110887Y-121778353D01*
X139139912Y-121714797D01*
X139157565Y-121698066D01*
X140160000Y-120919580D01*
X140160000Y-118533406D01*
X144604925Y-118533406D01*
X144624711Y-118721662D01*
X144624712Y-118721665D01*
X144683203Y-118901683D01*
X144683206Y-118901690D01*
X144777852Y-119065622D01*
X144904514Y-119206294D01*
X145057650Y-119317554D01*
X145057655Y-119317557D01*
X145230577Y-119394548D01*
X145230582Y-119394550D01*
X145415739Y-119433906D01*
X145415740Y-119433906D01*
X145605029Y-119433906D01*
X145605031Y-119433906D01*
X145790188Y-119394550D01*
X145963115Y-119317557D01*
X146116256Y-119206294D01*
X146242918Y-119065622D01*
X146337564Y-118901690D01*
X146396059Y-118721662D01*
X146415845Y-118533406D01*
X146396059Y-118345150D01*
X146337564Y-118165122D01*
X146242918Y-118001190D01*
X146116256Y-117860518D01*
X146078604Y-117833162D01*
X145963119Y-117749257D01*
X145963114Y-117749254D01*
X145790192Y-117672263D01*
X145790187Y-117672261D01*
X145644386Y-117641271D01*
X145605031Y-117632906D01*
X145415739Y-117632906D01*
X145383282Y-117639804D01*
X145230582Y-117672261D01*
X145230577Y-117672263D01*
X145057655Y-117749254D01*
X145057650Y-117749257D01*
X144904514Y-117860517D01*
X144777851Y-118001191D01*
X144683206Y-118165121D01*
X144683203Y-118165128D01*
X144624712Y-118345146D01*
X144624711Y-118345150D01*
X144604925Y-118533406D01*
X140160000Y-118533406D01*
X140160000Y-116579685D01*
X125960000Y-116579685D01*
X125960000Y-120919580D01*
X126962432Y-121698064D01*
X127003306Y-121754730D01*
X127007055Y-121824499D01*
X126972490Y-121885220D01*
X126910583Y-121917614D01*
X126886375Y-121920000D01*
X113373870Y-121920000D01*
X113306831Y-121900315D01*
X113261076Y-121847511D01*
X113249870Y-121796000D01*
X113249869Y-120720369D01*
X113249868Y-120720352D01*
X113239369Y-120617574D01*
X113239368Y-120617571D01*
X113184184Y-120451037D01*
X113092082Y-120301715D01*
X112968026Y-120177659D01*
X112887028Y-120127699D01*
X112813249Y-120082192D01*
X112766525Y-120030244D01*
X112755302Y-119961281D01*
X112783146Y-119897199D01*
X112790665Y-119888972D01*
X112848982Y-119830655D01*
X112937865Y-119741772D01*
X113073405Y-119548201D01*
X113173273Y-119334034D01*
X113234433Y-119105779D01*
X113255029Y-118870371D01*
X113234433Y-118634963D01*
X113199891Y-118506050D01*
X119820326Y-118506050D01*
X119840112Y-118694306D01*
X119840113Y-118694309D01*
X119898604Y-118874327D01*
X119898607Y-118874334D01*
X119993253Y-119038266D01*
X120054047Y-119105784D01*
X120119915Y-119178938D01*
X120273051Y-119290198D01*
X120273056Y-119290201D01*
X120445978Y-119367192D01*
X120445983Y-119367194D01*
X120631140Y-119406550D01*
X120631141Y-119406550D01*
X120820430Y-119406550D01*
X120820432Y-119406550D01*
X121005589Y-119367194D01*
X121178516Y-119290201D01*
X121331657Y-119178938D01*
X121458319Y-119038266D01*
X121552965Y-118874334D01*
X121611460Y-118694306D01*
X121631246Y-118506050D01*
X121611460Y-118317794D01*
X121552965Y-118137766D01*
X121458319Y-117973834D01*
X121331657Y-117833162D01*
X121331656Y-117833161D01*
X121178520Y-117721901D01*
X121178515Y-117721898D01*
X121005593Y-117644907D01*
X121005588Y-117644905D01*
X120859787Y-117613915D01*
X120820432Y-117605550D01*
X120631140Y-117605550D01*
X120598683Y-117612448D01*
X120445983Y-117644905D01*
X120445978Y-117644907D01*
X120273056Y-117721898D01*
X120273051Y-117721901D01*
X120119915Y-117833161D01*
X119993252Y-117973835D01*
X119898607Y-118137765D01*
X119898604Y-118137772D01*
X119840113Y-118317790D01*
X119840112Y-118317794D01*
X119820326Y-118506050D01*
X113199891Y-118506050D01*
X113173273Y-118406708D01*
X113073405Y-118192542D01*
X113073404Y-118192540D01*
X112937864Y-117998968D01*
X112770773Y-117831877D01*
X112652775Y-117749255D01*
X112613771Y-117721944D01*
X112570148Y-117667370D01*
X112562954Y-117597871D01*
X112594476Y-117535516D01*
X112613768Y-117518799D01*
X112770771Y-117408866D01*
X112937865Y-117241772D01*
X113073405Y-117048201D01*
X113173273Y-116834034D01*
X113234433Y-116605779D01*
X113255029Y-116370371D01*
X113234433Y-116134963D01*
X113173273Y-115906708D01*
X113073405Y-115692542D01*
X113073404Y-115692540D01*
X112937864Y-115498968D01*
X112770773Y-115331877D01*
X112714557Y-115292515D01*
X112613771Y-115221944D01*
X112570148Y-115167370D01*
X112562954Y-115097871D01*
X112594476Y-115035516D01*
X112613768Y-115018799D01*
X112770771Y-114908866D01*
X112937865Y-114741772D01*
X113073405Y-114548201D01*
X113173273Y-114334034D01*
X113234433Y-114105779D01*
X113255029Y-113870371D01*
X113234433Y-113634963D01*
X113173273Y-113406708D01*
X113073405Y-113192542D01*
X113073404Y-113192540D01*
X112937864Y-112998968D01*
X112770772Y-112831876D01*
X112577200Y-112696336D01*
X112577198Y-112696335D01*
X112470116Y-112646402D01*
X112363033Y-112596468D01*
X112363029Y-112596467D01*
X112363025Y-112596465D01*
X112134783Y-112535309D01*
X112134773Y-112535307D01*
X111958336Y-112519871D01*
X111590404Y-112519871D01*
X111413966Y-112535307D01*
X111413956Y-112535309D01*
X111185714Y-112596465D01*
X111185705Y-112596469D01*
X110971541Y-112696335D01*
X110971539Y-112696336D01*
X110777967Y-112831876D01*
X110610876Y-112998968D01*
X110610871Y-112998975D01*
X110475337Y-113192536D01*
X110475335Y-113192540D01*
X110375468Y-113406706D01*
X110375464Y-113406715D01*
X110314308Y-113634957D01*
X110314306Y-113634967D01*
X110293711Y-113870370D01*
X110293711Y-113870371D01*
X110314306Y-114105774D01*
X110314308Y-114105784D01*
X110375464Y-114334026D01*
X110375466Y-114334030D01*
X110375467Y-114334034D01*
X110425401Y-114441117D01*
X110475334Y-114548199D01*
X110475335Y-114548201D01*
X110610875Y-114741773D01*
X110777967Y-114908865D01*
X110934965Y-115018796D01*
X110978590Y-115073373D01*
X110985784Y-115142871D01*
X110954261Y-115205226D01*
X110934965Y-115221946D01*
X110777967Y-115331876D01*
X110610876Y-115498968D01*
X110610871Y-115498975D01*
X110475337Y-115692536D01*
X110475335Y-115692540D01*
X110375468Y-115906706D01*
X110375464Y-115906715D01*
X110314308Y-116134957D01*
X110314306Y-116134967D01*
X110293711Y-116370370D01*
X110293711Y-116370371D01*
X110314306Y-116605774D01*
X110314308Y-116605784D01*
X110375464Y-116834026D01*
X110375466Y-116834030D01*
X110375467Y-116834034D01*
X110415927Y-116920800D01*
X110475334Y-117048199D01*
X110475335Y-117048201D01*
X110610875Y-117241773D01*
X110777967Y-117408865D01*
X110934965Y-117518796D01*
X110978590Y-117573373D01*
X110985784Y-117642871D01*
X110954261Y-117705226D01*
X110934965Y-117721946D01*
X110777967Y-117831876D01*
X110610876Y-117998968D01*
X110610871Y-117998975D01*
X110475337Y-118192536D01*
X110475335Y-118192540D01*
X110375468Y-118406706D01*
X110375464Y-118406715D01*
X110314308Y-118634957D01*
X110314306Y-118634967D01*
X110293711Y-118870370D01*
X110293711Y-118870371D01*
X110314306Y-119105774D01*
X110314308Y-119105784D01*
X110375464Y-119334026D01*
X110375466Y-119334030D01*
X110375467Y-119334034D01*
X110409282Y-119406550D01*
X110475334Y-119548199D01*
X110475335Y-119548201D01*
X110610875Y-119741773D01*
X110758074Y-119888972D01*
X110791559Y-119950295D01*
X110786575Y-120019987D01*
X110744703Y-120075920D01*
X110735490Y-120082191D01*
X110580717Y-120177656D01*
X110580713Y-120177659D01*
X110456659Y-120301713D01*
X110364557Y-120451034D01*
X110364555Y-120451039D01*
X110341905Y-120519392D01*
X110309371Y-120617574D01*
X110309371Y-120617575D01*
X110309370Y-120617575D01*
X110298870Y-120720354D01*
X110298870Y-120720362D01*
X110298870Y-121346697D01*
X110298871Y-121796000D01*
X110279187Y-121863039D01*
X110226383Y-121908794D01*
X110174871Y-121920000D01*
X105436771Y-121920000D01*
X105369732Y-121900315D01*
X105323977Y-121847511D01*
X105314033Y-121778353D01*
X105319413Y-121755963D01*
X105376783Y-121587798D01*
X105376783Y-121587794D01*
X105376787Y-121587785D01*
X105425988Y-121321413D01*
X105435881Y-121050715D01*
X105406255Y-120781462D01*
X105337741Y-120519392D01*
X105231799Y-120270090D01*
X105090687Y-120038870D01*
X105031058Y-119967218D01*
X104917415Y-119830660D01*
X104917409Y-119830655D01*
X104715671Y-119649898D01*
X104489761Y-119500437D01*
X104244489Y-119385458D01*
X104228274Y-119380580D01*
X104169749Y-119342415D01*
X104141147Y-119278668D01*
X104140000Y-119261838D01*
X104140000Y-116021276D01*
X104159685Y-115954237D01*
X104212489Y-115908482D01*
X104263998Y-115897276D01*
X104878304Y-115897276D01*
X104981093Y-115886776D01*
X105147630Y-115831591D01*
X105296952Y-115739489D01*
X105421008Y-115615433D01*
X105513110Y-115466111D01*
X105568295Y-115299574D01*
X105578796Y-115196786D01*
X105578795Y-113896769D01*
X105576098Y-113870371D01*
X105568295Y-113793980D01*
X105568294Y-113793977D01*
X105515603Y-113634967D01*
X105513110Y-113627443D01*
X105421008Y-113478121D01*
X105296952Y-113354065D01*
X105215954Y-113304105D01*
X105142175Y-113258598D01*
X105095451Y-113206650D01*
X105084228Y-113137687D01*
X105112072Y-113073605D01*
X105119591Y-113065378D01*
X105186001Y-112998968D01*
X105266791Y-112918178D01*
X105402331Y-112724607D01*
X105502199Y-112510440D01*
X105563359Y-112282185D01*
X105583955Y-112046777D01*
X105563359Y-111811369D01*
X105502199Y-111583114D01*
X105402331Y-111368948D01*
X105402330Y-111368946D01*
X105266790Y-111175374D01*
X105099699Y-111008283D01*
X105043483Y-110968921D01*
X104942697Y-110898350D01*
X104899074Y-110843776D01*
X104891880Y-110774277D01*
X104923402Y-110711922D01*
X104942694Y-110695205D01*
X105099697Y-110585272D01*
X105266791Y-110418178D01*
X105402331Y-110224607D01*
X105502199Y-110010440D01*
X105563359Y-109782185D01*
X105583955Y-109546777D01*
X105563359Y-109311369D01*
X105502199Y-109083114D01*
X105402331Y-108868948D01*
X105402330Y-108868946D01*
X105266790Y-108675374D01*
X105099699Y-108508283D01*
X105043483Y-108468921D01*
X104942697Y-108398350D01*
X104899074Y-108343776D01*
X104891880Y-108274277D01*
X104923402Y-108211922D01*
X104942694Y-108195205D01*
X105099697Y-108085272D01*
X105266791Y-107918178D01*
X105402331Y-107724607D01*
X105502199Y-107510440D01*
X105563359Y-107282185D01*
X105583955Y-107046777D01*
X105563359Y-106811369D01*
X105502199Y-106583114D01*
X105402331Y-106368948D01*
X105402330Y-106368946D01*
X105266790Y-106175374D01*
X105099698Y-106008282D01*
X104906126Y-105872742D01*
X104906124Y-105872741D01*
X104779566Y-105813726D01*
X104691959Y-105772874D01*
X104691955Y-105772873D01*
X104691951Y-105772871D01*
X104463709Y-105711715D01*
X104463699Y-105711713D01*
X104287262Y-105696277D01*
X104264000Y-105696277D01*
X104196961Y-105676592D01*
X104151206Y-105623788D01*
X104140000Y-105572277D01*
X104140000Y-102663725D01*
X110279341Y-102663725D01*
X110299936Y-102899128D01*
X110299938Y-102899138D01*
X110361094Y-103127380D01*
X110361096Y-103127384D01*
X110361097Y-103127388D01*
X110411031Y-103234471D01*
X110460964Y-103341553D01*
X110460965Y-103341555D01*
X110596505Y-103535127D01*
X110743704Y-103682326D01*
X110777189Y-103743649D01*
X110772205Y-103813341D01*
X110730333Y-103869274D01*
X110721120Y-103875545D01*
X110566347Y-103971010D01*
X110566343Y-103971013D01*
X110442289Y-104095067D01*
X110350187Y-104244388D01*
X110350186Y-104244391D01*
X110295001Y-104410928D01*
X110295001Y-104410929D01*
X110295000Y-104410929D01*
X110284500Y-104513708D01*
X110284500Y-105813726D01*
X110284501Y-105813743D01*
X110295000Y-105916521D01*
X110295001Y-105916524D01*
X110310118Y-105962143D01*
X110350186Y-106083059D01*
X110442288Y-106232381D01*
X110566344Y-106356437D01*
X110715666Y-106448539D01*
X110882203Y-106503724D01*
X110984991Y-106514225D01*
X112535008Y-106514224D01*
X112637797Y-106503724D01*
X112804334Y-106448539D01*
X112953656Y-106356437D01*
X113077712Y-106232381D01*
X113169814Y-106083059D01*
X113224999Y-105916522D01*
X113227208Y-105894902D01*
X119765614Y-105894902D01*
X119785400Y-106083158D01*
X119785401Y-106083161D01*
X119843892Y-106263179D01*
X119843895Y-106263186D01*
X119938541Y-106427118D01*
X120007517Y-106503723D01*
X120065203Y-106567790D01*
X120218339Y-106679050D01*
X120218344Y-106679053D01*
X120391266Y-106756044D01*
X120391271Y-106756046D01*
X120576428Y-106795402D01*
X120576429Y-106795402D01*
X120765718Y-106795402D01*
X120765720Y-106795402D01*
X120950877Y-106756046D01*
X121123804Y-106679053D01*
X121276945Y-106567790D01*
X121403607Y-106427118D01*
X121498253Y-106263186D01*
X121556748Y-106083158D01*
X121569467Y-105962143D01*
X144496153Y-105962143D01*
X144515939Y-106150399D01*
X144515940Y-106150402D01*
X144574431Y-106330420D01*
X144574434Y-106330427D01*
X144669080Y-106494359D01*
X144735198Y-106567790D01*
X144795742Y-106635031D01*
X144948878Y-106746291D01*
X144948883Y-106746294D01*
X145121805Y-106823285D01*
X145121810Y-106823287D01*
X145306967Y-106862643D01*
X145306968Y-106862643D01*
X145496257Y-106862643D01*
X145496259Y-106862643D01*
X145681416Y-106823287D01*
X145854343Y-106746294D01*
X146007484Y-106635031D01*
X146134146Y-106494359D01*
X146228792Y-106330427D01*
X146287287Y-106150399D01*
X146307073Y-105962143D01*
X146287287Y-105773887D01*
X146228792Y-105593859D01*
X146134146Y-105429927D01*
X146007484Y-105289255D01*
X146007483Y-105289254D01*
X145854347Y-105177994D01*
X145854342Y-105177991D01*
X145681420Y-105101000D01*
X145681415Y-105100998D01*
X145535614Y-105070008D01*
X145496259Y-105061643D01*
X145306967Y-105061643D01*
X145274510Y-105068541D01*
X145121810Y-105100998D01*
X145121805Y-105101000D01*
X144948883Y-105177991D01*
X144948878Y-105177994D01*
X144795742Y-105289254D01*
X144669079Y-105429928D01*
X144574434Y-105593858D01*
X144574431Y-105593865D01*
X144516269Y-105772871D01*
X144515939Y-105773887D01*
X144496153Y-105962143D01*
X121569467Y-105962143D01*
X121576534Y-105894902D01*
X121556748Y-105706646D01*
X121498253Y-105526618D01*
X121403607Y-105362686D01*
X121276945Y-105222014D01*
X121276944Y-105222013D01*
X121123808Y-105110753D01*
X121123803Y-105110750D01*
X120950881Y-105033759D01*
X120950876Y-105033757D01*
X120805075Y-105002767D01*
X120765720Y-104994402D01*
X120576428Y-104994402D01*
X120543971Y-105001300D01*
X120391271Y-105033757D01*
X120391266Y-105033759D01*
X120218344Y-105110750D01*
X120218339Y-105110753D01*
X120065203Y-105222013D01*
X119938540Y-105362687D01*
X119843895Y-105526617D01*
X119843892Y-105526624D01*
X119812322Y-105623788D01*
X119785400Y-105706646D01*
X119765614Y-105894902D01*
X113227208Y-105894902D01*
X113235500Y-105813734D01*
X113235499Y-104513717D01*
X113224999Y-104410928D01*
X113169814Y-104244391D01*
X113077712Y-104095069D01*
X112953656Y-103971013D01*
X112872658Y-103921053D01*
X112798879Y-103875546D01*
X112752155Y-103823598D01*
X112740932Y-103754635D01*
X112768776Y-103690553D01*
X112776295Y-103682326D01*
X112923495Y-103535126D01*
X113059035Y-103341555D01*
X113158903Y-103127388D01*
X113220063Y-102899133D01*
X113240659Y-102663725D01*
X113220063Y-102428317D01*
X113158903Y-102200062D01*
X113059035Y-101985896D01*
X113059034Y-101985894D01*
X112923494Y-101792322D01*
X112756403Y-101625231D01*
X112700187Y-101585869D01*
X112599401Y-101515298D01*
X112555778Y-101460724D01*
X112548584Y-101391225D01*
X112580106Y-101328870D01*
X112599398Y-101312153D01*
X112756401Y-101202220D01*
X112923495Y-101035126D01*
X113059035Y-100841555D01*
X113158903Y-100627388D01*
X113220063Y-100399133D01*
X113240659Y-100163725D01*
X113220063Y-99928317D01*
X113158903Y-99700062D01*
X113059035Y-99485896D01*
X113059034Y-99485894D01*
X112923494Y-99292322D01*
X112756403Y-99125231D01*
X112691356Y-99079685D01*
X112599401Y-99015298D01*
X112555778Y-98960724D01*
X112548584Y-98891225D01*
X112580106Y-98828870D01*
X112599398Y-98812153D01*
X112756401Y-98702220D01*
X112923495Y-98535126D01*
X113059035Y-98341555D01*
X113158903Y-98127388D01*
X113220063Y-97899133D01*
X113240659Y-97663725D01*
X113220063Y-97428317D01*
X113158903Y-97200062D01*
X113059035Y-96985896D01*
X113059034Y-96985894D01*
X112923494Y-96792322D01*
X112756402Y-96625230D01*
X112562830Y-96489690D01*
X112562828Y-96489689D01*
X112455746Y-96439756D01*
X112348663Y-96389822D01*
X112348659Y-96389821D01*
X112348655Y-96389819D01*
X112120413Y-96328663D01*
X112120403Y-96328661D01*
X111943966Y-96313225D01*
X111576034Y-96313225D01*
X111399596Y-96328661D01*
X111399586Y-96328663D01*
X111171344Y-96389819D01*
X111171335Y-96389823D01*
X110957171Y-96489689D01*
X110957169Y-96489690D01*
X110763597Y-96625230D01*
X110596506Y-96792322D01*
X110596501Y-96792329D01*
X110460967Y-96985890D01*
X110460965Y-96985894D01*
X110361098Y-97200060D01*
X110361094Y-97200069D01*
X110299938Y-97428311D01*
X110299936Y-97428321D01*
X110279341Y-97663724D01*
X110279341Y-97663725D01*
X110299936Y-97899128D01*
X110299938Y-97899138D01*
X110361094Y-98127380D01*
X110361096Y-98127384D01*
X110361097Y-98127388D01*
X110392035Y-98193734D01*
X110460964Y-98341553D01*
X110460965Y-98341555D01*
X110596505Y-98535127D01*
X110763597Y-98702219D01*
X110920595Y-98812150D01*
X110964220Y-98866727D01*
X110971414Y-98936225D01*
X110939891Y-98998580D01*
X110920595Y-99015300D01*
X110763597Y-99125230D01*
X110596506Y-99292322D01*
X110596501Y-99292329D01*
X110460967Y-99485890D01*
X110460965Y-99485894D01*
X110361098Y-99700060D01*
X110361094Y-99700069D01*
X110299938Y-99928311D01*
X110299936Y-99928321D01*
X110279341Y-100163724D01*
X110279341Y-100163725D01*
X110299936Y-100399128D01*
X110299938Y-100399138D01*
X110361094Y-100627380D01*
X110361096Y-100627384D01*
X110361097Y-100627388D01*
X110411031Y-100734471D01*
X110460964Y-100841553D01*
X110460965Y-100841555D01*
X110596505Y-101035127D01*
X110763597Y-101202219D01*
X110920595Y-101312150D01*
X110964220Y-101366727D01*
X110971414Y-101436225D01*
X110939891Y-101498580D01*
X110920595Y-101515300D01*
X110763597Y-101625230D01*
X110596506Y-101792322D01*
X110596501Y-101792329D01*
X110460967Y-101985890D01*
X110460965Y-101985894D01*
X110361098Y-102200060D01*
X110361094Y-102200069D01*
X110299938Y-102428311D01*
X110299936Y-102428321D01*
X110279341Y-102663724D01*
X110279341Y-102663725D01*
X104140000Y-102663725D01*
X104140000Y-99018224D01*
X104159685Y-98951185D01*
X104212489Y-98905430D01*
X104263998Y-98894224D01*
X104915008Y-98894224D01*
X105017797Y-98883724D01*
X105184334Y-98828539D01*
X105333656Y-98736437D01*
X105457712Y-98612381D01*
X105549814Y-98463059D01*
X105604999Y-98296522D01*
X105615500Y-98193734D01*
X105615499Y-96893717D01*
X105604999Y-96790928D01*
X105549814Y-96624391D01*
X105457712Y-96475069D01*
X105333656Y-96351013D01*
X105252658Y-96301053D01*
X105178879Y-96255546D01*
X105132155Y-96203598D01*
X105120932Y-96134635D01*
X105148776Y-96070553D01*
X105156295Y-96062326D01*
X105303495Y-95915126D01*
X105439035Y-95721555D01*
X105538903Y-95507388D01*
X105600063Y-95279133D01*
X105620659Y-95043725D01*
X105600063Y-94808317D01*
X105538903Y-94580062D01*
X105439035Y-94365896D01*
X105439034Y-94365894D01*
X105303494Y-94172322D01*
X105136403Y-94005231D01*
X105080187Y-93965869D01*
X104979401Y-93895298D01*
X104935778Y-93840724D01*
X104928584Y-93771225D01*
X104960106Y-93708870D01*
X104979398Y-93692153D01*
X105136401Y-93582220D01*
X105303495Y-93415126D01*
X105439035Y-93221555D01*
X105448300Y-93201686D01*
X119820326Y-93201686D01*
X119840112Y-93389942D01*
X119840113Y-93389945D01*
X119898604Y-93569963D01*
X119898607Y-93569970D01*
X119993253Y-93733902D01*
X120013733Y-93756647D01*
X120119915Y-93874574D01*
X120273051Y-93985834D01*
X120273056Y-93985837D01*
X120445978Y-94062828D01*
X120445983Y-94062830D01*
X120631140Y-94102186D01*
X120631141Y-94102186D01*
X120820430Y-94102186D01*
X120820432Y-94102186D01*
X121005589Y-94062830D01*
X121178516Y-93985837D01*
X121331657Y-93874574D01*
X121458319Y-93733902D01*
X121552965Y-93569970D01*
X121611460Y-93389942D01*
X121631246Y-93201686D01*
X121611460Y-93013430D01*
X121552965Y-92833402D01*
X121458319Y-92669470D01*
X121331657Y-92528798D01*
X121331656Y-92528797D01*
X121178520Y-92417537D01*
X121178515Y-92417534D01*
X121005593Y-92340543D01*
X121005588Y-92340541D01*
X120853953Y-92308311D01*
X120820432Y-92301186D01*
X120631140Y-92301186D01*
X120598683Y-92308084D01*
X120445983Y-92340541D01*
X120445978Y-92340543D01*
X120273056Y-92417534D01*
X120273051Y-92417537D01*
X120119915Y-92528797D01*
X119993252Y-92669471D01*
X119898607Y-92833401D01*
X119898604Y-92833408D01*
X119842075Y-93007388D01*
X119840112Y-93013430D01*
X119820326Y-93201686D01*
X105448300Y-93201686D01*
X105538903Y-93007388D01*
X105600063Y-92779133D01*
X105620659Y-92543725D01*
X105600063Y-92308317D01*
X105538903Y-92080062D01*
X105439035Y-91865896D01*
X105439034Y-91865894D01*
X105303494Y-91672322D01*
X105136403Y-91505231D01*
X105080187Y-91465869D01*
X104979401Y-91395298D01*
X104935778Y-91340724D01*
X104928584Y-91271225D01*
X104960106Y-91208870D01*
X104979398Y-91192153D01*
X105136401Y-91082220D01*
X105303495Y-90915126D01*
X105439035Y-90721555D01*
X105538903Y-90507388D01*
X105600063Y-90279133D01*
X105620659Y-90043725D01*
X105600063Y-89808317D01*
X105538903Y-89580062D01*
X105439035Y-89365896D01*
X105439034Y-89365894D01*
X105303494Y-89172322D01*
X105136402Y-89005230D01*
X104942830Y-88869690D01*
X104942828Y-88869689D01*
X104835746Y-88819756D01*
X104728663Y-88769822D01*
X104728659Y-88769821D01*
X104728655Y-88769819D01*
X104500413Y-88708663D01*
X104500403Y-88708661D01*
X104323966Y-88693225D01*
X104264000Y-88693225D01*
X104196961Y-88673540D01*
X104151206Y-88620736D01*
X104140000Y-88569225D01*
X104140000Y-85516485D01*
X116859097Y-85516485D01*
X116879692Y-85751888D01*
X116879694Y-85751898D01*
X116940850Y-85980140D01*
X116940852Y-85980144D01*
X116940853Y-85980148D01*
X116947346Y-85994072D01*
X117040721Y-86194315D01*
X117040723Y-86194319D01*
X117149037Y-86349006D01*
X117176261Y-86387886D01*
X117343355Y-86554980D01*
X117440140Y-86622750D01*
X117536921Y-86690517D01*
X117536923Y-86690518D01*
X117536926Y-86690520D01*
X117751093Y-86790388D01*
X117979348Y-86851548D01*
X118167674Y-86868024D01*
X118214755Y-86872144D01*
X118214756Y-86872144D01*
X118214757Y-86872144D01*
X118253990Y-86868711D01*
X118450164Y-86851548D01*
X118678419Y-86790388D01*
X118892586Y-86690520D01*
X119086157Y-86554980D01*
X119253251Y-86387886D01*
X119388791Y-86194315D01*
X119488659Y-85980148D01*
X119549819Y-85751893D01*
X119570415Y-85516485D01*
X119549819Y-85281077D01*
X119488659Y-85052822D01*
X119388791Y-84838656D01*
X119336505Y-84763984D01*
X119253252Y-84645085D01*
X119219484Y-84611317D01*
X119131323Y-84523156D01*
X119097840Y-84461836D01*
X119102824Y-84392144D01*
X119144695Y-84336210D01*
X119175671Y-84319295D01*
X119307087Y-84270281D01*
X119422302Y-84184031D01*
X119508552Y-84068816D01*
X119558847Y-83933968D01*
X119565256Y-83874358D01*
X119565255Y-82078613D01*
X119558847Y-82019002D01*
X119508552Y-81884154D01*
X119508551Y-81884153D01*
X119508549Y-81884149D01*
X119422303Y-81768940D01*
X119422300Y-81768937D01*
X119307091Y-81682691D01*
X119307084Y-81682687D01*
X119172238Y-81632393D01*
X119172239Y-81632393D01*
X119112639Y-81625986D01*
X119112637Y-81625985D01*
X119112629Y-81625985D01*
X119112620Y-81625985D01*
X117316885Y-81625985D01*
X117316879Y-81625986D01*
X117257272Y-81632393D01*
X117122427Y-81682687D01*
X117122420Y-81682691D01*
X117007211Y-81768937D01*
X117007208Y-81768940D01*
X116920962Y-81884149D01*
X116920958Y-81884156D01*
X116870664Y-82019002D01*
X116864257Y-82078601D01*
X116864257Y-82078608D01*
X116864256Y-82078620D01*
X116864256Y-83874355D01*
X116864257Y-83874361D01*
X116870664Y-83933968D01*
X116920958Y-84068813D01*
X116920962Y-84068820D01*
X117007208Y-84184029D01*
X117007211Y-84184032D01*
X117122420Y-84270278D01*
X117122427Y-84270282D01*
X117253837Y-84319295D01*
X117309771Y-84361166D01*
X117334188Y-84426630D01*
X117319336Y-84494903D01*
X117298186Y-84523158D01*
X117176259Y-84645085D01*
X117040721Y-84838654D01*
X117040720Y-84838656D01*
X116940854Y-85052820D01*
X116940850Y-85052829D01*
X116879694Y-85281071D01*
X116879692Y-85281081D01*
X116859097Y-85516484D01*
X116859097Y-85516485D01*
X104140000Y-85516485D01*
X104140000Y-83562417D01*
X110329105Y-83562417D01*
X110348891Y-83750673D01*
X110348892Y-83750676D01*
X110407383Y-83930694D01*
X110407386Y-83930701D01*
X110502032Y-84094633D01*
X110603608Y-84207444D01*
X110628694Y-84235305D01*
X110781830Y-84346565D01*
X110781835Y-84346568D01*
X110954757Y-84423559D01*
X110954762Y-84423561D01*
X111139919Y-84462917D01*
X111139920Y-84462917D01*
X111329209Y-84462917D01*
X111329211Y-84462917D01*
X111514368Y-84423561D01*
X111687295Y-84346568D01*
X111840436Y-84235305D01*
X111967098Y-84094633D01*
X112061744Y-83930701D01*
X112120239Y-83750673D01*
X112140025Y-83562417D01*
X112120239Y-83374161D01*
X112061744Y-83194133D01*
X111967098Y-83030201D01*
X111840436Y-82889529D01*
X111840435Y-82889528D01*
X111687299Y-82778268D01*
X111687294Y-82778265D01*
X111514372Y-82701274D01*
X111514367Y-82701272D01*
X111368566Y-82670282D01*
X111329211Y-82661917D01*
X111139919Y-82661917D01*
X111107462Y-82668815D01*
X110954762Y-82701272D01*
X110954757Y-82701274D01*
X110781835Y-82778265D01*
X110781830Y-82778268D01*
X110628694Y-82889528D01*
X110502031Y-83030202D01*
X110407386Y-83194132D01*
X110407383Y-83194139D01*
X110374628Y-83294950D01*
X110348891Y-83374161D01*
X110329105Y-83562417D01*
X104140000Y-83562417D01*
X104140000Y-81304003D01*
X104159685Y-81236964D01*
X104212489Y-81191209D01*
X104281647Y-81181265D01*
X104298451Y-81185486D01*
X104298549Y-81185123D01*
X104409826Y-81214939D01*
X104532034Y-81247684D01*
X104708476Y-81263121D01*
X105076408Y-81263121D01*
X105252850Y-81247684D01*
X105481105Y-81186524D01*
X105695271Y-81086656D01*
X105888843Y-80951116D01*
X106055937Y-80784022D01*
X106191477Y-80590451D01*
X106291345Y-80376284D01*
X106352505Y-80148029D01*
X106361155Y-80049156D01*
X112655940Y-80049156D01*
X112675726Y-80237412D01*
X112675727Y-80237415D01*
X112734218Y-80417433D01*
X112734221Y-80417440D01*
X112828867Y-80581372D01*
X112908101Y-80669370D01*
X112955529Y-80722044D01*
X113108665Y-80833304D01*
X113108670Y-80833307D01*
X113281592Y-80910298D01*
X113281597Y-80910300D01*
X113466754Y-80949656D01*
X113466755Y-80949656D01*
X113656044Y-80949656D01*
X113656046Y-80949656D01*
X113841203Y-80910300D01*
X114014130Y-80833307D01*
X114167271Y-80722044D01*
X114293933Y-80581372D01*
X114351817Y-80481114D01*
X119738258Y-80481114D01*
X119758044Y-80669370D01*
X119758045Y-80669373D01*
X119816536Y-80849391D01*
X119816539Y-80849398D01*
X119911185Y-81013330D01*
X120009709Y-81122752D01*
X120037847Y-81154002D01*
X120190983Y-81265262D01*
X120190988Y-81265265D01*
X120363910Y-81342256D01*
X120363915Y-81342258D01*
X120549072Y-81381614D01*
X120549073Y-81381614D01*
X120738362Y-81381614D01*
X120738364Y-81381614D01*
X120923521Y-81342258D01*
X121096448Y-81265265D01*
X121249589Y-81154002D01*
X121376251Y-81013330D01*
X121470897Y-80849398D01*
X121529392Y-80669370D01*
X121537677Y-80590538D01*
X144468144Y-80590538D01*
X144487930Y-80778794D01*
X144487931Y-80778797D01*
X144546422Y-80958815D01*
X144546425Y-80958822D01*
X144641071Y-81122754D01*
X144753557Y-81247682D01*
X144767733Y-81263426D01*
X144920869Y-81374686D01*
X144920874Y-81374689D01*
X145093796Y-81451680D01*
X145093801Y-81451682D01*
X145278958Y-81491038D01*
X145278959Y-81491038D01*
X145468248Y-81491038D01*
X145468250Y-81491038D01*
X145653407Y-81451682D01*
X145826334Y-81374689D01*
X145979475Y-81263426D01*
X146106137Y-81122754D01*
X146200783Y-80958822D01*
X146201821Y-80955626D01*
X156332819Y-80955626D01*
X156352605Y-81143882D01*
X156352606Y-81143885D01*
X156411097Y-81323903D01*
X156411100Y-81323910D01*
X156505746Y-81487842D01*
X156508624Y-81491038D01*
X156632408Y-81628514D01*
X156785544Y-81739774D01*
X156785549Y-81739777D01*
X156958471Y-81816768D01*
X156958476Y-81816770D01*
X157143633Y-81856126D01*
X157143634Y-81856126D01*
X157332923Y-81856126D01*
X157332925Y-81856126D01*
X157518082Y-81816770D01*
X157691009Y-81739777D01*
X157844150Y-81628514D01*
X157970812Y-81487842D01*
X158065458Y-81323910D01*
X158123953Y-81143882D01*
X158143739Y-80955626D01*
X158123953Y-80767370D01*
X158066496Y-80590538D01*
X158065460Y-80587348D01*
X158065459Y-80587347D01*
X158065458Y-80587342D01*
X157970812Y-80423410D01*
X157844150Y-80282738D01*
X157844149Y-80282737D01*
X157691013Y-80171477D01*
X157691008Y-80171474D01*
X157518086Y-80094483D01*
X157518081Y-80094481D01*
X157372280Y-80063491D01*
X157332925Y-80055126D01*
X157143633Y-80055126D01*
X157111176Y-80062024D01*
X156958476Y-80094481D01*
X156958471Y-80094483D01*
X156785549Y-80171474D01*
X156785544Y-80171477D01*
X156632408Y-80282737D01*
X156505745Y-80423411D01*
X156411100Y-80587341D01*
X156411097Y-80587348D01*
X156384447Y-80669370D01*
X156352605Y-80767370D01*
X156332819Y-80955626D01*
X146201821Y-80955626D01*
X146259278Y-80778794D01*
X146279064Y-80590538D01*
X146259278Y-80402282D01*
X146200783Y-80222254D01*
X146106137Y-80058322D01*
X145979475Y-79917650D01*
X145979474Y-79917649D01*
X145826338Y-79806389D01*
X145826333Y-79806386D01*
X145653411Y-79729395D01*
X145653406Y-79729393D01*
X145500825Y-79696962D01*
X145468250Y-79690038D01*
X145278958Y-79690038D01*
X145246501Y-79696936D01*
X145093801Y-79729393D01*
X145093796Y-79729395D01*
X144920874Y-79806386D01*
X144920869Y-79806389D01*
X144767733Y-79917649D01*
X144641070Y-80058323D01*
X144546425Y-80222253D01*
X144546422Y-80222260D01*
X144496380Y-80376276D01*
X144487930Y-80402282D01*
X144468144Y-80590538D01*
X121537677Y-80590538D01*
X121549178Y-80481114D01*
X121529392Y-80292858D01*
X121470897Y-80112830D01*
X121376251Y-79948898D01*
X121249589Y-79808226D01*
X121247058Y-79806387D01*
X121096452Y-79696965D01*
X121096447Y-79696962D01*
X120923525Y-79619971D01*
X120923520Y-79619969D01*
X120777719Y-79588979D01*
X120738364Y-79580614D01*
X120549072Y-79580614D01*
X120516615Y-79587512D01*
X120363915Y-79619969D01*
X120363910Y-79619971D01*
X120190988Y-79696962D01*
X120190983Y-79696965D01*
X120037847Y-79808225D01*
X119911184Y-79948899D01*
X119816539Y-80112829D01*
X119816536Y-80112836D01*
X119761332Y-80282738D01*
X119758044Y-80292858D01*
X119738258Y-80481114D01*
X114351817Y-80481114D01*
X114388579Y-80417440D01*
X114447074Y-80237412D01*
X114466860Y-80049156D01*
X114447074Y-79860900D01*
X114388579Y-79680872D01*
X114293933Y-79516940D01*
X114167271Y-79376268D01*
X114167270Y-79376267D01*
X114014134Y-79265007D01*
X114014129Y-79265004D01*
X113841207Y-79188013D01*
X113841202Y-79188011D01*
X113695401Y-79157021D01*
X113656046Y-79148656D01*
X113466754Y-79148656D01*
X113434297Y-79155554D01*
X113281597Y-79188011D01*
X113281592Y-79188013D01*
X113108670Y-79265004D01*
X113108665Y-79265007D01*
X112955529Y-79376267D01*
X112828866Y-79516941D01*
X112734221Y-79680871D01*
X112734218Y-79680878D01*
X112675727Y-79860896D01*
X112675726Y-79860900D01*
X112655940Y-80049156D01*
X106361155Y-80049156D01*
X106373101Y-79912621D01*
X106352505Y-79677213D01*
X106291345Y-79448958D01*
X106191477Y-79234792D01*
X106191476Y-79234790D01*
X106055936Y-79041218D01*
X105888845Y-78874127D01*
X105832629Y-78834765D01*
X105731843Y-78764194D01*
X105688220Y-78709620D01*
X105681026Y-78640121D01*
X105712548Y-78577766D01*
X105731840Y-78561049D01*
X105888843Y-78451116D01*
X106055937Y-78284022D01*
X106191477Y-78090451D01*
X106245257Y-77975119D01*
X153212137Y-77975119D01*
X153231923Y-78163375D01*
X153231924Y-78163378D01*
X153290415Y-78343396D01*
X153290418Y-78343403D01*
X153385064Y-78507335D01*
X153504625Y-78640121D01*
X153511726Y-78648007D01*
X153664862Y-78759267D01*
X153664867Y-78759270D01*
X153837789Y-78836261D01*
X153837794Y-78836263D01*
X154022951Y-78875619D01*
X154022952Y-78875619D01*
X154212241Y-78875619D01*
X154212243Y-78875619D01*
X154397400Y-78836263D01*
X154570327Y-78759270D01*
X154723468Y-78648007D01*
X154850130Y-78507335D01*
X154944776Y-78343403D01*
X155003271Y-78163375D01*
X155023057Y-77975119D01*
X155003271Y-77786863D01*
X154944776Y-77606835D01*
X154850130Y-77442903D01*
X154723468Y-77302231D01*
X154723467Y-77302230D01*
X154570331Y-77190970D01*
X154570326Y-77190967D01*
X154397404Y-77113976D01*
X154397399Y-77113974D01*
X154251598Y-77082984D01*
X154212243Y-77074619D01*
X154022951Y-77074619D01*
X153990494Y-77081517D01*
X153837794Y-77113974D01*
X153837789Y-77113976D01*
X153664867Y-77190967D01*
X153664862Y-77190970D01*
X153511726Y-77302230D01*
X153385063Y-77442904D01*
X153290418Y-77606834D01*
X153290415Y-77606841D01*
X153231924Y-77786859D01*
X153231923Y-77786863D01*
X153212137Y-77975119D01*
X106245257Y-77975119D01*
X106291345Y-77876284D01*
X106352505Y-77648029D01*
X106373101Y-77412621D01*
X106352505Y-77177213D01*
X106291345Y-76948958D01*
X106191477Y-76734792D01*
X106191476Y-76734790D01*
X106055936Y-76541218D01*
X105888845Y-76374127D01*
X105832629Y-76334765D01*
X105731843Y-76264194D01*
X105688220Y-76209620D01*
X105681026Y-76140121D01*
X105712548Y-76077766D01*
X105731840Y-76061049D01*
X105888843Y-75951116D01*
X106055937Y-75784022D01*
X106191477Y-75590451D01*
X106291345Y-75376284D01*
X106352505Y-75148029D01*
X106373101Y-74912621D01*
X106352505Y-74677213D01*
X106291345Y-74448958D01*
X106191477Y-74234792D01*
X106191476Y-74234790D01*
X106055936Y-74041218D01*
X105908737Y-73894019D01*
X105875252Y-73832696D01*
X105880236Y-73763004D01*
X105922108Y-73707071D01*
X105931322Y-73700799D01*
X105936776Y-73697435D01*
X106086098Y-73605333D01*
X106210154Y-73481277D01*
X106302256Y-73331955D01*
X106357441Y-73165418D01*
X106367942Y-73062630D01*
X106367941Y-71762613D01*
X106357441Y-71659824D01*
X106302256Y-71493287D01*
X106210154Y-71343965D01*
X106086098Y-71219909D01*
X105936776Y-71127807D01*
X105770239Y-71072622D01*
X105770237Y-71072621D01*
X105667458Y-71062121D01*
X104264000Y-71062121D01*
X104196961Y-71042436D01*
X104151206Y-70989632D01*
X104140000Y-70938121D01*
X104140000Y-63368029D01*
X116865340Y-63368029D01*
X116885139Y-63569060D01*
X116943780Y-63762374D01*
X117041453Y-63945106D01*
X117055695Y-64013508D01*
X117041453Y-64062012D01*
X116944244Y-64243875D01*
X116900517Y-64388029D01*
X117786531Y-64388029D01*
X117792611Y-64388328D01*
X117828578Y-64391870D01*
X117836947Y-64392694D01*
X117802524Y-64430088D01*
X117752251Y-64544699D01*
X117741916Y-64669424D01*
X117772639Y-64790748D01*
X117836196Y-64888029D01*
X116900517Y-64888029D01*
X116944244Y-65032182D01*
X117039417Y-65210238D01*
X117039422Y-65210244D01*
X117167509Y-65366321D01*
X117323586Y-65494408D01*
X117323592Y-65494413D01*
X117501647Y-65589585D01*
X117694869Y-65648199D01*
X117845444Y-65663029D01*
X117870802Y-65663029D01*
X117870802Y-64918646D01*
X117939854Y-64972392D01*
X118058226Y-65013029D01*
X118151875Y-65013029D01*
X118244248Y-64997615D01*
X118354316Y-64938048D01*
X118370802Y-64920139D01*
X118370802Y-65663029D01*
X118396160Y-65663029D01*
X118546734Y-65648199D01*
X118739956Y-65589585D01*
X118918011Y-65494413D01*
X118918017Y-65494408D01*
X119074094Y-65366321D01*
X119202181Y-65210244D01*
X119202186Y-65210238D01*
X119297359Y-65032182D01*
X119341087Y-64888029D01*
X118400362Y-64888029D01*
X118439080Y-64845970D01*
X118489353Y-64731359D01*
X118499688Y-64606634D01*
X118468965Y-64485310D01*
X118408226Y-64392342D01*
X118413025Y-64391870D01*
X118448993Y-64388328D01*
X118455073Y-64388029D01*
X119341087Y-64388029D01*
X119297359Y-64243877D01*
X119200150Y-64062014D01*
X119185908Y-63993611D01*
X119200150Y-63945107D01*
X119297823Y-63762374D01*
X119297823Y-63762373D01*
X119297825Y-63762370D01*
X119356464Y-63569062D01*
X119376264Y-63368029D01*
X119356464Y-63166996D01*
X119297825Y-62973688D01*
X119297823Y-62973685D01*
X119297496Y-62972605D01*
X119296872Y-62902738D01*
X119311271Y-62873652D01*
X119310346Y-62873147D01*
X119314595Y-62865364D01*
X119314594Y-62865364D01*
X119314598Y-62865360D01*
X119364893Y-62730512D01*
X119371302Y-62670902D01*
X119371301Y-61525157D01*
X119364893Y-61465546D01*
X119314598Y-61330698D01*
X119314597Y-61330697D01*
X119314595Y-61330693D01*
X119228349Y-61215484D01*
X119228346Y-61215481D01*
X119113137Y-61129235D01*
X119113130Y-61129231D01*
X118978284Y-61078937D01*
X118978285Y-61078937D01*
X118918685Y-61072530D01*
X118918683Y-61072529D01*
X118918675Y-61072529D01*
X118918666Y-61072529D01*
X117322931Y-61072529D01*
X117322925Y-61072530D01*
X117263318Y-61078937D01*
X117128473Y-61129231D01*
X117128466Y-61129235D01*
X117013257Y-61215481D01*
X117013254Y-61215484D01*
X116927008Y-61330693D01*
X116927004Y-61330700D01*
X116876710Y-61465546D01*
X116874319Y-61487792D01*
X116870303Y-61525152D01*
X116870302Y-61525164D01*
X116870302Y-62670899D01*
X116870303Y-62670905D01*
X116876710Y-62730512D01*
X116927004Y-62865357D01*
X116931256Y-62873143D01*
X116929180Y-62874276D01*
X116949131Y-62927759D01*
X116944108Y-62972604D01*
X116885139Y-63166997D01*
X116865340Y-63368029D01*
X104140000Y-63368029D01*
X104140000Y-58544000D01*
X104159685Y-58476961D01*
X104212489Y-58431206D01*
X104264000Y-58420000D01*
X144641445Y-58420000D01*
X144708484Y-58439685D01*
G37*
%TD.AperFunction*%
%TD*%
M02*
