%TF.GenerationSoftware,KiCad,Pcbnew,7.0.9*%
%TF.CreationDate,2023-12-26T12:13:05+08:00*%
%TF.ProjectId,amp_controller,616d705f-636f-46e7-9472-6f6c6c65722e,rev?*%
%TF.SameCoordinates,Original*%
%TF.FileFunction,Paste,Top*%
%TF.FilePolarity,Positive*%
%FSLAX46Y46*%
G04 Gerber Fmt 4.6, Leading zero omitted, Abs format (unit mm)*
G04 Created by KiCad (PCBNEW 7.0.9) date 2023-12-26 12:13:05*
%MOMM*%
%LPD*%
G01*
G04 APERTURE LIST*
G04 Aperture macros list*
%AMRoundRect*
0 Rectangle with rounded corners*
0 $1 Rounding radius*
0 $2 $3 $4 $5 $6 $7 $8 $9 X,Y pos of 4 corners*
0 Add a 4 corners polygon primitive as box body*
4,1,4,$2,$3,$4,$5,$6,$7,$8,$9,$2,$3,0*
0 Add four circle primitives for the rounded corners*
1,1,$1+$1,$2,$3*
1,1,$1+$1,$4,$5*
1,1,$1+$1,$6,$7*
1,1,$1+$1,$8,$9*
0 Add four rect primitives between the rounded corners*
20,1,$1+$1,$2,$3,$4,$5,0*
20,1,$1+$1,$4,$5,$6,$7,0*
20,1,$1+$1,$6,$7,$8,$9,0*
20,1,$1+$1,$8,$9,$2,$3,0*%
%AMFreePoly0*
4,1,28,0.178017,0.779942,0.347107,0.720775,0.498792,0.625465,0.625465,0.498792,0.720775,0.347107,0.779942,0.178017,0.800000,0.000000,0.779942,-0.178017,0.720775,-0.347107,0.625465,-0.498792,0.498792,-0.625465,0.347107,-0.720775,0.178017,-0.779942,0.000000,-0.800000,-2.200000,-0.800000,-2.205014,-0.794986,-2.244504,-0.794986,-2.324698,-0.756366,-2.380194,-0.686777,-2.400000,-0.600000,
-2.400000,0.600000,-2.380194,0.686777,-2.324698,0.756366,-2.244504,0.794986,-2.205014,0.794986,-2.200000,0.800000,0.000000,0.800000,0.178017,0.779942,0.178017,0.779942,$1*%
%AMFreePoly1*
4,1,29,0.605014,0.794986,0.644504,0.794986,0.724698,0.756366,0.780194,0.686777,0.800000,0.600000,0.800000,-0.600000,0.780194,-0.686777,0.724698,-0.756366,0.644504,-0.794986,0.605014,-0.794986,0.600000,-0.800000,0.000000,-0.800000,-1.600000,-0.800000,-1.778017,-0.779942,-1.947107,-0.720775,-2.098792,-0.625465,-2.225465,-0.498792,-2.320775,-0.347107,-2.379942,-0.178017,-2.400000,0.000000,
-2.379942,0.178017,-2.320775,0.347107,-2.225465,0.498792,-2.098792,0.625465,-1.947107,0.720775,-1.778017,0.779942,-1.600000,0.800000,0.600000,0.800000,0.605014,0.794986,0.605014,0.794986,$1*%
%AMFreePoly2*
4,1,29,1.778017,0.779942,1.947107,0.720775,2.098792,0.625465,2.225465,0.498792,2.320775,0.347107,2.379942,0.178017,2.400000,0.000000,2.379942,-0.178017,2.320775,-0.347107,2.225465,-0.498792,2.098792,-0.625465,1.947107,-0.720775,1.778017,-0.779942,1.600000,-0.800000,0.000000,-0.800000,-0.600000,-0.800000,-0.605014,-0.794986,-0.644504,-0.794986,-0.724698,-0.756366,-0.780194,-0.686777,
-0.800000,-0.600000,-0.800000,0.600000,-0.780194,0.686777,-0.724698,0.756366,-0.644504,0.794986,-0.605014,0.794986,-0.600000,0.800000,1.600000,0.800000,1.778017,0.779942,1.778017,0.779942,$1*%
G04 Aperture macros list end*
%ADD10RoundRect,0.225000X0.225000X0.375000X-0.225000X0.375000X-0.225000X-0.375000X0.225000X-0.375000X0*%
%ADD11RoundRect,0.250000X0.450000X-0.262500X0.450000X0.262500X-0.450000X0.262500X-0.450000X-0.262500X0*%
%ADD12RoundRect,0.250000X-0.475000X0.250000X-0.475000X-0.250000X0.475000X-0.250000X0.475000X0.250000X0*%
%ADD13RoundRect,0.250000X-0.262500X-0.450000X0.262500X-0.450000X0.262500X0.450000X-0.262500X0.450000X0*%
%ADD14RoundRect,0.250000X-0.450000X0.262500X-0.450000X-0.262500X0.450000X-0.262500X0.450000X0.262500X0*%
%ADD15RoundRect,0.250000X0.262500X0.450000X-0.262500X0.450000X-0.262500X-0.450000X0.262500X-0.450000X0*%
%ADD16RoundRect,0.250000X-1.000000X-0.650000X1.000000X-0.650000X1.000000X0.650000X-1.000000X0.650000X0*%
%ADD17RoundRect,0.150000X-0.150000X0.587500X-0.150000X-0.587500X0.150000X-0.587500X0.150000X0.587500X0*%
%ADD18RoundRect,0.112500X-0.187500X-0.112500X0.187500X-0.112500X0.187500X0.112500X-0.187500X0.112500X0*%
%ADD19RoundRect,0.218750X-0.381250X0.218750X-0.381250X-0.218750X0.381250X-0.218750X0.381250X0.218750X0*%
%ADD20RoundRect,0.150000X0.725000X0.150000X-0.725000X0.150000X-0.725000X-0.150000X0.725000X-0.150000X0*%
%ADD21RoundRect,0.112500X0.187500X0.112500X-0.187500X0.112500X-0.187500X-0.112500X0.187500X-0.112500X0*%
%ADD22RoundRect,0.150000X0.587500X0.150000X-0.587500X0.150000X-0.587500X-0.150000X0.587500X-0.150000X0*%
%ADD23RoundRect,0.137500X0.662500X0.137500X-0.662500X0.137500X-0.662500X-0.137500X0.662500X-0.137500X0*%
%ADD24O,1.100000X1.800000*%
%ADD25O,1.050000X1.450000*%
%ADD26FreePoly0,0.000000*%
%ADD27RoundRect,0.800000X-0.800000X0.000000X0.800000X0.000000X0.800000X0.000000X-0.800000X0.000000X0*%
%ADD28FreePoly1,0.000000*%
%ADD29FreePoly2,0.000000*%
%ADD30RoundRect,0.200000X-0.587400X-0.587400X0.587400X-0.587400X0.587400X0.587400X-0.587400X0.587400X0*%
%ADD31C,1.574800*%
%ADD32RoundRect,0.300000X-0.450000X-0.450000X0.450000X-0.450000X0.450000X0.450000X-0.450000X0.450000X0*%
%ADD33RoundRect,0.250000X1.000000X0.650000X-1.000000X0.650000X-1.000000X-0.650000X1.000000X-0.650000X0*%
G04 APERTURE END LIST*
D10*
%TO.C,D5*%
X152420217Y-96565867D03*
X149120217Y-96565867D03*
%TD*%
D11*
%TO.C,R12*%
X167008275Y-108481106D03*
X167008275Y-106656106D03*
%TD*%
D12*
%TO.C,C1*%
X114508211Y-61879728D03*
X114508211Y-63779728D03*
%TD*%
D13*
%TO.C,R2*%
X146977001Y-116051415D03*
X148802001Y-116051415D03*
%TD*%
D14*
%TO.C,R5*%
X167615421Y-116597717D03*
X167615421Y-118422717D03*
%TD*%
D15*
%TO.C,R9*%
X159198992Y-96867389D03*
X157373992Y-96867389D03*
%TD*%
D16*
%TO.C,D1*%
X147542666Y-77957258D03*
X151542666Y-77957258D03*
%TD*%
D13*
%TO.C,R11*%
X155816942Y-87168089D03*
X157641942Y-87168089D03*
%TD*%
D17*
%TO.C,U7*%
X112220047Y-80049996D03*
X110320047Y-80049996D03*
X111270047Y-81924996D03*
%TD*%
D18*
%TO.C,D2*%
X149666306Y-93908402D03*
X151766306Y-93908402D03*
%TD*%
D13*
%TO.C,R3*%
X146967447Y-113563338D03*
X148792447Y-113563338D03*
%TD*%
D19*
%TO.C,FB2*%
X161053164Y-82645755D03*
X161053164Y-84770755D03*
%TD*%
D14*
%TO.C,R10*%
X165574615Y-90861975D03*
X165574615Y-92686975D03*
%TD*%
D17*
%TO.C,Q2*%
X160909919Y-116541619D03*
X159009919Y-116541619D03*
X159959919Y-118416619D03*
%TD*%
%TO.C,Q1*%
X156017316Y-116534348D03*
X154117316Y-116534348D03*
X155067316Y-118409348D03*
%TD*%
D20*
%TO.C,U8*%
X161818529Y-93607910D03*
X161818529Y-92337910D03*
X161818529Y-91067910D03*
X161818529Y-89797910D03*
X156668529Y-89797910D03*
X156668529Y-91067910D03*
X156668529Y-92337910D03*
X156668529Y-93607910D03*
%TD*%
D12*
%TO.C,C4*%
X122188601Y-62935483D03*
X122188601Y-64835483D03*
%TD*%
%TO.C,C3*%
X163504788Y-86066391D03*
X163504788Y-87966391D03*
%TD*%
D17*
%TO.C,Q3*%
X165815462Y-116603396D03*
X163915462Y-116603396D03*
X164865462Y-118478396D03*
%TD*%
D21*
%TO.C,D3*%
X151766306Y-89383315D03*
X149666306Y-89383315D03*
%TD*%
D13*
%TO.C,R8*%
X161397036Y-96881965D03*
X163222036Y-96881965D03*
%TD*%
D22*
%TO.C,U4*%
X150797500Y-85707500D03*
X150797500Y-83807500D03*
X148922500Y-84757500D03*
%TD*%
D12*
%TO.C,C2*%
X147259018Y-93492615D03*
X147259018Y-95392615D03*
%TD*%
D23*
%TO.C,U6*%
X166986039Y-104199970D03*
X166986039Y-102929970D03*
X160486039Y-102929970D03*
X160486039Y-104199970D03*
%TD*%
D13*
%TO.C,R4*%
X146946796Y-111000570D03*
X148771796Y-111000570D03*
%TD*%
D14*
%TO.C,R7*%
X147306307Y-89610529D03*
X147306307Y-91435529D03*
%TD*%
D24*
%TO.C,U1*%
X130335000Y-75579685D03*
D25*
X130635000Y-78609685D03*
X135485000Y-78609685D03*
D24*
X135785000Y-75579685D03*
D26*
X124170000Y-75449685D03*
D27*
X123370000Y-77989685D03*
D28*
X124170000Y-80529685D03*
D27*
X123370000Y-83069685D03*
X123370000Y-85609685D03*
X123370000Y-88149685D03*
X123370000Y-90689685D03*
D28*
X124170000Y-93229685D03*
D27*
X123370000Y-95769685D03*
X123370000Y-98309685D03*
X123370000Y-100849685D03*
X123370000Y-103389685D03*
D28*
X124170000Y-105929685D03*
D27*
X123370000Y-108469685D03*
X123370000Y-111009685D03*
X123370000Y-113549685D03*
X123370000Y-116089685D03*
D28*
X124170000Y-118629685D03*
D27*
X123370000Y-121169685D03*
X123370000Y-123709685D03*
X142750000Y-123709685D03*
X142750000Y-121169685D03*
D29*
X141950000Y-118629685D03*
D27*
X142750000Y-116089685D03*
X142750000Y-113549685D03*
X142750000Y-111009685D03*
X142750000Y-108469685D03*
D29*
X141950000Y-105929685D03*
D27*
X142750000Y-103389685D03*
X142750000Y-100849685D03*
X142750000Y-98309685D03*
X142750000Y-95769685D03*
D29*
X141950000Y-93229685D03*
D27*
X142750000Y-90689685D03*
X142750000Y-88149685D03*
X142750000Y-85609685D03*
X142750000Y-83069685D03*
D29*
X141950000Y-80529685D03*
D27*
X142750000Y-77989685D03*
X142750000Y-75449685D03*
D30*
X133644100Y-105279685D03*
D31*
X136184100Y-105279685D03*
X138724100Y-105279685D03*
D32*
X133060000Y-78579685D03*
X134060000Y-75279685D03*
X132060000Y-75279685D03*
X130560000Y-82079685D03*
X130560000Y-84579685D03*
X130560000Y-87079685D03*
%TD*%
D14*
%TO.C,R1*%
X154019551Y-84535000D03*
X154019551Y-86360000D03*
%TD*%
D19*
%TO.C,FB1*%
X157258318Y-82654270D03*
X157258318Y-84779270D03*
%TD*%
D33*
%TO.C,D4*%
X172925417Y-92224648D03*
X168925417Y-92224648D03*
%TD*%
D11*
%TO.C,R6*%
X153928195Y-92424603D03*
X153928195Y-90599603D03*
%TD*%
M02*
