%TF.GenerationSoftware,KiCad,Pcbnew,8.0.2-1*%
%TF.CreationDate,2024-05-20T08:59:52+08:00*%
%TF.ProjectId,amp_controller,616d705f-636f-46e7-9472-6f6c6c65722e,rev?*%
%TF.SameCoordinates,Original*%
%TF.FileFunction,Soldermask,Top*%
%TF.FilePolarity,Negative*%
%FSLAX46Y46*%
G04 Gerber Fmt 4.6, Leading zero omitted, Abs format (unit mm)*
G04 Created by KiCad (PCBNEW 8.0.2-1) date 2024-05-20 08:59:52*
%MOMM*%
%LPD*%
G01*
G04 APERTURE LIST*
G04 Aperture macros list*
%AMRoundRect*
0 Rectangle with rounded corners*
0 $1 Rounding radius*
0 $2 $3 $4 $5 $6 $7 $8 $9 X,Y pos of 4 corners*
0 Add a 4 corners polygon primitive as box body*
4,1,4,$2,$3,$4,$5,$6,$7,$8,$9,$2,$3,0*
0 Add four circle primitives for the rounded corners*
1,1,$1+$1,$2,$3*
1,1,$1+$1,$4,$5*
1,1,$1+$1,$6,$7*
1,1,$1+$1,$8,$9*
0 Add four rect primitives between the rounded corners*
20,1,$1+$1,$2,$3,$4,$5,0*
20,1,$1+$1,$4,$5,$6,$7,0*
20,1,$1+$1,$6,$7,$8,$9,0*
20,1,$1+$1,$8,$9,$2,$3,0*%
%AMFreePoly0*
4,1,9,3.862500,-0.866500,0.737500,-0.866500,0.737500,-0.450000,-0.737500,-0.450000,-0.737500,0.450000,0.737500,0.450000,0.737500,0.866500,3.862500,0.866500,3.862500,-0.866500,3.862500,-0.866500,$1*%
%AMFreePoly1*
4,1,28,0.178017,0.779942,0.347107,0.720775,0.498792,0.625465,0.625465,0.498792,0.720775,0.347107,0.779942,0.178017,0.800000,0.000000,0.779942,-0.178017,0.720775,-0.347107,0.625465,-0.498792,0.498792,-0.625465,0.347107,-0.720775,0.178017,-0.779942,0.000000,-0.800000,-2.200000,-0.800000,-2.205014,-0.794986,-2.244504,-0.794986,-2.324698,-0.756366,-2.380194,-0.686777,-2.400000,-0.600000,
-2.400000,0.600000,-2.380194,0.686777,-2.324698,0.756366,-2.244504,0.794986,-2.205014,0.794986,-2.200000,0.800000,0.000000,0.800000,0.178017,0.779942,0.178017,0.779942,$1*%
%AMFreePoly2*
4,1,29,0.605014,0.794986,0.644504,0.794986,0.724698,0.756366,0.780194,0.686777,0.800000,0.600000,0.800000,-0.600000,0.780194,-0.686777,0.724698,-0.756366,0.644504,-0.794986,0.605014,-0.794986,0.600000,-0.800000,0.000000,-0.800000,-1.600000,-0.800000,-1.778017,-0.779942,-1.947107,-0.720775,-2.098792,-0.625465,-2.225465,-0.498792,-2.320775,-0.347107,-2.379942,-0.178017,-2.400000,0.000000,
-2.379942,0.178017,-2.320775,0.347107,-2.225465,0.498792,-2.098792,0.625465,-1.947107,0.720775,-1.778017,0.779942,-1.600000,0.800000,0.600000,0.800000,0.605014,0.794986,0.605014,0.794986,$1*%
%AMFreePoly3*
4,1,29,1.778017,0.779942,1.947107,0.720775,2.098792,0.625465,2.225465,0.498792,2.320775,0.347107,2.379942,0.178017,2.400000,0.000000,2.379942,-0.178017,2.320775,-0.347107,2.225465,-0.498792,2.098792,-0.625465,1.947107,-0.720775,1.778017,-0.779942,1.600000,-0.800000,0.000000,-0.800000,-0.600000,-0.800000,-0.605014,-0.794986,-0.644504,-0.794986,-0.724698,-0.756366,-0.780194,-0.686777,
-0.800000,-0.600000,-0.800000,0.600000,-0.780194,0.686777,-0.724698,0.756366,-0.644504,0.794986,-0.605014,0.794986,-0.600000,0.800000,1.600000,0.800000,1.778017,0.779942,1.778017,0.779942,$1*%
G04 Aperture macros list end*
%ADD10R,1.500000X2.500000*%
%ADD11O,1.500000X2.500000*%
%ADD12RoundRect,0.250000X-0.725000X0.600000X-0.725000X-0.600000X0.725000X-0.600000X0.725000X0.600000X0*%
%ADD13O,1.950000X1.700000*%
%ADD14RoundRect,0.250000X0.725000X-0.600000X0.725000X0.600000X-0.725000X0.600000X-0.725000X-0.600000X0*%
%ADD15RoundRect,0.250000X0.262500X0.450000X-0.262500X0.450000X-0.262500X-0.450000X0.262500X-0.450000X0*%
%ADD16RoundRect,0.250000X0.250000X0.475000X-0.250000X0.475000X-0.250000X-0.475000X0.250000X-0.475000X0*%
%ADD17RoundRect,0.250000X-0.262500X-0.450000X0.262500X-0.450000X0.262500X0.450000X-0.262500X0.450000X0*%
%ADD18RoundRect,0.250000X-0.450000X0.262500X-0.450000X-0.262500X0.450000X-0.262500X0.450000X0.262500X0*%
%ADD19RoundRect,0.150000X-0.200000X0.150000X-0.200000X-0.150000X0.200000X-0.150000X0.200000X0.150000X0*%
%ADD20R,1.000000X1.000000*%
%ADD21RoundRect,0.150000X-0.512500X-0.150000X0.512500X-0.150000X0.512500X0.150000X-0.512500X0.150000X0*%
%ADD22RoundRect,0.112500X-0.187500X-0.112500X0.187500X-0.112500X0.187500X0.112500X-0.187500X0.112500X0*%
%ADD23RoundRect,0.150000X-0.587500X-0.150000X0.587500X-0.150000X0.587500X0.150000X-0.587500X0.150000X0*%
%ADD24RoundRect,0.150000X0.150000X0.200000X-0.150000X0.200000X-0.150000X-0.200000X0.150000X-0.200000X0*%
%ADD25R,1.700000X1.700000*%
%ADD26O,1.700000X1.700000*%
%ADD27RoundRect,0.218750X0.381250X-0.218750X0.381250X0.218750X-0.381250X0.218750X-0.381250X-0.218750X0*%
%ADD28RoundRect,0.218750X-0.381250X0.218750X-0.381250X-0.218750X0.381250X-0.218750X0.381250X0.218750X0*%
%ADD29C,3.200000*%
%ADD30RoundRect,0.100000X-0.125000X-0.100000X0.125000X-0.100000X0.125000X0.100000X-0.125000X0.100000X0*%
%ADD31RoundRect,0.250000X-0.750000X0.600000X-0.750000X-0.600000X0.750000X-0.600000X0.750000X0.600000X0*%
%ADD32O,2.000000X1.700000*%
%ADD33RoundRect,0.150000X0.725000X0.150000X-0.725000X0.150000X-0.725000X-0.150000X0.725000X-0.150000X0*%
%ADD34RoundRect,0.150000X-0.150000X-0.200000X0.150000X-0.200000X0.150000X0.200000X-0.150000X0.200000X0*%
%ADD35RoundRect,0.150000X0.150000X-0.587500X0.150000X0.587500X-0.150000X0.587500X-0.150000X-0.587500X0*%
%ADD36R,2.400000X2.400000*%
%ADD37C,2.400000*%
%ADD38RoundRect,0.250000X-0.475000X0.250000X-0.475000X-0.250000X0.475000X-0.250000X0.475000X0.250000X0*%
%ADD39RoundRect,0.137500X0.137500X-0.662500X0.137500X0.662500X-0.137500X0.662500X-0.137500X-0.662500X0*%
%ADD40RoundRect,0.225000X-0.225000X0.425000X-0.225000X-0.425000X0.225000X-0.425000X0.225000X0.425000X0*%
%ADD41FreePoly0,270.000000*%
%ADD42O,1.100000X1.800000*%
%ADD43O,1.050000X1.450000*%
%ADD44FreePoly1,0.000000*%
%ADD45RoundRect,0.800000X-0.800000X-0.000010X0.800000X-0.000010X0.800000X0.000010X-0.800000X0.000010X0*%
%ADD46FreePoly2,0.000000*%
%ADD47FreePoly3,0.000000*%
%ADD48RoundRect,0.200000X-0.587400X-0.587400X0.587400X-0.587400X0.587400X0.587400X-0.587400X0.587400X0*%
%ADD49C,1.574800*%
%ADD50RoundRect,0.300000X-0.450000X-0.450000X0.450000X-0.450000X0.450000X0.450000X-0.450000X0.450000X0*%
G04 APERTURE END LIST*
D10*
%TO.C,U2*%
X143957597Y-70873725D03*
D11*
X146497597Y-70873725D03*
X149037597Y-70873725D03*
%TD*%
D12*
%TO.C,FP_LED1*%
X157292597Y-114173725D03*
D13*
X157292597Y-116673725D03*
X157292597Y-119173725D03*
X157292597Y-121673725D03*
%TD*%
D14*
%TO.C,DISPLAY1*%
X109704930Y-84021376D03*
D13*
X109704930Y-81521376D03*
X109704930Y-79021376D03*
X109704930Y-76521376D03*
%TD*%
D14*
%TO.C,AMP1*%
X116987597Y-113358725D03*
D13*
X116987597Y-110858725D03*
X116987597Y-108358725D03*
X116987597Y-105858725D03*
%TD*%
D15*
%TO.C,R12*%
X151715168Y-107703725D03*
X149890168Y-107703725D03*
%TD*%
D16*
%TO.C,C1*%
X158811913Y-65911423D03*
X156911913Y-65911423D03*
%TD*%
D17*
%TO.C,R2*%
X145972802Y-116054713D03*
X147797802Y-116054713D03*
%TD*%
D12*
%TO.C,MUSIC_THRU1*%
X165031560Y-78573725D03*
D13*
X165031560Y-81073725D03*
X165031560Y-83573725D03*
%TD*%
D18*
%TO.C,R5*%
X153482597Y-110601225D03*
X153482597Y-112426225D03*
%TD*%
D15*
%TO.C,R9*%
X159117597Y-85478725D03*
X157292597Y-85478725D03*
%TD*%
D19*
%TO.C,D1*%
X146712152Y-77068725D03*
X146712152Y-75668725D03*
%TD*%
D20*
%TO.C,TPVR1*%
X148211380Y-79611496D03*
%TD*%
D21*
%TO.C,U5*%
X145999262Y-97197803D03*
X145999262Y-98147803D03*
X145999262Y-99097803D03*
X148274262Y-99097803D03*
X148274262Y-98147803D03*
X148274262Y-97197803D03*
%TD*%
D22*
%TO.C,Z1*%
X148819351Y-94485185D03*
X150919351Y-94485185D03*
%TD*%
D15*
%TO.C,R11*%
X154240829Y-83369506D03*
X152415829Y-83369506D03*
%TD*%
D23*
%TO.C,U7*%
X114777597Y-74368725D03*
X114777597Y-76268725D03*
X116652597Y-75318725D03*
%TD*%
D24*
%TO.C,D2*%
X149128725Y-92138682D03*
X150528725Y-92138682D03*
%TD*%
D17*
%TO.C,R3*%
X145963248Y-113566636D03*
X147788248Y-113566636D03*
%TD*%
D25*
%TO.C,J1*%
X164917597Y-89288725D03*
D26*
X162377597Y-89288725D03*
%TD*%
D27*
%TO.C,FB3*%
X159864343Y-78335784D03*
X159864343Y-76210784D03*
%TD*%
D28*
%TO.C,FB2*%
X157901091Y-76134813D03*
X157901091Y-78259813D03*
%TD*%
D29*
%TO.C,H3*%
X163318523Y-68341158D03*
%TD*%
D20*
%TO.C,TPAG1*%
X159091346Y-95867811D03*
%TD*%
D15*
%TO.C,R10*%
X154213610Y-81216412D03*
X152388610Y-81216412D03*
%TD*%
D30*
%TO.C,Q2*%
X149328274Y-113168955D03*
X149328274Y-113968955D03*
X150478274Y-113568955D03*
%TD*%
D29*
%TO.C,H4*%
X163360322Y-120464439D03*
%TD*%
D30*
%TO.C,Q1*%
X149326602Y-115666166D03*
X149326602Y-116466166D03*
X150476602Y-116066166D03*
%TD*%
D31*
%TO.C,TRIGGER1*%
X164912597Y-107703725D03*
D32*
X164912597Y-110203725D03*
%TD*%
D33*
%TO.C,U8*%
X158632597Y-93733725D03*
X158632597Y-92463725D03*
X158632597Y-91193725D03*
X158632597Y-89923725D03*
X153482597Y-89923725D03*
X153482597Y-91193725D03*
X153482597Y-92463725D03*
X153482597Y-93733725D03*
%TD*%
D14*
%TO.C,AMP4*%
X109669355Y-98981975D03*
D13*
X109669355Y-96481975D03*
X109669355Y-93981975D03*
X109669355Y-91481975D03*
%TD*%
D25*
%TO.C,GPIO16\u002C17*%
X147064682Y-121049736D03*
D26*
X149604682Y-121049736D03*
X152144682Y-121049736D03*
%TD*%
D16*
%TO.C,C4*%
X159840177Y-73820920D03*
X157940177Y-73820920D03*
%TD*%
D20*
%TO.C,TPG1*%
X154063475Y-73240747D03*
%TD*%
D16*
%TO.C,C3*%
X159258091Y-81225333D03*
X157358091Y-81225333D03*
%TD*%
D30*
%TO.C,Q3*%
X149380622Y-110577694D03*
X149380622Y-111377694D03*
X150530622Y-110977694D03*
%TD*%
D34*
%TO.C,D3*%
X150536760Y-89517984D03*
X149136760Y-89517984D03*
%TD*%
D15*
%TO.C,R8*%
X159182940Y-83420205D03*
X157357940Y-83420205D03*
%TD*%
D35*
%TO.C,U4*%
X145894017Y-84138610D03*
X147794017Y-84138610D03*
X146844017Y-82263610D03*
%TD*%
D36*
%TO.C,POWER1*%
X123962597Y-69603725D03*
D37*
X120462597Y-69603725D03*
X116962597Y-69603725D03*
%TD*%
D16*
%TO.C,C5*%
X152343788Y-100295237D03*
X150443788Y-100295237D03*
%TD*%
D12*
%TO.C,MUSIC_IN1*%
X164912597Y-95003725D03*
D13*
X164912597Y-97503725D03*
X164912597Y-100003725D03*
%TD*%
D38*
%TO.C,C2*%
X146781769Y-93004226D03*
X146781769Y-94904226D03*
%TD*%
D14*
%TO.C,AMP3*%
X117011573Y-98871566D03*
D13*
X117011573Y-96371566D03*
X117011573Y-93871566D03*
X117011573Y-91371566D03*
%TD*%
D25*
%TO.C,GPIO3\u002C2\u002CG1*%
X117922597Y-79128725D03*
D26*
X117922597Y-81668725D03*
X117922597Y-84208725D03*
%TD*%
D39*
%TO.C,U6*%
X146497597Y-108488725D03*
X147767597Y-108488725D03*
X147767597Y-101988725D03*
X146497597Y-101988725D03*
%TD*%
D17*
%TO.C,R4*%
X145942597Y-111003868D03*
X147767597Y-111003868D03*
%TD*%
D18*
%TO.C,R7*%
X146765981Y-89312749D03*
X146765981Y-91137749D03*
%TD*%
D40*
%TO.C,U3*%
X158549603Y-67924120D03*
D41*
X157049603Y-68011620D03*
D40*
X155549603Y-67924120D03*
%TD*%
D42*
%TO.C,U1*%
X130335000Y-75579685D03*
D43*
X130635000Y-78609685D03*
X135485000Y-78609685D03*
D42*
X135785000Y-75579685D03*
D44*
X124170000Y-75449685D03*
D45*
X123370000Y-77989685D03*
D46*
X124170000Y-80529685D03*
D45*
X123370000Y-83069685D03*
X123370000Y-85609685D03*
X123370000Y-88149685D03*
X123370000Y-90689685D03*
D46*
X124170000Y-93229685D03*
D45*
X123370000Y-95769685D03*
X123370000Y-98309685D03*
X123370000Y-100849685D03*
X123370000Y-103389685D03*
D46*
X124170000Y-105929685D03*
D45*
X123370000Y-108469685D03*
X123370000Y-111009685D03*
X123370000Y-113549685D03*
X123370000Y-116089685D03*
D46*
X124170000Y-118629685D03*
D45*
X123370000Y-121169685D03*
X123370000Y-123709685D03*
X142750000Y-123709685D03*
X142750000Y-121169685D03*
D47*
X141950000Y-118629685D03*
D45*
X142750000Y-116089685D03*
X142750000Y-113549685D03*
X142750000Y-111009685D03*
X142750000Y-108469685D03*
D47*
X141950000Y-105929685D03*
D45*
X142750000Y-103389685D03*
X142750000Y-100849685D03*
X142750000Y-98309685D03*
X142750000Y-95769685D03*
D47*
X141950000Y-93229685D03*
D45*
X142750000Y-90689685D03*
X142750000Y-88149685D03*
X142750000Y-85609685D03*
X142750000Y-83069685D03*
D47*
X141950000Y-80529685D03*
D45*
X142750000Y-77989685D03*
X142750000Y-75449685D03*
D48*
X133644100Y-105279685D03*
D49*
X136184100Y-105279685D03*
X138724100Y-105279685D03*
D50*
X133060000Y-78579685D03*
X134060000Y-75279685D03*
X132060000Y-75279685D03*
X130560000Y-82079685D03*
X130560000Y-84579685D03*
X130560000Y-87079685D03*
%TD*%
D15*
%TO.C,R1*%
X150754599Y-87146713D03*
X148929599Y-87146713D03*
%TD*%
D29*
%TO.C,H2*%
X110937597Y-120403725D03*
%TD*%
D14*
%TO.C,AMP2*%
X109667597Y-113418725D03*
D13*
X109667597Y-110918725D03*
X109667597Y-108418725D03*
X109667597Y-105918725D03*
%TD*%
D28*
%TO.C,FB1*%
X155985156Y-76140423D03*
X155985156Y-78265423D03*
%TD*%
D34*
%TO.C,D4*%
X151467685Y-105163725D03*
X150067685Y-105163725D03*
%TD*%
D15*
%TO.C,R6*%
X154289325Y-85427404D03*
X152464325Y-85427404D03*
%TD*%
D20*
%TO.C,TP-PEAK1*%
X151577597Y-98178725D03*
%TD*%
D12*
%TO.C,FP_BUTTON1*%
X157292597Y-100083725D03*
D13*
X157292597Y-102583725D03*
X157292597Y-105083725D03*
X157292597Y-107583725D03*
%TD*%
D29*
%TO.C,H1*%
X110937597Y-68333725D03*
%TD*%
M02*
