%TF.GenerationSoftware,KiCad,Pcbnew,7.0.9*%
%TF.CreationDate,2023-12-26T12:13:05+08:00*%
%TF.ProjectId,amp_controller,616d705f-636f-46e7-9472-6f6c6c65722e,rev?*%
%TF.SameCoordinates,Original*%
%TF.FileFunction,Legend,Top*%
%TF.FilePolarity,Positive*%
%FSLAX46Y46*%
G04 Gerber Fmt 4.6, Leading zero omitted, Abs format (unit mm)*
G04 Created by KiCad (PCBNEW 7.0.9) date 2023-12-26 12:13:05*
%MOMM*%
%LPD*%
G01*
G04 APERTURE LIST*
G04 Aperture macros list*
%AMRoundRect*
0 Rectangle with rounded corners*
0 $1 Rounding radius*
0 $2 $3 $4 $5 $6 $7 $8 $9 X,Y pos of 4 corners*
0 Add a 4 corners polygon primitive as box body*
4,1,4,$2,$3,$4,$5,$6,$7,$8,$9,$2,$3,0*
0 Add four circle primitives for the rounded corners*
1,1,$1+$1,$2,$3*
1,1,$1+$1,$4,$5*
1,1,$1+$1,$6,$7*
1,1,$1+$1,$8,$9*
0 Add four rect primitives between the rounded corners*
20,1,$1+$1,$2,$3,$4,$5,0*
20,1,$1+$1,$4,$5,$6,$7,0*
20,1,$1+$1,$6,$7,$8,$9,0*
20,1,$1+$1,$8,$9,$2,$3,0*%
%AMFreePoly0*
4,1,28,0.178017,0.779942,0.347107,0.720775,0.498792,0.625465,0.625465,0.498792,0.720775,0.347107,0.779942,0.178017,0.800000,0.000000,0.779942,-0.178017,0.720775,-0.347107,0.625465,-0.498792,0.498792,-0.625465,0.347107,-0.720775,0.178017,-0.779942,0.000000,-0.800000,-2.200000,-0.800000,-2.205014,-0.794986,-2.244504,-0.794986,-2.324698,-0.756366,-2.380194,-0.686777,-2.400000,-0.600000,
-2.400000,0.600000,-2.380194,0.686777,-2.324698,0.756366,-2.244504,0.794986,-2.205014,0.794986,-2.200000,0.800000,0.000000,0.800000,0.178017,0.779942,0.178017,0.779942,$1*%
%AMFreePoly1*
4,1,29,0.605014,0.794986,0.644504,0.794986,0.724698,0.756366,0.780194,0.686777,0.800000,0.600000,0.800000,-0.600000,0.780194,-0.686777,0.724698,-0.756366,0.644504,-0.794986,0.605014,-0.794986,0.600000,-0.800000,0.000000,-0.800000,-1.600000,-0.800000,-1.778017,-0.779942,-1.947107,-0.720775,-2.098792,-0.625465,-2.225465,-0.498792,-2.320775,-0.347107,-2.379942,-0.178017,-2.400000,0.000000,
-2.379942,0.178017,-2.320775,0.347107,-2.225465,0.498792,-2.098792,0.625465,-1.947107,0.720775,-1.778017,0.779942,-1.600000,0.800000,0.600000,0.800000,0.605014,0.794986,0.605014,0.794986,$1*%
%AMFreePoly2*
4,1,29,1.778017,0.779942,1.947107,0.720775,2.098792,0.625465,2.225465,0.498792,2.320775,0.347107,2.379942,0.178017,2.400000,0.000000,2.379942,-0.178017,2.320775,-0.347107,2.225465,-0.498792,2.098792,-0.625465,1.947107,-0.720775,1.778017,-0.779942,1.600000,-0.800000,0.000000,-0.800000,-0.600000,-0.800000,-0.605014,-0.794986,-0.644504,-0.794986,-0.724698,-0.756366,-0.780194,-0.686777,
-0.800000,-0.600000,-0.800000,0.600000,-0.780194,0.686777,-0.724698,0.756366,-0.644504,0.794986,-0.605014,0.794986,-0.600000,0.800000,1.600000,0.800000,1.778017,0.779942,1.778017,0.779942,$1*%
G04 Aperture macros list end*
%ADD10C,0.150000*%
%ADD11C,0.120000*%
%ADD12R,2.500000X1.500000*%
%ADD13O,2.500000X1.500000*%
%ADD14RoundRect,0.225000X0.225000X0.375000X-0.225000X0.375000X-0.225000X-0.375000X0.225000X-0.375000X0*%
%ADD15RoundRect,0.250000X0.600000X0.725000X-0.600000X0.725000X-0.600000X-0.725000X0.600000X-0.725000X0*%
%ADD16O,1.700000X1.950000*%
%ADD17RoundRect,0.250000X0.725000X-0.600000X0.725000X0.600000X-0.725000X0.600000X-0.725000X-0.600000X0*%
%ADD18O,1.950000X1.700000*%
%ADD19RoundRect,0.250000X0.450000X-0.262500X0.450000X0.262500X-0.450000X0.262500X-0.450000X-0.262500X0*%
%ADD20RoundRect,0.250000X-0.475000X0.250000X-0.475000X-0.250000X0.475000X-0.250000X0.475000X0.250000X0*%
%ADD21RoundRect,0.250000X-0.262500X-0.450000X0.262500X-0.450000X0.262500X0.450000X-0.262500X0.450000X0*%
%ADD22RoundRect,0.250000X-0.450000X0.262500X-0.450000X-0.262500X0.450000X-0.262500X0.450000X0.262500X0*%
%ADD23RoundRect,0.250000X0.262500X0.450000X-0.262500X0.450000X-0.262500X-0.450000X0.262500X-0.450000X0*%
%ADD24RoundRect,0.250000X-1.000000X-0.650000X1.000000X-0.650000X1.000000X0.650000X-1.000000X0.650000X0*%
%ADD25RoundRect,0.150000X-0.150000X0.587500X-0.150000X-0.587500X0.150000X-0.587500X0.150000X0.587500X0*%
%ADD26RoundRect,0.112500X-0.187500X-0.112500X0.187500X-0.112500X0.187500X0.112500X-0.187500X0.112500X0*%
%ADD27RoundRect,0.250000X-0.750000X0.600000X-0.750000X-0.600000X0.750000X-0.600000X0.750000X0.600000X0*%
%ADD28O,2.000000X1.700000*%
%ADD29RoundRect,0.218750X-0.381250X0.218750X-0.381250X-0.218750X0.381250X-0.218750X0.381250X0.218750X0*%
%ADD30C,3.200000*%
%ADD31RoundRect,0.150000X0.725000X0.150000X-0.725000X0.150000X-0.725000X-0.150000X0.725000X-0.150000X0*%
%ADD32RoundRect,0.112500X0.187500X0.112500X-0.187500X0.112500X-0.187500X-0.112500X0.187500X-0.112500X0*%
%ADD33RoundRect,0.150000X0.587500X0.150000X-0.587500X0.150000X-0.587500X-0.150000X0.587500X-0.150000X0*%
%ADD34R,2.400000X2.400000*%
%ADD35C,2.400000*%
%ADD36R,1.700000X1.700000*%
%ADD37O,1.700000X1.700000*%
%ADD38RoundRect,0.137500X0.662500X0.137500X-0.662500X0.137500X-0.662500X-0.137500X0.662500X-0.137500X0*%
%ADD39RoundRect,0.250000X-0.725000X0.600000X-0.725000X-0.600000X0.725000X-0.600000X0.725000X0.600000X0*%
%ADD40R,1.500000X1.050000*%
%ADD41O,1.500000X1.050000*%
%ADD42O,1.100000X1.800000*%
%ADD43O,1.050000X1.450000*%
%ADD44FreePoly0,0.000000*%
%ADD45RoundRect,0.800000X-0.800000X0.000000X0.800000X0.000000X0.800000X0.000000X-0.800000X0.000000X0*%
%ADD46FreePoly1,0.000000*%
%ADD47FreePoly2,0.000000*%
%ADD48RoundRect,0.200000X-0.587400X-0.587400X0.587400X-0.587400X0.587400X0.587400X-0.587400X0.587400X0*%
%ADD49C,1.574800*%
%ADD50RoundRect,0.300000X-0.450000X-0.450000X0.450000X-0.450000X0.450000X0.450000X-0.450000X0.450000X0*%
%ADD51RoundRect,0.250000X1.000000X0.650000X-1.000000X0.650000X-1.000000X-0.650000X1.000000X-0.650000X0*%
G04 APERTURE END LIST*
D10*
X152662416Y-55501159D02*
X153471939Y-55501159D01*
X153471939Y-55501159D02*
X153567177Y-55453540D01*
X153567177Y-55453540D02*
X153614797Y-55405921D01*
X153614797Y-55405921D02*
X153662416Y-55310683D01*
X153662416Y-55310683D02*
X153662416Y-55120207D01*
X153662416Y-55120207D02*
X153614797Y-55024969D01*
X153614797Y-55024969D02*
X153567177Y-54977350D01*
X153567177Y-54977350D02*
X153471939Y-54929731D01*
X153471939Y-54929731D02*
X152662416Y-54929731D01*
X152757654Y-54501159D02*
X152710035Y-54453540D01*
X152710035Y-54453540D02*
X152662416Y-54358302D01*
X152662416Y-54358302D02*
X152662416Y-54120207D01*
X152662416Y-54120207D02*
X152710035Y-54024969D01*
X152710035Y-54024969D02*
X152757654Y-53977350D01*
X152757654Y-53977350D02*
X152852892Y-53929731D01*
X152852892Y-53929731D02*
X152948130Y-53929731D01*
X152948130Y-53929731D02*
X153090987Y-53977350D01*
X153090987Y-53977350D02*
X153662416Y-54548778D01*
X153662416Y-54548778D02*
X153662416Y-53929731D01*
X150032122Y-99020686D02*
X150032122Y-98020686D01*
X150032122Y-98020686D02*
X150270217Y-98020686D01*
X150270217Y-98020686D02*
X150413074Y-98068305D01*
X150413074Y-98068305D02*
X150508312Y-98163543D01*
X150508312Y-98163543D02*
X150555931Y-98258781D01*
X150555931Y-98258781D02*
X150603550Y-98449257D01*
X150603550Y-98449257D02*
X150603550Y-98592114D01*
X150603550Y-98592114D02*
X150555931Y-98782590D01*
X150555931Y-98782590D02*
X150508312Y-98877828D01*
X150508312Y-98877828D02*
X150413074Y-98973067D01*
X150413074Y-98973067D02*
X150270217Y-99020686D01*
X150270217Y-99020686D02*
X150032122Y-99020686D01*
X151508312Y-98020686D02*
X151032122Y-98020686D01*
X151032122Y-98020686D02*
X150984503Y-98496876D01*
X150984503Y-98496876D02*
X151032122Y-98449257D01*
X151032122Y-98449257D02*
X151127360Y-98401638D01*
X151127360Y-98401638D02*
X151365455Y-98401638D01*
X151365455Y-98401638D02*
X151460693Y-98449257D01*
X151460693Y-98449257D02*
X151508312Y-98496876D01*
X151508312Y-98496876D02*
X151555931Y-98592114D01*
X151555931Y-98592114D02*
X151555931Y-98830209D01*
X151555931Y-98830209D02*
X151508312Y-98925447D01*
X151508312Y-98925447D02*
X151460693Y-98973067D01*
X151460693Y-98973067D02*
X151365455Y-99020686D01*
X151365455Y-99020686D02*
X151127360Y-99020686D01*
X151127360Y-99020686D02*
X151032122Y-98973067D01*
X151032122Y-98973067D02*
X150984503Y-98925447D01*
X158273197Y-119595590D02*
X157939864Y-119595590D01*
X157939864Y-120119400D02*
X157939864Y-119119400D01*
X157939864Y-119119400D02*
X158416054Y-119119400D01*
X158797007Y-120119400D02*
X158797007Y-119119400D01*
X158797007Y-119119400D02*
X159177959Y-119119400D01*
X159177959Y-119119400D02*
X159273197Y-119167019D01*
X159273197Y-119167019D02*
X159320816Y-119214638D01*
X159320816Y-119214638D02*
X159368435Y-119309876D01*
X159368435Y-119309876D02*
X159368435Y-119452733D01*
X159368435Y-119452733D02*
X159320816Y-119547971D01*
X159320816Y-119547971D02*
X159273197Y-119595590D01*
X159273197Y-119595590D02*
X159177959Y-119643209D01*
X159177959Y-119643209D02*
X158797007Y-119643209D01*
X159558912Y-120214638D02*
X160320816Y-120214638D01*
X161035102Y-120119400D02*
X160558912Y-120119400D01*
X160558912Y-120119400D02*
X160558912Y-119119400D01*
X161368436Y-119595590D02*
X161701769Y-119595590D01*
X161844626Y-120119400D02*
X161368436Y-120119400D01*
X161368436Y-120119400D02*
X161368436Y-119119400D01*
X161368436Y-119119400D02*
X161844626Y-119119400D01*
X162273198Y-120119400D02*
X162273198Y-119119400D01*
X162273198Y-119119400D02*
X162511293Y-119119400D01*
X162511293Y-119119400D02*
X162654150Y-119167019D01*
X162654150Y-119167019D02*
X162749388Y-119262257D01*
X162749388Y-119262257D02*
X162797007Y-119357495D01*
X162797007Y-119357495D02*
X162844626Y-119547971D01*
X162844626Y-119547971D02*
X162844626Y-119690828D01*
X162844626Y-119690828D02*
X162797007Y-119881304D01*
X162797007Y-119881304D02*
X162749388Y-119976542D01*
X162749388Y-119976542D02*
X162654150Y-120071781D01*
X162654150Y-120071781D02*
X162511293Y-120119400D01*
X162511293Y-120119400D02*
X162273198Y-120119400D01*
X163797007Y-120119400D02*
X163225579Y-120119400D01*
X163511293Y-120119400D02*
X163511293Y-119119400D01*
X163511293Y-119119400D02*
X163416055Y-119262257D01*
X163416055Y-119262257D02*
X163320817Y-119357495D01*
X163320817Y-119357495D02*
X163225579Y-119405114D01*
X107810566Y-112711124D02*
X107810566Y-112234934D01*
X108096281Y-112806362D02*
X107096281Y-112473029D01*
X107096281Y-112473029D02*
X108096281Y-112139696D01*
X108096281Y-111806362D02*
X107096281Y-111806362D01*
X107096281Y-111806362D02*
X107810566Y-111473029D01*
X107810566Y-111473029D02*
X107096281Y-111139696D01*
X107096281Y-111139696D02*
X108096281Y-111139696D01*
X108096281Y-110663505D02*
X107096281Y-110663505D01*
X107096281Y-110663505D02*
X107096281Y-110282553D01*
X107096281Y-110282553D02*
X107143900Y-110187315D01*
X107143900Y-110187315D02*
X107191519Y-110139696D01*
X107191519Y-110139696D02*
X107286757Y-110092077D01*
X107286757Y-110092077D02*
X107429614Y-110092077D01*
X107429614Y-110092077D02*
X107524852Y-110139696D01*
X107524852Y-110139696D02*
X107572471Y-110187315D01*
X107572471Y-110187315D02*
X107620090Y-110282553D01*
X107620090Y-110282553D02*
X107620090Y-110663505D01*
X107191519Y-109711124D02*
X107143900Y-109663505D01*
X107143900Y-109663505D02*
X107096281Y-109568267D01*
X107096281Y-109568267D02*
X107096281Y-109330172D01*
X107096281Y-109330172D02*
X107143900Y-109234934D01*
X107143900Y-109234934D02*
X107191519Y-109187315D01*
X107191519Y-109187315D02*
X107286757Y-109139696D01*
X107286757Y-109139696D02*
X107381995Y-109139696D01*
X107381995Y-109139696D02*
X107524852Y-109187315D01*
X107524852Y-109187315D02*
X108096281Y-109758743D01*
X108096281Y-109758743D02*
X108096281Y-109139696D01*
X165813094Y-108211463D02*
X165336903Y-108544796D01*
X165813094Y-108782891D02*
X164813094Y-108782891D01*
X164813094Y-108782891D02*
X164813094Y-108401939D01*
X164813094Y-108401939D02*
X164860713Y-108306701D01*
X164860713Y-108306701D02*
X164908332Y-108259082D01*
X164908332Y-108259082D02*
X165003570Y-108211463D01*
X165003570Y-108211463D02*
X165146427Y-108211463D01*
X165146427Y-108211463D02*
X165241665Y-108259082D01*
X165241665Y-108259082D02*
X165289284Y-108306701D01*
X165289284Y-108306701D02*
X165336903Y-108401939D01*
X165336903Y-108401939D02*
X165336903Y-108782891D01*
X165813094Y-107259082D02*
X165813094Y-107830510D01*
X165813094Y-107544796D02*
X164813094Y-107544796D01*
X164813094Y-107544796D02*
X164955951Y-107640034D01*
X164955951Y-107640034D02*
X165051189Y-107735272D01*
X165051189Y-107735272D02*
X165098808Y-107830510D01*
X164908332Y-106878129D02*
X164860713Y-106830510D01*
X164860713Y-106830510D02*
X164813094Y-106735272D01*
X164813094Y-106735272D02*
X164813094Y-106497177D01*
X164813094Y-106497177D02*
X164860713Y-106401939D01*
X164860713Y-106401939D02*
X164908332Y-106354320D01*
X164908332Y-106354320D02*
X165003570Y-106306701D01*
X165003570Y-106306701D02*
X165098808Y-106306701D01*
X165098808Y-106306701D02*
X165241665Y-106354320D01*
X165241665Y-106354320D02*
X165813094Y-106925748D01*
X165813094Y-106925748D02*
X165813094Y-106306701D01*
X113099133Y-65966677D02*
X113146753Y-66014296D01*
X113146753Y-66014296D02*
X113194372Y-66157153D01*
X113194372Y-66157153D02*
X113194372Y-66252391D01*
X113194372Y-66252391D02*
X113146753Y-66395248D01*
X113146753Y-66395248D02*
X113051514Y-66490486D01*
X113051514Y-66490486D02*
X112956276Y-66538105D01*
X112956276Y-66538105D02*
X112765800Y-66585724D01*
X112765800Y-66585724D02*
X112622943Y-66585724D01*
X112622943Y-66585724D02*
X112432467Y-66538105D01*
X112432467Y-66538105D02*
X112337229Y-66490486D01*
X112337229Y-66490486D02*
X112241991Y-66395248D01*
X112241991Y-66395248D02*
X112194372Y-66252391D01*
X112194372Y-66252391D02*
X112194372Y-66157153D01*
X112194372Y-66157153D02*
X112241991Y-66014296D01*
X112241991Y-66014296D02*
X112289610Y-65966677D01*
X113194372Y-65014296D02*
X113194372Y-65585724D01*
X113194372Y-65300010D02*
X112194372Y-65300010D01*
X112194372Y-65300010D02*
X112337229Y-65395248D01*
X112337229Y-65395248D02*
X112432467Y-65490486D01*
X112432467Y-65490486D02*
X112480086Y-65585724D01*
X147758155Y-118184185D02*
X147424822Y-117707994D01*
X147186727Y-118184185D02*
X147186727Y-117184185D01*
X147186727Y-117184185D02*
X147567679Y-117184185D01*
X147567679Y-117184185D02*
X147662917Y-117231804D01*
X147662917Y-117231804D02*
X147710536Y-117279423D01*
X147710536Y-117279423D02*
X147758155Y-117374661D01*
X147758155Y-117374661D02*
X147758155Y-117517518D01*
X147758155Y-117517518D02*
X147710536Y-117612756D01*
X147710536Y-117612756D02*
X147662917Y-117660375D01*
X147662917Y-117660375D02*
X147567679Y-117707994D01*
X147567679Y-117707994D02*
X147186727Y-117707994D01*
X148139108Y-117279423D02*
X148186727Y-117231804D01*
X148186727Y-117231804D02*
X148281965Y-117184185D01*
X148281965Y-117184185D02*
X148520060Y-117184185D01*
X148520060Y-117184185D02*
X148615298Y-117231804D01*
X148615298Y-117231804D02*
X148662917Y-117279423D01*
X148662917Y-117279423D02*
X148710536Y-117374661D01*
X148710536Y-117374661D02*
X148710536Y-117469899D01*
X148710536Y-117469899D02*
X148662917Y-117612756D01*
X148662917Y-117612756D02*
X148091489Y-118184185D01*
X148091489Y-118184185D02*
X148710536Y-118184185D01*
X168123339Y-115127371D02*
X167647148Y-115460704D01*
X168123339Y-115698799D02*
X167123339Y-115698799D01*
X167123339Y-115698799D02*
X167123339Y-115317847D01*
X167123339Y-115317847D02*
X167170958Y-115222609D01*
X167170958Y-115222609D02*
X167218577Y-115174990D01*
X167218577Y-115174990D02*
X167313815Y-115127371D01*
X167313815Y-115127371D02*
X167456672Y-115127371D01*
X167456672Y-115127371D02*
X167551910Y-115174990D01*
X167551910Y-115174990D02*
X167599529Y-115222609D01*
X167599529Y-115222609D02*
X167647148Y-115317847D01*
X167647148Y-115317847D02*
X167647148Y-115698799D01*
X167123339Y-114222609D02*
X167123339Y-114698799D01*
X167123339Y-114698799D02*
X167599529Y-114746418D01*
X167599529Y-114746418D02*
X167551910Y-114698799D01*
X167551910Y-114698799D02*
X167504291Y-114603561D01*
X167504291Y-114603561D02*
X167504291Y-114365466D01*
X167504291Y-114365466D02*
X167551910Y-114270228D01*
X167551910Y-114270228D02*
X167599529Y-114222609D01*
X167599529Y-114222609D02*
X167694767Y-114174990D01*
X167694767Y-114174990D02*
X167932862Y-114174990D01*
X167932862Y-114174990D02*
X168028100Y-114222609D01*
X168028100Y-114222609D02*
X168075720Y-114270228D01*
X168075720Y-114270228D02*
X168123339Y-114365466D01*
X168123339Y-114365466D02*
X168123339Y-114603561D01*
X168123339Y-114603561D02*
X168075720Y-114698799D01*
X168075720Y-114698799D02*
X168028100Y-114746418D01*
X158119825Y-98972208D02*
X157786492Y-98496017D01*
X157548397Y-98972208D02*
X157548397Y-97972208D01*
X157548397Y-97972208D02*
X157929349Y-97972208D01*
X157929349Y-97972208D02*
X158024587Y-98019827D01*
X158024587Y-98019827D02*
X158072206Y-98067446D01*
X158072206Y-98067446D02*
X158119825Y-98162684D01*
X158119825Y-98162684D02*
X158119825Y-98305541D01*
X158119825Y-98305541D02*
X158072206Y-98400779D01*
X158072206Y-98400779D02*
X158024587Y-98448398D01*
X158024587Y-98448398D02*
X157929349Y-98496017D01*
X157929349Y-98496017D02*
X157548397Y-98496017D01*
X158596016Y-98972208D02*
X158786492Y-98972208D01*
X158786492Y-98972208D02*
X158881730Y-98924589D01*
X158881730Y-98924589D02*
X158929349Y-98876969D01*
X158929349Y-98876969D02*
X159024587Y-98734112D01*
X159024587Y-98734112D02*
X159072206Y-98543636D01*
X159072206Y-98543636D02*
X159072206Y-98162684D01*
X159072206Y-98162684D02*
X159024587Y-98067446D01*
X159024587Y-98067446D02*
X158976968Y-98019827D01*
X158976968Y-98019827D02*
X158881730Y-97972208D01*
X158881730Y-97972208D02*
X158691254Y-97972208D01*
X158691254Y-97972208D02*
X158596016Y-98019827D01*
X158596016Y-98019827D02*
X158548397Y-98067446D01*
X158548397Y-98067446D02*
X158500778Y-98162684D01*
X158500778Y-98162684D02*
X158500778Y-98400779D01*
X158500778Y-98400779D02*
X158548397Y-98496017D01*
X158548397Y-98496017D02*
X158596016Y-98543636D01*
X158596016Y-98543636D02*
X158691254Y-98591255D01*
X158691254Y-98591255D02*
X158881730Y-98591255D01*
X158881730Y-98591255D02*
X158976968Y-98543636D01*
X158976968Y-98543636D02*
X159024587Y-98496017D01*
X159024587Y-98496017D02*
X159072206Y-98400779D01*
X148804571Y-75912077D02*
X148804571Y-74912077D01*
X148804571Y-74912077D02*
X149042666Y-74912077D01*
X149042666Y-74912077D02*
X149185523Y-74959696D01*
X149185523Y-74959696D02*
X149280761Y-75054934D01*
X149280761Y-75054934D02*
X149328380Y-75150172D01*
X149328380Y-75150172D02*
X149375999Y-75340648D01*
X149375999Y-75340648D02*
X149375999Y-75483505D01*
X149375999Y-75483505D02*
X149328380Y-75673981D01*
X149328380Y-75673981D02*
X149280761Y-75769219D01*
X149280761Y-75769219D02*
X149185523Y-75864458D01*
X149185523Y-75864458D02*
X149042666Y-75912077D01*
X149042666Y-75912077D02*
X148804571Y-75912077D01*
X150328380Y-75912077D02*
X149756952Y-75912077D01*
X150042666Y-75912077D02*
X150042666Y-74912077D01*
X150042666Y-74912077D02*
X149947428Y-75054934D01*
X149947428Y-75054934D02*
X149852190Y-75150172D01*
X149852190Y-75150172D02*
X149756952Y-75197791D01*
X154471676Y-89055096D02*
X154138343Y-88578905D01*
X153900248Y-89055096D02*
X153900248Y-88055096D01*
X153900248Y-88055096D02*
X154281200Y-88055096D01*
X154281200Y-88055096D02*
X154376438Y-88102715D01*
X154376438Y-88102715D02*
X154424057Y-88150334D01*
X154424057Y-88150334D02*
X154471676Y-88245572D01*
X154471676Y-88245572D02*
X154471676Y-88388429D01*
X154471676Y-88388429D02*
X154424057Y-88483667D01*
X154424057Y-88483667D02*
X154376438Y-88531286D01*
X154376438Y-88531286D02*
X154281200Y-88578905D01*
X154281200Y-88578905D02*
X153900248Y-88578905D01*
X155424057Y-89055096D02*
X154852629Y-89055096D01*
X155138343Y-89055096D02*
X155138343Y-88055096D01*
X155138343Y-88055096D02*
X155043105Y-88197953D01*
X155043105Y-88197953D02*
X154947867Y-88293191D01*
X154947867Y-88293191D02*
X154852629Y-88340810D01*
X156376438Y-89055096D02*
X155805010Y-89055096D01*
X156090724Y-89055096D02*
X156090724Y-88055096D01*
X156090724Y-88055096D02*
X155995486Y-88197953D01*
X155995486Y-88197953D02*
X155900248Y-88293191D01*
X155900248Y-88293191D02*
X155805010Y-88340810D01*
X109143474Y-119406084D02*
X109143474Y-118929894D01*
X109429189Y-119501322D02*
X108429189Y-119167989D01*
X108429189Y-119167989D02*
X109429189Y-118834656D01*
X109429189Y-118501322D02*
X108429189Y-118501322D01*
X108429189Y-118501322D02*
X109143474Y-118167989D01*
X109143474Y-118167989D02*
X108429189Y-117834656D01*
X108429189Y-117834656D02*
X109429189Y-117834656D01*
X109429189Y-117358465D02*
X108429189Y-117358465D01*
X108429189Y-117358465D02*
X108429189Y-116977513D01*
X108429189Y-116977513D02*
X108476808Y-116882275D01*
X108476808Y-116882275D02*
X108524427Y-116834656D01*
X108524427Y-116834656D02*
X108619665Y-116787037D01*
X108619665Y-116787037D02*
X108762522Y-116787037D01*
X108762522Y-116787037D02*
X108857760Y-116834656D01*
X108857760Y-116834656D02*
X108905379Y-116882275D01*
X108905379Y-116882275D02*
X108952998Y-116977513D01*
X108952998Y-116977513D02*
X108952998Y-117358465D01*
X109429189Y-115834656D02*
X109429189Y-116406084D01*
X109429189Y-116120370D02*
X108429189Y-116120370D01*
X108429189Y-116120370D02*
X108572046Y-116215608D01*
X108572046Y-116215608D02*
X108667284Y-116310846D01*
X108667284Y-116310846D02*
X108714903Y-116406084D01*
X113124866Y-81749400D02*
X113934389Y-81749400D01*
X113934389Y-81749400D02*
X114029627Y-81701781D01*
X114029627Y-81701781D02*
X114077247Y-81654162D01*
X114077247Y-81654162D02*
X114124866Y-81558924D01*
X114124866Y-81558924D02*
X114124866Y-81368448D01*
X114124866Y-81368448D02*
X114077247Y-81273210D01*
X114077247Y-81273210D02*
X114029627Y-81225591D01*
X114029627Y-81225591D02*
X113934389Y-81177972D01*
X113934389Y-81177972D02*
X113124866Y-81177972D01*
X113124866Y-80797019D02*
X113124866Y-80130353D01*
X113124866Y-80130353D02*
X114124866Y-80558924D01*
X152879964Y-94523116D02*
X152879964Y-93523116D01*
X152879964Y-93523116D02*
X153118059Y-93523116D01*
X153118059Y-93523116D02*
X153260916Y-93570735D01*
X153260916Y-93570735D02*
X153356154Y-93665973D01*
X153356154Y-93665973D02*
X153403773Y-93761211D01*
X153403773Y-93761211D02*
X153451392Y-93951687D01*
X153451392Y-93951687D02*
X153451392Y-94094544D01*
X153451392Y-94094544D02*
X153403773Y-94285020D01*
X153403773Y-94285020D02*
X153356154Y-94380258D01*
X153356154Y-94380258D02*
X153260916Y-94475497D01*
X153260916Y-94475497D02*
X153118059Y-94523116D01*
X153118059Y-94523116D02*
X152879964Y-94523116D01*
X153832345Y-93618354D02*
X153879964Y-93570735D01*
X153879964Y-93570735D02*
X153975202Y-93523116D01*
X153975202Y-93523116D02*
X154213297Y-93523116D01*
X154213297Y-93523116D02*
X154308535Y-93570735D01*
X154308535Y-93570735D02*
X154356154Y-93618354D01*
X154356154Y-93618354D02*
X154403773Y-93713592D01*
X154403773Y-93713592D02*
X154403773Y-93808830D01*
X154403773Y-93808830D02*
X154356154Y-93951687D01*
X154356154Y-93951687D02*
X153784726Y-94523116D01*
X153784726Y-94523116D02*
X154403773Y-94523116D01*
X150382982Y-113072680D02*
X150049649Y-112596489D01*
X149811554Y-113072680D02*
X149811554Y-112072680D01*
X149811554Y-112072680D02*
X150192506Y-112072680D01*
X150192506Y-112072680D02*
X150287744Y-112120299D01*
X150287744Y-112120299D02*
X150335363Y-112167918D01*
X150335363Y-112167918D02*
X150382982Y-112263156D01*
X150382982Y-112263156D02*
X150382982Y-112406013D01*
X150382982Y-112406013D02*
X150335363Y-112501251D01*
X150335363Y-112501251D02*
X150287744Y-112548870D01*
X150287744Y-112548870D02*
X150192506Y-112596489D01*
X150192506Y-112596489D02*
X149811554Y-112596489D01*
X150716316Y-112072680D02*
X151335363Y-112072680D01*
X151335363Y-112072680D02*
X151002030Y-112453632D01*
X151002030Y-112453632D02*
X151144887Y-112453632D01*
X151144887Y-112453632D02*
X151240125Y-112501251D01*
X151240125Y-112501251D02*
X151287744Y-112548870D01*
X151287744Y-112548870D02*
X151335363Y-112644108D01*
X151335363Y-112644108D02*
X151335363Y-112882203D01*
X151335363Y-112882203D02*
X151287744Y-112977441D01*
X151287744Y-112977441D02*
X151240125Y-113025061D01*
X151240125Y-113025061D02*
X151144887Y-113072680D01*
X151144887Y-113072680D02*
X150859173Y-113072680D01*
X150859173Y-113072680D02*
X150763935Y-113025061D01*
X150763935Y-113025061D02*
X150716316Y-112977441D01*
X168545788Y-102553592D02*
X168545788Y-101982164D01*
X169545788Y-102267878D02*
X168545788Y-102267878D01*
X169545788Y-101077402D02*
X169069597Y-101410735D01*
X169545788Y-101648830D02*
X168545788Y-101648830D01*
X168545788Y-101648830D02*
X168545788Y-101267878D01*
X168545788Y-101267878D02*
X168593407Y-101172640D01*
X168593407Y-101172640D02*
X168641026Y-101125021D01*
X168641026Y-101125021D02*
X168736264Y-101077402D01*
X168736264Y-101077402D02*
X168879121Y-101077402D01*
X168879121Y-101077402D02*
X168974359Y-101125021D01*
X168974359Y-101125021D02*
X169021978Y-101172640D01*
X169021978Y-101172640D02*
X169069597Y-101267878D01*
X169069597Y-101267878D02*
X169069597Y-101648830D01*
X169545788Y-100648830D02*
X168545788Y-100648830D01*
X168593407Y-99648831D02*
X168545788Y-99744069D01*
X168545788Y-99744069D02*
X168545788Y-99886926D01*
X168545788Y-99886926D02*
X168593407Y-100029783D01*
X168593407Y-100029783D02*
X168688645Y-100125021D01*
X168688645Y-100125021D02*
X168783883Y-100172640D01*
X168783883Y-100172640D02*
X168974359Y-100220259D01*
X168974359Y-100220259D02*
X169117216Y-100220259D01*
X169117216Y-100220259D02*
X169307692Y-100172640D01*
X169307692Y-100172640D02*
X169402930Y-100125021D01*
X169402930Y-100125021D02*
X169498169Y-100029783D01*
X169498169Y-100029783D02*
X169545788Y-99886926D01*
X169545788Y-99886926D02*
X169545788Y-99791688D01*
X169545788Y-99791688D02*
X169498169Y-99648831D01*
X169498169Y-99648831D02*
X169450549Y-99601212D01*
X169450549Y-99601212D02*
X169117216Y-99601212D01*
X169117216Y-99601212D02*
X169117216Y-99791688D01*
X168593407Y-98648831D02*
X168545788Y-98744069D01*
X168545788Y-98744069D02*
X168545788Y-98886926D01*
X168545788Y-98886926D02*
X168593407Y-99029783D01*
X168593407Y-99029783D02*
X168688645Y-99125021D01*
X168688645Y-99125021D02*
X168783883Y-99172640D01*
X168783883Y-99172640D02*
X168974359Y-99220259D01*
X168974359Y-99220259D02*
X169117216Y-99220259D01*
X169117216Y-99220259D02*
X169307692Y-99172640D01*
X169307692Y-99172640D02*
X169402930Y-99125021D01*
X169402930Y-99125021D02*
X169498169Y-99029783D01*
X169498169Y-99029783D02*
X169545788Y-98886926D01*
X169545788Y-98886926D02*
X169545788Y-98791688D01*
X169545788Y-98791688D02*
X169498169Y-98648831D01*
X169498169Y-98648831D02*
X169450549Y-98601212D01*
X169450549Y-98601212D02*
X169117216Y-98601212D01*
X169117216Y-98601212D02*
X169117216Y-98791688D01*
X169021978Y-98172640D02*
X169021978Y-97839307D01*
X169545788Y-97696450D02*
X169545788Y-98172640D01*
X169545788Y-98172640D02*
X168545788Y-98172640D01*
X168545788Y-98172640D02*
X168545788Y-97696450D01*
X169545788Y-96696450D02*
X169069597Y-97029783D01*
X169545788Y-97267878D02*
X168545788Y-97267878D01*
X168545788Y-97267878D02*
X168545788Y-96886926D01*
X168545788Y-96886926D02*
X168593407Y-96791688D01*
X168593407Y-96791688D02*
X168641026Y-96744069D01*
X168641026Y-96744069D02*
X168736264Y-96696450D01*
X168736264Y-96696450D02*
X168879121Y-96696450D01*
X168879121Y-96696450D02*
X168974359Y-96744069D01*
X168974359Y-96744069D02*
X169021978Y-96791688D01*
X169021978Y-96791688D02*
X169069597Y-96886926D01*
X169069597Y-96886926D02*
X169069597Y-97267878D01*
X169545788Y-95744069D02*
X169545788Y-96315497D01*
X169545788Y-96029783D02*
X168545788Y-96029783D01*
X168545788Y-96029783D02*
X168688645Y-96125021D01*
X168688645Y-96125021D02*
X168783883Y-96220259D01*
X168783883Y-96220259D02*
X168831502Y-96315497D01*
X162534173Y-84541588D02*
X162534173Y-84874921D01*
X163057983Y-84874921D02*
X162057983Y-84874921D01*
X162057983Y-84874921D02*
X162057983Y-84398731D01*
X162534173Y-83684445D02*
X162581792Y-83541588D01*
X162581792Y-83541588D02*
X162629411Y-83493969D01*
X162629411Y-83493969D02*
X162724649Y-83446350D01*
X162724649Y-83446350D02*
X162867506Y-83446350D01*
X162867506Y-83446350D02*
X162962744Y-83493969D01*
X162962744Y-83493969D02*
X163010364Y-83541588D01*
X163010364Y-83541588D02*
X163057983Y-83636826D01*
X163057983Y-83636826D02*
X163057983Y-84017778D01*
X163057983Y-84017778D02*
X162057983Y-84017778D01*
X162057983Y-84017778D02*
X162057983Y-83684445D01*
X162057983Y-83684445D02*
X162105602Y-83589207D01*
X162105602Y-83589207D02*
X162153221Y-83541588D01*
X162153221Y-83541588D02*
X162248459Y-83493969D01*
X162248459Y-83493969D02*
X162343697Y-83493969D01*
X162343697Y-83493969D02*
X162438935Y-83541588D01*
X162438935Y-83541588D02*
X162486554Y-83589207D01*
X162486554Y-83589207D02*
X162534173Y-83684445D01*
X162534173Y-83684445D02*
X162534173Y-84017778D01*
X162153221Y-83065397D02*
X162105602Y-83017778D01*
X162105602Y-83017778D02*
X162057983Y-82922540D01*
X162057983Y-82922540D02*
X162057983Y-82684445D01*
X162057983Y-82684445D02*
X162105602Y-82589207D01*
X162105602Y-82589207D02*
X162153221Y-82541588D01*
X162153221Y-82541588D02*
X162248459Y-82493969D01*
X162248459Y-82493969D02*
X162343697Y-82493969D01*
X162343697Y-82493969D02*
X162486554Y-82541588D01*
X162486554Y-82541588D02*
X163057983Y-83113016D01*
X163057983Y-83113016D02*
X163057983Y-82493969D01*
X164332817Y-92361029D02*
X163856626Y-92694362D01*
X164332817Y-92932457D02*
X163332817Y-92932457D01*
X163332817Y-92932457D02*
X163332817Y-92551505D01*
X163332817Y-92551505D02*
X163380436Y-92456267D01*
X163380436Y-92456267D02*
X163428055Y-92408648D01*
X163428055Y-92408648D02*
X163523293Y-92361029D01*
X163523293Y-92361029D02*
X163666150Y-92361029D01*
X163666150Y-92361029D02*
X163761388Y-92408648D01*
X163761388Y-92408648D02*
X163809007Y-92456267D01*
X163809007Y-92456267D02*
X163856626Y-92551505D01*
X163856626Y-92551505D02*
X163856626Y-92932457D01*
X164332817Y-91408648D02*
X164332817Y-91980076D01*
X164332817Y-91694362D02*
X163332817Y-91694362D01*
X163332817Y-91694362D02*
X163475674Y-91789600D01*
X163475674Y-91789600D02*
X163570912Y-91884838D01*
X163570912Y-91884838D02*
X163618531Y-91980076D01*
X163332817Y-90789600D02*
X163332817Y-90694362D01*
X163332817Y-90694362D02*
X163380436Y-90599124D01*
X163380436Y-90599124D02*
X163428055Y-90551505D01*
X163428055Y-90551505D02*
X163523293Y-90503886D01*
X163523293Y-90503886D02*
X163713769Y-90456267D01*
X163713769Y-90456267D02*
X163951864Y-90456267D01*
X163951864Y-90456267D02*
X164142340Y-90503886D01*
X164142340Y-90503886D02*
X164237578Y-90551505D01*
X164237578Y-90551505D02*
X164285198Y-90599124D01*
X164285198Y-90599124D02*
X164332817Y-90694362D01*
X164332817Y-90694362D02*
X164332817Y-90789600D01*
X164332817Y-90789600D02*
X164285198Y-90884838D01*
X164285198Y-90884838D02*
X164237578Y-90932457D01*
X164237578Y-90932457D02*
X164142340Y-90980076D01*
X164142340Y-90980076D02*
X163951864Y-91027695D01*
X163951864Y-91027695D02*
X163713769Y-91027695D01*
X163713769Y-91027695D02*
X163523293Y-90980076D01*
X163523293Y-90980076D02*
X163428055Y-90932457D01*
X163428055Y-90932457D02*
X163380436Y-90884838D01*
X163380436Y-90884838D02*
X163332817Y-90789600D01*
X161111783Y-114551898D02*
X161064164Y-114647136D01*
X161064164Y-114647136D02*
X160968926Y-114742374D01*
X160968926Y-114742374D02*
X160826068Y-114885231D01*
X160826068Y-114885231D02*
X160778449Y-114980469D01*
X160778449Y-114980469D02*
X160778449Y-115075707D01*
X161016545Y-115028088D02*
X160968926Y-115123326D01*
X160968926Y-115123326D02*
X160873687Y-115218564D01*
X160873687Y-115218564D02*
X160683211Y-115266183D01*
X160683211Y-115266183D02*
X160349878Y-115266183D01*
X160349878Y-115266183D02*
X160159402Y-115218564D01*
X160159402Y-115218564D02*
X160064164Y-115123326D01*
X160064164Y-115123326D02*
X160016545Y-115028088D01*
X160016545Y-115028088D02*
X160016545Y-114837612D01*
X160016545Y-114837612D02*
X160064164Y-114742374D01*
X160064164Y-114742374D02*
X160159402Y-114647136D01*
X160159402Y-114647136D02*
X160349878Y-114599517D01*
X160349878Y-114599517D02*
X160683211Y-114599517D01*
X160683211Y-114599517D02*
X160873687Y-114647136D01*
X160873687Y-114647136D02*
X160968926Y-114742374D01*
X160968926Y-114742374D02*
X161016545Y-114837612D01*
X161016545Y-114837612D02*
X161016545Y-115028088D01*
X160111783Y-114218564D02*
X160064164Y-114170945D01*
X160064164Y-114170945D02*
X160016545Y-114075707D01*
X160016545Y-114075707D02*
X160016545Y-113837612D01*
X160016545Y-113837612D02*
X160064164Y-113742374D01*
X160064164Y-113742374D02*
X160111783Y-113694755D01*
X160111783Y-113694755D02*
X160207021Y-113647136D01*
X160207021Y-113647136D02*
X160302259Y-113647136D01*
X160302259Y-113647136D02*
X160445116Y-113694755D01*
X160445116Y-113694755D02*
X161016545Y-114266183D01*
X161016545Y-114266183D02*
X161016545Y-113647136D01*
X156313211Y-114496262D02*
X156265592Y-114591500D01*
X156265592Y-114591500D02*
X156170354Y-114686738D01*
X156170354Y-114686738D02*
X156027496Y-114829595D01*
X156027496Y-114829595D02*
X155979877Y-114924833D01*
X155979877Y-114924833D02*
X155979877Y-115020071D01*
X156217973Y-114972452D02*
X156170354Y-115067690D01*
X156170354Y-115067690D02*
X156075115Y-115162928D01*
X156075115Y-115162928D02*
X155884639Y-115210547D01*
X155884639Y-115210547D02*
X155551306Y-115210547D01*
X155551306Y-115210547D02*
X155360830Y-115162928D01*
X155360830Y-115162928D02*
X155265592Y-115067690D01*
X155265592Y-115067690D02*
X155217973Y-114972452D01*
X155217973Y-114972452D02*
X155217973Y-114781976D01*
X155217973Y-114781976D02*
X155265592Y-114686738D01*
X155265592Y-114686738D02*
X155360830Y-114591500D01*
X155360830Y-114591500D02*
X155551306Y-114543881D01*
X155551306Y-114543881D02*
X155884639Y-114543881D01*
X155884639Y-114543881D02*
X156075115Y-114591500D01*
X156075115Y-114591500D02*
X156170354Y-114686738D01*
X156170354Y-114686738D02*
X156217973Y-114781976D01*
X156217973Y-114781976D02*
X156217973Y-114972452D01*
X156217973Y-113591500D02*
X156217973Y-114162928D01*
X156217973Y-113877214D02*
X155217973Y-113877214D01*
X155217973Y-113877214D02*
X155360830Y-113972452D01*
X155360830Y-113972452D02*
X155456068Y-114067690D01*
X155456068Y-114067690D02*
X155503687Y-114162928D01*
X158481624Y-94557729D02*
X158481624Y-95367252D01*
X158481624Y-95367252D02*
X158529243Y-95462490D01*
X158529243Y-95462490D02*
X158576862Y-95510110D01*
X158576862Y-95510110D02*
X158672100Y-95557729D01*
X158672100Y-95557729D02*
X158862576Y-95557729D01*
X158862576Y-95557729D02*
X158957814Y-95510110D01*
X158957814Y-95510110D02*
X159005433Y-95462490D01*
X159005433Y-95462490D02*
X159053052Y-95367252D01*
X159053052Y-95367252D02*
X159053052Y-94557729D01*
X159672100Y-94986300D02*
X159576862Y-94938681D01*
X159576862Y-94938681D02*
X159529243Y-94891062D01*
X159529243Y-94891062D02*
X159481624Y-94795824D01*
X159481624Y-94795824D02*
X159481624Y-94748205D01*
X159481624Y-94748205D02*
X159529243Y-94652967D01*
X159529243Y-94652967D02*
X159576862Y-94605348D01*
X159576862Y-94605348D02*
X159672100Y-94557729D01*
X159672100Y-94557729D02*
X159862576Y-94557729D01*
X159862576Y-94557729D02*
X159957814Y-94605348D01*
X159957814Y-94605348D02*
X160005433Y-94652967D01*
X160005433Y-94652967D02*
X160053052Y-94748205D01*
X160053052Y-94748205D02*
X160053052Y-94795824D01*
X160053052Y-94795824D02*
X160005433Y-94891062D01*
X160005433Y-94891062D02*
X159957814Y-94938681D01*
X159957814Y-94938681D02*
X159862576Y-94986300D01*
X159862576Y-94986300D02*
X159672100Y-94986300D01*
X159672100Y-94986300D02*
X159576862Y-95033919D01*
X159576862Y-95033919D02*
X159529243Y-95081538D01*
X159529243Y-95081538D02*
X159481624Y-95176776D01*
X159481624Y-95176776D02*
X159481624Y-95367252D01*
X159481624Y-95367252D02*
X159529243Y-95462490D01*
X159529243Y-95462490D02*
X159576862Y-95510110D01*
X159576862Y-95510110D02*
X159672100Y-95557729D01*
X159672100Y-95557729D02*
X159862576Y-95557729D01*
X159862576Y-95557729D02*
X159957814Y-95510110D01*
X159957814Y-95510110D02*
X160005433Y-95462490D01*
X160005433Y-95462490D02*
X160053052Y-95367252D01*
X160053052Y-95367252D02*
X160053052Y-95176776D01*
X160053052Y-95176776D02*
X160005433Y-95081538D01*
X160005433Y-95081538D02*
X159957814Y-95033919D01*
X159957814Y-95033919D02*
X159862576Y-94986300D01*
X122592521Y-66867514D02*
X122640141Y-66915133D01*
X122640141Y-66915133D02*
X122687760Y-67057990D01*
X122687760Y-67057990D02*
X122687760Y-67153228D01*
X122687760Y-67153228D02*
X122640141Y-67296085D01*
X122640141Y-67296085D02*
X122544902Y-67391323D01*
X122544902Y-67391323D02*
X122449664Y-67438942D01*
X122449664Y-67438942D02*
X122259188Y-67486561D01*
X122259188Y-67486561D02*
X122116331Y-67486561D01*
X122116331Y-67486561D02*
X121925855Y-67438942D01*
X121925855Y-67438942D02*
X121830617Y-67391323D01*
X121830617Y-67391323D02*
X121735379Y-67296085D01*
X121735379Y-67296085D02*
X121687760Y-67153228D01*
X121687760Y-67153228D02*
X121687760Y-67057990D01*
X121687760Y-67057990D02*
X121735379Y-66915133D01*
X121735379Y-66915133D02*
X121782998Y-66867514D01*
X122021093Y-66010371D02*
X122687760Y-66010371D01*
X121640141Y-66248466D02*
X122354426Y-66486561D01*
X122354426Y-66486561D02*
X122354426Y-65867514D01*
X164222226Y-84521249D02*
X164269846Y-84568868D01*
X164269846Y-84568868D02*
X164317465Y-84711725D01*
X164317465Y-84711725D02*
X164317465Y-84806963D01*
X164317465Y-84806963D02*
X164269846Y-84949820D01*
X164269846Y-84949820D02*
X164174607Y-85045058D01*
X164174607Y-85045058D02*
X164079369Y-85092677D01*
X164079369Y-85092677D02*
X163888893Y-85140296D01*
X163888893Y-85140296D02*
X163746036Y-85140296D01*
X163746036Y-85140296D02*
X163555560Y-85092677D01*
X163555560Y-85092677D02*
X163460322Y-85045058D01*
X163460322Y-85045058D02*
X163365084Y-84949820D01*
X163365084Y-84949820D02*
X163317465Y-84806963D01*
X163317465Y-84806963D02*
X163317465Y-84711725D01*
X163317465Y-84711725D02*
X163365084Y-84568868D01*
X163365084Y-84568868D02*
X163412703Y-84521249D01*
X163317465Y-84187915D02*
X163317465Y-83568868D01*
X163317465Y-83568868D02*
X163698417Y-83902201D01*
X163698417Y-83902201D02*
X163698417Y-83759344D01*
X163698417Y-83759344D02*
X163746036Y-83664106D01*
X163746036Y-83664106D02*
X163793655Y-83616487D01*
X163793655Y-83616487D02*
X163888893Y-83568868D01*
X163888893Y-83568868D02*
X164126988Y-83568868D01*
X164126988Y-83568868D02*
X164222226Y-83616487D01*
X164222226Y-83616487D02*
X164269846Y-83664106D01*
X164269846Y-83664106D02*
X164317465Y-83759344D01*
X164317465Y-83759344D02*
X164317465Y-84045058D01*
X164317465Y-84045058D02*
X164269846Y-84140296D01*
X164269846Y-84140296D02*
X164222226Y-84187915D01*
X166314679Y-114599130D02*
X166267060Y-114694368D01*
X166267060Y-114694368D02*
X166171822Y-114789606D01*
X166171822Y-114789606D02*
X166028964Y-114932463D01*
X166028964Y-114932463D02*
X165981345Y-115027701D01*
X165981345Y-115027701D02*
X165981345Y-115122939D01*
X166219441Y-115075320D02*
X166171822Y-115170558D01*
X166171822Y-115170558D02*
X166076583Y-115265796D01*
X166076583Y-115265796D02*
X165886107Y-115313415D01*
X165886107Y-115313415D02*
X165552774Y-115313415D01*
X165552774Y-115313415D02*
X165362298Y-115265796D01*
X165362298Y-115265796D02*
X165267060Y-115170558D01*
X165267060Y-115170558D02*
X165219441Y-115075320D01*
X165219441Y-115075320D02*
X165219441Y-114884844D01*
X165219441Y-114884844D02*
X165267060Y-114789606D01*
X165267060Y-114789606D02*
X165362298Y-114694368D01*
X165362298Y-114694368D02*
X165552774Y-114646749D01*
X165552774Y-114646749D02*
X165886107Y-114646749D01*
X165886107Y-114646749D02*
X166076583Y-114694368D01*
X166076583Y-114694368D02*
X166171822Y-114789606D01*
X166171822Y-114789606D02*
X166219441Y-114884844D01*
X166219441Y-114884844D02*
X166219441Y-115075320D01*
X165219441Y-114313415D02*
X165219441Y-113694368D01*
X165219441Y-113694368D02*
X165600393Y-114027701D01*
X165600393Y-114027701D02*
X165600393Y-113884844D01*
X165600393Y-113884844D02*
X165648012Y-113789606D01*
X165648012Y-113789606D02*
X165695631Y-113741987D01*
X165695631Y-113741987D02*
X165790869Y-113694368D01*
X165790869Y-113694368D02*
X166028964Y-113694368D01*
X166028964Y-113694368D02*
X166124202Y-113741987D01*
X166124202Y-113741987D02*
X166171822Y-113789606D01*
X166171822Y-113789606D02*
X166219441Y-113884844D01*
X166219441Y-113884844D02*
X166219441Y-114170558D01*
X166219441Y-114170558D02*
X166171822Y-114265796D01*
X166171822Y-114265796D02*
X166124202Y-114313415D01*
X149978211Y-91688134D02*
X149978211Y-90688134D01*
X149978211Y-90688134D02*
X150216306Y-90688134D01*
X150216306Y-90688134D02*
X150359163Y-90735753D01*
X150359163Y-90735753D02*
X150454401Y-90830991D01*
X150454401Y-90830991D02*
X150502020Y-90926229D01*
X150502020Y-90926229D02*
X150549639Y-91116705D01*
X150549639Y-91116705D02*
X150549639Y-91259562D01*
X150549639Y-91259562D02*
X150502020Y-91450038D01*
X150502020Y-91450038D02*
X150454401Y-91545276D01*
X150454401Y-91545276D02*
X150359163Y-91640515D01*
X150359163Y-91640515D02*
X150216306Y-91688134D01*
X150216306Y-91688134D02*
X149978211Y-91688134D01*
X150882973Y-90688134D02*
X151502020Y-90688134D01*
X151502020Y-90688134D02*
X151168687Y-91069086D01*
X151168687Y-91069086D02*
X151311544Y-91069086D01*
X151311544Y-91069086D02*
X151406782Y-91116705D01*
X151406782Y-91116705D02*
X151454401Y-91164324D01*
X151454401Y-91164324D02*
X151502020Y-91259562D01*
X151502020Y-91259562D02*
X151502020Y-91497657D01*
X151502020Y-91497657D02*
X151454401Y-91592895D01*
X151454401Y-91592895D02*
X151406782Y-91640515D01*
X151406782Y-91640515D02*
X151311544Y-91688134D01*
X151311544Y-91688134D02*
X151025830Y-91688134D01*
X151025830Y-91688134D02*
X150930592Y-91640515D01*
X150930592Y-91640515D02*
X150882973Y-91592895D01*
X162142869Y-95686784D02*
X161809536Y-95210593D01*
X161571441Y-95686784D02*
X161571441Y-94686784D01*
X161571441Y-94686784D02*
X161952393Y-94686784D01*
X161952393Y-94686784D02*
X162047631Y-94734403D01*
X162047631Y-94734403D02*
X162095250Y-94782022D01*
X162095250Y-94782022D02*
X162142869Y-94877260D01*
X162142869Y-94877260D02*
X162142869Y-95020117D01*
X162142869Y-95020117D02*
X162095250Y-95115355D01*
X162095250Y-95115355D02*
X162047631Y-95162974D01*
X162047631Y-95162974D02*
X161952393Y-95210593D01*
X161952393Y-95210593D02*
X161571441Y-95210593D01*
X162714298Y-95115355D02*
X162619060Y-95067736D01*
X162619060Y-95067736D02*
X162571441Y-95020117D01*
X162571441Y-95020117D02*
X162523822Y-94924879D01*
X162523822Y-94924879D02*
X162523822Y-94877260D01*
X162523822Y-94877260D02*
X162571441Y-94782022D01*
X162571441Y-94782022D02*
X162619060Y-94734403D01*
X162619060Y-94734403D02*
X162714298Y-94686784D01*
X162714298Y-94686784D02*
X162904774Y-94686784D01*
X162904774Y-94686784D02*
X163000012Y-94734403D01*
X163000012Y-94734403D02*
X163047631Y-94782022D01*
X163047631Y-94782022D02*
X163095250Y-94877260D01*
X163095250Y-94877260D02*
X163095250Y-94924879D01*
X163095250Y-94924879D02*
X163047631Y-95020117D01*
X163047631Y-95020117D02*
X163000012Y-95067736D01*
X163000012Y-95067736D02*
X162904774Y-95115355D01*
X162904774Y-95115355D02*
X162714298Y-95115355D01*
X162714298Y-95115355D02*
X162619060Y-95162974D01*
X162619060Y-95162974D02*
X162571441Y-95210593D01*
X162571441Y-95210593D02*
X162523822Y-95305831D01*
X162523822Y-95305831D02*
X162523822Y-95496307D01*
X162523822Y-95496307D02*
X162571441Y-95591545D01*
X162571441Y-95591545D02*
X162619060Y-95639165D01*
X162619060Y-95639165D02*
X162714298Y-95686784D01*
X162714298Y-95686784D02*
X162904774Y-95686784D01*
X162904774Y-95686784D02*
X163000012Y-95639165D01*
X163000012Y-95639165D02*
X163047631Y-95591545D01*
X163047631Y-95591545D02*
X163095250Y-95496307D01*
X163095250Y-95496307D02*
X163095250Y-95305831D01*
X163095250Y-95305831D02*
X163047631Y-95210593D01*
X163047631Y-95210593D02*
X163000012Y-95162974D01*
X163000012Y-95162974D02*
X162904774Y-95115355D01*
X149098095Y-86612319D02*
X149098095Y-87421842D01*
X149098095Y-87421842D02*
X149145714Y-87517080D01*
X149145714Y-87517080D02*
X149193333Y-87564700D01*
X149193333Y-87564700D02*
X149288571Y-87612319D01*
X149288571Y-87612319D02*
X149479047Y-87612319D01*
X149479047Y-87612319D02*
X149574285Y-87564700D01*
X149574285Y-87564700D02*
X149621904Y-87517080D01*
X149621904Y-87517080D02*
X149669523Y-87421842D01*
X149669523Y-87421842D02*
X149669523Y-86612319D01*
X150574285Y-86945652D02*
X150574285Y-87612319D01*
X150336190Y-86564700D02*
X150098095Y-87278985D01*
X150098095Y-87278985D02*
X150717142Y-87278985D01*
X109522506Y-58174726D02*
X108522506Y-58174726D01*
X108522506Y-58174726D02*
X108522506Y-57793774D01*
X108522506Y-57793774D02*
X108570125Y-57698536D01*
X108570125Y-57698536D02*
X108617744Y-57650917D01*
X108617744Y-57650917D02*
X108712982Y-57603298D01*
X108712982Y-57603298D02*
X108855839Y-57603298D01*
X108855839Y-57603298D02*
X108951077Y-57650917D01*
X108951077Y-57650917D02*
X108998696Y-57698536D01*
X108998696Y-57698536D02*
X109046315Y-57793774D01*
X109046315Y-57793774D02*
X109046315Y-58174726D01*
X108522506Y-56984250D02*
X108522506Y-56793774D01*
X108522506Y-56793774D02*
X108570125Y-56698536D01*
X108570125Y-56698536D02*
X108665363Y-56603298D01*
X108665363Y-56603298D02*
X108855839Y-56555679D01*
X108855839Y-56555679D02*
X109189172Y-56555679D01*
X109189172Y-56555679D02*
X109379648Y-56603298D01*
X109379648Y-56603298D02*
X109474887Y-56698536D01*
X109474887Y-56698536D02*
X109522506Y-56793774D01*
X109522506Y-56793774D02*
X109522506Y-56984250D01*
X109522506Y-56984250D02*
X109474887Y-57079488D01*
X109474887Y-57079488D02*
X109379648Y-57174726D01*
X109379648Y-57174726D02*
X109189172Y-57222345D01*
X109189172Y-57222345D02*
X108855839Y-57222345D01*
X108855839Y-57222345D02*
X108665363Y-57174726D01*
X108665363Y-57174726D02*
X108570125Y-57079488D01*
X108570125Y-57079488D02*
X108522506Y-56984250D01*
X108522506Y-56222345D02*
X109522506Y-55984250D01*
X109522506Y-55984250D02*
X108808220Y-55793774D01*
X108808220Y-55793774D02*
X109522506Y-55603298D01*
X109522506Y-55603298D02*
X108522506Y-55365203D01*
X108998696Y-54984250D02*
X108998696Y-54650917D01*
X109522506Y-54508060D02*
X109522506Y-54984250D01*
X109522506Y-54984250D02*
X108522506Y-54984250D01*
X108522506Y-54984250D02*
X108522506Y-54508060D01*
X109522506Y-53508060D02*
X109046315Y-53841393D01*
X109522506Y-54079488D02*
X108522506Y-54079488D01*
X108522506Y-54079488D02*
X108522506Y-53698536D01*
X108522506Y-53698536D02*
X108570125Y-53603298D01*
X108570125Y-53603298D02*
X108617744Y-53555679D01*
X108617744Y-53555679D02*
X108712982Y-53508060D01*
X108712982Y-53508060D02*
X108855839Y-53508060D01*
X108855839Y-53508060D02*
X108951077Y-53555679D01*
X108951077Y-53555679D02*
X108998696Y-53603298D01*
X108998696Y-53603298D02*
X109046315Y-53698536D01*
X109046315Y-53698536D02*
X109046315Y-54079488D01*
X109522506Y-52555679D02*
X109522506Y-53127107D01*
X109522506Y-52841393D02*
X108522506Y-52841393D01*
X108522506Y-52841393D02*
X108665363Y-52936631D01*
X108665363Y-52936631D02*
X108760601Y-53031869D01*
X108760601Y-53031869D02*
X108808220Y-53127107D01*
X150695915Y-124161822D02*
X150648296Y-124257060D01*
X150648296Y-124257060D02*
X150648296Y-124399917D01*
X150648296Y-124399917D02*
X150695915Y-124542774D01*
X150695915Y-124542774D02*
X150791153Y-124638012D01*
X150791153Y-124638012D02*
X150886391Y-124685631D01*
X150886391Y-124685631D02*
X151076867Y-124733250D01*
X151076867Y-124733250D02*
X151219724Y-124733250D01*
X151219724Y-124733250D02*
X151410200Y-124685631D01*
X151410200Y-124685631D02*
X151505438Y-124638012D01*
X151505438Y-124638012D02*
X151600677Y-124542774D01*
X151600677Y-124542774D02*
X151648296Y-124399917D01*
X151648296Y-124399917D02*
X151648296Y-124304679D01*
X151648296Y-124304679D02*
X151600677Y-124161822D01*
X151600677Y-124161822D02*
X151553057Y-124114203D01*
X151553057Y-124114203D02*
X151219724Y-124114203D01*
X151219724Y-124114203D02*
X151219724Y-124304679D01*
X151648296Y-123685631D02*
X150648296Y-123685631D01*
X150648296Y-123685631D02*
X150648296Y-123304679D01*
X150648296Y-123304679D02*
X150695915Y-123209441D01*
X150695915Y-123209441D02*
X150743534Y-123161822D01*
X150743534Y-123161822D02*
X150838772Y-123114203D01*
X150838772Y-123114203D02*
X150981629Y-123114203D01*
X150981629Y-123114203D02*
X151076867Y-123161822D01*
X151076867Y-123161822D02*
X151124486Y-123209441D01*
X151124486Y-123209441D02*
X151172105Y-123304679D01*
X151172105Y-123304679D02*
X151172105Y-123685631D01*
X151648296Y-122685631D02*
X150648296Y-122685631D01*
X150648296Y-122018965D02*
X150648296Y-121828489D01*
X150648296Y-121828489D02*
X150695915Y-121733251D01*
X150695915Y-121733251D02*
X150791153Y-121638013D01*
X150791153Y-121638013D02*
X150981629Y-121590394D01*
X150981629Y-121590394D02*
X151314962Y-121590394D01*
X151314962Y-121590394D02*
X151505438Y-121638013D01*
X151505438Y-121638013D02*
X151600677Y-121733251D01*
X151600677Y-121733251D02*
X151648296Y-121828489D01*
X151648296Y-121828489D02*
X151648296Y-122018965D01*
X151648296Y-122018965D02*
X151600677Y-122114203D01*
X151600677Y-122114203D02*
X151505438Y-122209441D01*
X151505438Y-122209441D02*
X151314962Y-122257060D01*
X151314962Y-122257060D02*
X150981629Y-122257060D01*
X150981629Y-122257060D02*
X150791153Y-122209441D01*
X150791153Y-122209441D02*
X150695915Y-122114203D01*
X150695915Y-122114203D02*
X150648296Y-122018965D01*
X151648296Y-120638013D02*
X151648296Y-121209441D01*
X151648296Y-120923727D02*
X150648296Y-120923727D01*
X150648296Y-120923727D02*
X150791153Y-121018965D01*
X150791153Y-121018965D02*
X150886391Y-121114203D01*
X150886391Y-121114203D02*
X150934010Y-121209441D01*
X150648296Y-119780870D02*
X150648296Y-119971346D01*
X150648296Y-119971346D02*
X150695915Y-120066584D01*
X150695915Y-120066584D02*
X150743534Y-120114203D01*
X150743534Y-120114203D02*
X150886391Y-120209441D01*
X150886391Y-120209441D02*
X151076867Y-120257060D01*
X151076867Y-120257060D02*
X151457819Y-120257060D01*
X151457819Y-120257060D02*
X151553057Y-120209441D01*
X151553057Y-120209441D02*
X151600677Y-120161822D01*
X151600677Y-120161822D02*
X151648296Y-120066584D01*
X151648296Y-120066584D02*
X151648296Y-119876108D01*
X151648296Y-119876108D02*
X151600677Y-119780870D01*
X151600677Y-119780870D02*
X151553057Y-119733251D01*
X151553057Y-119733251D02*
X151457819Y-119685632D01*
X151457819Y-119685632D02*
X151219724Y-119685632D01*
X151219724Y-119685632D02*
X151124486Y-119733251D01*
X151124486Y-119733251D02*
X151076867Y-119780870D01*
X151076867Y-119780870D02*
X151029248Y-119876108D01*
X151029248Y-119876108D02*
X151029248Y-120066584D01*
X151029248Y-120066584D02*
X151076867Y-120161822D01*
X151076867Y-120161822D02*
X151124486Y-120209441D01*
X151124486Y-120209441D02*
X151219724Y-120257060D01*
X151600677Y-119209441D02*
X151648296Y-119209441D01*
X151648296Y-119209441D02*
X151743534Y-119257060D01*
X151743534Y-119257060D02*
X151791153Y-119304679D01*
X151648296Y-118257061D02*
X151648296Y-118828489D01*
X151648296Y-118542775D02*
X150648296Y-118542775D01*
X150648296Y-118542775D02*
X150791153Y-118638013D01*
X150791153Y-118638013D02*
X150886391Y-118733251D01*
X150886391Y-118733251D02*
X150934010Y-118828489D01*
X150648296Y-117923727D02*
X150648296Y-117257061D01*
X150648296Y-117257061D02*
X151648296Y-117685632D01*
X147619271Y-97345674D02*
X147666891Y-97393293D01*
X147666891Y-97393293D02*
X147714510Y-97536150D01*
X147714510Y-97536150D02*
X147714510Y-97631388D01*
X147714510Y-97631388D02*
X147666891Y-97774245D01*
X147666891Y-97774245D02*
X147571652Y-97869483D01*
X147571652Y-97869483D02*
X147476414Y-97917102D01*
X147476414Y-97917102D02*
X147285938Y-97964721D01*
X147285938Y-97964721D02*
X147143081Y-97964721D01*
X147143081Y-97964721D02*
X146952605Y-97917102D01*
X146952605Y-97917102D02*
X146857367Y-97869483D01*
X146857367Y-97869483D02*
X146762129Y-97774245D01*
X146762129Y-97774245D02*
X146714510Y-97631388D01*
X146714510Y-97631388D02*
X146714510Y-97536150D01*
X146714510Y-97536150D02*
X146762129Y-97393293D01*
X146762129Y-97393293D02*
X146809748Y-97345674D01*
X146809748Y-96964721D02*
X146762129Y-96917102D01*
X146762129Y-96917102D02*
X146714510Y-96821864D01*
X146714510Y-96821864D02*
X146714510Y-96583769D01*
X146714510Y-96583769D02*
X146762129Y-96488531D01*
X146762129Y-96488531D02*
X146809748Y-96440912D01*
X146809748Y-96440912D02*
X146904986Y-96393293D01*
X146904986Y-96393293D02*
X147000224Y-96393293D01*
X147000224Y-96393293D02*
X147143081Y-96440912D01*
X147143081Y-96440912D02*
X147714510Y-97012340D01*
X147714510Y-97012340D02*
X147714510Y-96393293D01*
X162974134Y-105269789D02*
X162974134Y-106079312D01*
X162974134Y-106079312D02*
X163021753Y-106174550D01*
X163021753Y-106174550D02*
X163069372Y-106222170D01*
X163069372Y-106222170D02*
X163164610Y-106269789D01*
X163164610Y-106269789D02*
X163355086Y-106269789D01*
X163355086Y-106269789D02*
X163450324Y-106222170D01*
X163450324Y-106222170D02*
X163497943Y-106174550D01*
X163497943Y-106174550D02*
X163545562Y-106079312D01*
X163545562Y-106079312D02*
X163545562Y-105269789D01*
X164450324Y-105269789D02*
X164259848Y-105269789D01*
X164259848Y-105269789D02*
X164164610Y-105317408D01*
X164164610Y-105317408D02*
X164116991Y-105365027D01*
X164116991Y-105365027D02*
X164021753Y-105507884D01*
X164021753Y-105507884D02*
X163974134Y-105698360D01*
X163974134Y-105698360D02*
X163974134Y-106079312D01*
X163974134Y-106079312D02*
X164021753Y-106174550D01*
X164021753Y-106174550D02*
X164069372Y-106222170D01*
X164069372Y-106222170D02*
X164164610Y-106269789D01*
X164164610Y-106269789D02*
X164355086Y-106269789D01*
X164355086Y-106269789D02*
X164450324Y-106222170D01*
X164450324Y-106222170D02*
X164497943Y-106174550D01*
X164497943Y-106174550D02*
X164545562Y-106079312D01*
X164545562Y-106079312D02*
X164545562Y-105841217D01*
X164545562Y-105841217D02*
X164497943Y-105745979D01*
X164497943Y-105745979D02*
X164450324Y-105698360D01*
X164450324Y-105698360D02*
X164355086Y-105650741D01*
X164355086Y-105650741D02*
X164164610Y-105650741D01*
X164164610Y-105650741D02*
X164069372Y-105698360D01*
X164069372Y-105698360D02*
X164021753Y-105745979D01*
X164021753Y-105745979D02*
X163974134Y-105841217D01*
X169395232Y-77764991D02*
X168395232Y-77764991D01*
X168395232Y-77764991D02*
X169109517Y-77431658D01*
X169109517Y-77431658D02*
X168395232Y-77098325D01*
X168395232Y-77098325D02*
X169395232Y-77098325D01*
X168395232Y-76622134D02*
X169204755Y-76622134D01*
X169204755Y-76622134D02*
X169299993Y-76574515D01*
X169299993Y-76574515D02*
X169347613Y-76526896D01*
X169347613Y-76526896D02*
X169395232Y-76431658D01*
X169395232Y-76431658D02*
X169395232Y-76241182D01*
X169395232Y-76241182D02*
X169347613Y-76145944D01*
X169347613Y-76145944D02*
X169299993Y-76098325D01*
X169299993Y-76098325D02*
X169204755Y-76050706D01*
X169204755Y-76050706D02*
X168395232Y-76050706D01*
X169347613Y-75622134D02*
X169395232Y-75479277D01*
X169395232Y-75479277D02*
X169395232Y-75241182D01*
X169395232Y-75241182D02*
X169347613Y-75145944D01*
X169347613Y-75145944D02*
X169299993Y-75098325D01*
X169299993Y-75098325D02*
X169204755Y-75050706D01*
X169204755Y-75050706D02*
X169109517Y-75050706D01*
X169109517Y-75050706D02*
X169014279Y-75098325D01*
X169014279Y-75098325D02*
X168966660Y-75145944D01*
X168966660Y-75145944D02*
X168919041Y-75241182D01*
X168919041Y-75241182D02*
X168871422Y-75431658D01*
X168871422Y-75431658D02*
X168823803Y-75526896D01*
X168823803Y-75526896D02*
X168776184Y-75574515D01*
X168776184Y-75574515D02*
X168680946Y-75622134D01*
X168680946Y-75622134D02*
X168585708Y-75622134D01*
X168585708Y-75622134D02*
X168490470Y-75574515D01*
X168490470Y-75574515D02*
X168442851Y-75526896D01*
X168442851Y-75526896D02*
X168395232Y-75431658D01*
X168395232Y-75431658D02*
X168395232Y-75193563D01*
X168395232Y-75193563D02*
X168442851Y-75050706D01*
X169395232Y-74622134D02*
X168395232Y-74622134D01*
X169299993Y-73574516D02*
X169347613Y-73622135D01*
X169347613Y-73622135D02*
X169395232Y-73764992D01*
X169395232Y-73764992D02*
X169395232Y-73860230D01*
X169395232Y-73860230D02*
X169347613Y-74003087D01*
X169347613Y-74003087D02*
X169252374Y-74098325D01*
X169252374Y-74098325D02*
X169157136Y-74145944D01*
X169157136Y-74145944D02*
X168966660Y-74193563D01*
X168966660Y-74193563D02*
X168823803Y-74193563D01*
X168823803Y-74193563D02*
X168633327Y-74145944D01*
X168633327Y-74145944D02*
X168538089Y-74098325D01*
X168538089Y-74098325D02*
X168442851Y-74003087D01*
X168442851Y-74003087D02*
X168395232Y-73860230D01*
X168395232Y-73860230D02*
X168395232Y-73764992D01*
X168395232Y-73764992D02*
X168442851Y-73622135D01*
X168442851Y-73622135D02*
X168490470Y-73574516D01*
X169490470Y-73384040D02*
X169490470Y-72622135D01*
X169395232Y-72384039D02*
X168395232Y-72384039D01*
X169395232Y-71907849D02*
X168395232Y-71907849D01*
X168395232Y-71907849D02*
X169395232Y-71336421D01*
X169395232Y-71336421D02*
X168395232Y-71336421D01*
X169395232Y-70336421D02*
X169395232Y-70907849D01*
X169395232Y-70622135D02*
X168395232Y-70622135D01*
X168395232Y-70622135D02*
X168538089Y-70717373D01*
X168538089Y-70717373D02*
X168633327Y-70812611D01*
X168633327Y-70812611D02*
X168680946Y-70907849D01*
X108147261Y-79376906D02*
X107147261Y-79376906D01*
X107147261Y-79376906D02*
X107147261Y-79138811D01*
X107147261Y-79138811D02*
X107194880Y-78995954D01*
X107194880Y-78995954D02*
X107290118Y-78900716D01*
X107290118Y-78900716D02*
X107385356Y-78853097D01*
X107385356Y-78853097D02*
X107575832Y-78805478D01*
X107575832Y-78805478D02*
X107718689Y-78805478D01*
X107718689Y-78805478D02*
X107909165Y-78853097D01*
X107909165Y-78853097D02*
X108004403Y-78900716D01*
X108004403Y-78900716D02*
X108099642Y-78995954D01*
X108099642Y-78995954D02*
X108147261Y-79138811D01*
X108147261Y-79138811D02*
X108147261Y-79376906D01*
X108147261Y-78376906D02*
X107147261Y-78376906D01*
X108099642Y-77948335D02*
X108147261Y-77805478D01*
X108147261Y-77805478D02*
X108147261Y-77567383D01*
X108147261Y-77567383D02*
X108099642Y-77472145D01*
X108099642Y-77472145D02*
X108052022Y-77424526D01*
X108052022Y-77424526D02*
X107956784Y-77376907D01*
X107956784Y-77376907D02*
X107861546Y-77376907D01*
X107861546Y-77376907D02*
X107766308Y-77424526D01*
X107766308Y-77424526D02*
X107718689Y-77472145D01*
X107718689Y-77472145D02*
X107671070Y-77567383D01*
X107671070Y-77567383D02*
X107623451Y-77757859D01*
X107623451Y-77757859D02*
X107575832Y-77853097D01*
X107575832Y-77853097D02*
X107528213Y-77900716D01*
X107528213Y-77900716D02*
X107432975Y-77948335D01*
X107432975Y-77948335D02*
X107337737Y-77948335D01*
X107337737Y-77948335D02*
X107242499Y-77900716D01*
X107242499Y-77900716D02*
X107194880Y-77853097D01*
X107194880Y-77853097D02*
X107147261Y-77757859D01*
X107147261Y-77757859D02*
X107147261Y-77519764D01*
X107147261Y-77519764D02*
X107194880Y-77376907D01*
X108147261Y-76948335D02*
X107147261Y-76948335D01*
X107147261Y-76948335D02*
X107147261Y-76567383D01*
X107147261Y-76567383D02*
X107194880Y-76472145D01*
X107194880Y-76472145D02*
X107242499Y-76424526D01*
X107242499Y-76424526D02*
X107337737Y-76376907D01*
X107337737Y-76376907D02*
X107480594Y-76376907D01*
X107480594Y-76376907D02*
X107575832Y-76424526D01*
X107575832Y-76424526D02*
X107623451Y-76472145D01*
X107623451Y-76472145D02*
X107671070Y-76567383D01*
X107671070Y-76567383D02*
X107671070Y-76948335D01*
X108147261Y-75472145D02*
X108147261Y-75948335D01*
X108147261Y-75948335D02*
X107147261Y-75948335D01*
X107861546Y-75186430D02*
X107861546Y-74710240D01*
X108147261Y-75281668D02*
X107147261Y-74948335D01*
X107147261Y-74948335D02*
X108147261Y-74615002D01*
X107671070Y-74091192D02*
X108147261Y-74091192D01*
X107147261Y-74424525D02*
X107671070Y-74091192D01*
X107671070Y-74091192D02*
X107147261Y-73757859D01*
X108147261Y-72900716D02*
X108147261Y-73472144D01*
X108147261Y-73186430D02*
X107147261Y-73186430D01*
X107147261Y-73186430D02*
X107290118Y-73281668D01*
X107290118Y-73281668D02*
X107385356Y-73376906D01*
X107385356Y-73376906D02*
X107432975Y-73472144D01*
X147692629Y-109805389D02*
X147359296Y-109329198D01*
X147121201Y-109805389D02*
X147121201Y-108805389D01*
X147121201Y-108805389D02*
X147502153Y-108805389D01*
X147502153Y-108805389D02*
X147597391Y-108853008D01*
X147597391Y-108853008D02*
X147645010Y-108900627D01*
X147645010Y-108900627D02*
X147692629Y-108995865D01*
X147692629Y-108995865D02*
X147692629Y-109138722D01*
X147692629Y-109138722D02*
X147645010Y-109233960D01*
X147645010Y-109233960D02*
X147597391Y-109281579D01*
X147597391Y-109281579D02*
X147502153Y-109329198D01*
X147502153Y-109329198D02*
X147121201Y-109329198D01*
X148549772Y-109138722D02*
X148549772Y-109805389D01*
X148311677Y-108757770D02*
X148073582Y-109472055D01*
X148073582Y-109472055D02*
X148692629Y-109472055D01*
X148198031Y-88020632D02*
X147721840Y-88353965D01*
X148198031Y-88592060D02*
X147198031Y-88592060D01*
X147198031Y-88592060D02*
X147198031Y-88211108D01*
X147198031Y-88211108D02*
X147245650Y-88115870D01*
X147245650Y-88115870D02*
X147293269Y-88068251D01*
X147293269Y-88068251D02*
X147388507Y-88020632D01*
X147388507Y-88020632D02*
X147531364Y-88020632D01*
X147531364Y-88020632D02*
X147626602Y-88068251D01*
X147626602Y-88068251D02*
X147674221Y-88115870D01*
X147674221Y-88115870D02*
X147721840Y-88211108D01*
X147721840Y-88211108D02*
X147721840Y-88592060D01*
X147198031Y-87687298D02*
X147198031Y-87020632D01*
X147198031Y-87020632D02*
X148198031Y-87449203D01*
X117503110Y-69470716D02*
X117503110Y-70280239D01*
X117503110Y-70280239D02*
X117550729Y-70375477D01*
X117550729Y-70375477D02*
X117598348Y-70423097D01*
X117598348Y-70423097D02*
X117693586Y-70470716D01*
X117693586Y-70470716D02*
X117884062Y-70470716D01*
X117884062Y-70470716D02*
X117979300Y-70423097D01*
X117979300Y-70423097D02*
X118026919Y-70375477D01*
X118026919Y-70375477D02*
X118074538Y-70280239D01*
X118074538Y-70280239D02*
X118074538Y-69470716D01*
X118455491Y-69470716D02*
X119074538Y-69470716D01*
X119074538Y-69470716D02*
X118741205Y-69851668D01*
X118741205Y-69851668D02*
X118884062Y-69851668D01*
X118884062Y-69851668D02*
X118979300Y-69899287D01*
X118979300Y-69899287D02*
X119026919Y-69946906D01*
X119026919Y-69946906D02*
X119074538Y-70042144D01*
X119074538Y-70042144D02*
X119074538Y-70280239D01*
X119074538Y-70280239D02*
X119026919Y-70375477D01*
X119026919Y-70375477D02*
X118979300Y-70423097D01*
X118979300Y-70423097D02*
X118884062Y-70470716D01*
X118884062Y-70470716D02*
X118598348Y-70470716D01*
X118598348Y-70470716D02*
X118503110Y-70423097D01*
X118503110Y-70423097D02*
X118455491Y-70375477D01*
X109129104Y-103199438D02*
X109129104Y-102723248D01*
X109414819Y-103294676D02*
X108414819Y-102961343D01*
X108414819Y-102961343D02*
X109414819Y-102628010D01*
X109414819Y-102294676D02*
X108414819Y-102294676D01*
X108414819Y-102294676D02*
X109129104Y-101961343D01*
X109129104Y-101961343D02*
X108414819Y-101628010D01*
X108414819Y-101628010D02*
X109414819Y-101628010D01*
X109414819Y-101151819D02*
X108414819Y-101151819D01*
X108414819Y-101151819D02*
X108414819Y-100770867D01*
X108414819Y-100770867D02*
X108462438Y-100675629D01*
X108462438Y-100675629D02*
X108510057Y-100628010D01*
X108510057Y-100628010D02*
X108605295Y-100580391D01*
X108605295Y-100580391D02*
X108748152Y-100580391D01*
X108748152Y-100580391D02*
X108843390Y-100628010D01*
X108843390Y-100628010D02*
X108891009Y-100675629D01*
X108891009Y-100675629D02*
X108938628Y-100770867D01*
X108938628Y-100770867D02*
X108938628Y-101151819D01*
X108414819Y-100247057D02*
X108414819Y-99628010D01*
X108414819Y-99628010D02*
X108795771Y-99961343D01*
X108795771Y-99961343D02*
X108795771Y-99818486D01*
X108795771Y-99818486D02*
X108843390Y-99723248D01*
X108843390Y-99723248D02*
X108891009Y-99675629D01*
X108891009Y-99675629D02*
X108986247Y-99628010D01*
X108986247Y-99628010D02*
X109224342Y-99628010D01*
X109224342Y-99628010D02*
X109319580Y-99675629D01*
X109319580Y-99675629D02*
X109367200Y-99723248D01*
X109367200Y-99723248D02*
X109414819Y-99818486D01*
X109414819Y-99818486D02*
X109414819Y-100104200D01*
X109414819Y-100104200D02*
X109367200Y-100199438D01*
X109367200Y-100199438D02*
X109319580Y-100247057D01*
X145144279Y-123799504D02*
X145144279Y-124609027D01*
X145144279Y-124609027D02*
X145191898Y-124704265D01*
X145191898Y-124704265D02*
X145239517Y-124751885D01*
X145239517Y-124751885D02*
X145334755Y-124799504D01*
X145334755Y-124799504D02*
X145525231Y-124799504D01*
X145525231Y-124799504D02*
X145620469Y-124751885D01*
X145620469Y-124751885D02*
X145668088Y-124704265D01*
X145668088Y-124704265D02*
X145715707Y-124609027D01*
X145715707Y-124609027D02*
X145715707Y-123799504D01*
X146715707Y-124799504D02*
X146144279Y-124799504D01*
X146429993Y-124799504D02*
X146429993Y-123799504D01*
X146429993Y-123799504D02*
X146334755Y-123942361D01*
X146334755Y-123942361D02*
X146239517Y-124037599D01*
X146239517Y-124037599D02*
X146144279Y-124085218D01*
X154496803Y-82969552D02*
X154020612Y-83302885D01*
X154496803Y-83540980D02*
X153496803Y-83540980D01*
X153496803Y-83540980D02*
X153496803Y-83160028D01*
X153496803Y-83160028D02*
X153544422Y-83064790D01*
X153544422Y-83064790D02*
X153592041Y-83017171D01*
X153592041Y-83017171D02*
X153687279Y-82969552D01*
X153687279Y-82969552D02*
X153830136Y-82969552D01*
X153830136Y-82969552D02*
X153925374Y-83017171D01*
X153925374Y-83017171D02*
X153972993Y-83064790D01*
X153972993Y-83064790D02*
X154020612Y-83160028D01*
X154020612Y-83160028D02*
X154020612Y-83540980D01*
X154496803Y-82017171D02*
X154496803Y-82588599D01*
X154496803Y-82302885D02*
X153496803Y-82302885D01*
X153496803Y-82302885D02*
X153639660Y-82398123D01*
X153639660Y-82398123D02*
X153734898Y-82493361D01*
X153734898Y-82493361D02*
X153782517Y-82588599D01*
X158739327Y-84550103D02*
X158739327Y-84883436D01*
X159263137Y-84883436D02*
X158263137Y-84883436D01*
X158263137Y-84883436D02*
X158263137Y-84407246D01*
X158739327Y-83692960D02*
X158786946Y-83550103D01*
X158786946Y-83550103D02*
X158834565Y-83502484D01*
X158834565Y-83502484D02*
X158929803Y-83454865D01*
X158929803Y-83454865D02*
X159072660Y-83454865D01*
X159072660Y-83454865D02*
X159167898Y-83502484D01*
X159167898Y-83502484D02*
X159215518Y-83550103D01*
X159215518Y-83550103D02*
X159263137Y-83645341D01*
X159263137Y-83645341D02*
X159263137Y-84026293D01*
X159263137Y-84026293D02*
X158263137Y-84026293D01*
X158263137Y-84026293D02*
X158263137Y-83692960D01*
X158263137Y-83692960D02*
X158310756Y-83597722D01*
X158310756Y-83597722D02*
X158358375Y-83550103D01*
X158358375Y-83550103D02*
X158453613Y-83502484D01*
X158453613Y-83502484D02*
X158548851Y-83502484D01*
X158548851Y-83502484D02*
X158644089Y-83550103D01*
X158644089Y-83550103D02*
X158691708Y-83597722D01*
X158691708Y-83597722D02*
X158739327Y-83692960D01*
X158739327Y-83692960D02*
X158739327Y-84026293D01*
X159263137Y-82502484D02*
X159263137Y-83073912D01*
X159263137Y-82788198D02*
X158263137Y-82788198D01*
X158263137Y-82788198D02*
X158405994Y-82883436D01*
X158405994Y-82883436D02*
X158501232Y-82978674D01*
X158501232Y-82978674D02*
X158548851Y-83073912D01*
X170692054Y-90089090D02*
X170692054Y-89089090D01*
X170692054Y-89089090D02*
X170930149Y-89089090D01*
X170930149Y-89089090D02*
X171073006Y-89136709D01*
X171073006Y-89136709D02*
X171168244Y-89231947D01*
X171168244Y-89231947D02*
X171215863Y-89327185D01*
X171215863Y-89327185D02*
X171263482Y-89517661D01*
X171263482Y-89517661D02*
X171263482Y-89660518D01*
X171263482Y-89660518D02*
X171215863Y-89850994D01*
X171215863Y-89850994D02*
X171168244Y-89946232D01*
X171168244Y-89946232D02*
X171073006Y-90041471D01*
X171073006Y-90041471D02*
X170930149Y-90089090D01*
X170930149Y-90089090D02*
X170692054Y-90089090D01*
X172120625Y-89422423D02*
X172120625Y-90089090D01*
X171882530Y-89041471D02*
X171644435Y-89755756D01*
X171644435Y-89755756D02*
X172263482Y-89755756D01*
X152733014Y-91678769D02*
X152256823Y-92012102D01*
X152733014Y-92250197D02*
X151733014Y-92250197D01*
X151733014Y-92250197D02*
X151733014Y-91869245D01*
X151733014Y-91869245D02*
X151780633Y-91774007D01*
X151780633Y-91774007D02*
X151828252Y-91726388D01*
X151828252Y-91726388D02*
X151923490Y-91678769D01*
X151923490Y-91678769D02*
X152066347Y-91678769D01*
X152066347Y-91678769D02*
X152161585Y-91726388D01*
X152161585Y-91726388D02*
X152209204Y-91774007D01*
X152209204Y-91774007D02*
X152256823Y-91869245D01*
X152256823Y-91869245D02*
X152256823Y-92250197D01*
X151733014Y-90821626D02*
X151733014Y-91012102D01*
X151733014Y-91012102D02*
X151780633Y-91107340D01*
X151780633Y-91107340D02*
X151828252Y-91154959D01*
X151828252Y-91154959D02*
X151971109Y-91250197D01*
X151971109Y-91250197D02*
X152161585Y-91297816D01*
X152161585Y-91297816D02*
X152542537Y-91297816D01*
X152542537Y-91297816D02*
X152637775Y-91250197D01*
X152637775Y-91250197D02*
X152685395Y-91202578D01*
X152685395Y-91202578D02*
X152733014Y-91107340D01*
X152733014Y-91107340D02*
X152733014Y-90916864D01*
X152733014Y-90916864D02*
X152685395Y-90821626D01*
X152685395Y-90821626D02*
X152637775Y-90774007D01*
X152637775Y-90774007D02*
X152542537Y-90726388D01*
X152542537Y-90726388D02*
X152304442Y-90726388D01*
X152304442Y-90726388D02*
X152209204Y-90774007D01*
X152209204Y-90774007D02*
X152161585Y-90821626D01*
X152161585Y-90821626D02*
X152113966Y-90916864D01*
X152113966Y-90916864D02*
X152113966Y-91107340D01*
X152113966Y-91107340D02*
X152161585Y-91202578D01*
X152161585Y-91202578D02*
X152209204Y-91250197D01*
X152209204Y-91250197D02*
X152304442Y-91297816D01*
X174477825Y-77811644D02*
X173477825Y-77811644D01*
X173477825Y-77811644D02*
X174192110Y-77478311D01*
X174192110Y-77478311D02*
X173477825Y-77144978D01*
X173477825Y-77144978D02*
X174477825Y-77144978D01*
X173477825Y-76668787D02*
X174287348Y-76668787D01*
X174287348Y-76668787D02*
X174382586Y-76621168D01*
X174382586Y-76621168D02*
X174430206Y-76573549D01*
X174430206Y-76573549D02*
X174477825Y-76478311D01*
X174477825Y-76478311D02*
X174477825Y-76287835D01*
X174477825Y-76287835D02*
X174430206Y-76192597D01*
X174430206Y-76192597D02*
X174382586Y-76144978D01*
X174382586Y-76144978D02*
X174287348Y-76097359D01*
X174287348Y-76097359D02*
X173477825Y-76097359D01*
X174430206Y-75668787D02*
X174477825Y-75525930D01*
X174477825Y-75525930D02*
X174477825Y-75287835D01*
X174477825Y-75287835D02*
X174430206Y-75192597D01*
X174430206Y-75192597D02*
X174382586Y-75144978D01*
X174382586Y-75144978D02*
X174287348Y-75097359D01*
X174287348Y-75097359D02*
X174192110Y-75097359D01*
X174192110Y-75097359D02*
X174096872Y-75144978D01*
X174096872Y-75144978D02*
X174049253Y-75192597D01*
X174049253Y-75192597D02*
X174001634Y-75287835D01*
X174001634Y-75287835D02*
X173954015Y-75478311D01*
X173954015Y-75478311D02*
X173906396Y-75573549D01*
X173906396Y-75573549D02*
X173858777Y-75621168D01*
X173858777Y-75621168D02*
X173763539Y-75668787D01*
X173763539Y-75668787D02*
X173668301Y-75668787D01*
X173668301Y-75668787D02*
X173573063Y-75621168D01*
X173573063Y-75621168D02*
X173525444Y-75573549D01*
X173525444Y-75573549D02*
X173477825Y-75478311D01*
X173477825Y-75478311D02*
X173477825Y-75240216D01*
X173477825Y-75240216D02*
X173525444Y-75097359D01*
X174477825Y-74668787D02*
X173477825Y-74668787D01*
X174382586Y-73621169D02*
X174430206Y-73668788D01*
X174430206Y-73668788D02*
X174477825Y-73811645D01*
X174477825Y-73811645D02*
X174477825Y-73906883D01*
X174477825Y-73906883D02*
X174430206Y-74049740D01*
X174430206Y-74049740D02*
X174334967Y-74144978D01*
X174334967Y-74144978D02*
X174239729Y-74192597D01*
X174239729Y-74192597D02*
X174049253Y-74240216D01*
X174049253Y-74240216D02*
X173906396Y-74240216D01*
X173906396Y-74240216D02*
X173715920Y-74192597D01*
X173715920Y-74192597D02*
X173620682Y-74144978D01*
X173620682Y-74144978D02*
X173525444Y-74049740D01*
X173525444Y-74049740D02*
X173477825Y-73906883D01*
X173477825Y-73906883D02*
X173477825Y-73811645D01*
X173477825Y-73811645D02*
X173525444Y-73668788D01*
X173525444Y-73668788D02*
X173573063Y-73621169D01*
X174573063Y-73430693D02*
X174573063Y-72668788D01*
X173477825Y-72573549D02*
X173477825Y-72002121D01*
X174477825Y-72287835D02*
X173477825Y-72287835D01*
X174477825Y-71668787D02*
X173477825Y-71668787D01*
X173954015Y-71668787D02*
X173954015Y-71097359D01*
X174477825Y-71097359D02*
X173477825Y-71097359D01*
X174477825Y-70049740D02*
X174001634Y-70383073D01*
X174477825Y-70621168D02*
X173477825Y-70621168D01*
X173477825Y-70621168D02*
X173477825Y-70240216D01*
X173477825Y-70240216D02*
X173525444Y-70144978D01*
X173525444Y-70144978D02*
X173573063Y-70097359D01*
X173573063Y-70097359D02*
X173668301Y-70049740D01*
X173668301Y-70049740D02*
X173811158Y-70049740D01*
X173811158Y-70049740D02*
X173906396Y-70097359D01*
X173906396Y-70097359D02*
X173954015Y-70144978D01*
X173954015Y-70144978D02*
X174001634Y-70240216D01*
X174001634Y-70240216D02*
X174001634Y-70621168D01*
X173477825Y-69621168D02*
X174287348Y-69621168D01*
X174287348Y-69621168D02*
X174382586Y-69573549D01*
X174382586Y-69573549D02*
X174430206Y-69525930D01*
X174430206Y-69525930D02*
X174477825Y-69430692D01*
X174477825Y-69430692D02*
X174477825Y-69240216D01*
X174477825Y-69240216D02*
X174430206Y-69144978D01*
X174430206Y-69144978D02*
X174382586Y-69097359D01*
X174382586Y-69097359D02*
X174287348Y-69049740D01*
X174287348Y-69049740D02*
X173477825Y-69049740D01*
X174477825Y-68049740D02*
X174477825Y-68621168D01*
X174477825Y-68335454D02*
X173477825Y-68335454D01*
X173477825Y-68335454D02*
X173620682Y-68430692D01*
X173620682Y-68430692D02*
X173715920Y-68525930D01*
X173715920Y-68525930D02*
X173763539Y-68621168D01*
X115048726Y-86555280D02*
X115001107Y-86650518D01*
X115001107Y-86650518D02*
X115001107Y-86793375D01*
X115001107Y-86793375D02*
X115048726Y-86936232D01*
X115048726Y-86936232D02*
X115143964Y-87031470D01*
X115143964Y-87031470D02*
X115239202Y-87079089D01*
X115239202Y-87079089D02*
X115429678Y-87126708D01*
X115429678Y-87126708D02*
X115572535Y-87126708D01*
X115572535Y-87126708D02*
X115763011Y-87079089D01*
X115763011Y-87079089D02*
X115858249Y-87031470D01*
X115858249Y-87031470D02*
X115953488Y-86936232D01*
X115953488Y-86936232D02*
X116001107Y-86793375D01*
X116001107Y-86793375D02*
X116001107Y-86698137D01*
X116001107Y-86698137D02*
X115953488Y-86555280D01*
X115953488Y-86555280D02*
X115905868Y-86507661D01*
X115905868Y-86507661D02*
X115572535Y-86507661D01*
X115572535Y-86507661D02*
X115572535Y-86698137D01*
X116001107Y-86079089D02*
X115001107Y-86079089D01*
X115001107Y-86079089D02*
X115001107Y-85698137D01*
X115001107Y-85698137D02*
X115048726Y-85602899D01*
X115048726Y-85602899D02*
X115096345Y-85555280D01*
X115096345Y-85555280D02*
X115191583Y-85507661D01*
X115191583Y-85507661D02*
X115334440Y-85507661D01*
X115334440Y-85507661D02*
X115429678Y-85555280D01*
X115429678Y-85555280D02*
X115477297Y-85602899D01*
X115477297Y-85602899D02*
X115524916Y-85698137D01*
X115524916Y-85698137D02*
X115524916Y-86079089D01*
X116001107Y-85079089D02*
X115001107Y-85079089D01*
X115001107Y-84412423D02*
X115001107Y-84221947D01*
X115001107Y-84221947D02*
X115048726Y-84126709D01*
X115048726Y-84126709D02*
X115143964Y-84031471D01*
X115143964Y-84031471D02*
X115334440Y-83983852D01*
X115334440Y-83983852D02*
X115667773Y-83983852D01*
X115667773Y-83983852D02*
X115858249Y-84031471D01*
X115858249Y-84031471D02*
X115953488Y-84126709D01*
X115953488Y-84126709D02*
X116001107Y-84221947D01*
X116001107Y-84221947D02*
X116001107Y-84412423D01*
X116001107Y-84412423D02*
X115953488Y-84507661D01*
X115953488Y-84507661D02*
X115858249Y-84602899D01*
X115858249Y-84602899D02*
X115667773Y-84650518D01*
X115667773Y-84650518D02*
X115334440Y-84650518D01*
X115334440Y-84650518D02*
X115143964Y-84602899D01*
X115143964Y-84602899D02*
X115048726Y-84507661D01*
X115048726Y-84507661D02*
X115001107Y-84412423D01*
X115096345Y-83602899D02*
X115048726Y-83555280D01*
X115048726Y-83555280D02*
X115001107Y-83460042D01*
X115001107Y-83460042D02*
X115001107Y-83221947D01*
X115001107Y-83221947D02*
X115048726Y-83126709D01*
X115048726Y-83126709D02*
X115096345Y-83079090D01*
X115096345Y-83079090D02*
X115191583Y-83031471D01*
X115191583Y-83031471D02*
X115286821Y-83031471D01*
X115286821Y-83031471D02*
X115429678Y-83079090D01*
X115429678Y-83079090D02*
X116001107Y-83650518D01*
X116001107Y-83650518D02*
X116001107Y-83031471D01*
X115953488Y-82555280D02*
X116001107Y-82555280D01*
X116001107Y-82555280D02*
X116096345Y-82602899D01*
X116096345Y-82602899D02*
X116143964Y-82650518D01*
X115001107Y-82221947D02*
X115001107Y-81602900D01*
X115001107Y-81602900D02*
X115382059Y-81936233D01*
X115382059Y-81936233D02*
X115382059Y-81793376D01*
X115382059Y-81793376D02*
X115429678Y-81698138D01*
X115429678Y-81698138D02*
X115477297Y-81650519D01*
X115477297Y-81650519D02*
X115572535Y-81602900D01*
X115572535Y-81602900D02*
X115810630Y-81602900D01*
X115810630Y-81602900D02*
X115905868Y-81650519D01*
X115905868Y-81650519D02*
X115953488Y-81698138D01*
X115953488Y-81698138D02*
X116001107Y-81793376D01*
X116001107Y-81793376D02*
X116001107Y-82079090D01*
X116001107Y-82079090D02*
X115953488Y-82174328D01*
X115953488Y-82174328D02*
X115905868Y-82221947D01*
X169144240Y-114825241D02*
X169144240Y-115158574D01*
X169668050Y-115158574D02*
X168668050Y-115158574D01*
X168668050Y-115158574D02*
X168668050Y-114682384D01*
X169668050Y-114301431D02*
X168668050Y-114301431D01*
X168668050Y-114301431D02*
X168668050Y-113920479D01*
X168668050Y-113920479D02*
X168715669Y-113825241D01*
X168715669Y-113825241D02*
X168763288Y-113777622D01*
X168763288Y-113777622D02*
X168858526Y-113730003D01*
X168858526Y-113730003D02*
X169001383Y-113730003D01*
X169001383Y-113730003D02*
X169096621Y-113777622D01*
X169096621Y-113777622D02*
X169144240Y-113825241D01*
X169144240Y-113825241D02*
X169191859Y-113920479D01*
X169191859Y-113920479D02*
X169191859Y-114301431D01*
X169763288Y-113539527D02*
X169763288Y-112777622D01*
X169144240Y-112206193D02*
X169191859Y-112063336D01*
X169191859Y-112063336D02*
X169239478Y-112015717D01*
X169239478Y-112015717D02*
X169334716Y-111968098D01*
X169334716Y-111968098D02*
X169477573Y-111968098D01*
X169477573Y-111968098D02*
X169572811Y-112015717D01*
X169572811Y-112015717D02*
X169620431Y-112063336D01*
X169620431Y-112063336D02*
X169668050Y-112158574D01*
X169668050Y-112158574D02*
X169668050Y-112539526D01*
X169668050Y-112539526D02*
X168668050Y-112539526D01*
X168668050Y-112539526D02*
X168668050Y-112206193D01*
X168668050Y-112206193D02*
X168715669Y-112110955D01*
X168715669Y-112110955D02*
X168763288Y-112063336D01*
X168763288Y-112063336D02*
X168858526Y-112015717D01*
X168858526Y-112015717D02*
X168953764Y-112015717D01*
X168953764Y-112015717D02*
X169049002Y-112063336D01*
X169049002Y-112063336D02*
X169096621Y-112110955D01*
X169096621Y-112110955D02*
X169144240Y-112206193D01*
X169144240Y-112206193D02*
X169144240Y-112539526D01*
X168668050Y-111539526D02*
X169477573Y-111539526D01*
X169477573Y-111539526D02*
X169572811Y-111491907D01*
X169572811Y-111491907D02*
X169620431Y-111444288D01*
X169620431Y-111444288D02*
X169668050Y-111349050D01*
X169668050Y-111349050D02*
X169668050Y-111158574D01*
X169668050Y-111158574D02*
X169620431Y-111063336D01*
X169620431Y-111063336D02*
X169572811Y-111015717D01*
X169572811Y-111015717D02*
X169477573Y-110968098D01*
X169477573Y-110968098D02*
X168668050Y-110968098D01*
X168668050Y-110634764D02*
X168668050Y-110063336D01*
X169668050Y-110349050D02*
X168668050Y-110349050D01*
X168668050Y-109872859D02*
X168668050Y-109301431D01*
X169668050Y-109587145D02*
X168668050Y-109587145D01*
X168668050Y-108777621D02*
X168668050Y-108587145D01*
X168668050Y-108587145D02*
X168715669Y-108491907D01*
X168715669Y-108491907D02*
X168810907Y-108396669D01*
X168810907Y-108396669D02*
X169001383Y-108349050D01*
X169001383Y-108349050D02*
X169334716Y-108349050D01*
X169334716Y-108349050D02*
X169525192Y-108396669D01*
X169525192Y-108396669D02*
X169620431Y-108491907D01*
X169620431Y-108491907D02*
X169668050Y-108587145D01*
X169668050Y-108587145D02*
X169668050Y-108777621D01*
X169668050Y-108777621D02*
X169620431Y-108872859D01*
X169620431Y-108872859D02*
X169525192Y-108968097D01*
X169525192Y-108968097D02*
X169334716Y-109015716D01*
X169334716Y-109015716D02*
X169001383Y-109015716D01*
X169001383Y-109015716D02*
X168810907Y-108968097D01*
X168810907Y-108968097D02*
X168715669Y-108872859D01*
X168715669Y-108872859D02*
X168668050Y-108777621D01*
X169668050Y-107920478D02*
X168668050Y-107920478D01*
X168668050Y-107920478D02*
X169668050Y-107349050D01*
X169668050Y-107349050D02*
X168668050Y-107349050D01*
X169668050Y-106349050D02*
X169668050Y-106920478D01*
X169668050Y-106634764D02*
X168668050Y-106634764D01*
X168668050Y-106634764D02*
X168810907Y-106730002D01*
X168810907Y-106730002D02*
X168906145Y-106825240D01*
X168906145Y-106825240D02*
X168953764Y-106920478D01*
X107943341Y-95463187D02*
X107943341Y-94986997D01*
X108229056Y-95558425D02*
X107229056Y-95225092D01*
X107229056Y-95225092D02*
X108229056Y-94891759D01*
X108229056Y-94558425D02*
X107229056Y-94558425D01*
X107229056Y-94558425D02*
X107943341Y-94225092D01*
X107943341Y-94225092D02*
X107229056Y-93891759D01*
X107229056Y-93891759D02*
X108229056Y-93891759D01*
X108229056Y-93415568D02*
X107229056Y-93415568D01*
X107229056Y-93415568D02*
X107229056Y-93034616D01*
X107229056Y-93034616D02*
X107276675Y-92939378D01*
X107276675Y-92939378D02*
X107324294Y-92891759D01*
X107324294Y-92891759D02*
X107419532Y-92844140D01*
X107419532Y-92844140D02*
X107562389Y-92844140D01*
X107562389Y-92844140D02*
X107657627Y-92891759D01*
X107657627Y-92891759D02*
X107705246Y-92939378D01*
X107705246Y-92939378D02*
X107752865Y-93034616D01*
X107752865Y-93034616D02*
X107752865Y-93415568D01*
X107562389Y-91986997D02*
X108229056Y-91986997D01*
X107181437Y-92225092D02*
X107895722Y-92463187D01*
X107895722Y-92463187D02*
X107895722Y-91844140D01*
D11*
%TO.C,U2*%
X146497597Y-52489255D02*
X144047597Y-52489255D01*
X144047597Y-52489255D02*
X144047597Y-54819255D01*
X152227597Y-52819255D02*
X152227597Y-64759255D01*
X144377597Y-52819255D02*
X152227597Y-52819255D01*
X152227597Y-64759255D02*
X144377597Y-64759255D01*
X144377597Y-64759255D02*
X144377597Y-52819255D01*
%TO.C,D5*%
X153130217Y-97565867D02*
X153130217Y-95565867D01*
X153130217Y-97565867D02*
X149120217Y-97565867D01*
X153130217Y-95565867D02*
X149120217Y-95565867D01*
%TO.C,FP_LED1*%
X167632047Y-122696760D02*
X167632047Y-120196760D01*
X167632047Y-120196760D02*
X165132047Y-120196760D01*
X167332047Y-124516760D02*
X167332047Y-120496760D01*
X167332047Y-122806760D02*
X166832047Y-122806760D01*
X167332047Y-121996760D02*
X166332047Y-121996760D01*
X167332047Y-120496760D02*
X154612047Y-120496760D01*
X166832047Y-124016760D02*
X155112047Y-124016760D01*
X166832047Y-122806760D02*
X166832047Y-124016760D01*
X166332047Y-121996760D02*
X166332047Y-120496760D01*
X155612047Y-121996760D02*
X155612047Y-120496760D01*
X155112047Y-124016760D02*
X155112047Y-122806760D01*
X155112047Y-122806760D02*
X154612047Y-122806760D01*
X154612047Y-124516760D02*
X167332047Y-124516760D01*
X154612047Y-121996760D02*
X155612047Y-121996760D01*
X154612047Y-120496760D02*
X154612047Y-124516760D01*
%TO.C,AMP2*%
X104213296Y-117456777D02*
X106713296Y-117456777D01*
X106713296Y-117456777D02*
X106713296Y-114956777D01*
X102393296Y-117156777D02*
X106413296Y-117156777D01*
X104103296Y-117156777D02*
X104103296Y-116656777D01*
X104913296Y-117156777D02*
X104913296Y-116156777D01*
X106413296Y-117156777D02*
X106413296Y-104436777D01*
X102893296Y-116656777D02*
X102893296Y-104936777D01*
X104103296Y-116656777D02*
X102893296Y-116656777D01*
X104913296Y-116156777D02*
X106413296Y-116156777D01*
X104913296Y-105436777D02*
X106413296Y-105436777D01*
X102893296Y-104936777D02*
X104103296Y-104936777D01*
X104103296Y-104936777D02*
X104103296Y-104436777D01*
X102393296Y-104436777D02*
X102393296Y-117156777D01*
X104913296Y-104436777D02*
X104913296Y-105436777D01*
X106413296Y-104436777D02*
X102393296Y-104436777D01*
%TO.C,R12*%
X166273275Y-107795670D02*
X166273275Y-107341542D01*
X167743275Y-107795670D02*
X167743275Y-107341542D01*
%TO.C,C1*%
X115243211Y-62568476D02*
X115243211Y-63090980D01*
X113773211Y-62568476D02*
X113773211Y-63090980D01*
%TO.C,R2*%
X147662437Y-115316415D02*
X148116565Y-115316415D01*
X147662437Y-116786415D02*
X148116565Y-116786415D01*
%TO.C,R5*%
X168350421Y-117283153D02*
X168350421Y-117737281D01*
X166880421Y-117283153D02*
X166880421Y-117737281D01*
%TO.C,R9*%
X158513556Y-97602389D02*
X158059428Y-97602389D01*
X158513556Y-96132389D02*
X158059428Y-96132389D01*
%TO.C,D1*%
X146032666Y-76307258D02*
X146032666Y-79607258D01*
X146032666Y-76307258D02*
X151542666Y-76307258D01*
X146032666Y-79607258D02*
X151542666Y-79607258D01*
%TO.C,R11*%
X156502378Y-86433089D02*
X156956506Y-86433089D01*
X156502378Y-87903089D02*
X156956506Y-87903089D01*
%TO.C,AMP1*%
X111884370Y-124280371D02*
X114384370Y-124280371D01*
X114384370Y-124280371D02*
X114384370Y-121780371D01*
X110064370Y-123980371D02*
X114084370Y-123980371D01*
X111774370Y-123980371D02*
X111774370Y-123480371D01*
X112584370Y-123980371D02*
X112584370Y-122980371D01*
X114084370Y-123980371D02*
X114084370Y-111260371D01*
X110564370Y-123480371D02*
X110564370Y-111760371D01*
X111774370Y-123480371D02*
X110564370Y-123480371D01*
X112584370Y-122980371D02*
X114084370Y-122980371D01*
X112584370Y-112260371D02*
X114084370Y-112260371D01*
X110564370Y-111760371D02*
X111774370Y-111760371D01*
X111774370Y-111760371D02*
X111774370Y-111260371D01*
X110064370Y-111260371D02*
X110064370Y-123980371D01*
X112584370Y-111260371D02*
X112584370Y-112260371D01*
X114084370Y-111260371D02*
X110064370Y-111260371D01*
%TO.C,U7*%
X112830047Y-80987496D02*
X112830047Y-79312496D01*
X112830047Y-80987496D02*
X112830047Y-81637496D01*
X109710047Y-80987496D02*
X109710047Y-80337496D01*
X109710047Y-80987496D02*
X109710047Y-81637496D01*
%TO.C,D2*%
X149106306Y-93058402D02*
X149106306Y-94758402D01*
X149106306Y-93058402D02*
X151766306Y-93058402D01*
X149106306Y-94758402D02*
X151766306Y-94758402D01*
%TO.C,R3*%
X147652883Y-112828338D02*
X148107011Y-112828338D01*
X147652883Y-114298338D02*
X148107011Y-114298338D01*
%TO.C,TRIGGER1*%
X172478655Y-94941212D02*
X169978655Y-94941212D01*
X169978655Y-94941212D02*
X169978655Y-97441212D01*
X174298655Y-95241212D02*
X170278655Y-95241212D01*
X172588655Y-95241212D02*
X172588655Y-95741212D01*
X171778655Y-95241212D02*
X171778655Y-96241212D01*
X170278655Y-95241212D02*
X170278655Y-102961212D01*
X173798655Y-95741212D02*
X173798655Y-102461212D01*
X172588655Y-95741212D02*
X173798655Y-95741212D01*
X171778655Y-96241212D02*
X170278655Y-96241212D01*
X171778655Y-101961212D02*
X170278655Y-101961212D01*
X173798655Y-102461212D02*
X172588655Y-102461212D01*
X172588655Y-102461212D02*
X172588655Y-102961212D01*
X174298655Y-102961212D02*
X174298655Y-95241212D01*
X171778655Y-102961212D02*
X171778655Y-101961212D01*
X170278655Y-102961212D02*
X174298655Y-102961212D01*
%TO.C,FB2*%
X161613164Y-83308633D02*
X161613164Y-84107877D01*
X160493164Y-83308633D02*
X160493164Y-84107877D01*
%TO.C,R10*%
X166309615Y-91547411D02*
X166309615Y-92001539D01*
X164839615Y-91547411D02*
X164839615Y-92001539D01*
%TO.C,Q2*%
X161519919Y-117479119D02*
X161519919Y-115804119D01*
X161519919Y-117479119D02*
X161519919Y-118129119D01*
X158399919Y-117479119D02*
X158399919Y-116829119D01*
X158399919Y-117479119D02*
X158399919Y-118129119D01*
%TO.C,Q1*%
X156627316Y-117471848D02*
X156627316Y-115796848D01*
X156627316Y-117471848D02*
X156627316Y-118121848D01*
X153507316Y-117471848D02*
X153507316Y-116821848D01*
X153507316Y-117471848D02*
X153507316Y-118121848D01*
%TO.C,U8*%
X159243529Y-94262910D02*
X162693529Y-94262910D01*
X159243529Y-94262910D02*
X157293529Y-94262910D01*
X159243529Y-89142910D02*
X161193529Y-89142910D01*
X159243529Y-89142910D02*
X157293529Y-89142910D01*
%TO.C,C4*%
X122923601Y-63624231D02*
X122923601Y-64146735D01*
X121453601Y-63624231D02*
X121453601Y-64146735D01*
%TO.C,C3*%
X164239788Y-86755139D02*
X164239788Y-87277643D01*
X162769788Y-86755139D02*
X162769788Y-87277643D01*
%TO.C,Q3*%
X166425462Y-117540896D02*
X166425462Y-115865896D01*
X166425462Y-117540896D02*
X166425462Y-118190896D01*
X163305462Y-117540896D02*
X163305462Y-116890896D01*
X163305462Y-117540896D02*
X163305462Y-118190896D01*
%TO.C,D3*%
X152326306Y-90233315D02*
X152326306Y-88533315D01*
X152326306Y-90233315D02*
X149666306Y-90233315D01*
X152326306Y-88533315D02*
X149666306Y-88533315D01*
%TO.C,R8*%
X162082472Y-96146965D02*
X162536600Y-96146965D01*
X162082472Y-97616965D02*
X162536600Y-97616965D01*
%TO.C,U4*%
X149860000Y-86317500D02*
X151535000Y-86317500D01*
X149860000Y-86317500D02*
X149210000Y-86317500D01*
X149860000Y-83197500D02*
X150510000Y-83197500D01*
X149860000Y-83197500D02*
X149210000Y-83197500D01*
%TO.C,POWER1*%
X121655020Y-51992903D02*
X121655020Y-51352903D01*
X121655020Y-51352903D02*
X121255020Y-51352903D01*
X121415020Y-59312903D02*
X121415020Y-51592903D01*
X121415020Y-59312903D02*
X110795020Y-59312903D01*
X121415020Y-53152903D02*
X110795020Y-53152903D01*
X121415020Y-52052903D02*
X110795020Y-52052903D01*
X121415020Y-51592903D02*
X110795020Y-51592903D01*
X117250020Y-55211903D02*
X117379020Y-55083903D01*
X117080020Y-54971903D02*
X117174020Y-54878903D01*
X115035020Y-57427903D02*
X115129020Y-57333903D01*
X114830020Y-57221903D02*
X114959020Y-57093903D01*
X113750020Y-55211903D02*
X113879020Y-55083903D01*
X113580020Y-54971903D02*
X113674020Y-54878903D01*
X111535020Y-57427903D02*
X111629020Y-57333903D01*
X111330020Y-57221903D02*
X111459020Y-57093903D01*
X110795020Y-59312903D02*
X110795020Y-51592903D01*
X121045020Y-57018903D02*
G75*
G03*
X121030378Y-55263009I-1439998J866000D01*
G01*
X118739020Y-57592903D02*
G75*
G03*
X120494914Y-57578261I866000J1439998D01*
G01*
X120471020Y-54712903D02*
G75*
G03*
X119576346Y-54472805I-866003J-1440014D01*
G01*
X119605020Y-54472904D02*
G75*
G03*
X118714756Y-54728183I-3J-1679989D01*
G01*
X118180021Y-55261904D02*
G75*
G03*
X118179517Y-57043095I1425002J-890999D01*
G01*
X117785020Y-56152903D02*
G75*
G03*
X117785020Y-56152903I-1680000J0D01*
G01*
X114285020Y-56152903D02*
G75*
G03*
X114285020Y-56152903I-1680000J0D01*
G01*
%TO.C,GPIO16\u002C17*%
X149894694Y-123837219D02*
X148564694Y-123837219D01*
X149894694Y-122507219D02*
X149894694Y-123837219D01*
X149894694Y-121237219D02*
X149894694Y-118637219D01*
X149894694Y-121237219D02*
X147234694Y-121237219D01*
X149894694Y-118637219D02*
X147234694Y-118637219D01*
X147234694Y-121237219D02*
X147234694Y-118637219D01*
%TO.C,C2*%
X147994018Y-94181363D02*
X147994018Y-94703867D01*
X146524018Y-94181363D02*
X146524018Y-94703867D01*
%TO.C,U6*%
X166121039Y-104974970D02*
X166121039Y-104734970D01*
X166121039Y-104734970D02*
X167786039Y-104734970D01*
X166121039Y-102154970D02*
X166121039Y-102394970D01*
X163736039Y-104974970D02*
X166121039Y-104974970D01*
X163736039Y-104974970D02*
X161351039Y-104974970D01*
X163736039Y-102154970D02*
X166121039Y-102154970D01*
X163736039Y-102154970D02*
X161351039Y-102154970D01*
X161351039Y-104974970D02*
X161351039Y-104734970D01*
X161351039Y-102154970D02*
X161351039Y-102394970D01*
%TO.C,MUSIC_IN1*%
X166894304Y-88905563D02*
X169394304Y-88905563D01*
X169394304Y-88905563D02*
X169394304Y-86405563D01*
X165074304Y-88605563D02*
X169094304Y-88605563D01*
X166784304Y-88605563D02*
X166784304Y-88105563D01*
X167594304Y-88605563D02*
X167594304Y-87605563D01*
X169094304Y-88605563D02*
X169094304Y-78385563D01*
X165574304Y-88105563D02*
X165574304Y-78885563D01*
X166784304Y-88105563D02*
X165574304Y-88105563D01*
X167594304Y-87605563D02*
X169094304Y-87605563D01*
X167594304Y-79385563D02*
X169094304Y-79385563D01*
X165574304Y-78885563D02*
X166784304Y-78885563D01*
X166784304Y-78885563D02*
X166784304Y-78385563D01*
X165074304Y-78385563D02*
X165074304Y-88605563D01*
X167594304Y-78385563D02*
X167594304Y-79385563D01*
X169094304Y-78385563D02*
X165074304Y-78385563D01*
%TO.C,DISPLAY1*%
X104782442Y-69502621D02*
X102282442Y-69502621D01*
X102282442Y-69502621D02*
X102282442Y-72002621D01*
X106602442Y-69802621D02*
X102582442Y-69802621D01*
X104892442Y-69802621D02*
X104892442Y-70302621D01*
X104082442Y-69802621D02*
X104082442Y-70802621D01*
X102582442Y-69802621D02*
X102582442Y-82522621D01*
X106102442Y-70302621D02*
X106102442Y-82022621D01*
X104892442Y-70302621D02*
X106102442Y-70302621D01*
X104082442Y-70802621D02*
X102582442Y-70802621D01*
X104082442Y-81522621D02*
X102582442Y-81522621D01*
X106102442Y-82022621D02*
X104892442Y-82022621D01*
X104892442Y-82022621D02*
X104892442Y-82522621D01*
X106602442Y-82522621D02*
X106602442Y-69802621D01*
X104082442Y-82522621D02*
X104082442Y-81522621D01*
X102582442Y-82522621D02*
X106602442Y-82522621D01*
%TO.C,R4*%
X147632232Y-110265570D02*
X148086360Y-110265570D01*
X147632232Y-111735570D02*
X148086360Y-111735570D01*
%TO.C,R7*%
X148041307Y-90295965D02*
X148041307Y-90750093D01*
X146571307Y-90295965D02*
X146571307Y-90750093D01*
%TO.C,U3*%
X116270802Y-61568029D02*
X116270802Y-65168029D01*
X120720802Y-63368029D02*
G75*
G03*
X116282324Y-61529551I-2600000J0D01*
G01*
X116282324Y-65206507D02*
G75*
G03*
X120720802Y-63368029I1838478J1838478D01*
G01*
%TO.C,AMP3*%
X111870000Y-108073725D02*
X114370000Y-108073725D01*
X114370000Y-108073725D02*
X114370000Y-105573725D01*
X110050000Y-107773725D02*
X114070000Y-107773725D01*
X111760000Y-107773725D02*
X111760000Y-107273725D01*
X112570000Y-107773725D02*
X112570000Y-106773725D01*
X114070000Y-107773725D02*
X114070000Y-95053725D01*
X110550000Y-107273725D02*
X110550000Y-95553725D01*
X111760000Y-107273725D02*
X110550000Y-107273725D01*
X112570000Y-106773725D02*
X114070000Y-106773725D01*
X112570000Y-96053725D02*
X114070000Y-96053725D01*
X110550000Y-95553725D02*
X111760000Y-95553725D01*
X111760000Y-95553725D02*
X111760000Y-95053725D01*
X110050000Y-95053725D02*
X110050000Y-107773725D01*
X112570000Y-95053725D02*
X112570000Y-96053725D01*
X114070000Y-95053725D02*
X110050000Y-95053725D01*
%TO.C,U1*%
X122450000Y-76509685D02*
X121970000Y-76509685D01*
X122450000Y-76509685D02*
X122450000Y-76929685D01*
X122450000Y-79049685D02*
X122450000Y-79469685D01*
X122450000Y-81589685D02*
X122450000Y-82009685D01*
X122450000Y-84129685D02*
X122450000Y-84549685D01*
X122450000Y-86669685D02*
X122450000Y-87089685D01*
X122450000Y-89209685D02*
X122450000Y-89629685D01*
X122450000Y-91749685D02*
X122450000Y-92169685D01*
X122450000Y-94289685D02*
X122450000Y-94709685D01*
X122450000Y-96829685D02*
X122450000Y-97249685D01*
X122450000Y-99369685D02*
X122450000Y-99789685D01*
X122450000Y-101909685D02*
X122450000Y-102329685D01*
X122450000Y-104449685D02*
X122450000Y-104869685D01*
X122450000Y-106989685D02*
X122450000Y-107409685D01*
X122450000Y-109529685D02*
X122450000Y-109949685D01*
X122450000Y-112069685D02*
X122450000Y-112489685D01*
X122450000Y-114609685D02*
X122450000Y-115029685D01*
X122450000Y-117149685D02*
X122450000Y-117569685D01*
X122450000Y-119689685D02*
X122450000Y-120109685D01*
X122450000Y-122229685D02*
X122450000Y-122649685D01*
X122480324Y-74389748D02*
X121970000Y-74389685D01*
X123060000Y-73969685D02*
X125550000Y-73969685D01*
X125550000Y-73969685D02*
X128825000Y-73969685D01*
X128825000Y-73969685D02*
X137295000Y-73969685D01*
X137295000Y-73969685D02*
X140570000Y-73969685D01*
X143060000Y-73969685D02*
X140570000Y-73969685D01*
X143670000Y-76509685D02*
X143670000Y-76929685D01*
X143670000Y-79049685D02*
X143670000Y-79469685D01*
X143670000Y-81589685D02*
X143670000Y-82009685D01*
X143670000Y-84129685D02*
X143670000Y-84549685D01*
X143670000Y-86669685D02*
X143670000Y-87089685D01*
X143670000Y-89209685D02*
X143670000Y-89629685D01*
X143670000Y-91749685D02*
X143670000Y-92169685D01*
X143670000Y-94289685D02*
X143670000Y-94709685D01*
X143670000Y-96829685D02*
X143670000Y-97249685D01*
X143670000Y-99369685D02*
X143670000Y-99789685D01*
X143670000Y-101909685D02*
X143670000Y-102329685D01*
X143670000Y-104449685D02*
X143670000Y-104869685D01*
X143670000Y-106989685D02*
X143670000Y-107409685D01*
X143670000Y-109529685D02*
X143670000Y-109949685D01*
X143670000Y-112069685D02*
X143670000Y-112489685D01*
X143670000Y-114609685D02*
X143670000Y-115029685D01*
X143670000Y-117149685D02*
X143670000Y-117569685D01*
X143670000Y-119689685D02*
X143670000Y-120109685D01*
X143670000Y-122229685D02*
X143670000Y-122649685D01*
X123060000Y-73969685D02*
G75*
G03*
X122480324Y-74389748I0J-610000D01*
G01*
X122480324Y-124769622D02*
G75*
G03*
X122696682Y-125069685I579686J189945D01*
G01*
X143639676Y-74389748D02*
G75*
G03*
X143060000Y-73969685I-579676J-189937D01*
G01*
X143423300Y-125069661D02*
G75*
G03*
X143639675Y-124769622I-362800J489676D01*
G01*
X128300000Y-76079685D02*
G75*
G03*
X128300000Y-76079685I-940000J0D01*
G01*
X139700000Y-76079685D02*
G75*
G03*
X139700000Y-76079685I-940000J0D01*
G01*
%TO.C,R1*%
X154754551Y-85220436D02*
X154754551Y-85674564D01*
X153284551Y-85220436D02*
X153284551Y-85674564D01*
%TO.C,FB1*%
X157818318Y-83317148D02*
X157818318Y-84116392D01*
X156698318Y-83317148D02*
X156698318Y-84116392D01*
%TO.C,D4*%
X174435417Y-93874648D02*
X174435417Y-90574648D01*
X174435417Y-93874648D02*
X168925417Y-93874648D01*
X174435417Y-90574648D02*
X168925417Y-90574648D01*
%TO.C,R6*%
X153193195Y-91739167D02*
X153193195Y-91285039D01*
X154663195Y-91739167D02*
X154663195Y-91285039D01*
%TO.C,MUSIC_THRU1*%
X172148734Y-88925172D02*
X174648734Y-88925172D01*
X174648734Y-88925172D02*
X174648734Y-86425172D01*
X170328734Y-88625172D02*
X174348734Y-88625172D01*
X172038734Y-88625172D02*
X172038734Y-88125172D01*
X172848734Y-88625172D02*
X172848734Y-87625172D01*
X174348734Y-88625172D02*
X174348734Y-78405172D01*
X170828734Y-88125172D02*
X170828734Y-78905172D01*
X172038734Y-88125172D02*
X170828734Y-88125172D01*
X172848734Y-87625172D02*
X174348734Y-87625172D01*
X172848734Y-79405172D02*
X174348734Y-79405172D01*
X170828734Y-78905172D02*
X172038734Y-78905172D01*
X172038734Y-78905172D02*
X172038734Y-78405172D01*
X170328734Y-78405172D02*
X170328734Y-88625172D01*
X172848734Y-78405172D02*
X172848734Y-79405172D01*
X174348734Y-78405172D02*
X170328734Y-78405172D01*
%TO.C,GPIO2\u002C3*%
X116884756Y-81646485D02*
X118214756Y-81646485D01*
X116884756Y-82976485D02*
X116884756Y-81646485D01*
X116884756Y-84246485D02*
X116884756Y-86846485D01*
X116884756Y-84246485D02*
X119544756Y-84246485D01*
X116884756Y-86846485D02*
X119544756Y-86846485D01*
X119544756Y-84246485D02*
X119544756Y-86846485D01*
%TO.C,FP_BUTTON1*%
X172473225Y-104117622D02*
X169973225Y-104117622D01*
X169973225Y-104117622D02*
X169973225Y-106617622D01*
X174293225Y-104417622D02*
X170273225Y-104417622D01*
X172583225Y-104417622D02*
X172583225Y-104917622D01*
X171773225Y-104417622D02*
X171773225Y-105417622D01*
X170273225Y-104417622D02*
X170273225Y-117137622D01*
X173793225Y-104917622D02*
X173793225Y-116637622D01*
X172583225Y-104917622D02*
X173793225Y-104917622D01*
X171773225Y-105417622D02*
X170273225Y-105417622D01*
X171773225Y-116137622D02*
X170273225Y-116137622D01*
X173793225Y-116637622D02*
X172583225Y-116637622D01*
X172583225Y-116637622D02*
X172583225Y-117137622D01*
X174293225Y-117137622D02*
X174293225Y-104417622D01*
X171773225Y-117137622D02*
X171773225Y-116137622D01*
X170273225Y-117137622D02*
X174293225Y-117137622D01*
%TO.C,AMP4*%
X104250000Y-100453725D02*
X106750000Y-100453725D01*
X106750000Y-100453725D02*
X106750000Y-97953725D01*
X102430000Y-100153725D02*
X106450000Y-100153725D01*
X104140000Y-100153725D02*
X104140000Y-99653725D01*
X104950000Y-100153725D02*
X104950000Y-99153725D01*
X106450000Y-100153725D02*
X106450000Y-87433725D01*
X102930000Y-99653725D02*
X102930000Y-87933725D01*
X104140000Y-99653725D02*
X102930000Y-99653725D01*
X104950000Y-99153725D02*
X106450000Y-99153725D01*
X104950000Y-88433725D02*
X106450000Y-88433725D01*
X102930000Y-87933725D02*
X104140000Y-87933725D01*
X104140000Y-87933725D02*
X104140000Y-87433725D01*
X102430000Y-87433725D02*
X102430000Y-100153725D01*
X104950000Y-87433725D02*
X104950000Y-88433725D01*
X106450000Y-87433725D02*
X102430000Y-87433725D01*
%TD*%
%LPC*%
D12*
%TO.C,U2*%
X146497597Y-56239255D03*
D13*
X146497597Y-58779255D03*
X146497597Y-61319255D03*
%TD*%
D14*
%TO.C,D5*%
X152420217Y-96565867D03*
X149120217Y-96565867D03*
%TD*%
D15*
%TO.C,FP_LED1*%
X164722047Y-122806760D03*
D16*
X162222047Y-122806760D03*
X159722047Y-122806760D03*
X157222047Y-122806760D03*
%TD*%
D17*
%TO.C,AMP2*%
X104103296Y-114546777D03*
D18*
X104103296Y-112046777D03*
X104103296Y-109546777D03*
X104103296Y-107046777D03*
%TD*%
D19*
%TO.C,R12*%
X167008275Y-108481106D03*
X167008275Y-106656106D03*
%TD*%
D20*
%TO.C,C1*%
X114508211Y-61879728D03*
X114508211Y-63779728D03*
%TD*%
D21*
%TO.C,R2*%
X146977001Y-116051415D03*
X148802001Y-116051415D03*
%TD*%
D22*
%TO.C,R5*%
X167615421Y-116597717D03*
X167615421Y-118422717D03*
%TD*%
D23*
%TO.C,R9*%
X159198992Y-96867389D03*
X157373992Y-96867389D03*
%TD*%
D24*
%TO.C,D1*%
X147542666Y-77957258D03*
X151542666Y-77957258D03*
%TD*%
D21*
%TO.C,R11*%
X155816942Y-87168089D03*
X157641942Y-87168089D03*
%TD*%
D17*
%TO.C,AMP1*%
X111774370Y-121370371D03*
D18*
X111774370Y-118870371D03*
X111774370Y-116370371D03*
X111774370Y-113870371D03*
%TD*%
D25*
%TO.C,U7*%
X112220047Y-80049996D03*
X110320047Y-80049996D03*
X111270047Y-81924996D03*
%TD*%
D26*
%TO.C,D2*%
X149666306Y-93908402D03*
X151766306Y-93908402D03*
%TD*%
D21*
%TO.C,R3*%
X146967447Y-113563338D03*
X148792447Y-113563338D03*
%TD*%
D27*
%TO.C,TRIGGER1*%
X172588655Y-97851212D03*
D28*
X172588655Y-100351212D03*
%TD*%
D29*
%TO.C,FB2*%
X161053164Y-82645755D03*
X161053164Y-84770755D03*
%TD*%
D30*
%TO.C,H3*%
X171197376Y-53815327D03*
%TD*%
D22*
%TO.C,R10*%
X165574615Y-90861975D03*
X165574615Y-92686975D03*
%TD*%
D25*
%TO.C,Q2*%
X160909919Y-116541619D03*
X159009919Y-116541619D03*
X159959919Y-118416619D03*
%TD*%
D30*
%TO.C,H4*%
X171436342Y-121592772D03*
%TD*%
D25*
%TO.C,Q1*%
X156017316Y-116534348D03*
X154117316Y-116534348D03*
X155067316Y-118409348D03*
%TD*%
D31*
%TO.C,U8*%
X161818529Y-93607910D03*
X161818529Y-92337910D03*
X161818529Y-91067910D03*
X161818529Y-89797910D03*
X156668529Y-89797910D03*
X156668529Y-91067910D03*
X156668529Y-92337910D03*
X156668529Y-93607910D03*
%TD*%
D20*
%TO.C,C4*%
X122188601Y-62935483D03*
X122188601Y-64835483D03*
%TD*%
%TO.C,C3*%
X163504788Y-86066391D03*
X163504788Y-87966391D03*
%TD*%
D25*
%TO.C,Q3*%
X165815462Y-116603396D03*
X163915462Y-116603396D03*
X164865462Y-118478396D03*
%TD*%
D32*
%TO.C,D3*%
X151766306Y-89383315D03*
X149666306Y-89383315D03*
%TD*%
D21*
%TO.C,R8*%
X161397036Y-96881965D03*
X163222036Y-96881965D03*
%TD*%
D33*
%TO.C,U4*%
X150797500Y-85707500D03*
X150797500Y-83807500D03*
X148922500Y-84757500D03*
%TD*%
D34*
%TO.C,POWER1*%
X119605020Y-56152903D03*
D35*
X116105020Y-56152903D03*
X112605020Y-56152903D03*
%TD*%
D36*
%TO.C,GPIO16\u002C17*%
X148564694Y-122507219D03*
D37*
X148564694Y-119967219D03*
%TD*%
D20*
%TO.C,C2*%
X147259018Y-93492615D03*
X147259018Y-95392615D03*
%TD*%
D38*
%TO.C,U6*%
X166986039Y-104199970D03*
X166986039Y-102929970D03*
X160486039Y-102929970D03*
X160486039Y-104199970D03*
%TD*%
D17*
%TO.C,MUSIC_IN1*%
X166784304Y-85995563D03*
D18*
X166784304Y-83495563D03*
X166784304Y-80995563D03*
%TD*%
D39*
%TO.C,DISPLAY1*%
X104892442Y-72412621D03*
D18*
X104892442Y-74912621D03*
X104892442Y-77412621D03*
X104892442Y-79912621D03*
%TD*%
D21*
%TO.C,R4*%
X146946796Y-111000570D03*
X148771796Y-111000570D03*
%TD*%
D22*
%TO.C,R7*%
X147306307Y-89610529D03*
X147306307Y-91435529D03*
%TD*%
D40*
%TO.C,U3*%
X118120802Y-62098029D03*
D41*
X118120802Y-63368029D03*
X118120802Y-64638029D03*
%TD*%
D17*
%TO.C,AMP3*%
X111760000Y-105163725D03*
D18*
X111760000Y-102663725D03*
X111760000Y-100163725D03*
X111760000Y-97663725D03*
%TD*%
D42*
%TO.C,U1*%
X130335000Y-75579685D03*
D43*
X130635000Y-78609685D03*
X135485000Y-78609685D03*
D42*
X135785000Y-75579685D03*
D44*
X124170000Y-75449685D03*
D45*
X123370000Y-77989685D03*
D46*
X124170000Y-80529685D03*
D45*
X123370000Y-83069685D03*
X123370000Y-85609685D03*
X123370000Y-88149685D03*
X123370000Y-90689685D03*
D46*
X124170000Y-93229685D03*
D45*
X123370000Y-95769685D03*
X123370000Y-98309685D03*
X123370000Y-100849685D03*
X123370000Y-103389685D03*
D46*
X124170000Y-105929685D03*
D45*
X123370000Y-108469685D03*
X123370000Y-111009685D03*
X123370000Y-113549685D03*
X123370000Y-116089685D03*
D46*
X124170000Y-118629685D03*
D45*
X123370000Y-121169685D03*
X123370000Y-123709685D03*
X142750000Y-123709685D03*
X142750000Y-121169685D03*
D47*
X141950000Y-118629685D03*
D45*
X142750000Y-116089685D03*
X142750000Y-113549685D03*
X142750000Y-111009685D03*
X142750000Y-108469685D03*
D47*
X141950000Y-105929685D03*
D45*
X142750000Y-103389685D03*
X142750000Y-100849685D03*
X142750000Y-98309685D03*
X142750000Y-95769685D03*
D47*
X141950000Y-93229685D03*
D45*
X142750000Y-90689685D03*
X142750000Y-88149685D03*
X142750000Y-85609685D03*
X142750000Y-83069685D03*
D47*
X141950000Y-80529685D03*
D45*
X142750000Y-77989685D03*
X142750000Y-75449685D03*
D48*
X133644100Y-105279685D03*
D49*
X136184100Y-105279685D03*
X138724100Y-105279685D03*
D50*
X133060000Y-78579685D03*
X134060000Y-75279685D03*
X132060000Y-75279685D03*
X130560000Y-82079685D03*
X130560000Y-84579685D03*
X130560000Y-87079685D03*
%TD*%
D22*
%TO.C,R1*%
X154019551Y-84535000D03*
X154019551Y-86360000D03*
%TD*%
D30*
%TO.C,H2*%
X103581669Y-121118480D03*
%TD*%
D29*
%TO.C,FB1*%
X157258318Y-82654270D03*
X157258318Y-84779270D03*
%TD*%
D51*
%TO.C,D4*%
X172925417Y-92224648D03*
X168925417Y-92224648D03*
%TD*%
D19*
%TO.C,R6*%
X153928195Y-92424603D03*
X153928195Y-90599603D03*
%TD*%
D17*
%TO.C,MUSIC_THRU1*%
X172038734Y-86015172D03*
D18*
X172038734Y-83515172D03*
X172038734Y-81015172D03*
%TD*%
D36*
%TO.C,GPIO2\u002C3*%
X118214756Y-82976485D03*
D37*
X118214756Y-85516485D03*
%TD*%
D39*
%TO.C,FP_BUTTON1*%
X172583225Y-107027622D03*
D18*
X172583225Y-109527622D03*
X172583225Y-112027622D03*
X172583225Y-114527622D03*
%TD*%
D30*
%TO.C,H1*%
X103581669Y-53711142D03*
%TD*%
D17*
%TO.C,AMP4*%
X104140000Y-97543725D03*
D18*
X104140000Y-95043725D03*
X104140000Y-92543725D03*
X104140000Y-90043725D03*
%TD*%
%LPD*%
M02*
