%TF.GenerationSoftware,KiCad,Pcbnew,7.0.9*%
%TF.CreationDate,2023-12-26T12:13:05+08:00*%
%TF.ProjectId,amp_controller,616d705f-636f-46e7-9472-6f6c6c65722e,rev?*%
%TF.SameCoordinates,Original*%
%TF.FileFunction,Copper,L2,Inr*%
%TF.FilePolarity,Positive*%
%FSLAX46Y46*%
G04 Gerber Fmt 4.6, Leading zero omitted, Abs format (unit mm)*
G04 Created by KiCad (PCBNEW 7.0.9) date 2023-12-26 12:13:05*
%MOMM*%
%LPD*%
G01*
G04 APERTURE LIST*
G04 Aperture macros list*
%AMRoundRect*
0 Rectangle with rounded corners*
0 $1 Rounding radius*
0 $2 $3 $4 $5 $6 $7 $8 $9 X,Y pos of 4 corners*
0 Add a 4 corners polygon primitive as box body*
4,1,4,$2,$3,$4,$5,$6,$7,$8,$9,$2,$3,0*
0 Add four circle primitives for the rounded corners*
1,1,$1+$1,$2,$3*
1,1,$1+$1,$4,$5*
1,1,$1+$1,$6,$7*
1,1,$1+$1,$8,$9*
0 Add four rect primitives between the rounded corners*
20,1,$1+$1,$2,$3,$4,$5,0*
20,1,$1+$1,$4,$5,$6,$7,0*
20,1,$1+$1,$6,$7,$8,$9,0*
20,1,$1+$1,$8,$9,$2,$3,0*%
G04 Aperture macros list end*
%TA.AperFunction,ComponentPad*%
%ADD10R,2.500000X1.500000*%
%TD*%
%TA.AperFunction,ComponentPad*%
%ADD11O,2.500000X1.500000*%
%TD*%
%TA.AperFunction,ComponentPad*%
%ADD12RoundRect,0.250000X0.600000X0.725000X-0.600000X0.725000X-0.600000X-0.725000X0.600000X-0.725000X0*%
%TD*%
%TA.AperFunction,ComponentPad*%
%ADD13O,1.700000X1.950000*%
%TD*%
%TA.AperFunction,ComponentPad*%
%ADD14RoundRect,0.250000X0.725000X-0.600000X0.725000X0.600000X-0.725000X0.600000X-0.725000X-0.600000X0*%
%TD*%
%TA.AperFunction,ComponentPad*%
%ADD15O,1.950000X1.700000*%
%TD*%
%TA.AperFunction,ComponentPad*%
%ADD16RoundRect,0.250000X-0.750000X0.600000X-0.750000X-0.600000X0.750000X-0.600000X0.750000X0.600000X0*%
%TD*%
%TA.AperFunction,ComponentPad*%
%ADD17O,2.000000X1.700000*%
%TD*%
%TA.AperFunction,ComponentPad*%
%ADD18R,2.400000X2.400000*%
%TD*%
%TA.AperFunction,ComponentPad*%
%ADD19C,2.400000*%
%TD*%
%TA.AperFunction,ComponentPad*%
%ADD20R,1.700000X1.700000*%
%TD*%
%TA.AperFunction,ComponentPad*%
%ADD21O,1.700000X1.700000*%
%TD*%
%TA.AperFunction,ComponentPad*%
%ADD22RoundRect,0.250000X-0.725000X0.600000X-0.725000X-0.600000X0.725000X-0.600000X0.725000X0.600000X0*%
%TD*%
%TA.AperFunction,ComponentPad*%
%ADD23R,1.500000X1.050000*%
%TD*%
%TA.AperFunction,ComponentPad*%
%ADD24O,1.500000X1.050000*%
%TD*%
%TA.AperFunction,ViaPad*%
%ADD25C,0.800000*%
%TD*%
G04 APERTURE END LIST*
D10*
%TO.N,/+18V*%
%TO.C,U2*%
X146497597Y-56239255D03*
D11*
%TO.N,GND*%
X146497597Y-58779255D03*
%TO.N,+5V*%
X146497597Y-61319255D03*
%TD*%
D12*
%TO.N,/DRV*%
%TO.C,FP_LED1*%
X164722047Y-122806760D03*
D13*
%TO.N,/R*%
X162222047Y-122806760D03*
%TO.N,/G*%
X159722047Y-122806760D03*
%TO.N,/B*%
X157222047Y-122806760D03*
%TD*%
D14*
%TO.N,GND*%
%TO.C,AMP2*%
X104103296Y-114546777D03*
D15*
%TO.N,/AMP2_CLIP*%
X104103296Y-112046777D03*
%TO.N,/AMP2_FAULT*%
X104103296Y-109546777D03*
%TO.N,/AMP2_RESET*%
X104103296Y-107046777D03*
%TD*%
D14*
%TO.N,GND*%
%TO.C,AMP1*%
X111774370Y-121370371D03*
D15*
%TO.N,/AMP1_CLIP*%
X111774370Y-118870371D03*
%TO.N,/AMP1_FAULT*%
X111774370Y-116370371D03*
%TO.N,/AMP1_RESET*%
X111774370Y-113870371D03*
%TD*%
D16*
%TO.N,Net-(D4-K)*%
%TO.C,TRIGGER1*%
X172588655Y-97851212D03*
D17*
%TO.N,Net-(TRIGGER1-Pin_2)*%
X172588655Y-100351212D03*
%TD*%
D18*
%TO.N,/+18V*%
%TO.C,POWER1*%
X119605020Y-56152903D03*
D19*
%TO.N,GND*%
X116105020Y-56152903D03*
%TO.N,/-18V*%
X112605020Y-56152903D03*
%TD*%
D20*
%TO.N,Net-(GPIO16\u002C17-Pin_1)*%
%TO.C,GPIO16\u002C17*%
X148564694Y-122507219D03*
D21*
%TO.N,Net-(GPIO16\u002C17-Pin_2)*%
X148564694Y-119967219D03*
%TD*%
D14*
%TO.N,/M+*%
%TO.C,MUSIC_IN1*%
X166784304Y-85995563D03*
D15*
%TO.N,/MG*%
X166784304Y-83495563D03*
%TO.N,/M-*%
X166784304Y-80995563D03*
%TD*%
D22*
%TO.N,/SDA*%
%TO.C,DISPLAY1*%
X104892442Y-72412621D03*
D15*
%TO.N,/SCL*%
X104892442Y-74912621D03*
%TO.N,GND*%
X104892442Y-77412621D03*
%TO.N,/DISP_3V3*%
X104892442Y-79912621D03*
%TD*%
D23*
%TO.N,GND*%
%TO.C,U3*%
X118120802Y-62098029D03*
D24*
%TO.N,/-18V*%
X118120802Y-63368029D03*
%TO.N,-5V*%
X118120802Y-64638029D03*
%TD*%
D14*
%TO.N,GND*%
%TO.C,AMP3*%
X111760000Y-105163725D03*
D15*
%TO.N,/AMP3_CLIP*%
X111760000Y-102663725D03*
%TO.N,/AMP3_FAULT*%
X111760000Y-100163725D03*
%TO.N,/AMP3_RESET*%
X111760000Y-97663725D03*
%TD*%
D14*
%TO.N,/M+*%
%TO.C,MUSIC_THRU1*%
X172038734Y-86015172D03*
D15*
%TO.N,/MG*%
X172038734Y-83515172D03*
%TO.N,/M-*%
X172038734Y-81015172D03*
%TD*%
D20*
%TO.N,Net-(GPIO2\u002C3-Pin_1)*%
%TO.C,GPIO2\u002C3*%
X118214756Y-82976485D03*
D21*
%TO.N,Net-(GPIO2\u002C3-Pin_2)*%
X118214756Y-85516485D03*
%TD*%
D22*
%TO.N,GND*%
%TO.C,FP_BUTTON1*%
X172583225Y-107027622D03*
D15*
%TO.N,/FP_BUTTON*%
X172583225Y-109527622D03*
%TO.N,GND*%
X172583225Y-112027622D03*
%TO.N,/DRV*%
X172583225Y-114527622D03*
%TD*%
D14*
%TO.N,GND*%
%TO.C,AMP4*%
X104140000Y-97543725D03*
D15*
%TO.N,/AMP4_CLIP*%
X104140000Y-95043725D03*
%TO.N,/AMP4_FAULT*%
X104140000Y-92543725D03*
%TO.N,/AMP4_RESET*%
X104140000Y-90043725D03*
%TD*%
D25*
%TO.N,GND*%
X113561400Y-80049156D03*
X158521920Y-102910934D03*
X145401613Y-105962143D03*
X120725786Y-118506050D03*
X159259207Y-86182328D03*
X145373604Y-80590538D03*
X120725786Y-93201686D03*
X153073990Y-116570685D03*
X152396888Y-83827166D03*
X120671074Y-105894902D03*
X157888690Y-116552516D03*
X162830570Y-116661528D03*
X164175296Y-94782986D03*
X145510385Y-118533406D03*
X145519251Y-93224431D03*
X120643718Y-80481114D03*
%TO.N,-5V*%
X161072253Y-80955626D03*
%TO.N,+5V*%
X157238279Y-80955626D03*
X154117597Y-77975119D03*
X167645714Y-114701471D03*
X111234565Y-83562417D03*
%TO.N,+5VA*%
X155620288Y-84575728D03*
X157557680Y-95030782D03*
%TO.N,-5VA*%
X161038090Y-87309918D03*
%TD*%
%TA.AperFunction,Conductor*%
%TO.N,GND*%
G36*
X174560343Y-50323629D02*
G01*
X174627301Y-50343586D01*
X174672841Y-50396575D01*
X174683838Y-50447515D01*
X174751505Y-124764536D01*
X174731881Y-124831593D01*
X174679119Y-124877396D01*
X174625961Y-124888639D01*
X154163973Y-124633830D01*
X154097184Y-124613313D01*
X154077836Y-124597521D01*
X154060000Y-124579685D01*
X149815881Y-124579685D01*
X140327221Y-124461524D01*
X140260432Y-124441007D01*
X140215338Y-124387637D01*
X140204765Y-124337534D01*
X140204765Y-119967219D01*
X147209035Y-119967219D01*
X147229630Y-120202622D01*
X147229632Y-120202632D01*
X147290788Y-120430874D01*
X147290790Y-120430878D01*
X147290791Y-120430882D01*
X147377893Y-120617673D01*
X147390659Y-120645049D01*
X147390661Y-120645053D01*
X147486179Y-120781466D01*
X147526195Y-120838615D01*
X147526200Y-120838621D01*
X147648124Y-120960545D01*
X147681609Y-121021868D01*
X147676625Y-121091560D01*
X147634753Y-121147493D01*
X147603777Y-121164408D01*
X147472363Y-121213422D01*
X147472358Y-121213425D01*
X147357149Y-121299671D01*
X147357146Y-121299674D01*
X147270900Y-121414883D01*
X147270896Y-121414890D01*
X147220602Y-121549736D01*
X147216512Y-121587785D01*
X147214195Y-121609342D01*
X147214194Y-121609354D01*
X147214194Y-123405089D01*
X147214195Y-123405095D01*
X147220602Y-123464702D01*
X147270896Y-123599547D01*
X147270900Y-123599554D01*
X147357146Y-123714763D01*
X147357149Y-123714766D01*
X147472358Y-123801012D01*
X147472365Y-123801016D01*
X147607211Y-123851310D01*
X147607210Y-123851310D01*
X147614138Y-123852054D01*
X147666821Y-123857719D01*
X149462566Y-123857718D01*
X149522177Y-123851310D01*
X149657025Y-123801015D01*
X149772240Y-123714765D01*
X149858490Y-123599550D01*
X149908785Y-123464702D01*
X149915194Y-123405092D01*
X149915194Y-122990726D01*
X155871547Y-122990726D01*
X155886983Y-123167163D01*
X155886985Y-123167173D01*
X155948141Y-123395415D01*
X155948143Y-123395419D01*
X155948144Y-123395423D01*
X155970456Y-123443271D01*
X156048011Y-123609588D01*
X156048012Y-123609590D01*
X156183552Y-123803162D01*
X156350644Y-123970253D01*
X156350646Y-123970255D01*
X156393722Y-124000417D01*
X156544212Y-124105792D01*
X156544214Y-124105793D01*
X156544217Y-124105795D01*
X156758384Y-124205663D01*
X156986639Y-124266823D01*
X157163081Y-124282260D01*
X157222046Y-124287419D01*
X157222047Y-124287419D01*
X157222048Y-124287419D01*
X157281013Y-124282260D01*
X157457455Y-124266823D01*
X157685710Y-124205663D01*
X157899876Y-124105795D01*
X158093448Y-123970255D01*
X158260542Y-123803161D01*
X158370473Y-123646161D01*
X158425048Y-123602538D01*
X158494547Y-123595344D01*
X158556902Y-123626866D01*
X158573618Y-123646158D01*
X158644191Y-123746947D01*
X158683553Y-123803163D01*
X158850644Y-123970253D01*
X158850646Y-123970255D01*
X158893722Y-124000417D01*
X159044212Y-124105792D01*
X159044214Y-124105793D01*
X159044217Y-124105795D01*
X159258384Y-124205663D01*
X159486639Y-124266823D01*
X159663081Y-124282260D01*
X159722046Y-124287419D01*
X159722047Y-124287419D01*
X159722048Y-124287419D01*
X159781013Y-124282260D01*
X159957455Y-124266823D01*
X160185710Y-124205663D01*
X160399876Y-124105795D01*
X160593448Y-123970255D01*
X160760542Y-123803161D01*
X160870473Y-123646161D01*
X160925048Y-123602538D01*
X160994547Y-123595344D01*
X161056902Y-123626866D01*
X161073618Y-123646158D01*
X161144191Y-123746947D01*
X161183553Y-123803163D01*
X161350644Y-123970253D01*
X161350646Y-123970255D01*
X161393722Y-124000417D01*
X161544212Y-124105792D01*
X161544214Y-124105793D01*
X161544217Y-124105795D01*
X161758384Y-124205663D01*
X161986639Y-124266823D01*
X162163081Y-124282260D01*
X162222046Y-124287419D01*
X162222047Y-124287419D01*
X162222048Y-124287419D01*
X162281013Y-124282260D01*
X162457455Y-124266823D01*
X162685710Y-124205663D01*
X162899876Y-124105795D01*
X163093448Y-123970255D01*
X163240649Y-123823053D01*
X163301971Y-123789570D01*
X163371662Y-123794554D01*
X163427596Y-123836425D01*
X163433868Y-123845639D01*
X163441319Y-123857719D01*
X163529335Y-124000416D01*
X163653391Y-124124472D01*
X163802713Y-124216574D01*
X163969250Y-124271759D01*
X164072038Y-124282260D01*
X165372055Y-124282259D01*
X165474844Y-124271759D01*
X165641381Y-124216574D01*
X165790703Y-124124472D01*
X165914759Y-124000416D01*
X166006861Y-123851094D01*
X166062046Y-123684557D01*
X166072547Y-123581769D01*
X166072546Y-122031752D01*
X166062046Y-121928963D01*
X166006861Y-121762426D01*
X165944015Y-121660535D01*
X169582129Y-121660535D01*
X169611755Y-121929785D01*
X169611757Y-121929796D01*
X169662285Y-122123068D01*
X169680270Y-122191860D01*
X169786212Y-122441162D01*
X169923381Y-122665921D01*
X169927321Y-122672377D01*
X169927328Y-122672387D01*
X170100595Y-122880591D01*
X170100601Y-122880596D01*
X170199243Y-122968979D01*
X170302340Y-123061354D01*
X170528252Y-123210816D01*
X170773518Y-123325792D01*
X170773525Y-123325794D01*
X170773527Y-123325795D01*
X171032899Y-123403829D01*
X171032906Y-123403830D01*
X171032911Y-123403832D01*
X171300903Y-123443272D01*
X171300908Y-123443272D01*
X171503978Y-123443272D01*
X171555475Y-123439502D01*
X171706498Y-123428449D01*
X171854752Y-123395424D01*
X171970888Y-123369554D01*
X171970890Y-123369553D01*
X171970895Y-123369552D01*
X172223900Y-123272786D01*
X172460119Y-123140213D01*
X172674519Y-122974660D01*
X172862528Y-122779653D01*
X173020141Y-122559351D01*
X173098830Y-122406299D01*
X173143991Y-122318462D01*
X173143993Y-122318456D01*
X173143998Y-122318447D01*
X173231460Y-122062077D01*
X173280661Y-121795705D01*
X173290554Y-121525007D01*
X173260928Y-121255754D01*
X173192414Y-120993684D01*
X173086472Y-120744382D01*
X172945360Y-120513162D01*
X172944187Y-120511753D01*
X172772088Y-120304952D01*
X172772082Y-120304947D01*
X172570344Y-120124190D01*
X172344434Y-119974729D01*
X172293086Y-119950658D01*
X172099166Y-119859752D01*
X172099161Y-119859750D01*
X172099156Y-119859748D01*
X171839784Y-119781714D01*
X171839770Y-119781711D01*
X171724133Y-119764693D01*
X171571781Y-119742272D01*
X171368711Y-119742272D01*
X171368706Y-119742272D01*
X171166186Y-119757095D01*
X171166173Y-119757097D01*
X170901795Y-119815989D01*
X170901788Y-119815992D01*
X170648781Y-119912759D01*
X170412568Y-120045329D01*
X170198164Y-120210884D01*
X170010164Y-120405881D01*
X170010158Y-120405888D01*
X169852544Y-120626191D01*
X169852541Y-120626196D01*
X169728692Y-120867081D01*
X169728685Y-120867099D01*
X169641226Y-121123457D01*
X169641223Y-121123471D01*
X169624608Y-121213423D01*
X169599992Y-121346698D01*
X169592023Y-121389840D01*
X169592022Y-121389847D01*
X169582129Y-121660535D01*
X165944015Y-121660535D01*
X165914759Y-121613104D01*
X165790703Y-121489048D01*
X165670462Y-121414883D01*
X165641383Y-121396947D01*
X165641378Y-121396945D01*
X165639909Y-121396458D01*
X165474844Y-121341761D01*
X165474842Y-121341760D01*
X165372057Y-121331260D01*
X164072045Y-121331260D01*
X164072028Y-121331261D01*
X163969250Y-121341760D01*
X163969247Y-121341761D01*
X163802715Y-121396945D01*
X163802710Y-121396947D01*
X163653389Y-121489049D01*
X163529336Y-121613102D01*
X163433868Y-121767881D01*
X163381920Y-121814605D01*
X163312957Y-121825828D01*
X163248875Y-121797984D01*
X163240648Y-121790465D01*
X163093449Y-121643266D01*
X163093442Y-121643261D01*
X162899881Y-121507727D01*
X162899877Y-121507725D01*
X162859824Y-121489048D01*
X162685710Y-121407857D01*
X162685706Y-121407856D01*
X162685702Y-121407854D01*
X162457460Y-121346698D01*
X162457450Y-121346696D01*
X162222048Y-121326101D01*
X162222046Y-121326101D01*
X161986643Y-121346696D01*
X161986633Y-121346698D01*
X161758391Y-121407854D01*
X161758382Y-121407858D01*
X161544218Y-121507724D01*
X161544216Y-121507725D01*
X161350644Y-121643265D01*
X161183552Y-121810357D01*
X161073622Y-121967355D01*
X161019045Y-122010980D01*
X160949547Y-122018174D01*
X160887192Y-121986651D01*
X160870472Y-121967355D01*
X160760541Y-121810357D01*
X160593449Y-121643266D01*
X160593442Y-121643261D01*
X160399881Y-121507727D01*
X160399877Y-121507725D01*
X160359824Y-121489048D01*
X160185710Y-121407857D01*
X160185706Y-121407856D01*
X160185702Y-121407854D01*
X159957460Y-121346698D01*
X159957450Y-121346696D01*
X159722048Y-121326101D01*
X159722046Y-121326101D01*
X159486643Y-121346696D01*
X159486633Y-121346698D01*
X159258391Y-121407854D01*
X159258382Y-121407858D01*
X159044218Y-121507724D01*
X159044216Y-121507725D01*
X158850644Y-121643265D01*
X158683552Y-121810357D01*
X158573622Y-121967355D01*
X158519045Y-122010980D01*
X158449547Y-122018174D01*
X158387192Y-121986651D01*
X158370472Y-121967355D01*
X158260541Y-121810357D01*
X158093449Y-121643266D01*
X158093442Y-121643261D01*
X157899881Y-121507727D01*
X157899877Y-121507725D01*
X157859824Y-121489048D01*
X157685710Y-121407857D01*
X157685706Y-121407856D01*
X157685702Y-121407854D01*
X157457460Y-121346698D01*
X157457450Y-121346696D01*
X157222048Y-121326101D01*
X157222046Y-121326101D01*
X156986643Y-121346696D01*
X156986633Y-121346698D01*
X156758391Y-121407854D01*
X156758382Y-121407858D01*
X156544218Y-121507724D01*
X156544216Y-121507725D01*
X156350644Y-121643265D01*
X156183552Y-121810357D01*
X156048012Y-122003929D01*
X156048011Y-122003931D01*
X155948145Y-122218095D01*
X155948141Y-122218104D01*
X155886985Y-122446346D01*
X155886983Y-122446356D01*
X155871547Y-122622794D01*
X155871547Y-122990726D01*
X149915194Y-122990726D01*
X149915193Y-121609347D01*
X149908785Y-121549736D01*
X149886150Y-121489049D01*
X149858491Y-121414890D01*
X149858487Y-121414883D01*
X149772241Y-121299674D01*
X149772238Y-121299671D01*
X149657029Y-121213425D01*
X149657022Y-121213421D01*
X149525611Y-121164408D01*
X149469677Y-121122537D01*
X149445260Y-121057072D01*
X149460112Y-120988799D01*
X149481257Y-120960551D01*
X149603189Y-120838620D01*
X149738729Y-120645049D01*
X149838597Y-120430882D01*
X149899757Y-120202627D01*
X149920353Y-119967219D01*
X149899757Y-119731811D01*
X149838597Y-119503556D01*
X149738729Y-119289390D01*
X149734119Y-119282805D01*
X149603188Y-119095816D01*
X149436096Y-118928725D01*
X149436089Y-118928720D01*
X149242528Y-118793186D01*
X149242524Y-118793184D01*
X149242522Y-118793183D01*
X149028357Y-118693316D01*
X149028353Y-118693315D01*
X149028349Y-118693313D01*
X148800107Y-118632157D01*
X148800097Y-118632155D01*
X148564695Y-118611560D01*
X148564693Y-118611560D01*
X148329290Y-118632155D01*
X148329280Y-118632157D01*
X148101038Y-118693313D01*
X148101029Y-118693317D01*
X147886865Y-118793183D01*
X147886863Y-118793184D01*
X147693291Y-118928724D01*
X147526199Y-119095816D01*
X147390659Y-119289388D01*
X147390658Y-119289390D01*
X147290792Y-119503554D01*
X147290788Y-119503563D01*
X147229632Y-119731805D01*
X147229630Y-119731815D01*
X147209035Y-119967218D01*
X147209035Y-119967219D01*
X140204765Y-119967219D01*
X140204765Y-114701471D01*
X166740254Y-114701471D01*
X166760040Y-114889727D01*
X166760041Y-114889730D01*
X166818532Y-115069748D01*
X166818535Y-115069755D01*
X166913181Y-115233687D01*
X166972410Y-115299467D01*
X167039843Y-115374359D01*
X167192979Y-115485619D01*
X167192984Y-115485622D01*
X167365906Y-115562613D01*
X167365911Y-115562615D01*
X167551068Y-115601971D01*
X167551069Y-115601971D01*
X167740358Y-115601971D01*
X167740360Y-115601971D01*
X167925517Y-115562615D01*
X168098444Y-115485622D01*
X168251585Y-115374359D01*
X168378247Y-115233687D01*
X168472893Y-115069755D01*
X168531388Y-114889727D01*
X168551174Y-114701471D01*
X168532902Y-114527622D01*
X171102566Y-114527622D01*
X171123161Y-114763025D01*
X171123163Y-114763035D01*
X171184319Y-114991277D01*
X171184321Y-114991281D01*
X171184322Y-114991285D01*
X171222601Y-115073373D01*
X171284189Y-115205450D01*
X171284190Y-115205452D01*
X171419730Y-115399024D01*
X171586822Y-115566116D01*
X171780394Y-115701656D01*
X171780396Y-115701657D01*
X171994562Y-115801525D01*
X172222817Y-115862685D01*
X172399259Y-115878122D01*
X172767191Y-115878122D01*
X172943633Y-115862685D01*
X173171888Y-115801525D01*
X173386054Y-115701657D01*
X173579626Y-115566117D01*
X173746720Y-115399023D01*
X173882260Y-115205452D01*
X173982128Y-114991285D01*
X174043288Y-114763030D01*
X174063884Y-114527622D01*
X174043288Y-114292214D01*
X173993335Y-114105784D01*
X173982130Y-114063966D01*
X173982129Y-114063965D01*
X173982128Y-114063959D01*
X173882260Y-113849793D01*
X173882259Y-113849791D01*
X173746719Y-113656219D01*
X173579628Y-113489128D01*
X173422192Y-113378891D01*
X173378567Y-113324314D01*
X173371373Y-113254816D01*
X173402896Y-113192461D01*
X173422192Y-113175741D01*
X173579298Y-113065735D01*
X173579304Y-113065730D01*
X173746330Y-112898704D01*
X173881825Y-112705200D01*
X173981654Y-112491114D01*
X173981657Y-112491108D01*
X174038861Y-112277622D01*
X172987194Y-112277622D01*
X173019744Y-112226973D01*
X173058225Y-112095917D01*
X173058225Y-111959327D01*
X173019744Y-111828271D01*
X172987194Y-111777622D01*
X174038861Y-111777622D01*
X174038860Y-111777621D01*
X173981657Y-111564135D01*
X173981654Y-111564129D01*
X173881825Y-111350044D01*
X173881824Y-111350042D01*
X173746338Y-111156548D01*
X173746333Y-111156542D01*
X173579304Y-110989513D01*
X173579298Y-110989508D01*
X173422192Y-110879502D01*
X173378567Y-110824925D01*
X173371373Y-110755427D01*
X173402896Y-110693072D01*
X173422185Y-110676357D01*
X173579626Y-110566117D01*
X173746720Y-110399023D01*
X173882260Y-110205452D01*
X173982128Y-109991285D01*
X174043288Y-109763030D01*
X174063884Y-109527622D01*
X174043288Y-109292214D01*
X173982128Y-109063959D01*
X173882260Y-108849793D01*
X173882259Y-108849791D01*
X173746719Y-108656219D01*
X173599157Y-108508657D01*
X173565672Y-108447334D01*
X173570656Y-108377642D01*
X173612528Y-108321709D01*
X173621741Y-108315437D01*
X173776570Y-108219937D01*
X173900540Y-108095967D01*
X173992581Y-107946746D01*
X173992583Y-107946741D01*
X174047730Y-107780319D01*
X174047731Y-107780312D01*
X174058224Y-107677608D01*
X174058225Y-107677595D01*
X174058225Y-107277622D01*
X172987194Y-107277622D01*
X173019744Y-107226973D01*
X173058225Y-107095917D01*
X173058225Y-106959327D01*
X173019744Y-106828271D01*
X172987194Y-106777622D01*
X174058224Y-106777622D01*
X174058224Y-106377650D01*
X174058223Y-106377635D01*
X174047730Y-106274924D01*
X173992583Y-106108502D01*
X173992581Y-106108497D01*
X173900540Y-105959276D01*
X173776570Y-105835306D01*
X173627349Y-105743265D01*
X173627344Y-105743263D01*
X173460922Y-105688116D01*
X173460915Y-105688115D01*
X173358211Y-105677622D01*
X172833225Y-105677622D01*
X172833225Y-106619603D01*
X172718424Y-106567176D01*
X172617200Y-106552622D01*
X172549250Y-106552622D01*
X172448026Y-106567176D01*
X172333225Y-106619603D01*
X172333225Y-105677622D01*
X171808253Y-105677622D01*
X171808237Y-105677623D01*
X171705527Y-105688116D01*
X171539105Y-105743263D01*
X171539100Y-105743265D01*
X171389879Y-105835306D01*
X171265909Y-105959276D01*
X171173868Y-106108497D01*
X171173866Y-106108502D01*
X171118719Y-106274924D01*
X171118718Y-106274931D01*
X171108225Y-106377635D01*
X171108225Y-106777622D01*
X172179256Y-106777622D01*
X172146706Y-106828271D01*
X172108225Y-106959327D01*
X172108225Y-107095917D01*
X172146706Y-107226973D01*
X172179256Y-107277622D01*
X171108226Y-107277622D01*
X171108226Y-107677608D01*
X171118719Y-107780319D01*
X171173866Y-107946741D01*
X171173868Y-107946746D01*
X171265909Y-108095967D01*
X171389879Y-108219937D01*
X171544709Y-108315437D01*
X171591433Y-108367385D01*
X171602656Y-108436348D01*
X171574812Y-108500430D01*
X171567294Y-108508657D01*
X171419726Y-108656225D01*
X171419726Y-108656226D01*
X171284192Y-108849787D01*
X171284190Y-108849791D01*
X171184323Y-109063957D01*
X171184319Y-109063966D01*
X171123163Y-109292208D01*
X171123161Y-109292218D01*
X171102566Y-109527621D01*
X171102566Y-109527622D01*
X171123161Y-109763025D01*
X171123163Y-109763035D01*
X171184319Y-109991277D01*
X171184321Y-109991281D01*
X171184322Y-109991285D01*
X171193255Y-110010441D01*
X171284189Y-110205450D01*
X171284190Y-110205452D01*
X171419730Y-110399024D01*
X171586822Y-110566116D01*
X171744256Y-110676352D01*
X171787881Y-110730929D01*
X171795075Y-110800427D01*
X171763552Y-110862782D01*
X171744257Y-110879502D01*
X171587147Y-110989512D01*
X171587145Y-110989513D01*
X171420119Y-111156539D01*
X171284624Y-111350043D01*
X171184795Y-111564129D01*
X171184792Y-111564135D01*
X171127589Y-111777621D01*
X171127589Y-111777622D01*
X172179256Y-111777622D01*
X172146706Y-111828271D01*
X172108225Y-111959327D01*
X172108225Y-112095917D01*
X172146706Y-112226973D01*
X172179256Y-112277622D01*
X171127589Y-112277622D01*
X171184792Y-112491108D01*
X171184795Y-112491114D01*
X171284624Y-112705199D01*
X171284625Y-112705201D01*
X171420111Y-112898695D01*
X171420116Y-112898701D01*
X171587145Y-113065730D01*
X171587151Y-113065735D01*
X171744256Y-113175741D01*
X171787881Y-113230318D01*
X171795075Y-113299816D01*
X171763552Y-113362171D01*
X171744257Y-113378891D01*
X171586819Y-113489130D01*
X171419731Y-113656219D01*
X171419726Y-113656226D01*
X171284192Y-113849787D01*
X171284190Y-113849791D01*
X171184323Y-114063957D01*
X171184319Y-114063966D01*
X171123163Y-114292208D01*
X171123161Y-114292218D01*
X171102566Y-114527621D01*
X171102566Y-114527622D01*
X168532902Y-114527622D01*
X168531388Y-114513215D01*
X168472893Y-114333187D01*
X168378247Y-114169255D01*
X168251585Y-114028583D01*
X168251584Y-114028582D01*
X168098448Y-113917322D01*
X168098443Y-113917319D01*
X167925521Y-113840328D01*
X167925516Y-113840326D01*
X167779715Y-113809336D01*
X167740360Y-113800971D01*
X167551068Y-113800971D01*
X167518611Y-113807869D01*
X167365911Y-113840326D01*
X167365906Y-113840328D01*
X167192984Y-113917319D01*
X167192979Y-113917322D01*
X167039843Y-114028582D01*
X166913180Y-114169256D01*
X166818535Y-114333186D01*
X166818532Y-114333193D01*
X166760041Y-114513211D01*
X166760040Y-114513215D01*
X166740254Y-114701471D01*
X140204765Y-114701471D01*
X140204765Y-114287219D01*
X123488164Y-114299999D01*
X123488164Y-124336684D01*
X123468479Y-124403723D01*
X123415675Y-124449478D01*
X123364850Y-124460682D01*
X100504684Y-124587216D01*
X100437537Y-124567903D01*
X100391490Y-124515353D01*
X100379998Y-124463333D01*
X100377014Y-121186243D01*
X101727456Y-121186243D01*
X101757082Y-121455493D01*
X101757084Y-121455504D01*
X101825595Y-121717562D01*
X101825597Y-121717568D01*
X101931539Y-121966870D01*
X102026866Y-122123068D01*
X102072648Y-122198085D01*
X102072655Y-122198095D01*
X102245922Y-122406299D01*
X102245928Y-122406304D01*
X102290629Y-122446356D01*
X102447667Y-122587062D01*
X102673579Y-122736524D01*
X102918845Y-122851500D01*
X102918852Y-122851502D01*
X102918854Y-122851503D01*
X103178226Y-122929537D01*
X103178233Y-122929538D01*
X103178238Y-122929540D01*
X103446230Y-122968980D01*
X103446235Y-122968980D01*
X103649305Y-122968980D01*
X103700802Y-122965210D01*
X103851825Y-122954157D01*
X103964427Y-122929073D01*
X104116215Y-122895262D01*
X104116217Y-122895261D01*
X104116222Y-122895260D01*
X104369227Y-122798494D01*
X104605446Y-122665921D01*
X104819846Y-122500368D01*
X105007855Y-122305361D01*
X105165468Y-122085059D01*
X105245724Y-121928960D01*
X105289318Y-121844170D01*
X105289320Y-121844164D01*
X105289325Y-121844155D01*
X105376787Y-121587785D01*
X105425988Y-121321413D01*
X105435881Y-121050715D01*
X105406255Y-120781462D01*
X105337741Y-120519392D01*
X105231799Y-120270090D01*
X105090687Y-120038870D01*
X105031058Y-119967218D01*
X104917415Y-119830660D01*
X104917409Y-119830655D01*
X104715671Y-119649898D01*
X104489761Y-119500437D01*
X104489759Y-119500436D01*
X104244493Y-119385460D01*
X104244488Y-119385458D01*
X104244483Y-119385456D01*
X103985111Y-119307422D01*
X103985097Y-119307419D01*
X103862574Y-119289388D01*
X103717108Y-119267980D01*
X103514038Y-119267980D01*
X103514033Y-119267980D01*
X103311513Y-119282803D01*
X103311500Y-119282805D01*
X103047122Y-119341697D01*
X103047115Y-119341700D01*
X102794108Y-119438467D01*
X102557895Y-119571037D01*
X102343491Y-119736592D01*
X102155491Y-119931589D01*
X102155485Y-119931596D01*
X101997871Y-120151899D01*
X101997868Y-120151904D01*
X101874019Y-120392789D01*
X101874012Y-120392807D01*
X101786553Y-120649165D01*
X101786550Y-120649179D01*
X101762118Y-120781455D01*
X101738389Y-120909925D01*
X101737350Y-120915548D01*
X101737349Y-120915555D01*
X101727456Y-121186243D01*
X100377014Y-121186243D01*
X100374905Y-118870371D01*
X110293711Y-118870371D01*
X110314306Y-119105774D01*
X110314308Y-119105784D01*
X110375464Y-119334026D01*
X110375466Y-119334030D01*
X110375467Y-119334034D01*
X110379042Y-119341700D01*
X110475334Y-119548199D01*
X110475335Y-119548201D01*
X110610875Y-119741773D01*
X110758437Y-119889335D01*
X110791922Y-119950658D01*
X110786938Y-120020350D01*
X110745066Y-120076283D01*
X110735853Y-120082554D01*
X110581029Y-120178051D01*
X110581025Y-120178054D01*
X110457054Y-120302025D01*
X110365013Y-120451246D01*
X110365011Y-120451251D01*
X110309864Y-120617673D01*
X110309863Y-120617680D01*
X110299370Y-120720384D01*
X110299370Y-121120371D01*
X111370401Y-121120371D01*
X111337851Y-121171020D01*
X111299370Y-121302076D01*
X111299370Y-121438666D01*
X111337851Y-121569722D01*
X111370401Y-121620371D01*
X110299371Y-121620371D01*
X110299371Y-122020357D01*
X110309864Y-122123068D01*
X110365011Y-122289490D01*
X110365013Y-122289495D01*
X110457054Y-122438716D01*
X110581024Y-122562686D01*
X110730245Y-122654727D01*
X110730250Y-122654729D01*
X110896672Y-122709876D01*
X110896679Y-122709877D01*
X110999389Y-122720370D01*
X111524369Y-122720370D01*
X111524370Y-122720369D01*
X111524370Y-121778389D01*
X111639171Y-121830817D01*
X111740395Y-121845371D01*
X111808345Y-121845371D01*
X111909569Y-121830817D01*
X112024370Y-121778389D01*
X112024370Y-122720370D01*
X112549342Y-122720370D01*
X112549356Y-122720369D01*
X112652067Y-122709876D01*
X112818489Y-122654729D01*
X112818494Y-122654727D01*
X112967715Y-122562686D01*
X113091685Y-122438716D01*
X113183726Y-122289495D01*
X113183728Y-122289490D01*
X113238875Y-122123068D01*
X113238876Y-122123061D01*
X113249369Y-122020357D01*
X113249370Y-122020344D01*
X113249370Y-121620371D01*
X112178339Y-121620371D01*
X112210889Y-121569722D01*
X112249370Y-121438666D01*
X112249370Y-121302076D01*
X112210889Y-121171020D01*
X112178339Y-121120371D01*
X113249369Y-121120371D01*
X113249369Y-120720399D01*
X113249368Y-120720384D01*
X113238875Y-120617673D01*
X113183728Y-120451251D01*
X113183726Y-120451246D01*
X113091685Y-120302025D01*
X112967714Y-120178054D01*
X112967710Y-120178051D01*
X112812886Y-120082554D01*
X112766161Y-120030606D01*
X112754940Y-119961644D01*
X112782783Y-119897562D01*
X112790302Y-119889335D01*
X112863648Y-119815989D01*
X112937865Y-119741772D01*
X113073405Y-119548201D01*
X113173273Y-119334034D01*
X113234433Y-119105779D01*
X113255029Y-118870371D01*
X113234433Y-118634963D01*
X113173273Y-118406708D01*
X113073405Y-118192542D01*
X113073404Y-118192540D01*
X112937864Y-117998968D01*
X112770773Y-117831877D01*
X112714557Y-117792515D01*
X112613771Y-117721944D01*
X112570148Y-117667370D01*
X112562954Y-117597871D01*
X112594476Y-117535516D01*
X112613768Y-117518799D01*
X112770771Y-117408866D01*
X112937865Y-117241772D01*
X113073405Y-117048201D01*
X113173273Y-116834034D01*
X113234433Y-116605779D01*
X113255029Y-116370371D01*
X113234433Y-116134963D01*
X113173273Y-115906708D01*
X113073405Y-115692542D01*
X113073404Y-115692540D01*
X112937864Y-115498968D01*
X112770773Y-115331877D01*
X112714557Y-115292515D01*
X112613771Y-115221944D01*
X112570148Y-115167370D01*
X112562954Y-115097871D01*
X112594476Y-115035516D01*
X112613768Y-115018799D01*
X112770771Y-114908866D01*
X112937865Y-114741772D01*
X113073405Y-114548201D01*
X113173273Y-114334034D01*
X113234433Y-114105779D01*
X113255029Y-113870371D01*
X113234433Y-113634963D01*
X113173273Y-113406708D01*
X113073405Y-113192542D01*
X113073404Y-113192540D01*
X112937864Y-112998968D01*
X112770772Y-112831876D01*
X112577200Y-112696336D01*
X112577198Y-112696335D01*
X112470116Y-112646402D01*
X112363033Y-112596468D01*
X112363029Y-112596467D01*
X112363025Y-112596465D01*
X112134783Y-112535309D01*
X112134773Y-112535307D01*
X111958336Y-112519871D01*
X111590404Y-112519871D01*
X111413966Y-112535307D01*
X111413956Y-112535309D01*
X111185714Y-112596465D01*
X111185705Y-112596469D01*
X110971541Y-112696335D01*
X110971539Y-112696336D01*
X110777967Y-112831876D01*
X110610876Y-112998968D01*
X110610871Y-112998975D01*
X110475337Y-113192536D01*
X110475335Y-113192540D01*
X110375468Y-113406706D01*
X110375464Y-113406715D01*
X110314308Y-113634957D01*
X110314306Y-113634967D01*
X110293711Y-113870370D01*
X110293711Y-113870371D01*
X110314306Y-114105774D01*
X110314308Y-114105784D01*
X110375464Y-114334026D01*
X110375466Y-114334030D01*
X110375467Y-114334034D01*
X110381712Y-114347426D01*
X110475334Y-114548199D01*
X110475335Y-114548201D01*
X110610875Y-114741773D01*
X110777967Y-114908865D01*
X110934965Y-115018796D01*
X110978590Y-115073373D01*
X110985784Y-115142871D01*
X110954261Y-115205226D01*
X110934965Y-115221946D01*
X110777967Y-115331876D01*
X110610876Y-115498968D01*
X110610871Y-115498975D01*
X110475337Y-115692536D01*
X110475335Y-115692540D01*
X110375468Y-115906706D01*
X110375464Y-115906715D01*
X110314308Y-116134957D01*
X110314306Y-116134967D01*
X110293711Y-116370370D01*
X110293711Y-116370371D01*
X110314306Y-116605774D01*
X110314308Y-116605784D01*
X110375464Y-116834026D01*
X110375466Y-116834030D01*
X110375467Y-116834034D01*
X110425401Y-116941117D01*
X110475334Y-117048199D01*
X110475335Y-117048201D01*
X110610875Y-117241773D01*
X110777967Y-117408865D01*
X110934965Y-117518796D01*
X110978590Y-117573373D01*
X110985784Y-117642871D01*
X110954261Y-117705226D01*
X110934965Y-117721946D01*
X110777967Y-117831876D01*
X110610876Y-117998968D01*
X110610871Y-117998975D01*
X110475337Y-118192536D01*
X110475335Y-118192540D01*
X110375468Y-118406706D01*
X110375464Y-118406715D01*
X110314308Y-118634957D01*
X110314306Y-118634967D01*
X110293711Y-118870370D01*
X110293711Y-118870371D01*
X100374905Y-118870371D01*
X100368692Y-112046777D01*
X102622637Y-112046777D01*
X102643232Y-112282180D01*
X102643234Y-112282190D01*
X102704390Y-112510432D01*
X102704392Y-112510436D01*
X102704393Y-112510440D01*
X102744509Y-112596468D01*
X102804260Y-112724605D01*
X102804261Y-112724607D01*
X102939801Y-112918179D01*
X103087363Y-113065741D01*
X103120848Y-113127064D01*
X103115864Y-113196756D01*
X103073992Y-113252689D01*
X103064779Y-113258960D01*
X102909955Y-113354457D01*
X102909951Y-113354460D01*
X102785980Y-113478431D01*
X102693939Y-113627652D01*
X102693937Y-113627657D01*
X102638790Y-113794079D01*
X102638789Y-113794086D01*
X102628296Y-113896790D01*
X102628296Y-114296777D01*
X103699327Y-114296777D01*
X103666777Y-114347426D01*
X103628296Y-114478482D01*
X103628296Y-114615072D01*
X103666777Y-114746128D01*
X103699327Y-114796777D01*
X102628297Y-114796777D01*
X102628297Y-115196763D01*
X102638790Y-115299474D01*
X102693937Y-115465896D01*
X102693939Y-115465901D01*
X102785980Y-115615122D01*
X102909950Y-115739092D01*
X103059171Y-115831133D01*
X103059176Y-115831135D01*
X103225598Y-115886282D01*
X103225605Y-115886283D01*
X103328315Y-115896776D01*
X103853295Y-115896776D01*
X103853296Y-115896775D01*
X103853296Y-114954795D01*
X103968097Y-115007223D01*
X104069321Y-115021777D01*
X104137271Y-115021777D01*
X104238495Y-115007223D01*
X104353296Y-114954795D01*
X104353296Y-115896776D01*
X104878268Y-115896776D01*
X104878282Y-115896775D01*
X104980993Y-115886282D01*
X105147415Y-115831135D01*
X105147420Y-115831133D01*
X105296641Y-115739092D01*
X105420611Y-115615122D01*
X105512652Y-115465901D01*
X105512654Y-115465896D01*
X105567801Y-115299474D01*
X105567802Y-115299467D01*
X105578295Y-115196763D01*
X105578296Y-115196750D01*
X105578296Y-114796777D01*
X104507265Y-114796777D01*
X104539815Y-114746128D01*
X104578296Y-114615072D01*
X104578296Y-114478482D01*
X104539815Y-114347426D01*
X104507265Y-114296777D01*
X105578295Y-114296777D01*
X105578295Y-113896805D01*
X105578294Y-113896790D01*
X105567801Y-113794079D01*
X105512654Y-113627657D01*
X105512652Y-113627652D01*
X105420611Y-113478431D01*
X105296640Y-113354460D01*
X105296636Y-113354457D01*
X105141812Y-113258960D01*
X105095087Y-113207012D01*
X105083866Y-113138050D01*
X105111709Y-113073968D01*
X105119228Y-113065741D01*
X105186001Y-112998968D01*
X105266791Y-112918178D01*
X105402331Y-112724607D01*
X105502199Y-112510440D01*
X105563359Y-112282185D01*
X105583955Y-112046777D01*
X105563359Y-111811369D01*
X105502199Y-111583114D01*
X105402331Y-111368948D01*
X105402330Y-111368946D01*
X105266790Y-111175374D01*
X105099699Y-111008283D01*
X105043483Y-110968921D01*
X104942697Y-110898350D01*
X104899074Y-110843776D01*
X104891880Y-110774277D01*
X104923402Y-110711922D01*
X104942694Y-110695205D01*
X105099697Y-110585272D01*
X105266791Y-110418178D01*
X105402331Y-110224607D01*
X105502199Y-110010440D01*
X105563359Y-109782185D01*
X105583955Y-109546777D01*
X105563359Y-109311369D01*
X105502199Y-109083114D01*
X105402331Y-108868948D01*
X105402330Y-108868946D01*
X105266790Y-108675374D01*
X105099699Y-108508283D01*
X104996964Y-108436348D01*
X104942697Y-108398350D01*
X104899074Y-108343776D01*
X104891880Y-108274277D01*
X104923402Y-108211922D01*
X104942694Y-108195205D01*
X105099697Y-108085272D01*
X105266791Y-107918178D01*
X105402331Y-107724607D01*
X105502199Y-107510440D01*
X105563359Y-107282185D01*
X105583955Y-107046777D01*
X105563359Y-106811369D01*
X105502199Y-106583114D01*
X105402331Y-106368948D01*
X105402330Y-106368946D01*
X105266790Y-106175374D01*
X105099698Y-106008282D01*
X104906126Y-105872742D01*
X104906124Y-105872741D01*
X104799042Y-105822808D01*
X104691959Y-105772874D01*
X104691955Y-105772873D01*
X104691951Y-105772871D01*
X104463709Y-105711715D01*
X104463699Y-105711713D01*
X104287262Y-105696277D01*
X103919330Y-105696277D01*
X103742892Y-105711713D01*
X103742882Y-105711715D01*
X103514640Y-105772871D01*
X103514631Y-105772875D01*
X103300467Y-105872741D01*
X103300465Y-105872742D01*
X103106893Y-106008282D01*
X102939802Y-106175374D01*
X102939797Y-106175381D01*
X102804263Y-106368942D01*
X102804261Y-106368946D01*
X102704394Y-106583112D01*
X102704390Y-106583121D01*
X102643234Y-106811363D01*
X102643232Y-106811373D01*
X102622637Y-107046776D01*
X102622637Y-107046777D01*
X102643232Y-107282180D01*
X102643234Y-107282190D01*
X102704390Y-107510432D01*
X102704392Y-107510436D01*
X102704393Y-107510440D01*
X102754327Y-107617523D01*
X102804260Y-107724605D01*
X102804261Y-107724607D01*
X102939801Y-107918179D01*
X103106893Y-108085271D01*
X103263891Y-108195202D01*
X103307516Y-108249779D01*
X103314710Y-108319277D01*
X103283187Y-108381632D01*
X103263891Y-108398352D01*
X103106893Y-108508282D01*
X102939802Y-108675374D01*
X102939797Y-108675381D01*
X102804263Y-108868942D01*
X102804261Y-108868946D01*
X102704394Y-109083112D01*
X102704390Y-109083121D01*
X102643234Y-109311363D01*
X102643232Y-109311373D01*
X102622637Y-109546776D01*
X102622637Y-109546777D01*
X102643232Y-109782180D01*
X102643234Y-109782190D01*
X102704390Y-110010432D01*
X102704392Y-110010436D01*
X102704393Y-110010440D01*
X102754327Y-110117523D01*
X102804260Y-110224605D01*
X102804261Y-110224607D01*
X102939801Y-110418179D01*
X103106893Y-110585271D01*
X103263891Y-110695202D01*
X103307516Y-110749779D01*
X103314710Y-110819277D01*
X103283187Y-110881632D01*
X103263891Y-110898352D01*
X103106893Y-111008282D01*
X102939802Y-111175374D01*
X102939797Y-111175381D01*
X102804263Y-111368942D01*
X102804261Y-111368946D01*
X102704394Y-111583112D01*
X102704390Y-111583121D01*
X102643234Y-111811363D01*
X102643232Y-111811373D01*
X102622637Y-112046776D01*
X102622637Y-112046777D01*
X100368692Y-112046777D01*
X100360148Y-102663725D01*
X110279341Y-102663725D01*
X110299936Y-102899128D01*
X110299938Y-102899138D01*
X110361094Y-103127380D01*
X110361096Y-103127384D01*
X110361097Y-103127388D01*
X110411031Y-103234471D01*
X110460964Y-103341553D01*
X110460965Y-103341555D01*
X110596505Y-103535127D01*
X110744067Y-103682689D01*
X110777552Y-103744012D01*
X110772568Y-103813704D01*
X110730696Y-103869637D01*
X110721483Y-103875908D01*
X110566659Y-103971405D01*
X110566655Y-103971408D01*
X110442684Y-104095379D01*
X110350643Y-104244600D01*
X110350641Y-104244605D01*
X110295494Y-104411027D01*
X110295493Y-104411034D01*
X110285000Y-104513738D01*
X110285000Y-104913725D01*
X111356031Y-104913725D01*
X111323481Y-104964374D01*
X111285000Y-105095430D01*
X111285000Y-105232020D01*
X111323481Y-105363076D01*
X111356031Y-105413725D01*
X110285001Y-105413725D01*
X110285001Y-105813711D01*
X110295494Y-105916422D01*
X110350641Y-106082844D01*
X110350643Y-106082849D01*
X110442684Y-106232070D01*
X110566654Y-106356040D01*
X110715875Y-106448081D01*
X110715880Y-106448083D01*
X110882302Y-106503230D01*
X110882309Y-106503231D01*
X110985019Y-106513724D01*
X111509999Y-106513724D01*
X111510000Y-106513723D01*
X111510000Y-105571743D01*
X111624801Y-105624171D01*
X111726025Y-105638725D01*
X111793975Y-105638725D01*
X111895199Y-105624171D01*
X112010000Y-105571743D01*
X112010000Y-106513724D01*
X112534972Y-106513724D01*
X112534986Y-106513723D01*
X112637697Y-106503230D01*
X112804119Y-106448083D01*
X112804124Y-106448081D01*
X112953345Y-106356040D01*
X113077315Y-106232070D01*
X113169356Y-106082849D01*
X113169358Y-106082844D01*
X113224505Y-105916422D01*
X113224506Y-105916415D01*
X113234999Y-105813711D01*
X113235000Y-105813698D01*
X113235000Y-105413725D01*
X112163969Y-105413725D01*
X112196519Y-105363076D01*
X112235000Y-105232020D01*
X112235000Y-105095430D01*
X112196519Y-104964374D01*
X112163969Y-104913725D01*
X113234999Y-104913725D01*
X113234999Y-104513753D01*
X113234998Y-104513738D01*
X113224505Y-104411027D01*
X113169358Y-104244605D01*
X113169356Y-104244600D01*
X113077315Y-104095379D01*
X112953344Y-103971408D01*
X112953340Y-103971405D01*
X112798516Y-103875908D01*
X112751791Y-103823960D01*
X112740570Y-103754998D01*
X112768413Y-103690916D01*
X112775932Y-103682689D01*
X112923495Y-103535126D01*
X113059035Y-103341555D01*
X113158903Y-103127388D01*
X113220063Y-102899133D01*
X113240659Y-102663725D01*
X113220063Y-102428317D01*
X113158903Y-102200062D01*
X113059035Y-101985896D01*
X113059034Y-101985894D01*
X112923494Y-101792322D01*
X112756403Y-101625231D01*
X112700187Y-101585869D01*
X112599401Y-101515298D01*
X112555778Y-101460724D01*
X112548584Y-101391225D01*
X112580106Y-101328870D01*
X112599398Y-101312153D01*
X112756401Y-101202220D01*
X112923495Y-101035126D01*
X113059035Y-100841555D01*
X113158903Y-100627388D01*
X113220063Y-100399133D01*
X113224256Y-100351212D01*
X171082996Y-100351212D01*
X171103591Y-100586615D01*
X171103593Y-100586625D01*
X171164749Y-100814867D01*
X171164751Y-100814871D01*
X171164752Y-100814875D01*
X171177195Y-100841559D01*
X171264619Y-101029040D01*
X171264620Y-101029042D01*
X171400160Y-101222614D01*
X171567252Y-101389706D01*
X171760824Y-101525246D01*
X171760826Y-101525247D01*
X171974992Y-101625115D01*
X171974998Y-101625116D01*
X171974999Y-101625117D01*
X172029940Y-101639838D01*
X172203247Y-101686275D01*
X172379689Y-101701712D01*
X172797621Y-101701712D01*
X172974063Y-101686275D01*
X173202318Y-101625115D01*
X173416484Y-101525247D01*
X173610056Y-101389707D01*
X173777150Y-101222613D01*
X173912690Y-101029042D01*
X174012558Y-100814875D01*
X174073718Y-100586620D01*
X174094314Y-100351212D01*
X174073718Y-100115804D01*
X174012558Y-99887549D01*
X173912690Y-99673383D01*
X173912689Y-99673381D01*
X173777149Y-99479809D01*
X173629950Y-99332610D01*
X173596465Y-99271287D01*
X173601449Y-99201595D01*
X173643321Y-99145662D01*
X173652535Y-99139390D01*
X173657989Y-99136026D01*
X173807311Y-99043924D01*
X173931367Y-98919868D01*
X174023469Y-98770546D01*
X174078654Y-98604009D01*
X174089155Y-98501221D01*
X174089154Y-97201204D01*
X174078654Y-97098415D01*
X174023469Y-96931878D01*
X173931367Y-96782556D01*
X173807311Y-96658500D01*
X173657989Y-96566398D01*
X173491452Y-96511213D01*
X173491450Y-96511212D01*
X173388665Y-96500712D01*
X171788653Y-96500712D01*
X171788636Y-96500713D01*
X171685858Y-96511212D01*
X171685855Y-96511213D01*
X171519323Y-96566397D01*
X171519318Y-96566399D01*
X171369997Y-96658501D01*
X171245944Y-96782554D01*
X171153842Y-96931875D01*
X171153840Y-96931880D01*
X171135941Y-96985896D01*
X171098656Y-97098415D01*
X171098656Y-97098416D01*
X171098655Y-97098416D01*
X171088155Y-97201195D01*
X171088155Y-98501213D01*
X171088156Y-98501230D01*
X171098655Y-98604008D01*
X171098656Y-98604011D01*
X171131200Y-98702220D01*
X171153841Y-98770546D01*
X171229817Y-98893724D01*
X171245944Y-98919869D01*
X171369999Y-99043924D01*
X171524775Y-99139390D01*
X171571500Y-99191338D01*
X171582723Y-99260300D01*
X171554879Y-99324383D01*
X171547361Y-99332610D01*
X171400156Y-99479815D01*
X171400156Y-99479816D01*
X171264622Y-99673377D01*
X171264620Y-99673381D01*
X171164753Y-99887547D01*
X171164749Y-99887556D01*
X171103593Y-100115798D01*
X171103591Y-100115808D01*
X171082996Y-100351211D01*
X171082996Y-100351212D01*
X113224256Y-100351212D01*
X113240659Y-100163725D01*
X113220063Y-99928317D01*
X113158903Y-99700062D01*
X113059035Y-99485896D01*
X113059034Y-99485894D01*
X112923494Y-99292322D01*
X112756403Y-99125231D01*
X112700187Y-99085869D01*
X112599401Y-99015298D01*
X112555778Y-98960724D01*
X112548584Y-98891225D01*
X112580106Y-98828870D01*
X112599398Y-98812153D01*
X112756401Y-98702220D01*
X112923495Y-98535126D01*
X113059035Y-98341555D01*
X113158903Y-98127388D01*
X113220063Y-97899133D01*
X113240659Y-97663725D01*
X113220063Y-97428317D01*
X113158903Y-97200062D01*
X113059035Y-96985896D01*
X113059034Y-96985894D01*
X112923494Y-96792322D01*
X112756402Y-96625230D01*
X112562830Y-96489690D01*
X112562828Y-96489689D01*
X112455746Y-96439756D01*
X112348663Y-96389822D01*
X112348659Y-96389821D01*
X112348655Y-96389819D01*
X112120413Y-96328663D01*
X112120403Y-96328661D01*
X111943966Y-96313225D01*
X111576034Y-96313225D01*
X111399596Y-96328661D01*
X111399586Y-96328663D01*
X111171344Y-96389819D01*
X111171335Y-96389823D01*
X110957171Y-96489689D01*
X110957169Y-96489690D01*
X110763597Y-96625230D01*
X110596506Y-96792322D01*
X110596501Y-96792329D01*
X110460967Y-96985890D01*
X110460965Y-96985894D01*
X110361098Y-97200060D01*
X110361094Y-97200069D01*
X110299938Y-97428311D01*
X110299936Y-97428321D01*
X110279341Y-97663724D01*
X110279341Y-97663725D01*
X110299936Y-97899128D01*
X110299938Y-97899138D01*
X110361094Y-98127380D01*
X110361096Y-98127384D01*
X110361097Y-98127388D01*
X110392018Y-98193698D01*
X110460964Y-98341553D01*
X110460965Y-98341555D01*
X110596505Y-98535127D01*
X110763597Y-98702219D01*
X110920595Y-98812150D01*
X110964220Y-98866727D01*
X110971414Y-98936225D01*
X110939891Y-98998580D01*
X110920595Y-99015300D01*
X110763597Y-99125230D01*
X110596506Y-99292322D01*
X110596501Y-99292329D01*
X110460967Y-99485890D01*
X110460965Y-99485894D01*
X110361098Y-99700060D01*
X110361094Y-99700069D01*
X110299938Y-99928311D01*
X110299936Y-99928321D01*
X110279341Y-100163724D01*
X110279341Y-100163725D01*
X110299936Y-100399128D01*
X110299938Y-100399138D01*
X110361094Y-100627380D01*
X110361096Y-100627384D01*
X110361097Y-100627388D01*
X110411031Y-100734471D01*
X110460964Y-100841553D01*
X110460965Y-100841555D01*
X110596505Y-101035127D01*
X110763597Y-101202219D01*
X110920595Y-101312150D01*
X110964220Y-101366727D01*
X110971414Y-101436225D01*
X110939891Y-101498580D01*
X110920595Y-101515300D01*
X110763597Y-101625230D01*
X110596506Y-101792322D01*
X110596501Y-101792329D01*
X110460967Y-101985890D01*
X110460965Y-101985894D01*
X110361098Y-102200060D01*
X110361094Y-102200069D01*
X110299938Y-102428311D01*
X110299936Y-102428321D01*
X110279341Y-102663724D01*
X110279341Y-102663725D01*
X100360148Y-102663725D01*
X100353210Y-95043725D01*
X102659341Y-95043725D01*
X102679936Y-95279128D01*
X102679938Y-95279138D01*
X102741094Y-95507380D01*
X102741096Y-95507384D01*
X102741097Y-95507388D01*
X102767028Y-95562996D01*
X102840964Y-95721553D01*
X102840965Y-95721555D01*
X102976505Y-95915127D01*
X103124067Y-96062689D01*
X103157552Y-96124012D01*
X103152568Y-96193704D01*
X103110696Y-96249637D01*
X103101483Y-96255908D01*
X102946659Y-96351405D01*
X102946655Y-96351408D01*
X102822684Y-96475379D01*
X102730643Y-96624600D01*
X102730641Y-96624605D01*
X102675494Y-96791027D01*
X102675493Y-96791034D01*
X102665000Y-96893738D01*
X102665000Y-97293725D01*
X103736031Y-97293725D01*
X103703481Y-97344374D01*
X103665000Y-97475430D01*
X103665000Y-97612020D01*
X103703481Y-97743076D01*
X103736031Y-97793725D01*
X102665001Y-97793725D01*
X102665001Y-98193711D01*
X102675494Y-98296422D01*
X102730641Y-98462844D01*
X102730643Y-98462849D01*
X102822684Y-98612070D01*
X102946654Y-98736040D01*
X103095875Y-98828081D01*
X103095880Y-98828083D01*
X103262302Y-98883230D01*
X103262309Y-98883231D01*
X103365019Y-98893724D01*
X103889999Y-98893724D01*
X103890000Y-98893723D01*
X103890000Y-97951743D01*
X104004801Y-98004171D01*
X104106025Y-98018725D01*
X104173975Y-98018725D01*
X104275199Y-98004171D01*
X104390000Y-97951743D01*
X104390000Y-98893724D01*
X104914972Y-98893724D01*
X104914986Y-98893723D01*
X105017697Y-98883230D01*
X105184119Y-98828083D01*
X105184124Y-98828081D01*
X105333345Y-98736040D01*
X105457315Y-98612070D01*
X105549356Y-98462849D01*
X105549358Y-98462844D01*
X105604505Y-98296422D01*
X105604506Y-98296415D01*
X105614999Y-98193711D01*
X105615000Y-98193698D01*
X105615000Y-97793725D01*
X104543969Y-97793725D01*
X104576519Y-97743076D01*
X104615000Y-97612020D01*
X104615000Y-97475430D01*
X104576519Y-97344374D01*
X104543969Y-97293725D01*
X105614999Y-97293725D01*
X105614999Y-96893753D01*
X105614998Y-96893738D01*
X105604505Y-96791027D01*
X105549358Y-96624605D01*
X105549356Y-96624600D01*
X105457315Y-96475379D01*
X105333344Y-96351408D01*
X105333340Y-96351405D01*
X105178516Y-96255908D01*
X105131791Y-96203960D01*
X105120570Y-96134998D01*
X105148413Y-96070916D01*
X105155932Y-96062689D01*
X105303495Y-95915126D01*
X105439035Y-95721555D01*
X105538903Y-95507388D01*
X105600063Y-95279133D01*
X105620659Y-95043725D01*
X105619527Y-95030782D01*
X156652220Y-95030782D01*
X156672006Y-95219038D01*
X156672007Y-95219041D01*
X156730498Y-95399059D01*
X156730501Y-95399066D01*
X156825147Y-95562998D01*
X156951809Y-95703670D01*
X157104945Y-95814930D01*
X157104950Y-95814933D01*
X157277872Y-95891924D01*
X157277877Y-95891926D01*
X157463034Y-95931282D01*
X157463035Y-95931282D01*
X157652324Y-95931282D01*
X157652326Y-95931282D01*
X157837483Y-95891926D01*
X158010410Y-95814933D01*
X158163551Y-95703670D01*
X158290213Y-95562998D01*
X158384859Y-95399066D01*
X158443354Y-95219038D01*
X158463140Y-95030782D01*
X158443354Y-94842526D01*
X158384859Y-94662498D01*
X158290213Y-94498566D01*
X158163551Y-94357894D01*
X158163550Y-94357893D01*
X158010414Y-94246633D01*
X158010409Y-94246630D01*
X157837487Y-94169639D01*
X157837482Y-94169637D01*
X157691681Y-94138647D01*
X157652326Y-94130282D01*
X157463034Y-94130282D01*
X157430577Y-94137180D01*
X157277877Y-94169637D01*
X157277872Y-94169639D01*
X157104950Y-94246630D01*
X157104945Y-94246633D01*
X156951809Y-94357893D01*
X156825146Y-94498567D01*
X156730501Y-94662497D01*
X156730498Y-94662504D01*
X156683123Y-94808311D01*
X156672006Y-94842526D01*
X156652220Y-95030782D01*
X105619527Y-95030782D01*
X105600063Y-94808317D01*
X105538903Y-94580062D01*
X105439035Y-94365896D01*
X105439034Y-94365894D01*
X105303494Y-94172322D01*
X105136403Y-94005231D01*
X105080187Y-93965869D01*
X104979401Y-93895298D01*
X104935778Y-93840724D01*
X104928584Y-93771225D01*
X104960106Y-93708870D01*
X104979398Y-93692153D01*
X105136401Y-93582220D01*
X105303495Y-93415126D01*
X105439035Y-93221555D01*
X105538903Y-93007388D01*
X105600063Y-92779133D01*
X105620659Y-92543725D01*
X105600063Y-92308317D01*
X105538903Y-92080062D01*
X105439035Y-91865896D01*
X105439034Y-91865894D01*
X105303494Y-91672322D01*
X105136403Y-91505231D01*
X105080187Y-91465869D01*
X104979401Y-91395298D01*
X104935778Y-91340724D01*
X104928584Y-91271225D01*
X104960106Y-91208870D01*
X104979398Y-91192153D01*
X105136401Y-91082220D01*
X105303495Y-90915126D01*
X105439035Y-90721555D01*
X105538903Y-90507388D01*
X105600063Y-90279133D01*
X105620659Y-90043725D01*
X105600063Y-89808317D01*
X105538903Y-89580062D01*
X105439035Y-89365896D01*
X105439034Y-89365894D01*
X105303494Y-89172322D01*
X105136402Y-89005230D01*
X104942830Y-88869690D01*
X104942828Y-88869689D01*
X104835746Y-88819756D01*
X104728663Y-88769822D01*
X104728659Y-88769821D01*
X104728655Y-88769819D01*
X104500413Y-88708663D01*
X104500403Y-88708661D01*
X104323966Y-88693225D01*
X103956034Y-88693225D01*
X103779596Y-88708661D01*
X103779586Y-88708663D01*
X103551344Y-88769819D01*
X103551335Y-88769823D01*
X103337171Y-88869689D01*
X103337169Y-88869690D01*
X103143597Y-89005230D01*
X102976506Y-89172322D01*
X102976501Y-89172329D01*
X102840967Y-89365890D01*
X102840965Y-89365894D01*
X102741098Y-89580060D01*
X102741094Y-89580069D01*
X102679938Y-89808311D01*
X102679936Y-89808321D01*
X102659341Y-90043724D01*
X102659341Y-90043725D01*
X102679936Y-90279128D01*
X102679938Y-90279138D01*
X102741094Y-90507380D01*
X102741096Y-90507384D01*
X102741097Y-90507388D01*
X102791031Y-90614471D01*
X102840964Y-90721553D01*
X102840965Y-90721555D01*
X102976505Y-90915127D01*
X103143597Y-91082219D01*
X103300595Y-91192150D01*
X103344220Y-91246727D01*
X103351414Y-91316225D01*
X103319891Y-91378580D01*
X103300595Y-91395300D01*
X103143597Y-91505230D01*
X102976506Y-91672322D01*
X102976501Y-91672329D01*
X102840967Y-91865890D01*
X102840965Y-91865894D01*
X102741098Y-92080060D01*
X102741094Y-92080069D01*
X102679938Y-92308311D01*
X102679936Y-92308321D01*
X102659341Y-92543724D01*
X102659341Y-92543725D01*
X102679936Y-92779128D01*
X102679938Y-92779138D01*
X102741094Y-93007380D01*
X102741096Y-93007384D01*
X102741097Y-93007388D01*
X102791031Y-93114471D01*
X102840964Y-93221553D01*
X102840965Y-93221555D01*
X102976505Y-93415127D01*
X103143597Y-93582219D01*
X103300595Y-93692150D01*
X103344220Y-93746727D01*
X103351414Y-93816225D01*
X103319891Y-93878580D01*
X103300595Y-93895300D01*
X103143597Y-94005230D01*
X102976506Y-94172322D01*
X102976501Y-94172329D01*
X102840967Y-94365890D01*
X102840965Y-94365894D01*
X102741098Y-94580060D01*
X102741094Y-94580069D01*
X102679938Y-94808311D01*
X102679936Y-94808321D01*
X102659341Y-95043724D01*
X102659341Y-95043725D01*
X100353210Y-95043725D01*
X100346168Y-87309918D01*
X160132630Y-87309918D01*
X160152416Y-87498174D01*
X160152417Y-87498177D01*
X160210908Y-87678195D01*
X160210911Y-87678202D01*
X160305557Y-87842134D01*
X160432219Y-87982806D01*
X160585355Y-88094066D01*
X160585360Y-88094069D01*
X160758282Y-88171060D01*
X160758287Y-88171062D01*
X160943444Y-88210418D01*
X160943445Y-88210418D01*
X161132734Y-88210418D01*
X161132736Y-88210418D01*
X161317893Y-88171062D01*
X161490820Y-88094069D01*
X161643961Y-87982806D01*
X161770623Y-87842134D01*
X161865269Y-87678202D01*
X161923764Y-87498174D01*
X161943550Y-87309918D01*
X161923764Y-87121662D01*
X161865269Y-86941634D01*
X161770623Y-86777702D01*
X161643961Y-86637030D01*
X161643960Y-86637029D01*
X161490824Y-86525769D01*
X161490819Y-86525766D01*
X161317897Y-86448775D01*
X161317892Y-86448773D01*
X161172091Y-86417783D01*
X161132736Y-86409418D01*
X160943444Y-86409418D01*
X160910987Y-86416316D01*
X160758287Y-86448773D01*
X160758282Y-86448775D01*
X160585360Y-86525766D01*
X160585355Y-86525769D01*
X160432219Y-86637029D01*
X160305556Y-86777703D01*
X160210911Y-86941633D01*
X160210908Y-86941640D01*
X160152417Y-87121658D01*
X160152416Y-87121662D01*
X160132630Y-87309918D01*
X100346168Y-87309918D01*
X100344535Y-85516485D01*
X116859097Y-85516485D01*
X116879692Y-85751888D01*
X116879694Y-85751898D01*
X116940850Y-85980140D01*
X116940852Y-85980144D01*
X116940853Y-85980148D01*
X117040721Y-86194315D01*
X117040723Y-86194319D01*
X117149037Y-86349006D01*
X117176261Y-86387886D01*
X117343355Y-86554980D01*
X117440140Y-86622750D01*
X117536921Y-86690517D01*
X117536923Y-86690518D01*
X117536926Y-86690520D01*
X117751093Y-86790388D01*
X117979348Y-86851548D01*
X118167674Y-86868024D01*
X118214755Y-86872144D01*
X118214756Y-86872144D01*
X118214757Y-86872144D01*
X118253990Y-86868711D01*
X118450164Y-86851548D01*
X118678419Y-86790388D01*
X118892586Y-86690520D01*
X119086157Y-86554980D01*
X119253251Y-86387886D01*
X119388791Y-86194315D01*
X119488659Y-85980148D01*
X119549819Y-85751893D01*
X119570415Y-85516485D01*
X119549819Y-85281077D01*
X119503382Y-85107770D01*
X119488661Y-85052829D01*
X119488660Y-85052828D01*
X119488659Y-85052822D01*
X119388791Y-84838656D01*
X119377451Y-84822461D01*
X119253252Y-84645085D01*
X119194640Y-84586473D01*
X119183895Y-84575728D01*
X154714828Y-84575728D01*
X154734614Y-84763984D01*
X154734615Y-84763987D01*
X154793106Y-84944005D01*
X154793109Y-84944012D01*
X154887755Y-85107944D01*
X155009147Y-85242763D01*
X155014417Y-85248616D01*
X155167553Y-85359876D01*
X155167558Y-85359879D01*
X155340480Y-85436870D01*
X155340485Y-85436872D01*
X155525642Y-85476228D01*
X155525643Y-85476228D01*
X155714932Y-85476228D01*
X155714934Y-85476228D01*
X155900091Y-85436872D01*
X156073018Y-85359879D01*
X156226159Y-85248616D01*
X156352821Y-85107944D01*
X156447467Y-84944012D01*
X156505962Y-84763984D01*
X156525748Y-84575728D01*
X156505962Y-84387472D01*
X156447467Y-84207444D01*
X156352821Y-84043512D01*
X156226159Y-83902840D01*
X156226158Y-83902839D01*
X156073022Y-83791579D01*
X156073017Y-83791576D01*
X155900095Y-83714585D01*
X155900090Y-83714583D01*
X155754289Y-83683593D01*
X155714934Y-83675228D01*
X155525642Y-83675228D01*
X155493185Y-83682126D01*
X155340485Y-83714583D01*
X155340480Y-83714585D01*
X155167558Y-83791576D01*
X155167553Y-83791579D01*
X155014417Y-83902839D01*
X154887754Y-84043513D01*
X154793109Y-84207443D01*
X154793106Y-84207450D01*
X154734615Y-84387468D01*
X154734614Y-84387472D01*
X154714828Y-84575728D01*
X119183895Y-84575728D01*
X119131323Y-84523156D01*
X119097840Y-84461836D01*
X119102824Y-84392144D01*
X119144695Y-84336210D01*
X119175671Y-84319295D01*
X119307087Y-84270281D01*
X119422302Y-84184031D01*
X119508552Y-84068816D01*
X119558847Y-83933968D01*
X119565256Y-83874358D01*
X119565256Y-83495563D01*
X165303645Y-83495563D01*
X165324240Y-83730966D01*
X165324242Y-83730976D01*
X165385398Y-83959218D01*
X165385400Y-83959222D01*
X165385401Y-83959226D01*
X165424705Y-84043512D01*
X165485268Y-84173391D01*
X165485269Y-84173393D01*
X165620809Y-84366965D01*
X165768008Y-84514164D01*
X165801493Y-84575487D01*
X165796509Y-84645179D01*
X165754637Y-84701112D01*
X165745424Y-84707383D01*
X165590651Y-84802848D01*
X165590647Y-84802851D01*
X165466593Y-84926905D01*
X165374491Y-85076226D01*
X165374489Y-85076231D01*
X165346653Y-85160233D01*
X165319305Y-85242766D01*
X165319305Y-85242767D01*
X165319304Y-85242767D01*
X165308804Y-85345546D01*
X165308804Y-86645564D01*
X165308805Y-86645581D01*
X165319304Y-86748359D01*
X165319305Y-86748362D01*
X165353498Y-86851548D01*
X165374490Y-86914897D01*
X165466592Y-87064219D01*
X165590648Y-87188275D01*
X165739970Y-87280377D01*
X165906507Y-87335562D01*
X166009295Y-87346063D01*
X167559312Y-87346062D01*
X167662101Y-87335562D01*
X167828638Y-87280377D01*
X167977960Y-87188275D01*
X168102016Y-87064219D01*
X168194118Y-86914897D01*
X168249303Y-86748360D01*
X168259804Y-86645572D01*
X168259803Y-85345555D01*
X168249303Y-85242766D01*
X168194118Y-85076229D01*
X168102016Y-84926907D01*
X167977960Y-84802851D01*
X167896962Y-84752891D01*
X167823183Y-84707384D01*
X167776459Y-84655436D01*
X167765236Y-84586473D01*
X167793080Y-84522391D01*
X167800599Y-84514164D01*
X167852927Y-84461836D01*
X167947799Y-84366964D01*
X168083339Y-84173393D01*
X168183207Y-83959226D01*
X168244367Y-83730971D01*
X168263247Y-83515172D01*
X170558075Y-83515172D01*
X170578670Y-83750575D01*
X170578672Y-83750585D01*
X170639828Y-83978827D01*
X170639830Y-83978831D01*
X170639831Y-83978835D01*
X170669991Y-84043512D01*
X170739698Y-84193000D01*
X170739699Y-84193002D01*
X170875239Y-84386574D01*
X171022438Y-84533773D01*
X171055923Y-84595096D01*
X171050939Y-84664788D01*
X171009067Y-84720721D01*
X170999854Y-84726992D01*
X170845081Y-84822457D01*
X170845077Y-84822460D01*
X170721023Y-84946514D01*
X170628921Y-85095835D01*
X170628920Y-85095838D01*
X170573735Y-85262375D01*
X170573735Y-85262376D01*
X170573734Y-85262376D01*
X170563234Y-85365155D01*
X170563234Y-86665173D01*
X170563235Y-86665190D01*
X170573734Y-86767968D01*
X170573735Y-86767971D01*
X170628919Y-86934503D01*
X170628921Y-86934508D01*
X170633320Y-86941640D01*
X170721022Y-87083828D01*
X170845078Y-87207884D01*
X170994400Y-87299986D01*
X171160937Y-87355171D01*
X171263725Y-87365672D01*
X172813742Y-87365671D01*
X172916531Y-87355171D01*
X173083068Y-87299986D01*
X173232390Y-87207884D01*
X173356446Y-87083828D01*
X173448548Y-86934506D01*
X173503733Y-86767969D01*
X173514234Y-86665181D01*
X173514233Y-85365164D01*
X173503733Y-85262375D01*
X173448548Y-85095838D01*
X173356446Y-84946516D01*
X173232390Y-84822460D01*
X173137585Y-84763984D01*
X173077613Y-84726993D01*
X173030889Y-84675045D01*
X173019666Y-84606082D01*
X173047510Y-84542000D01*
X173055029Y-84533773D01*
X173126966Y-84461836D01*
X173202229Y-84386573D01*
X173337769Y-84193002D01*
X173437637Y-83978835D01*
X173498797Y-83750580D01*
X173519393Y-83515172D01*
X173498797Y-83279764D01*
X173437637Y-83051509D01*
X173337769Y-82837343D01*
X173337768Y-82837341D01*
X173202228Y-82643769D01*
X173035137Y-82476678D01*
X172978921Y-82437316D01*
X172878135Y-82366745D01*
X172834512Y-82312171D01*
X172827318Y-82242672D01*
X172858840Y-82180317D01*
X172878132Y-82163600D01*
X173035135Y-82053667D01*
X173202229Y-81886573D01*
X173337769Y-81693002D01*
X173437637Y-81478835D01*
X173498797Y-81250580D01*
X173519393Y-81015172D01*
X173498797Y-80779764D01*
X173437637Y-80551509D01*
X173337769Y-80337343D01*
X173337768Y-80337341D01*
X173202228Y-80143769D01*
X173035136Y-79976677D01*
X172841564Y-79841137D01*
X172841562Y-79841136D01*
X172734480Y-79791203D01*
X172627397Y-79741269D01*
X172627393Y-79741268D01*
X172627389Y-79741266D01*
X172399147Y-79680110D01*
X172399137Y-79680108D01*
X172222700Y-79664672D01*
X171854768Y-79664672D01*
X171678330Y-79680108D01*
X171678320Y-79680110D01*
X171450078Y-79741266D01*
X171450069Y-79741270D01*
X171235905Y-79841136D01*
X171235903Y-79841137D01*
X171042331Y-79976677D01*
X170875240Y-80143769D01*
X170875235Y-80143776D01*
X170739701Y-80337337D01*
X170739699Y-80337341D01*
X170639832Y-80551507D01*
X170639828Y-80551516D01*
X170578672Y-80779758D01*
X170578670Y-80779768D01*
X170558075Y-81015171D01*
X170558075Y-81015172D01*
X170578670Y-81250575D01*
X170578672Y-81250585D01*
X170639828Y-81478827D01*
X170639830Y-81478831D01*
X170639831Y-81478835D01*
X170689765Y-81585918D01*
X170739698Y-81693000D01*
X170739699Y-81693002D01*
X170875239Y-81886574D01*
X171042331Y-82053666D01*
X171199329Y-82163597D01*
X171242954Y-82218174D01*
X171250148Y-82287672D01*
X171218625Y-82350027D01*
X171199329Y-82366747D01*
X171042331Y-82476677D01*
X170875240Y-82643769D01*
X170875235Y-82643776D01*
X170739701Y-82837337D01*
X170739699Y-82837341D01*
X170639832Y-83051507D01*
X170639828Y-83051516D01*
X170578672Y-83279758D01*
X170578670Y-83279768D01*
X170558075Y-83515171D01*
X170558075Y-83515172D01*
X168263247Y-83515172D01*
X168264963Y-83495563D01*
X168244367Y-83260155D01*
X168183207Y-83031900D01*
X168083339Y-82817734D01*
X168083338Y-82817732D01*
X167947798Y-82624160D01*
X167780707Y-82457069D01*
X167724491Y-82417707D01*
X167623705Y-82347136D01*
X167580082Y-82292562D01*
X167572888Y-82223063D01*
X167604410Y-82160708D01*
X167623702Y-82143991D01*
X167780705Y-82034058D01*
X167947799Y-81866964D01*
X168083339Y-81673393D01*
X168183207Y-81459226D01*
X168244367Y-81230971D01*
X168264963Y-80995563D01*
X168244367Y-80760155D01*
X168183207Y-80531900D01*
X168083339Y-80317734D01*
X168083338Y-80317732D01*
X167947798Y-80124160D01*
X167780706Y-79957068D01*
X167587134Y-79821528D01*
X167587132Y-79821527D01*
X167415018Y-79741269D01*
X167372967Y-79721660D01*
X167372963Y-79721659D01*
X167372959Y-79721657D01*
X167144717Y-79660501D01*
X167144707Y-79660499D01*
X166968270Y-79645063D01*
X166600338Y-79645063D01*
X166423900Y-79660499D01*
X166423890Y-79660501D01*
X166195648Y-79721657D01*
X166195639Y-79721661D01*
X165981475Y-79821527D01*
X165981473Y-79821528D01*
X165787901Y-79957068D01*
X165620810Y-80124160D01*
X165620805Y-80124167D01*
X165485271Y-80317728D01*
X165485269Y-80317732D01*
X165385402Y-80531898D01*
X165385398Y-80531907D01*
X165324242Y-80760149D01*
X165324240Y-80760159D01*
X165303645Y-80995562D01*
X165303645Y-80995563D01*
X165324240Y-81230966D01*
X165324242Y-81230976D01*
X165385398Y-81459218D01*
X165385400Y-81459222D01*
X165385401Y-81459226D01*
X165398744Y-81487840D01*
X165485268Y-81673391D01*
X165485269Y-81673393D01*
X165620809Y-81866965D01*
X165787901Y-82034057D01*
X165944899Y-82143988D01*
X165988524Y-82198565D01*
X165995718Y-82268063D01*
X165964195Y-82330418D01*
X165944899Y-82347138D01*
X165787901Y-82457068D01*
X165620810Y-82624160D01*
X165620805Y-82624167D01*
X165485271Y-82817728D01*
X165485269Y-82817732D01*
X165385402Y-83031898D01*
X165385398Y-83031907D01*
X165324242Y-83260149D01*
X165324240Y-83260159D01*
X165303645Y-83495562D01*
X165303645Y-83495563D01*
X119565256Y-83495563D01*
X119565255Y-82078613D01*
X119558847Y-82019002D01*
X119508552Y-81884154D01*
X119508551Y-81884153D01*
X119508549Y-81884149D01*
X119422303Y-81768940D01*
X119422300Y-81768937D01*
X119307091Y-81682691D01*
X119307084Y-81682687D01*
X119172238Y-81632393D01*
X119172239Y-81632393D01*
X119112639Y-81625986D01*
X119112637Y-81625985D01*
X119112629Y-81625985D01*
X119112620Y-81625985D01*
X117316885Y-81625985D01*
X117316879Y-81625986D01*
X117257272Y-81632393D01*
X117122427Y-81682687D01*
X117122420Y-81682691D01*
X117007211Y-81768937D01*
X117007208Y-81768940D01*
X116920962Y-81884149D01*
X116920958Y-81884156D01*
X116870664Y-82019002D01*
X116864257Y-82078601D01*
X116864257Y-82078608D01*
X116864256Y-82078620D01*
X116864256Y-83874355D01*
X116864257Y-83874361D01*
X116870664Y-83933968D01*
X116920958Y-84068813D01*
X116920962Y-84068820D01*
X117007208Y-84184029D01*
X117007211Y-84184032D01*
X117122420Y-84270278D01*
X117122427Y-84270282D01*
X117253837Y-84319295D01*
X117309771Y-84361166D01*
X117334188Y-84426630D01*
X117319336Y-84494903D01*
X117298186Y-84523158D01*
X117176259Y-84645085D01*
X117040721Y-84838654D01*
X117040720Y-84838656D01*
X116940854Y-85052820D01*
X116940850Y-85052829D01*
X116879694Y-85281071D01*
X116879692Y-85281081D01*
X116859097Y-85516484D01*
X116859097Y-85516485D01*
X100344535Y-85516485D01*
X100342756Y-83562417D01*
X110329105Y-83562417D01*
X110348891Y-83750673D01*
X110348892Y-83750676D01*
X110407383Y-83930694D01*
X110407386Y-83930701D01*
X110502032Y-84094633D01*
X110590603Y-84193001D01*
X110628694Y-84235305D01*
X110781830Y-84346565D01*
X110781835Y-84346568D01*
X110954757Y-84423559D01*
X110954762Y-84423561D01*
X111139919Y-84462917D01*
X111139920Y-84462917D01*
X111329209Y-84462917D01*
X111329211Y-84462917D01*
X111514368Y-84423561D01*
X111687295Y-84346568D01*
X111840436Y-84235305D01*
X111967098Y-84094633D01*
X112061744Y-83930701D01*
X112120239Y-83750673D01*
X112140025Y-83562417D01*
X112120239Y-83374161D01*
X112061744Y-83194133D01*
X111967098Y-83030201D01*
X111840436Y-82889529D01*
X111840435Y-82889528D01*
X111687299Y-82778268D01*
X111687294Y-82778265D01*
X111514372Y-82701274D01*
X111514367Y-82701272D01*
X111368566Y-82670282D01*
X111329211Y-82661917D01*
X111139919Y-82661917D01*
X111107462Y-82668815D01*
X110954762Y-82701272D01*
X110954757Y-82701274D01*
X110781835Y-82778265D01*
X110781830Y-82778268D01*
X110628694Y-82889528D01*
X110502031Y-83030202D01*
X110407386Y-83194132D01*
X110407383Y-83194139D01*
X110379561Y-83279768D01*
X110348891Y-83374161D01*
X110329105Y-83562417D01*
X100342756Y-83562417D01*
X100339433Y-79912621D01*
X103411783Y-79912621D01*
X103432378Y-80148024D01*
X103432380Y-80148034D01*
X103493536Y-80376276D01*
X103493538Y-80376280D01*
X103493539Y-80376284D01*
X103515515Y-80423411D01*
X103593406Y-80590449D01*
X103593407Y-80590451D01*
X103728947Y-80784023D01*
X103896039Y-80951115D01*
X104089611Y-81086655D01*
X104089613Y-81086656D01*
X104303779Y-81186524D01*
X104532034Y-81247684D01*
X104708476Y-81263121D01*
X105076408Y-81263121D01*
X105252850Y-81247684D01*
X105481105Y-81186524D01*
X105695271Y-81086656D01*
X105882402Y-80955626D01*
X156332819Y-80955626D01*
X156352605Y-81143882D01*
X156352606Y-81143885D01*
X156411097Y-81323903D01*
X156411100Y-81323910D01*
X156505746Y-81487842D01*
X156630131Y-81625985D01*
X156632408Y-81628514D01*
X156785544Y-81739774D01*
X156785549Y-81739777D01*
X156958471Y-81816768D01*
X156958476Y-81816770D01*
X157143633Y-81856126D01*
X157143634Y-81856126D01*
X157332923Y-81856126D01*
X157332925Y-81856126D01*
X157518082Y-81816770D01*
X157691009Y-81739777D01*
X157844150Y-81628514D01*
X157970812Y-81487842D01*
X158065458Y-81323910D01*
X158123953Y-81143882D01*
X158143739Y-80955626D01*
X160166793Y-80955626D01*
X160186579Y-81143882D01*
X160186580Y-81143885D01*
X160245071Y-81323903D01*
X160245074Y-81323910D01*
X160339720Y-81487842D01*
X160464105Y-81625985D01*
X160466382Y-81628514D01*
X160619518Y-81739774D01*
X160619523Y-81739777D01*
X160792445Y-81816768D01*
X160792450Y-81816770D01*
X160977607Y-81856126D01*
X160977608Y-81856126D01*
X161166897Y-81856126D01*
X161166899Y-81856126D01*
X161352056Y-81816770D01*
X161524983Y-81739777D01*
X161678124Y-81628514D01*
X161804786Y-81487842D01*
X161899432Y-81323910D01*
X161957927Y-81143882D01*
X161977713Y-80955626D01*
X161957927Y-80767370D01*
X161903365Y-80599449D01*
X161899434Y-80587348D01*
X161899433Y-80587347D01*
X161899432Y-80587342D01*
X161804786Y-80423410D01*
X161678124Y-80282738D01*
X161678123Y-80282737D01*
X161524987Y-80171477D01*
X161524982Y-80171474D01*
X161352060Y-80094483D01*
X161352055Y-80094481D01*
X161206254Y-80063491D01*
X161166899Y-80055126D01*
X160977607Y-80055126D01*
X160945150Y-80062024D01*
X160792450Y-80094481D01*
X160792445Y-80094483D01*
X160619523Y-80171474D01*
X160619518Y-80171477D01*
X160466382Y-80282737D01*
X160339719Y-80423411D01*
X160245074Y-80587341D01*
X160245071Y-80587348D01*
X160188925Y-80760149D01*
X160186579Y-80767370D01*
X160166793Y-80955626D01*
X158143739Y-80955626D01*
X158123953Y-80767370D01*
X158069391Y-80599449D01*
X158065460Y-80587348D01*
X158065459Y-80587347D01*
X158065458Y-80587342D01*
X157970812Y-80423410D01*
X157844150Y-80282738D01*
X157844149Y-80282737D01*
X157691013Y-80171477D01*
X157691008Y-80171474D01*
X157518086Y-80094483D01*
X157518081Y-80094481D01*
X157372280Y-80063491D01*
X157332925Y-80055126D01*
X157143633Y-80055126D01*
X157111176Y-80062024D01*
X156958476Y-80094481D01*
X156958471Y-80094483D01*
X156785549Y-80171474D01*
X156785544Y-80171477D01*
X156632408Y-80282737D01*
X156505745Y-80423411D01*
X156411100Y-80587341D01*
X156411097Y-80587348D01*
X156354951Y-80760149D01*
X156352605Y-80767370D01*
X156332819Y-80955626D01*
X105882402Y-80955626D01*
X105888843Y-80951116D01*
X106055937Y-80784022D01*
X106191477Y-80590451D01*
X106291345Y-80376284D01*
X106352505Y-80148029D01*
X106373101Y-79912621D01*
X106352505Y-79677213D01*
X106291345Y-79448958D01*
X106191477Y-79234792D01*
X106191476Y-79234790D01*
X106055936Y-79041218D01*
X105888845Y-78874127D01*
X105731409Y-78763890D01*
X105687784Y-78709313D01*
X105680590Y-78639815D01*
X105712113Y-78577460D01*
X105731409Y-78560740D01*
X105888515Y-78450734D01*
X105888521Y-78450729D01*
X106055547Y-78283703D01*
X106191042Y-78090199D01*
X106244704Y-77975119D01*
X153212137Y-77975119D01*
X153231923Y-78163375D01*
X153231924Y-78163378D01*
X153290415Y-78343396D01*
X153290418Y-78343403D01*
X153385064Y-78507335D01*
X153482292Y-78615317D01*
X153511726Y-78648007D01*
X153664862Y-78759267D01*
X153664867Y-78759270D01*
X153837789Y-78836261D01*
X153837794Y-78836263D01*
X154022951Y-78875619D01*
X154022952Y-78875619D01*
X154212241Y-78875619D01*
X154212243Y-78875619D01*
X154397400Y-78836263D01*
X154570327Y-78759270D01*
X154723468Y-78648007D01*
X154850130Y-78507335D01*
X154944776Y-78343403D01*
X155003271Y-78163375D01*
X155023057Y-77975119D01*
X155003271Y-77786863D01*
X154944776Y-77606835D01*
X154850130Y-77442903D01*
X154723468Y-77302231D01*
X154723467Y-77302230D01*
X154570331Y-77190970D01*
X154570326Y-77190967D01*
X154397404Y-77113976D01*
X154397399Y-77113974D01*
X154251598Y-77082984D01*
X154212243Y-77074619D01*
X154022951Y-77074619D01*
X153990494Y-77081517D01*
X153837794Y-77113974D01*
X153837789Y-77113976D01*
X153664867Y-77190967D01*
X153664862Y-77190970D01*
X153511726Y-77302230D01*
X153385063Y-77442904D01*
X153290418Y-77606834D01*
X153290415Y-77606841D01*
X153251413Y-77726879D01*
X153231923Y-77786863D01*
X153212137Y-77975119D01*
X106244704Y-77975119D01*
X106290871Y-77876113D01*
X106290874Y-77876107D01*
X106348078Y-77662621D01*
X105296411Y-77662621D01*
X105328961Y-77611972D01*
X105367442Y-77480916D01*
X105367442Y-77344326D01*
X105328961Y-77213270D01*
X105296411Y-77162621D01*
X106348078Y-77162621D01*
X106348077Y-77162620D01*
X106290874Y-76949134D01*
X106290871Y-76949128D01*
X106191042Y-76735043D01*
X106191041Y-76735041D01*
X106055555Y-76541547D01*
X106055550Y-76541541D01*
X105888521Y-76374512D01*
X105888515Y-76374507D01*
X105731409Y-76264501D01*
X105687784Y-76209924D01*
X105680590Y-76140426D01*
X105712113Y-76078071D01*
X105731402Y-76061356D01*
X105888843Y-75951116D01*
X106055937Y-75784022D01*
X106191477Y-75590451D01*
X106291345Y-75376284D01*
X106352505Y-75148029D01*
X106373101Y-74912621D01*
X106352505Y-74677213D01*
X106291345Y-74448958D01*
X106191477Y-74234792D01*
X106191476Y-74234790D01*
X106055936Y-74041218D01*
X105908737Y-73894019D01*
X105875252Y-73832696D01*
X105880236Y-73763004D01*
X105922108Y-73707071D01*
X105931322Y-73700799D01*
X105936776Y-73697435D01*
X106086098Y-73605333D01*
X106210154Y-73481277D01*
X106302256Y-73331955D01*
X106357441Y-73165418D01*
X106367942Y-73062630D01*
X106367941Y-71762613D01*
X106357441Y-71659824D01*
X106302256Y-71493287D01*
X106210154Y-71343965D01*
X106086098Y-71219909D01*
X105936776Y-71127807D01*
X105770239Y-71072622D01*
X105770237Y-71072621D01*
X105667452Y-71062121D01*
X104117440Y-71062121D01*
X104117423Y-71062122D01*
X104014645Y-71072621D01*
X104014642Y-71072622D01*
X103848110Y-71127806D01*
X103848105Y-71127808D01*
X103698784Y-71219910D01*
X103574731Y-71343963D01*
X103482629Y-71493284D01*
X103482628Y-71493287D01*
X103427443Y-71659824D01*
X103427443Y-71659825D01*
X103427442Y-71659825D01*
X103416942Y-71762604D01*
X103416942Y-73062622D01*
X103416943Y-73062639D01*
X103427442Y-73165417D01*
X103427443Y-73165420D01*
X103482627Y-73331952D01*
X103482629Y-73331957D01*
X103574731Y-73481278D01*
X103698786Y-73605333D01*
X103853562Y-73700799D01*
X103900287Y-73752747D01*
X103911510Y-73821709D01*
X103883666Y-73885792D01*
X103876148Y-73894019D01*
X103728943Y-74041224D01*
X103728943Y-74041225D01*
X103593409Y-74234786D01*
X103593407Y-74234790D01*
X103493540Y-74448956D01*
X103493536Y-74448965D01*
X103432380Y-74677207D01*
X103432378Y-74677217D01*
X103411783Y-74912620D01*
X103411783Y-74912621D01*
X103432378Y-75148024D01*
X103432380Y-75148034D01*
X103493536Y-75376276D01*
X103493538Y-75376280D01*
X103493539Y-75376284D01*
X103543473Y-75483367D01*
X103593406Y-75590449D01*
X103593407Y-75590451D01*
X103728947Y-75784023D01*
X103896039Y-75951115D01*
X104053473Y-76061351D01*
X104097098Y-76115928D01*
X104104292Y-76185426D01*
X104072769Y-76247781D01*
X104053474Y-76264501D01*
X103896364Y-76374511D01*
X103896362Y-76374512D01*
X103729336Y-76541538D01*
X103593841Y-76735042D01*
X103494012Y-76949128D01*
X103494009Y-76949134D01*
X103436806Y-77162620D01*
X103436806Y-77162621D01*
X104488473Y-77162621D01*
X104455923Y-77213270D01*
X104417442Y-77344326D01*
X104417442Y-77480916D01*
X104455923Y-77611972D01*
X104488473Y-77662621D01*
X103436806Y-77662621D01*
X103494009Y-77876107D01*
X103494012Y-77876113D01*
X103593841Y-78090198D01*
X103593842Y-78090200D01*
X103729328Y-78283694D01*
X103729333Y-78283700D01*
X103896362Y-78450729D01*
X103896368Y-78450734D01*
X104053473Y-78560740D01*
X104097098Y-78615317D01*
X104104292Y-78684815D01*
X104072769Y-78747170D01*
X104053474Y-78763890D01*
X103896036Y-78874129D01*
X103728948Y-79041218D01*
X103728943Y-79041225D01*
X103593409Y-79234786D01*
X103593407Y-79234790D01*
X103493540Y-79448956D01*
X103493536Y-79448965D01*
X103432380Y-79677207D01*
X103432378Y-79677217D01*
X103411783Y-79912620D01*
X103411783Y-79912621D01*
X100339433Y-79912621D01*
X100325526Y-64638029D01*
X116865340Y-64638029D01*
X116885139Y-64839060D01*
X116943780Y-65032374D01*
X117039000Y-65210517D01*
X117039005Y-65210524D01*
X117167154Y-65366676D01*
X117275818Y-65455853D01*
X117323308Y-65494827D01*
X117323311Y-65494828D01*
X117323313Y-65494830D01*
X117501456Y-65590050D01*
X117501458Y-65590050D01*
X117501461Y-65590052D01*
X117694769Y-65648691D01*
X117845422Y-65663529D01*
X117845425Y-65663529D01*
X118396179Y-65663529D01*
X118396182Y-65663529D01*
X118546835Y-65648691D01*
X118740143Y-65590052D01*
X118918296Y-65494827D01*
X119074449Y-65366676D01*
X119202600Y-65210523D01*
X119297825Y-65032370D01*
X119356464Y-64839062D01*
X119376264Y-64638029D01*
X119356464Y-64436996D01*
X119297825Y-64243688D01*
X119202600Y-64065535D01*
X119202596Y-64065531D01*
X119200433Y-64061483D01*
X119186191Y-63993080D01*
X119200433Y-63944575D01*
X119202596Y-63940527D01*
X119202600Y-63940523D01*
X119297825Y-63762370D01*
X119356464Y-63569062D01*
X119376264Y-63368029D01*
X119356464Y-63166996D01*
X119297825Y-62973688D01*
X119297822Y-62973682D01*
X119297315Y-62972011D01*
X119296692Y-62902144D01*
X119310900Y-62873449D01*
X119309903Y-62872905D01*
X119314152Y-62865122D01*
X119364399Y-62730405D01*
X119364400Y-62730401D01*
X119370801Y-62670873D01*
X119370802Y-62670856D01*
X119370802Y-62348029D01*
X118455073Y-62348029D01*
X118448993Y-62347730D01*
X118413025Y-62344187D01*
X118404656Y-62343363D01*
X118439080Y-62305970D01*
X118489353Y-62191359D01*
X118499688Y-62066634D01*
X118468965Y-61945310D01*
X118405408Y-61848029D01*
X119370802Y-61848029D01*
X119370802Y-61525201D01*
X119370801Y-61525184D01*
X119364400Y-61465656D01*
X119364398Y-61465649D01*
X119330807Y-61375585D01*
X144743307Y-61375585D01*
X144773522Y-61598642D01*
X144773523Y-61598645D01*
X144843080Y-61812720D01*
X144949743Y-62010933D01*
X144949745Y-62010936D01*
X145090086Y-62186918D01*
X145090088Y-62186919D01*
X145090089Y-62186921D01*
X145259601Y-62335020D01*
X145452833Y-62450470D01*
X145663573Y-62529562D01*
X145885047Y-62569755D01*
X145885050Y-62569755D01*
X147053745Y-62569755D01*
X147053752Y-62569755D01*
X147221785Y-62554632D01*
X147221789Y-62554631D01*
X147438757Y-62494751D01*
X147438759Y-62494750D01*
X147438767Y-62494748D01*
X147641570Y-62397084D01*
X147823675Y-62264777D01*
X147979229Y-62102080D01*
X148103232Y-61914223D01*
X148191700Y-61707243D01*
X148241788Y-61487792D01*
X148251887Y-61262925D01*
X148221672Y-61039868D01*
X148152114Y-60825791D01*
X148045449Y-60627574D01*
X147905105Y-60451589D01*
X147735593Y-60303490D01*
X147542363Y-60188041D01*
X147542362Y-60188040D01*
X147482847Y-60165704D01*
X147426999Y-60123718D01*
X147402716Y-60058204D01*
X147417708Y-59989961D01*
X147467214Y-59940657D01*
X147472617Y-59937890D01*
X147641313Y-59856651D01*
X147823338Y-59724403D01*
X147823346Y-59724397D01*
X147978834Y-59561768D01*
X148102788Y-59373988D01*
X148191221Y-59167085D01*
X148191224Y-59167076D01*
X148222681Y-59029255D01*
X146931283Y-59029255D01*
X146957090Y-58989099D01*
X146997597Y-58851144D01*
X146997597Y-58707366D01*
X146957090Y-58569411D01*
X146931283Y-58529255D01*
X148225147Y-58529255D01*
X148225147Y-58529254D01*
X148221181Y-58499976D01*
X148151651Y-58285986D01*
X148045031Y-58087853D01*
X148045029Y-58087850D01*
X147904742Y-57911934D01*
X147735304Y-57763902D01*
X147735296Y-57763895D01*
X147662164Y-57720201D01*
X147614710Y-57668918D01*
X147602516Y-57600121D01*
X147629451Y-57535652D01*
X147686966Y-57495980D01*
X147725763Y-57489754D01*
X147795469Y-57489754D01*
X147855080Y-57483346D01*
X147989928Y-57433051D01*
X148105143Y-57346801D01*
X148191393Y-57231586D01*
X148241688Y-57096738D01*
X148248097Y-57037128D01*
X148248096Y-55441383D01*
X148241688Y-55381772D01*
X148234600Y-55362769D01*
X148191394Y-55246926D01*
X148191390Y-55246919D01*
X148105144Y-55131710D01*
X148105141Y-55131707D01*
X147989932Y-55045461D01*
X147989925Y-55045457D01*
X147855079Y-54995163D01*
X147855080Y-54995163D01*
X147795480Y-54988756D01*
X147795478Y-54988755D01*
X147795470Y-54988755D01*
X147795461Y-54988755D01*
X145199726Y-54988755D01*
X145199720Y-54988756D01*
X145140113Y-54995163D01*
X145005268Y-55045457D01*
X145005261Y-55045461D01*
X144890052Y-55131707D01*
X144890049Y-55131710D01*
X144803803Y-55246919D01*
X144803799Y-55246926D01*
X144753505Y-55381772D01*
X144747958Y-55433371D01*
X144747098Y-55441378D01*
X144747097Y-55441390D01*
X144747097Y-57037125D01*
X144747098Y-57037131D01*
X144753505Y-57096738D01*
X144803799Y-57231583D01*
X144803803Y-57231590D01*
X144890049Y-57346799D01*
X144890052Y-57346802D01*
X145005261Y-57433048D01*
X145005268Y-57433052D01*
X145140114Y-57483346D01*
X145140113Y-57483346D01*
X145147041Y-57484090D01*
X145199724Y-57489755D01*
X145264184Y-57489754D01*
X145331221Y-57509438D01*
X145376977Y-57562241D01*
X145386921Y-57631399D01*
X145357897Y-57694955D01*
X145337068Y-57714072D01*
X145171855Y-57834105D01*
X145171847Y-57834112D01*
X145016359Y-57996741D01*
X144892405Y-58184521D01*
X144803972Y-58391424D01*
X144803969Y-58391433D01*
X144772512Y-58529254D01*
X144772513Y-58529255D01*
X146063911Y-58529255D01*
X146038104Y-58569411D01*
X145997597Y-58707366D01*
X145997597Y-58851144D01*
X146038104Y-58989099D01*
X146063911Y-59029255D01*
X144770046Y-59029255D01*
X144774012Y-59058533D01*
X144843542Y-59272523D01*
X144950162Y-59470656D01*
X144950164Y-59470659D01*
X145090451Y-59646575D01*
X145259889Y-59794607D01*
X145259897Y-59794614D01*
X145453043Y-59910014D01*
X145453051Y-59910018D01*
X145512320Y-59932262D01*
X145568168Y-59974247D01*
X145592452Y-60039761D01*
X145577461Y-60108003D01*
X145527955Y-60157308D01*
X145522551Y-60160075D01*
X145353630Y-60241422D01*
X145353622Y-60241426D01*
X145171524Y-60373728D01*
X145171522Y-60373729D01*
X145015963Y-60536431D01*
X144891960Y-60724288D01*
X144803496Y-60931259D01*
X144803492Y-60931272D01*
X144753407Y-61150712D01*
X144753405Y-61150723D01*
X144748366Y-61262929D01*
X144743307Y-61375585D01*
X119330807Y-61375585D01*
X119314156Y-61330942D01*
X119314152Y-61330935D01*
X119227992Y-61215841D01*
X119227989Y-61215838D01*
X119112895Y-61129678D01*
X119112888Y-61129674D01*
X118978181Y-61079432D01*
X118978174Y-61079430D01*
X118918646Y-61073029D01*
X118370802Y-61073029D01*
X118370802Y-61817411D01*
X118301750Y-61763666D01*
X118183378Y-61723029D01*
X118089729Y-61723029D01*
X117997356Y-61738443D01*
X117887288Y-61798010D01*
X117870802Y-61815918D01*
X117870802Y-61073029D01*
X117322957Y-61073029D01*
X117263429Y-61079430D01*
X117263422Y-61079432D01*
X117128715Y-61129674D01*
X117128708Y-61129678D01*
X117013614Y-61215838D01*
X117013611Y-61215841D01*
X116927451Y-61330935D01*
X116927447Y-61330942D01*
X116877205Y-61465649D01*
X116877203Y-61465656D01*
X116870802Y-61525184D01*
X116870802Y-61848029D01*
X117841242Y-61848029D01*
X117802524Y-61890088D01*
X117752251Y-62004699D01*
X117741916Y-62129424D01*
X117772639Y-62250748D01*
X117833377Y-62343715D01*
X117828578Y-62344187D01*
X117792611Y-62347730D01*
X117786531Y-62348029D01*
X116870802Y-62348029D01*
X116870802Y-62670873D01*
X116877203Y-62730401D01*
X116877205Y-62730408D01*
X116927447Y-62865115D01*
X116931699Y-62872901D01*
X116929515Y-62874093D01*
X116949311Y-62927171D01*
X116944288Y-62972011D01*
X116885139Y-63166997D01*
X116865340Y-63368029D01*
X116885139Y-63569060D01*
X116943780Y-63762374D01*
X117041169Y-63944576D01*
X117055411Y-64012979D01*
X117041169Y-64061482D01*
X116943780Y-64243683D01*
X116885139Y-64436997D01*
X116865340Y-64638029D01*
X100325526Y-64638029D01*
X100317800Y-56152907D01*
X110899752Y-56152907D01*
X110918797Y-56407057D01*
X110974577Y-56651447D01*
X110975512Y-56655540D01*
X111068627Y-56892791D01*
X111196061Y-57113515D01*
X111354970Y-57312780D01*
X111541803Y-57486135D01*
X111752386Y-57629708D01*
X111752391Y-57629710D01*
X111752392Y-57629711D01*
X111752393Y-57629712D01*
X111833806Y-57668918D01*
X111982012Y-57740290D01*
X111982013Y-57740290D01*
X111982016Y-57740292D01*
X112225562Y-57815416D01*
X112477585Y-57853403D01*
X112732455Y-57853403D01*
X112984478Y-57815416D01*
X113228024Y-57740292D01*
X113457654Y-57629708D01*
X113668237Y-57486135D01*
X113855070Y-57312780D01*
X114013979Y-57113515D01*
X114141413Y-56892791D01*
X114234528Y-56655540D01*
X114234530Y-56655527D01*
X114235898Y-56651099D01*
X114237028Y-56651447D01*
X114268484Y-56595198D01*
X114330141Y-56562333D01*
X114399779Y-56568020D01*
X114455288Y-56610454D01*
X114473888Y-56651172D01*
X114474620Y-56650947D01*
X114475993Y-56655397D01*
X114569078Y-56892574D01*
X114569077Y-56892574D01*
X114696477Y-57113235D01*
X114738472Y-57165896D01*
X114738473Y-57165896D01*
X115542246Y-56362122D01*
X115580921Y-56455491D01*
X115677095Y-56580828D01*
X115802432Y-56677002D01*
X115895799Y-56715675D01*
X115091833Y-57519640D01*
X115252643Y-57629278D01*
X115252644Y-57629279D01*
X115482196Y-57739824D01*
X115482194Y-57739824D01*
X115725672Y-57814927D01*
X115725678Y-57814929D01*
X115977615Y-57852902D01*
X115977624Y-57852903D01*
X116232416Y-57852903D01*
X116232424Y-57852902D01*
X116484361Y-57814929D01*
X116484367Y-57814927D01*
X116727844Y-57739824D01*
X116957401Y-57629276D01*
X117118205Y-57519640D01*
X116314240Y-56715675D01*
X116407608Y-56677002D01*
X116532945Y-56580828D01*
X116629119Y-56455492D01*
X116667792Y-56362123D01*
X117471565Y-57165896D01*
X117513565Y-57113230D01*
X117640959Y-56892578D01*
X117665091Y-56831090D01*
X117707906Y-56775876D01*
X117773776Y-56752575D01*
X117841787Y-56768584D01*
X117890346Y-56818821D01*
X117904520Y-56876391D01*
X117904520Y-57400773D01*
X117904521Y-57400779D01*
X117910928Y-57460386D01*
X117961222Y-57595231D01*
X117961226Y-57595238D01*
X118047472Y-57710447D01*
X118047475Y-57710450D01*
X118162684Y-57796696D01*
X118162691Y-57796700D01*
X118297537Y-57846994D01*
X118297536Y-57846994D01*
X118304464Y-57847738D01*
X118357147Y-57853403D01*
X120852892Y-57853402D01*
X120912503Y-57846994D01*
X121047351Y-57796699D01*
X121162566Y-57710449D01*
X121248816Y-57595234D01*
X121299111Y-57460386D01*
X121305520Y-57400776D01*
X121305519Y-54905031D01*
X121299111Y-54845420D01*
X121289507Y-54819671D01*
X121248817Y-54710574D01*
X121248813Y-54710567D01*
X121162567Y-54595358D01*
X121162564Y-54595355D01*
X121047355Y-54509109D01*
X121047348Y-54509105D01*
X120912502Y-54458811D01*
X120912503Y-54458811D01*
X120852903Y-54452404D01*
X120852901Y-54452403D01*
X120852893Y-54452403D01*
X120852884Y-54452403D01*
X118357149Y-54452403D01*
X118357143Y-54452404D01*
X118297536Y-54458811D01*
X118162691Y-54509105D01*
X118162684Y-54509109D01*
X118047475Y-54595355D01*
X118047472Y-54595358D01*
X117961226Y-54710567D01*
X117961222Y-54710574D01*
X117910928Y-54845420D01*
X117905273Y-54898023D01*
X117904521Y-54905026D01*
X117904520Y-54905038D01*
X117904520Y-55429412D01*
X117884835Y-55496451D01*
X117832031Y-55542206D01*
X117762873Y-55552150D01*
X117699317Y-55523125D01*
X117665092Y-55474714D01*
X117640961Y-55413231D01*
X117640962Y-55413231D01*
X117513564Y-55192574D01*
X117471566Y-55139909D01*
X116667792Y-55943682D01*
X116629119Y-55850315D01*
X116532945Y-55724978D01*
X116407608Y-55628804D01*
X116314240Y-55590130D01*
X117118205Y-54786164D01*
X116957397Y-54676527D01*
X116957396Y-54676526D01*
X116727843Y-54565981D01*
X116727845Y-54565981D01*
X116484367Y-54490878D01*
X116484361Y-54490876D01*
X116232424Y-54452903D01*
X115977615Y-54452903D01*
X115725678Y-54490876D01*
X115725672Y-54490878D01*
X115482195Y-54565981D01*
X115252644Y-54676526D01*
X115252636Y-54676531D01*
X115091833Y-54786164D01*
X115895799Y-55590130D01*
X115802432Y-55628804D01*
X115677095Y-55724978D01*
X115580921Y-55850314D01*
X115542246Y-55943682D01*
X114738473Y-55139909D01*
X114696475Y-55192573D01*
X114569078Y-55413231D01*
X114475993Y-55650408D01*
X114474620Y-55654859D01*
X114473452Y-55654498D01*
X114442046Y-55710629D01*
X114380380Y-55743478D01*
X114310744Y-55737774D01*
X114255246Y-55695326D01*
X114236601Y-55654490D01*
X114235898Y-55654707D01*
X114234529Y-55650272D01*
X114234528Y-55650266D01*
X114141413Y-55413015D01*
X114013979Y-55192291D01*
X113855070Y-54993026D01*
X113668237Y-54819671D01*
X113457654Y-54676098D01*
X113457650Y-54676096D01*
X113457647Y-54676094D01*
X113457646Y-54676093D01*
X113228026Y-54565515D01*
X113228028Y-54565515D01*
X112984486Y-54490392D01*
X112984482Y-54490391D01*
X112984478Y-54490390D01*
X112863251Y-54472117D01*
X112732460Y-54452403D01*
X112732455Y-54452403D01*
X112477585Y-54452403D01*
X112477579Y-54452403D01*
X112320629Y-54476060D01*
X112225562Y-54490390D01*
X112225559Y-54490391D01*
X112225553Y-54490392D01*
X111982012Y-54565515D01*
X111752393Y-54676093D01*
X111752392Y-54676094D01*
X111752386Y-54676097D01*
X111752386Y-54676098D01*
X111750004Y-54677722D01*
X111541802Y-54819671D01*
X111354972Y-54993024D01*
X111354970Y-54993026D01*
X111196061Y-55192291D01*
X111068628Y-55413012D01*
X110975512Y-55650265D01*
X110975510Y-55650272D01*
X110918797Y-55898748D01*
X110899752Y-56152898D01*
X110899752Y-56152907D01*
X100317800Y-56152907D01*
X100315638Y-53778905D01*
X101727456Y-53778905D01*
X101757082Y-54048155D01*
X101757084Y-54048166D01*
X101818907Y-54284641D01*
X101825597Y-54310230D01*
X101931539Y-54559532D01*
X102002943Y-54676531D01*
X102072648Y-54790747D01*
X102072655Y-54790757D01*
X102245922Y-54998961D01*
X102245928Y-54998966D01*
X102362202Y-55103147D01*
X102447667Y-55179724D01*
X102673579Y-55329186D01*
X102918845Y-55444162D01*
X102918852Y-55444164D01*
X102918854Y-55444165D01*
X103178226Y-55522199D01*
X103178233Y-55522200D01*
X103178238Y-55522202D01*
X103446230Y-55561642D01*
X103446235Y-55561642D01*
X103649305Y-55561642D01*
X103700802Y-55557872D01*
X103851825Y-55546819D01*
X103964427Y-55521735D01*
X104116215Y-55487924D01*
X104116217Y-55487923D01*
X104116222Y-55487922D01*
X104369227Y-55391156D01*
X104605446Y-55258583D01*
X104819846Y-55093030D01*
X105007855Y-54898023D01*
X105165468Y-54677721D01*
X105252159Y-54509105D01*
X105289318Y-54436832D01*
X105289320Y-54436826D01*
X105289325Y-54436817D01*
X105376787Y-54180447D01*
X105425988Y-53914075D01*
X105427120Y-53883090D01*
X169343163Y-53883090D01*
X169372789Y-54152340D01*
X169372791Y-54152351D01*
X169441302Y-54414409D01*
X169441304Y-54414415D01*
X169547246Y-54663717D01*
X169658138Y-54845420D01*
X169688355Y-54894932D01*
X169688362Y-54894942D01*
X169861629Y-55103146D01*
X169861635Y-55103151D01*
X169961438Y-55192574D01*
X170063374Y-55283909D01*
X170289286Y-55433371D01*
X170534552Y-55548347D01*
X170534559Y-55548349D01*
X170534561Y-55548350D01*
X170793933Y-55626384D01*
X170793940Y-55626385D01*
X170793945Y-55626387D01*
X171061937Y-55665827D01*
X171061942Y-55665827D01*
X171265012Y-55665827D01*
X171316509Y-55662057D01*
X171467532Y-55651004D01*
X171580134Y-55625920D01*
X171731922Y-55592109D01*
X171731924Y-55592108D01*
X171731929Y-55592107D01*
X171984934Y-55495341D01*
X172221153Y-55362768D01*
X172435553Y-55197215D01*
X172623562Y-55002208D01*
X172781175Y-54781906D01*
X172877086Y-54595358D01*
X172905025Y-54541017D01*
X172905027Y-54541011D01*
X172905032Y-54541002D01*
X172992494Y-54284632D01*
X173041695Y-54018260D01*
X173051588Y-53747562D01*
X173021962Y-53478309D01*
X172953448Y-53216239D01*
X172847506Y-52966937D01*
X172706394Y-52735717D01*
X172705221Y-52734308D01*
X172533122Y-52527507D01*
X172533116Y-52527502D01*
X172331378Y-52346745D01*
X172105468Y-52197284D01*
X172033829Y-52163701D01*
X171860200Y-52082307D01*
X171860195Y-52082305D01*
X171860190Y-52082303D01*
X171600818Y-52004269D01*
X171600804Y-52004266D01*
X171485167Y-51987248D01*
X171332815Y-51964827D01*
X171129745Y-51964827D01*
X171129740Y-51964827D01*
X170927220Y-51979650D01*
X170927207Y-51979652D01*
X170662829Y-52038544D01*
X170662822Y-52038547D01*
X170409815Y-52135314D01*
X170173602Y-52267884D01*
X169959198Y-52433439D01*
X169771198Y-52628436D01*
X169771192Y-52628443D01*
X169613578Y-52848746D01*
X169613575Y-52848751D01*
X169489726Y-53089636D01*
X169489719Y-53089654D01*
X169402260Y-53346012D01*
X169402257Y-53346026D01*
X169353057Y-53612395D01*
X169353056Y-53612402D01*
X169343163Y-53883090D01*
X105427120Y-53883090D01*
X105435881Y-53643377D01*
X105406255Y-53374124D01*
X105337741Y-53112054D01*
X105231799Y-52862752D01*
X105090687Y-52631532D01*
X105088116Y-52628443D01*
X104917415Y-52423322D01*
X104917409Y-52423317D01*
X104715671Y-52242560D01*
X104489761Y-52093099D01*
X104489759Y-52093098D01*
X104244493Y-51978122D01*
X104244488Y-51978120D01*
X104244483Y-51978118D01*
X103985111Y-51900084D01*
X103985097Y-51900081D01*
X103869460Y-51883063D01*
X103717108Y-51860642D01*
X103514038Y-51860642D01*
X103514033Y-51860642D01*
X103311513Y-51875465D01*
X103311500Y-51875467D01*
X103047122Y-51934359D01*
X103047115Y-51934362D01*
X102794108Y-52031129D01*
X102557895Y-52163699D01*
X102343491Y-52329254D01*
X102155491Y-52524251D01*
X102155485Y-52524258D01*
X101997871Y-52744561D01*
X101997868Y-52744566D01*
X101874019Y-52985451D01*
X101874012Y-52985469D01*
X101786553Y-53241827D01*
X101786550Y-53241841D01*
X101737350Y-53508210D01*
X101737349Y-53508217D01*
X101727456Y-53778905D01*
X100315638Y-53778905D01*
X100312331Y-50146449D01*
X100331955Y-50079394D01*
X100384717Y-50033591D01*
X100436832Y-50022339D01*
X174560343Y-50323629D01*
G37*
%TD.AperFunction*%
%TD*%
M02*
