%TF.GenerationSoftware,KiCad,Pcbnew,7.0.9*%
%TF.CreationDate,2023-12-26T12:13:05+08:00*%
%TF.ProjectId,amp_controller,616d705f-636f-46e7-9472-6f6c6c65722e,rev?*%
%TF.SameCoordinates,Original*%
%TF.FileFunction,Other,Comment*%
%FSLAX46Y46*%
G04 Gerber Fmt 4.6, Leading zero omitted, Abs format (unit mm)*
G04 Created by KiCad (PCBNEW 7.0.9) date 2023-12-26 12:13:05*
%MOMM*%
%LPD*%
G01*
G04 APERTURE LIST*
%ADD10C,0.100000*%
%ADD11C,0.075000*%
%ADD12C,0.150000*%
G04 APERTURE END LIST*
D10*
X126029004Y-68638821D02*
X126060752Y-68543578D01*
X126060752Y-68543578D02*
X126092500Y-68511831D01*
X126092500Y-68511831D02*
X126155995Y-68480083D01*
X126155995Y-68480083D02*
X126251238Y-68480083D01*
X126251238Y-68480083D02*
X126314733Y-68511831D01*
X126314733Y-68511831D02*
X126346481Y-68543578D01*
X126346481Y-68543578D02*
X126378228Y-68607073D01*
X126378228Y-68607073D02*
X126378228Y-68861054D01*
X126378228Y-68861054D02*
X125711528Y-68861054D01*
X125711528Y-68861054D02*
X125711528Y-68638821D01*
X125711528Y-68638821D02*
X125743276Y-68575326D01*
X125743276Y-68575326D02*
X125775023Y-68543578D01*
X125775023Y-68543578D02*
X125838519Y-68511831D01*
X125838519Y-68511831D02*
X125902014Y-68511831D01*
X125902014Y-68511831D02*
X125965509Y-68543578D01*
X125965509Y-68543578D02*
X125997257Y-68575326D01*
X125997257Y-68575326D02*
X126029004Y-68638821D01*
X126029004Y-68638821D02*
X126029004Y-68861054D01*
X126378228Y-68099112D02*
X126346481Y-68162607D01*
X126346481Y-68162607D02*
X126314733Y-68194354D01*
X126314733Y-68194354D02*
X126251238Y-68226102D01*
X126251238Y-68226102D02*
X126060752Y-68226102D01*
X126060752Y-68226102D02*
X125997257Y-68194354D01*
X125997257Y-68194354D02*
X125965509Y-68162607D01*
X125965509Y-68162607D02*
X125933761Y-68099112D01*
X125933761Y-68099112D02*
X125933761Y-68003869D01*
X125933761Y-68003869D02*
X125965509Y-67940373D01*
X125965509Y-67940373D02*
X125997257Y-67908626D01*
X125997257Y-67908626D02*
X126060752Y-67876878D01*
X126060752Y-67876878D02*
X126251238Y-67876878D01*
X126251238Y-67876878D02*
X126314733Y-67908626D01*
X126314733Y-67908626D02*
X126346481Y-67940373D01*
X126346481Y-67940373D02*
X126378228Y-68003869D01*
X126378228Y-68003869D02*
X126378228Y-68099112D01*
X126378228Y-67305421D02*
X126029004Y-67305421D01*
X126029004Y-67305421D02*
X125965509Y-67337168D01*
X125965509Y-67337168D02*
X125933761Y-67400664D01*
X125933761Y-67400664D02*
X125933761Y-67527654D01*
X125933761Y-67527654D02*
X125965509Y-67591149D01*
X126346481Y-67305421D02*
X126378228Y-67368916D01*
X126378228Y-67368916D02*
X126378228Y-67527654D01*
X126378228Y-67527654D02*
X126346481Y-67591149D01*
X126346481Y-67591149D02*
X126282985Y-67622897D01*
X126282985Y-67622897D02*
X126219490Y-67622897D01*
X126219490Y-67622897D02*
X126155995Y-67591149D01*
X126155995Y-67591149D02*
X126124247Y-67527654D01*
X126124247Y-67527654D02*
X126124247Y-67368916D01*
X126124247Y-67368916D02*
X126092500Y-67305421D01*
X126378228Y-66987944D02*
X125933761Y-66987944D01*
X126060752Y-66987944D02*
X125997257Y-66956197D01*
X125997257Y-66956197D02*
X125965509Y-66924449D01*
X125965509Y-66924449D02*
X125933761Y-66860954D01*
X125933761Y-66860954D02*
X125933761Y-66797459D01*
X126378228Y-66289497D02*
X125711528Y-66289497D01*
X126346481Y-66289497D02*
X126378228Y-66352992D01*
X126378228Y-66352992D02*
X126378228Y-66479983D01*
X126378228Y-66479983D02*
X126346481Y-66543478D01*
X126346481Y-66543478D02*
X126314733Y-66575225D01*
X126314733Y-66575225D02*
X126251238Y-66606973D01*
X126251238Y-66606973D02*
X126060752Y-66606973D01*
X126060752Y-66606973D02*
X125997257Y-66575225D01*
X125997257Y-66575225D02*
X125965509Y-66543478D01*
X125965509Y-66543478D02*
X125933761Y-66479983D01*
X125933761Y-66479983D02*
X125933761Y-66352992D01*
X125933761Y-66352992D02*
X125965509Y-66289497D01*
X126378228Y-65464058D02*
X125711528Y-65464058D01*
X126378228Y-65083087D02*
X125997257Y-65368816D01*
X125711528Y-65083087D02*
X126092500Y-65464058D01*
X126346481Y-64543377D02*
X126378228Y-64606873D01*
X126378228Y-64606873D02*
X126378228Y-64733863D01*
X126378228Y-64733863D02*
X126346481Y-64797358D01*
X126346481Y-64797358D02*
X126282985Y-64829106D01*
X126282985Y-64829106D02*
X126029004Y-64829106D01*
X126029004Y-64829106D02*
X125965509Y-64797358D01*
X125965509Y-64797358D02*
X125933761Y-64733863D01*
X125933761Y-64733863D02*
X125933761Y-64606873D01*
X125933761Y-64606873D02*
X125965509Y-64543377D01*
X125965509Y-64543377D02*
X126029004Y-64511630D01*
X126029004Y-64511630D02*
X126092500Y-64511630D01*
X126092500Y-64511630D02*
X126155995Y-64829106D01*
X126346481Y-63971920D02*
X126378228Y-64035416D01*
X126378228Y-64035416D02*
X126378228Y-64162406D01*
X126378228Y-64162406D02*
X126346481Y-64225901D01*
X126346481Y-64225901D02*
X126282985Y-64257649D01*
X126282985Y-64257649D02*
X126029004Y-64257649D01*
X126029004Y-64257649D02*
X125965509Y-64225901D01*
X125965509Y-64225901D02*
X125933761Y-64162406D01*
X125933761Y-64162406D02*
X125933761Y-64035416D01*
X125933761Y-64035416D02*
X125965509Y-63971920D01*
X125965509Y-63971920D02*
X126029004Y-63940173D01*
X126029004Y-63940173D02*
X126092500Y-63940173D01*
X126092500Y-63940173D02*
X126155995Y-64257649D01*
X125933761Y-63654444D02*
X126600461Y-63654444D01*
X125965509Y-63654444D02*
X125933761Y-63590949D01*
X125933761Y-63590949D02*
X125933761Y-63463959D01*
X125933761Y-63463959D02*
X125965509Y-63400463D01*
X125965509Y-63400463D02*
X125997257Y-63368716D01*
X125997257Y-63368716D02*
X126060752Y-63336968D01*
X126060752Y-63336968D02*
X126251238Y-63336968D01*
X126251238Y-63336968D02*
X126314733Y-63368716D01*
X126314733Y-63368716D02*
X126346481Y-63400463D01*
X126346481Y-63400463D02*
X126378228Y-63463959D01*
X126378228Y-63463959D02*
X126378228Y-63590949D01*
X126378228Y-63590949D02*
X126346481Y-63654444D01*
X125711528Y-62416287D02*
X125711528Y-62289296D01*
X125711528Y-62289296D02*
X125743276Y-62225801D01*
X125743276Y-62225801D02*
X125806771Y-62162306D01*
X125806771Y-62162306D02*
X125933761Y-62130558D01*
X125933761Y-62130558D02*
X126155995Y-62130558D01*
X126155995Y-62130558D02*
X126282985Y-62162306D01*
X126282985Y-62162306D02*
X126346481Y-62225801D01*
X126346481Y-62225801D02*
X126378228Y-62289296D01*
X126378228Y-62289296D02*
X126378228Y-62416287D01*
X126378228Y-62416287D02*
X126346481Y-62479782D01*
X126346481Y-62479782D02*
X126282985Y-62543277D01*
X126282985Y-62543277D02*
X126155995Y-62575025D01*
X126155995Y-62575025D02*
X125933761Y-62575025D01*
X125933761Y-62575025D02*
X125806771Y-62543277D01*
X125806771Y-62543277D02*
X125743276Y-62479782D01*
X125743276Y-62479782D02*
X125711528Y-62416287D01*
X125933761Y-61559101D02*
X126378228Y-61559101D01*
X125933761Y-61844829D02*
X126282985Y-61844829D01*
X126282985Y-61844829D02*
X126346481Y-61813082D01*
X126346481Y-61813082D02*
X126378228Y-61749587D01*
X126378228Y-61749587D02*
X126378228Y-61654344D01*
X126378228Y-61654344D02*
X126346481Y-61590848D01*
X126346481Y-61590848D02*
X126314733Y-61559101D01*
X125933761Y-61336867D02*
X125933761Y-61082886D01*
X125711528Y-61241624D02*
X126282985Y-61241624D01*
X126282985Y-61241624D02*
X126346481Y-61209877D01*
X126346481Y-61209877D02*
X126378228Y-61146382D01*
X126378228Y-61146382D02*
X126378228Y-61082886D01*
X125711528Y-60352691D02*
X126251238Y-60352691D01*
X126251238Y-60352691D02*
X126314733Y-60320944D01*
X126314733Y-60320944D02*
X126346481Y-60289196D01*
X126346481Y-60289196D02*
X126378228Y-60225701D01*
X126378228Y-60225701D02*
X126378228Y-60098710D01*
X126378228Y-60098710D02*
X126346481Y-60035215D01*
X126346481Y-60035215D02*
X126314733Y-60003468D01*
X126314733Y-60003468D02*
X126251238Y-59971720D01*
X126251238Y-59971720D02*
X125711528Y-59971720D01*
X126346481Y-59685991D02*
X126378228Y-59590748D01*
X126378228Y-59590748D02*
X126378228Y-59432010D01*
X126378228Y-59432010D02*
X126346481Y-59368515D01*
X126346481Y-59368515D02*
X126314733Y-59336767D01*
X126314733Y-59336767D02*
X126251238Y-59305020D01*
X126251238Y-59305020D02*
X126187742Y-59305020D01*
X126187742Y-59305020D02*
X126124247Y-59336767D01*
X126124247Y-59336767D02*
X126092500Y-59368515D01*
X126092500Y-59368515D02*
X126060752Y-59432010D01*
X126060752Y-59432010D02*
X126029004Y-59559001D01*
X126029004Y-59559001D02*
X125997257Y-59622496D01*
X125997257Y-59622496D02*
X125965509Y-59654243D01*
X125965509Y-59654243D02*
X125902014Y-59685991D01*
X125902014Y-59685991D02*
X125838519Y-59685991D01*
X125838519Y-59685991D02*
X125775023Y-59654243D01*
X125775023Y-59654243D02*
X125743276Y-59622496D01*
X125743276Y-59622496D02*
X125711528Y-59559001D01*
X125711528Y-59559001D02*
X125711528Y-59400262D01*
X125711528Y-59400262D02*
X125743276Y-59305020D01*
X126029004Y-58797058D02*
X126060752Y-58701815D01*
X126060752Y-58701815D02*
X126092500Y-58670068D01*
X126092500Y-58670068D02*
X126155995Y-58638320D01*
X126155995Y-58638320D02*
X126251238Y-58638320D01*
X126251238Y-58638320D02*
X126314733Y-58670068D01*
X126314733Y-58670068D02*
X126346481Y-58701815D01*
X126346481Y-58701815D02*
X126378228Y-58765310D01*
X126378228Y-58765310D02*
X126378228Y-59019291D01*
X126378228Y-59019291D02*
X125711528Y-59019291D01*
X125711528Y-59019291D02*
X125711528Y-58797058D01*
X125711528Y-58797058D02*
X125743276Y-58733563D01*
X125743276Y-58733563D02*
X125775023Y-58701815D01*
X125775023Y-58701815D02*
X125838519Y-58670068D01*
X125838519Y-58670068D02*
X125902014Y-58670068D01*
X125902014Y-58670068D02*
X125965509Y-58701815D01*
X125965509Y-58701815D02*
X125997257Y-58733563D01*
X125997257Y-58733563D02*
X126029004Y-58797058D01*
X126029004Y-58797058D02*
X126029004Y-59019291D01*
X126314733Y-57463658D02*
X126346481Y-57495406D01*
X126346481Y-57495406D02*
X126378228Y-57590648D01*
X126378228Y-57590648D02*
X126378228Y-57654144D01*
X126378228Y-57654144D02*
X126346481Y-57749387D01*
X126346481Y-57749387D02*
X126282985Y-57812882D01*
X126282985Y-57812882D02*
X126219490Y-57844629D01*
X126219490Y-57844629D02*
X126092500Y-57876377D01*
X126092500Y-57876377D02*
X125997257Y-57876377D01*
X125997257Y-57876377D02*
X125870266Y-57844629D01*
X125870266Y-57844629D02*
X125806771Y-57812882D01*
X125806771Y-57812882D02*
X125743276Y-57749387D01*
X125743276Y-57749387D02*
X125711528Y-57654144D01*
X125711528Y-57654144D02*
X125711528Y-57590648D01*
X125711528Y-57590648D02*
X125743276Y-57495406D01*
X125743276Y-57495406D02*
X125775023Y-57463658D01*
X126378228Y-56892201D02*
X126029004Y-56892201D01*
X126029004Y-56892201D02*
X125965509Y-56923948D01*
X125965509Y-56923948D02*
X125933761Y-56987444D01*
X125933761Y-56987444D02*
X125933761Y-57114434D01*
X125933761Y-57114434D02*
X125965509Y-57177929D01*
X126346481Y-56892201D02*
X126378228Y-56955696D01*
X126378228Y-56955696D02*
X126378228Y-57114434D01*
X126378228Y-57114434D02*
X126346481Y-57177929D01*
X126346481Y-57177929D02*
X126282985Y-57209677D01*
X126282985Y-57209677D02*
X126219490Y-57209677D01*
X126219490Y-57209677D02*
X126155995Y-57177929D01*
X126155995Y-57177929D02*
X126124247Y-57114434D01*
X126124247Y-57114434D02*
X126124247Y-56955696D01*
X126124247Y-56955696D02*
X126092500Y-56892201D01*
X126378228Y-56574724D02*
X125711528Y-56574724D01*
X125965509Y-56574724D02*
X125933761Y-56511229D01*
X125933761Y-56511229D02*
X125933761Y-56384239D01*
X125933761Y-56384239D02*
X125965509Y-56320743D01*
X125965509Y-56320743D02*
X125997257Y-56288996D01*
X125997257Y-56288996D02*
X126060752Y-56257248D01*
X126060752Y-56257248D02*
X126251238Y-56257248D01*
X126251238Y-56257248D02*
X126314733Y-56288996D01*
X126314733Y-56288996D02*
X126346481Y-56320743D01*
X126346481Y-56320743D02*
X126378228Y-56384239D01*
X126378228Y-56384239D02*
X126378228Y-56511229D01*
X126378228Y-56511229D02*
X126346481Y-56574724D01*
X126378228Y-55876277D02*
X126346481Y-55939772D01*
X126346481Y-55939772D02*
X126282985Y-55971519D01*
X126282985Y-55971519D02*
X125711528Y-55971519D01*
X126346481Y-55368314D02*
X126378228Y-55431810D01*
X126378228Y-55431810D02*
X126378228Y-55558800D01*
X126378228Y-55558800D02*
X126346481Y-55622295D01*
X126346481Y-55622295D02*
X126282985Y-55654043D01*
X126282985Y-55654043D02*
X126029004Y-55654043D01*
X126029004Y-55654043D02*
X125965509Y-55622295D01*
X125965509Y-55622295D02*
X125933761Y-55558800D01*
X125933761Y-55558800D02*
X125933761Y-55431810D01*
X125933761Y-55431810D02*
X125965509Y-55368314D01*
X125965509Y-55368314D02*
X126029004Y-55336567D01*
X126029004Y-55336567D02*
X126092500Y-55336567D01*
X126092500Y-55336567D02*
X126155995Y-55654043D01*
D11*
X112783812Y-126342213D02*
X112879050Y-126270785D01*
X112879050Y-126270785D02*
X112974288Y-126342213D01*
X113498097Y-126770785D02*
X113569525Y-126794594D01*
X113569525Y-126794594D02*
X113688573Y-126794594D01*
X113688573Y-126794594D02*
X113736192Y-126770785D01*
X113736192Y-126770785D02*
X113760001Y-126746975D01*
X113760001Y-126746975D02*
X113783811Y-126699356D01*
X113783811Y-126699356D02*
X113783811Y-126651737D01*
X113783811Y-126651737D02*
X113760001Y-126604118D01*
X113760001Y-126604118D02*
X113736192Y-126580308D01*
X113736192Y-126580308D02*
X113688573Y-126556499D01*
X113688573Y-126556499D02*
X113593335Y-126532689D01*
X113593335Y-126532689D02*
X113545716Y-126508880D01*
X113545716Y-126508880D02*
X113521906Y-126485070D01*
X113521906Y-126485070D02*
X113498097Y-126437451D01*
X113498097Y-126437451D02*
X113498097Y-126389832D01*
X113498097Y-126389832D02*
X113521906Y-126342213D01*
X113521906Y-126342213D02*
X113545716Y-126318404D01*
X113545716Y-126318404D02*
X113593335Y-126294594D01*
X113593335Y-126294594D02*
X113712382Y-126294594D01*
X113712382Y-126294594D02*
X113783811Y-126318404D01*
X114212382Y-126461261D02*
X114212382Y-126794594D01*
X113998096Y-126461261D02*
X113998096Y-126723165D01*
X113998096Y-126723165D02*
X114021906Y-126770785D01*
X114021906Y-126770785D02*
X114069525Y-126794594D01*
X114069525Y-126794594D02*
X114140953Y-126794594D01*
X114140953Y-126794594D02*
X114188572Y-126770785D01*
X114188572Y-126770785D02*
X114212382Y-126746975D01*
X114664763Y-126461261D02*
X114664763Y-126866023D01*
X114664763Y-126866023D02*
X114640953Y-126913642D01*
X114640953Y-126913642D02*
X114617144Y-126937451D01*
X114617144Y-126937451D02*
X114569525Y-126961261D01*
X114569525Y-126961261D02*
X114498096Y-126961261D01*
X114498096Y-126961261D02*
X114450477Y-126937451D01*
X114664763Y-126770785D02*
X114617144Y-126794594D01*
X114617144Y-126794594D02*
X114521906Y-126794594D01*
X114521906Y-126794594D02*
X114474287Y-126770785D01*
X114474287Y-126770785D02*
X114450477Y-126746975D01*
X114450477Y-126746975D02*
X114426668Y-126699356D01*
X114426668Y-126699356D02*
X114426668Y-126556499D01*
X114426668Y-126556499D02*
X114450477Y-126508880D01*
X114450477Y-126508880D02*
X114474287Y-126485070D01*
X114474287Y-126485070D02*
X114521906Y-126461261D01*
X114521906Y-126461261D02*
X114617144Y-126461261D01*
X114617144Y-126461261D02*
X114664763Y-126485070D01*
X115117144Y-126461261D02*
X115117144Y-126866023D01*
X115117144Y-126866023D02*
X115093334Y-126913642D01*
X115093334Y-126913642D02*
X115069525Y-126937451D01*
X115069525Y-126937451D02*
X115021906Y-126961261D01*
X115021906Y-126961261D02*
X114950477Y-126961261D01*
X114950477Y-126961261D02*
X114902858Y-126937451D01*
X115117144Y-126770785D02*
X115069525Y-126794594D01*
X115069525Y-126794594D02*
X114974287Y-126794594D01*
X114974287Y-126794594D02*
X114926668Y-126770785D01*
X114926668Y-126770785D02*
X114902858Y-126746975D01*
X114902858Y-126746975D02*
X114879049Y-126699356D01*
X114879049Y-126699356D02*
X114879049Y-126556499D01*
X114879049Y-126556499D02*
X114902858Y-126508880D01*
X114902858Y-126508880D02*
X114926668Y-126485070D01*
X114926668Y-126485070D02*
X114974287Y-126461261D01*
X114974287Y-126461261D02*
X115069525Y-126461261D01*
X115069525Y-126461261D02*
X115117144Y-126485070D01*
X115545715Y-126770785D02*
X115498096Y-126794594D01*
X115498096Y-126794594D02*
X115402858Y-126794594D01*
X115402858Y-126794594D02*
X115355239Y-126770785D01*
X115355239Y-126770785D02*
X115331430Y-126723165D01*
X115331430Y-126723165D02*
X115331430Y-126532689D01*
X115331430Y-126532689D02*
X115355239Y-126485070D01*
X115355239Y-126485070D02*
X115402858Y-126461261D01*
X115402858Y-126461261D02*
X115498096Y-126461261D01*
X115498096Y-126461261D02*
X115545715Y-126485070D01*
X115545715Y-126485070D02*
X115569525Y-126532689D01*
X115569525Y-126532689D02*
X115569525Y-126580308D01*
X115569525Y-126580308D02*
X115331430Y-126627927D01*
X115760001Y-126770785D02*
X115807620Y-126794594D01*
X115807620Y-126794594D02*
X115902858Y-126794594D01*
X115902858Y-126794594D02*
X115950477Y-126770785D01*
X115950477Y-126770785D02*
X115974286Y-126723165D01*
X115974286Y-126723165D02*
X115974286Y-126699356D01*
X115974286Y-126699356D02*
X115950477Y-126651737D01*
X115950477Y-126651737D02*
X115902858Y-126627927D01*
X115902858Y-126627927D02*
X115831429Y-126627927D01*
X115831429Y-126627927D02*
X115783810Y-126604118D01*
X115783810Y-126604118D02*
X115760001Y-126556499D01*
X115760001Y-126556499D02*
X115760001Y-126532689D01*
X115760001Y-126532689D02*
X115783810Y-126485070D01*
X115783810Y-126485070D02*
X115831429Y-126461261D01*
X115831429Y-126461261D02*
X115902858Y-126461261D01*
X115902858Y-126461261D02*
X115950477Y-126485070D01*
X116117144Y-126461261D02*
X116307620Y-126461261D01*
X116188572Y-126294594D02*
X116188572Y-126723165D01*
X116188572Y-126723165D02*
X116212382Y-126770785D01*
X116212382Y-126770785D02*
X116260001Y-126794594D01*
X116260001Y-126794594D02*
X116307620Y-126794594D01*
X116664762Y-126770785D02*
X116617143Y-126794594D01*
X116617143Y-126794594D02*
X116521905Y-126794594D01*
X116521905Y-126794594D02*
X116474286Y-126770785D01*
X116474286Y-126770785D02*
X116450477Y-126723165D01*
X116450477Y-126723165D02*
X116450477Y-126532689D01*
X116450477Y-126532689D02*
X116474286Y-126485070D01*
X116474286Y-126485070D02*
X116521905Y-126461261D01*
X116521905Y-126461261D02*
X116617143Y-126461261D01*
X116617143Y-126461261D02*
X116664762Y-126485070D01*
X116664762Y-126485070D02*
X116688572Y-126532689D01*
X116688572Y-126532689D02*
X116688572Y-126580308D01*
X116688572Y-126580308D02*
X116450477Y-126627927D01*
X117117143Y-126794594D02*
X117117143Y-126294594D01*
X117117143Y-126770785D02*
X117069524Y-126794594D01*
X117069524Y-126794594D02*
X116974286Y-126794594D01*
X116974286Y-126794594D02*
X116926667Y-126770785D01*
X116926667Y-126770785D02*
X116902857Y-126746975D01*
X116902857Y-126746975D02*
X116879048Y-126699356D01*
X116879048Y-126699356D02*
X116879048Y-126556499D01*
X116879048Y-126556499D02*
X116902857Y-126508880D01*
X116902857Y-126508880D02*
X116926667Y-126485070D01*
X116926667Y-126485070D02*
X116974286Y-126461261D01*
X116974286Y-126461261D02*
X117069524Y-126461261D01*
X117069524Y-126461261D02*
X117117143Y-126485070D01*
X117736190Y-126794594D02*
X117736190Y-126294594D01*
X117736190Y-126485070D02*
X117783809Y-126461261D01*
X117783809Y-126461261D02*
X117879047Y-126461261D01*
X117879047Y-126461261D02*
X117926666Y-126485070D01*
X117926666Y-126485070D02*
X117950476Y-126508880D01*
X117950476Y-126508880D02*
X117974285Y-126556499D01*
X117974285Y-126556499D02*
X117974285Y-126699356D01*
X117974285Y-126699356D02*
X117950476Y-126746975D01*
X117950476Y-126746975D02*
X117926666Y-126770785D01*
X117926666Y-126770785D02*
X117879047Y-126794594D01*
X117879047Y-126794594D02*
X117783809Y-126794594D01*
X117783809Y-126794594D02*
X117736190Y-126770785D01*
X118260000Y-126794594D02*
X118212381Y-126770785D01*
X118212381Y-126770785D02*
X118188571Y-126746975D01*
X118188571Y-126746975D02*
X118164762Y-126699356D01*
X118164762Y-126699356D02*
X118164762Y-126556499D01*
X118164762Y-126556499D02*
X118188571Y-126508880D01*
X118188571Y-126508880D02*
X118212381Y-126485070D01*
X118212381Y-126485070D02*
X118260000Y-126461261D01*
X118260000Y-126461261D02*
X118331428Y-126461261D01*
X118331428Y-126461261D02*
X118379047Y-126485070D01*
X118379047Y-126485070D02*
X118402857Y-126508880D01*
X118402857Y-126508880D02*
X118426666Y-126556499D01*
X118426666Y-126556499D02*
X118426666Y-126699356D01*
X118426666Y-126699356D02*
X118402857Y-126746975D01*
X118402857Y-126746975D02*
X118379047Y-126770785D01*
X118379047Y-126770785D02*
X118331428Y-126794594D01*
X118331428Y-126794594D02*
X118260000Y-126794594D01*
X118855238Y-126794594D02*
X118855238Y-126532689D01*
X118855238Y-126532689D02*
X118831428Y-126485070D01*
X118831428Y-126485070D02*
X118783809Y-126461261D01*
X118783809Y-126461261D02*
X118688571Y-126461261D01*
X118688571Y-126461261D02*
X118640952Y-126485070D01*
X118855238Y-126770785D02*
X118807619Y-126794594D01*
X118807619Y-126794594D02*
X118688571Y-126794594D01*
X118688571Y-126794594D02*
X118640952Y-126770785D01*
X118640952Y-126770785D02*
X118617143Y-126723165D01*
X118617143Y-126723165D02*
X118617143Y-126675546D01*
X118617143Y-126675546D02*
X118640952Y-126627927D01*
X118640952Y-126627927D02*
X118688571Y-126604118D01*
X118688571Y-126604118D02*
X118807619Y-126604118D01*
X118807619Y-126604118D02*
X118855238Y-126580308D01*
X119093333Y-126794594D02*
X119093333Y-126461261D01*
X119093333Y-126556499D02*
X119117143Y-126508880D01*
X119117143Y-126508880D02*
X119140952Y-126485070D01*
X119140952Y-126485070D02*
X119188571Y-126461261D01*
X119188571Y-126461261D02*
X119236190Y-126461261D01*
X119617143Y-126794594D02*
X119617143Y-126294594D01*
X119617143Y-126770785D02*
X119569524Y-126794594D01*
X119569524Y-126794594D02*
X119474286Y-126794594D01*
X119474286Y-126794594D02*
X119426667Y-126770785D01*
X119426667Y-126770785D02*
X119402857Y-126746975D01*
X119402857Y-126746975D02*
X119379048Y-126699356D01*
X119379048Y-126699356D02*
X119379048Y-126556499D01*
X119379048Y-126556499D02*
X119402857Y-126508880D01*
X119402857Y-126508880D02*
X119426667Y-126485070D01*
X119426667Y-126485070D02*
X119474286Y-126461261D01*
X119474286Y-126461261D02*
X119569524Y-126461261D01*
X119569524Y-126461261D02*
X119617143Y-126485070D01*
X120426666Y-126770785D02*
X120379047Y-126794594D01*
X120379047Y-126794594D02*
X120283809Y-126794594D01*
X120283809Y-126794594D02*
X120236190Y-126770785D01*
X120236190Y-126770785D02*
X120212381Y-126723165D01*
X120212381Y-126723165D02*
X120212381Y-126532689D01*
X120212381Y-126532689D02*
X120236190Y-126485070D01*
X120236190Y-126485070D02*
X120283809Y-126461261D01*
X120283809Y-126461261D02*
X120379047Y-126461261D01*
X120379047Y-126461261D02*
X120426666Y-126485070D01*
X120426666Y-126485070D02*
X120450476Y-126532689D01*
X120450476Y-126532689D02*
X120450476Y-126580308D01*
X120450476Y-126580308D02*
X120212381Y-126627927D01*
X120879047Y-126794594D02*
X120879047Y-126294594D01*
X120879047Y-126770785D02*
X120831428Y-126794594D01*
X120831428Y-126794594D02*
X120736190Y-126794594D01*
X120736190Y-126794594D02*
X120688571Y-126770785D01*
X120688571Y-126770785D02*
X120664761Y-126746975D01*
X120664761Y-126746975D02*
X120640952Y-126699356D01*
X120640952Y-126699356D02*
X120640952Y-126556499D01*
X120640952Y-126556499D02*
X120664761Y-126508880D01*
X120664761Y-126508880D02*
X120688571Y-126485070D01*
X120688571Y-126485070D02*
X120736190Y-126461261D01*
X120736190Y-126461261D02*
X120831428Y-126461261D01*
X120831428Y-126461261D02*
X120879047Y-126485070D01*
X121331428Y-126461261D02*
X121331428Y-126866023D01*
X121331428Y-126866023D02*
X121307618Y-126913642D01*
X121307618Y-126913642D02*
X121283809Y-126937451D01*
X121283809Y-126937451D02*
X121236190Y-126961261D01*
X121236190Y-126961261D02*
X121164761Y-126961261D01*
X121164761Y-126961261D02*
X121117142Y-126937451D01*
X121331428Y-126770785D02*
X121283809Y-126794594D01*
X121283809Y-126794594D02*
X121188571Y-126794594D01*
X121188571Y-126794594D02*
X121140952Y-126770785D01*
X121140952Y-126770785D02*
X121117142Y-126746975D01*
X121117142Y-126746975D02*
X121093333Y-126699356D01*
X121093333Y-126699356D02*
X121093333Y-126556499D01*
X121093333Y-126556499D02*
X121117142Y-126508880D01*
X121117142Y-126508880D02*
X121140952Y-126485070D01*
X121140952Y-126485070D02*
X121188571Y-126461261D01*
X121188571Y-126461261D02*
X121283809Y-126461261D01*
X121283809Y-126461261D02*
X121331428Y-126485070D01*
X121759999Y-126770785D02*
X121712380Y-126794594D01*
X121712380Y-126794594D02*
X121617142Y-126794594D01*
X121617142Y-126794594D02*
X121569523Y-126770785D01*
X121569523Y-126770785D02*
X121545714Y-126723165D01*
X121545714Y-126723165D02*
X121545714Y-126532689D01*
X121545714Y-126532689D02*
X121569523Y-126485070D01*
X121569523Y-126485070D02*
X121617142Y-126461261D01*
X121617142Y-126461261D02*
X121712380Y-126461261D01*
X121712380Y-126461261D02*
X121759999Y-126485070D01*
X121759999Y-126485070D02*
X121783809Y-126532689D01*
X121783809Y-126532689D02*
X121783809Y-126580308D01*
X121783809Y-126580308D02*
X121545714Y-126627927D01*
X122307618Y-126461261D02*
X122498094Y-126461261D01*
X122379046Y-126794594D02*
X122379046Y-126366023D01*
X122379046Y-126366023D02*
X122402856Y-126318404D01*
X122402856Y-126318404D02*
X122450475Y-126294594D01*
X122450475Y-126294594D02*
X122498094Y-126294594D01*
X122736189Y-126794594D02*
X122688570Y-126770785D01*
X122688570Y-126770785D02*
X122664760Y-126746975D01*
X122664760Y-126746975D02*
X122640951Y-126699356D01*
X122640951Y-126699356D02*
X122640951Y-126556499D01*
X122640951Y-126556499D02*
X122664760Y-126508880D01*
X122664760Y-126508880D02*
X122688570Y-126485070D01*
X122688570Y-126485070D02*
X122736189Y-126461261D01*
X122736189Y-126461261D02*
X122807617Y-126461261D01*
X122807617Y-126461261D02*
X122855236Y-126485070D01*
X122855236Y-126485070D02*
X122879046Y-126508880D01*
X122879046Y-126508880D02*
X122902855Y-126556499D01*
X122902855Y-126556499D02*
X122902855Y-126699356D01*
X122902855Y-126699356D02*
X122879046Y-126746975D01*
X122879046Y-126746975D02*
X122855236Y-126770785D01*
X122855236Y-126770785D02*
X122807617Y-126794594D01*
X122807617Y-126794594D02*
X122736189Y-126794594D01*
X123117141Y-126794594D02*
X123117141Y-126461261D01*
X123117141Y-126556499D02*
X123140951Y-126508880D01*
X123140951Y-126508880D02*
X123164760Y-126485070D01*
X123164760Y-126485070D02*
X123212379Y-126461261D01*
X123212379Y-126461261D02*
X123259998Y-126461261D01*
X124093331Y-126794594D02*
X123926665Y-126556499D01*
X123807617Y-126794594D02*
X123807617Y-126294594D01*
X123807617Y-126294594D02*
X123998093Y-126294594D01*
X123998093Y-126294594D02*
X124045712Y-126318404D01*
X124045712Y-126318404D02*
X124069522Y-126342213D01*
X124069522Y-126342213D02*
X124093331Y-126389832D01*
X124093331Y-126389832D02*
X124093331Y-126461261D01*
X124093331Y-126461261D02*
X124069522Y-126508880D01*
X124069522Y-126508880D02*
X124045712Y-126532689D01*
X124045712Y-126532689D02*
X123998093Y-126556499D01*
X123998093Y-126556499D02*
X123807617Y-126556499D01*
X124474284Y-126532689D02*
X124307617Y-126532689D01*
X124307617Y-126794594D02*
X124307617Y-126294594D01*
X124307617Y-126294594D02*
X124545712Y-126294594D01*
X125045712Y-126342213D02*
X125140950Y-126270785D01*
X125140950Y-126270785D02*
X125236188Y-126342213D01*
D10*
X140090995Y-55590548D02*
X140059247Y-55685791D01*
X140059247Y-55685791D02*
X140027499Y-55717538D01*
X140027499Y-55717538D02*
X139964004Y-55749286D01*
X139964004Y-55749286D02*
X139868761Y-55749286D01*
X139868761Y-55749286D02*
X139805266Y-55717538D01*
X139805266Y-55717538D02*
X139773519Y-55685791D01*
X139773519Y-55685791D02*
X139741771Y-55622296D01*
X139741771Y-55622296D02*
X139741771Y-55368315D01*
X139741771Y-55368315D02*
X140408471Y-55368315D01*
X140408471Y-55368315D02*
X140408471Y-55590548D01*
X140408471Y-55590548D02*
X140376723Y-55654043D01*
X140376723Y-55654043D02*
X140344976Y-55685791D01*
X140344976Y-55685791D02*
X140281480Y-55717538D01*
X140281480Y-55717538D02*
X140217985Y-55717538D01*
X140217985Y-55717538D02*
X140154490Y-55685791D01*
X140154490Y-55685791D02*
X140122742Y-55654043D01*
X140122742Y-55654043D02*
X140090995Y-55590548D01*
X140090995Y-55590548D02*
X140090995Y-55368315D01*
X139741771Y-56130257D02*
X139773519Y-56066762D01*
X139773519Y-56066762D02*
X139805266Y-56035015D01*
X139805266Y-56035015D02*
X139868761Y-56003267D01*
X139868761Y-56003267D02*
X140059247Y-56003267D01*
X140059247Y-56003267D02*
X140122742Y-56035015D01*
X140122742Y-56035015D02*
X140154490Y-56066762D01*
X140154490Y-56066762D02*
X140186238Y-56130257D01*
X140186238Y-56130257D02*
X140186238Y-56225500D01*
X140186238Y-56225500D02*
X140154490Y-56288996D01*
X140154490Y-56288996D02*
X140122742Y-56320743D01*
X140122742Y-56320743D02*
X140059247Y-56352491D01*
X140059247Y-56352491D02*
X139868761Y-56352491D01*
X139868761Y-56352491D02*
X139805266Y-56320743D01*
X139805266Y-56320743D02*
X139773519Y-56288996D01*
X139773519Y-56288996D02*
X139741771Y-56225500D01*
X139741771Y-56225500D02*
X139741771Y-56130257D01*
X139741771Y-56923948D02*
X140090995Y-56923948D01*
X140090995Y-56923948D02*
X140154490Y-56892201D01*
X140154490Y-56892201D02*
X140186238Y-56828705D01*
X140186238Y-56828705D02*
X140186238Y-56701715D01*
X140186238Y-56701715D02*
X140154490Y-56638220D01*
X139773519Y-56923948D02*
X139741771Y-56860453D01*
X139741771Y-56860453D02*
X139741771Y-56701715D01*
X139741771Y-56701715D02*
X139773519Y-56638220D01*
X139773519Y-56638220D02*
X139837014Y-56606472D01*
X139837014Y-56606472D02*
X139900509Y-56606472D01*
X139900509Y-56606472D02*
X139964004Y-56638220D01*
X139964004Y-56638220D02*
X139995752Y-56701715D01*
X139995752Y-56701715D02*
X139995752Y-56860453D01*
X139995752Y-56860453D02*
X140027499Y-56923948D01*
X139741771Y-57241425D02*
X140186238Y-57241425D01*
X140059247Y-57241425D02*
X140122742Y-57273172D01*
X140122742Y-57273172D02*
X140154490Y-57304920D01*
X140154490Y-57304920D02*
X140186238Y-57368415D01*
X140186238Y-57368415D02*
X140186238Y-57431910D01*
X139741771Y-57939872D02*
X140408471Y-57939872D01*
X139773519Y-57939872D02*
X139741771Y-57876377D01*
X139741771Y-57876377D02*
X139741771Y-57749386D01*
X139741771Y-57749386D02*
X139773519Y-57685891D01*
X139773519Y-57685891D02*
X139805266Y-57654144D01*
X139805266Y-57654144D02*
X139868761Y-57622396D01*
X139868761Y-57622396D02*
X140059247Y-57622396D01*
X140059247Y-57622396D02*
X140122742Y-57654144D01*
X140122742Y-57654144D02*
X140154490Y-57685891D01*
X140154490Y-57685891D02*
X140186238Y-57749386D01*
X140186238Y-57749386D02*
X140186238Y-57876377D01*
X140186238Y-57876377D02*
X140154490Y-57939872D01*
X139741771Y-58765311D02*
X140408471Y-58765311D01*
X139741771Y-59146282D02*
X140122742Y-58860553D01*
X140408471Y-59146282D02*
X140027499Y-58765311D01*
X139773519Y-59685992D02*
X139741771Y-59622496D01*
X139741771Y-59622496D02*
X139741771Y-59495506D01*
X139741771Y-59495506D02*
X139773519Y-59432011D01*
X139773519Y-59432011D02*
X139837014Y-59400263D01*
X139837014Y-59400263D02*
X140090995Y-59400263D01*
X140090995Y-59400263D02*
X140154490Y-59432011D01*
X140154490Y-59432011D02*
X140186238Y-59495506D01*
X140186238Y-59495506D02*
X140186238Y-59622496D01*
X140186238Y-59622496D02*
X140154490Y-59685992D01*
X140154490Y-59685992D02*
X140090995Y-59717739D01*
X140090995Y-59717739D02*
X140027499Y-59717739D01*
X140027499Y-59717739D02*
X139964004Y-59400263D01*
X139773519Y-60257449D02*
X139741771Y-60193953D01*
X139741771Y-60193953D02*
X139741771Y-60066963D01*
X139741771Y-60066963D02*
X139773519Y-60003468D01*
X139773519Y-60003468D02*
X139837014Y-59971720D01*
X139837014Y-59971720D02*
X140090995Y-59971720D01*
X140090995Y-59971720D02*
X140154490Y-60003468D01*
X140154490Y-60003468D02*
X140186238Y-60066963D01*
X140186238Y-60066963D02*
X140186238Y-60193953D01*
X140186238Y-60193953D02*
X140154490Y-60257449D01*
X140154490Y-60257449D02*
X140090995Y-60289196D01*
X140090995Y-60289196D02*
X140027499Y-60289196D01*
X140027499Y-60289196D02*
X139964004Y-59971720D01*
X140186238Y-60574925D02*
X139519538Y-60574925D01*
X140154490Y-60574925D02*
X140186238Y-60638420D01*
X140186238Y-60638420D02*
X140186238Y-60765410D01*
X140186238Y-60765410D02*
X140154490Y-60828906D01*
X140154490Y-60828906D02*
X140122742Y-60860653D01*
X140122742Y-60860653D02*
X140059247Y-60892401D01*
X140059247Y-60892401D02*
X139868761Y-60892401D01*
X139868761Y-60892401D02*
X139805266Y-60860653D01*
X139805266Y-60860653D02*
X139773519Y-60828906D01*
X139773519Y-60828906D02*
X139741771Y-60765410D01*
X139741771Y-60765410D02*
X139741771Y-60638420D01*
X139741771Y-60638420D02*
X139773519Y-60574925D01*
X140408471Y-61813082D02*
X140408471Y-61940073D01*
X140408471Y-61940073D02*
X140376723Y-62003568D01*
X140376723Y-62003568D02*
X140313228Y-62067063D01*
X140313228Y-62067063D02*
X140186238Y-62098811D01*
X140186238Y-62098811D02*
X139964004Y-62098811D01*
X139964004Y-62098811D02*
X139837014Y-62067063D01*
X139837014Y-62067063D02*
X139773519Y-62003568D01*
X139773519Y-62003568D02*
X139741771Y-61940073D01*
X139741771Y-61940073D02*
X139741771Y-61813082D01*
X139741771Y-61813082D02*
X139773519Y-61749587D01*
X139773519Y-61749587D02*
X139837014Y-61686092D01*
X139837014Y-61686092D02*
X139964004Y-61654344D01*
X139964004Y-61654344D02*
X140186238Y-61654344D01*
X140186238Y-61654344D02*
X140313228Y-61686092D01*
X140313228Y-61686092D02*
X140376723Y-61749587D01*
X140376723Y-61749587D02*
X140408471Y-61813082D01*
X140186238Y-62670268D02*
X139741771Y-62670268D01*
X140186238Y-62384540D02*
X139837014Y-62384540D01*
X139837014Y-62384540D02*
X139773519Y-62416287D01*
X139773519Y-62416287D02*
X139741771Y-62479782D01*
X139741771Y-62479782D02*
X139741771Y-62575025D01*
X139741771Y-62575025D02*
X139773519Y-62638521D01*
X139773519Y-62638521D02*
X139805266Y-62670268D01*
X140186238Y-62892502D02*
X140186238Y-63146483D01*
X140408471Y-62987745D02*
X139837014Y-62987745D01*
X139837014Y-62987745D02*
X139773519Y-63019492D01*
X139773519Y-63019492D02*
X139741771Y-63082987D01*
X139741771Y-63082987D02*
X139741771Y-63146483D01*
X140408471Y-63876678D02*
X139868761Y-63876678D01*
X139868761Y-63876678D02*
X139805266Y-63908425D01*
X139805266Y-63908425D02*
X139773519Y-63940173D01*
X139773519Y-63940173D02*
X139741771Y-64003668D01*
X139741771Y-64003668D02*
X139741771Y-64130659D01*
X139741771Y-64130659D02*
X139773519Y-64194154D01*
X139773519Y-64194154D02*
X139805266Y-64225901D01*
X139805266Y-64225901D02*
X139868761Y-64257649D01*
X139868761Y-64257649D02*
X140408471Y-64257649D01*
X139773519Y-64543378D02*
X139741771Y-64638621D01*
X139741771Y-64638621D02*
X139741771Y-64797359D01*
X139741771Y-64797359D02*
X139773519Y-64860854D01*
X139773519Y-64860854D02*
X139805266Y-64892602D01*
X139805266Y-64892602D02*
X139868761Y-64924349D01*
X139868761Y-64924349D02*
X139932257Y-64924349D01*
X139932257Y-64924349D02*
X139995752Y-64892602D01*
X139995752Y-64892602D02*
X140027499Y-64860854D01*
X140027499Y-64860854D02*
X140059247Y-64797359D01*
X140059247Y-64797359D02*
X140090995Y-64670368D01*
X140090995Y-64670368D02*
X140122742Y-64606873D01*
X140122742Y-64606873D02*
X140154490Y-64575126D01*
X140154490Y-64575126D02*
X140217985Y-64543378D01*
X140217985Y-64543378D02*
X140281480Y-64543378D01*
X140281480Y-64543378D02*
X140344976Y-64575126D01*
X140344976Y-64575126D02*
X140376723Y-64606873D01*
X140376723Y-64606873D02*
X140408471Y-64670368D01*
X140408471Y-64670368D02*
X140408471Y-64829107D01*
X140408471Y-64829107D02*
X140376723Y-64924349D01*
X140090995Y-65432311D02*
X140059247Y-65527554D01*
X140059247Y-65527554D02*
X140027499Y-65559301D01*
X140027499Y-65559301D02*
X139964004Y-65591049D01*
X139964004Y-65591049D02*
X139868761Y-65591049D01*
X139868761Y-65591049D02*
X139805266Y-65559301D01*
X139805266Y-65559301D02*
X139773519Y-65527554D01*
X139773519Y-65527554D02*
X139741771Y-65464059D01*
X139741771Y-65464059D02*
X139741771Y-65210078D01*
X139741771Y-65210078D02*
X140408471Y-65210078D01*
X140408471Y-65210078D02*
X140408471Y-65432311D01*
X140408471Y-65432311D02*
X140376723Y-65495806D01*
X140376723Y-65495806D02*
X140344976Y-65527554D01*
X140344976Y-65527554D02*
X140281480Y-65559301D01*
X140281480Y-65559301D02*
X140217985Y-65559301D01*
X140217985Y-65559301D02*
X140154490Y-65527554D01*
X140154490Y-65527554D02*
X140122742Y-65495806D01*
X140122742Y-65495806D02*
X140090995Y-65432311D01*
X140090995Y-65432311D02*
X140090995Y-65210078D01*
X139805266Y-66765711D02*
X139773519Y-66733963D01*
X139773519Y-66733963D02*
X139741771Y-66638721D01*
X139741771Y-66638721D02*
X139741771Y-66575225D01*
X139741771Y-66575225D02*
X139773519Y-66479982D01*
X139773519Y-66479982D02*
X139837014Y-66416487D01*
X139837014Y-66416487D02*
X139900509Y-66384740D01*
X139900509Y-66384740D02*
X140027499Y-66352992D01*
X140027499Y-66352992D02*
X140122742Y-66352992D01*
X140122742Y-66352992D02*
X140249733Y-66384740D01*
X140249733Y-66384740D02*
X140313228Y-66416487D01*
X140313228Y-66416487D02*
X140376723Y-66479982D01*
X140376723Y-66479982D02*
X140408471Y-66575225D01*
X140408471Y-66575225D02*
X140408471Y-66638721D01*
X140408471Y-66638721D02*
X140376723Y-66733963D01*
X140376723Y-66733963D02*
X140344976Y-66765711D01*
X139741771Y-67337168D02*
X140090995Y-67337168D01*
X140090995Y-67337168D02*
X140154490Y-67305421D01*
X140154490Y-67305421D02*
X140186238Y-67241925D01*
X140186238Y-67241925D02*
X140186238Y-67114935D01*
X140186238Y-67114935D02*
X140154490Y-67051440D01*
X139773519Y-67337168D02*
X139741771Y-67273673D01*
X139741771Y-67273673D02*
X139741771Y-67114935D01*
X139741771Y-67114935D02*
X139773519Y-67051440D01*
X139773519Y-67051440D02*
X139837014Y-67019692D01*
X139837014Y-67019692D02*
X139900509Y-67019692D01*
X139900509Y-67019692D02*
X139964004Y-67051440D01*
X139964004Y-67051440D02*
X139995752Y-67114935D01*
X139995752Y-67114935D02*
X139995752Y-67273673D01*
X139995752Y-67273673D02*
X140027499Y-67337168D01*
X139741771Y-67654645D02*
X140408471Y-67654645D01*
X140154490Y-67654645D02*
X140186238Y-67718140D01*
X140186238Y-67718140D02*
X140186238Y-67845130D01*
X140186238Y-67845130D02*
X140154490Y-67908626D01*
X140154490Y-67908626D02*
X140122742Y-67940373D01*
X140122742Y-67940373D02*
X140059247Y-67972121D01*
X140059247Y-67972121D02*
X139868761Y-67972121D01*
X139868761Y-67972121D02*
X139805266Y-67940373D01*
X139805266Y-67940373D02*
X139773519Y-67908626D01*
X139773519Y-67908626D02*
X139741771Y-67845130D01*
X139741771Y-67845130D02*
X139741771Y-67718140D01*
X139741771Y-67718140D02*
X139773519Y-67654645D01*
X139741771Y-68353092D02*
X139773519Y-68289597D01*
X139773519Y-68289597D02*
X139837014Y-68257850D01*
X139837014Y-68257850D02*
X140408471Y-68257850D01*
X139773519Y-68861055D02*
X139741771Y-68797559D01*
X139741771Y-68797559D02*
X139741771Y-68670569D01*
X139741771Y-68670569D02*
X139773519Y-68607074D01*
X139773519Y-68607074D02*
X139837014Y-68575326D01*
X139837014Y-68575326D02*
X140090995Y-68575326D01*
X140090995Y-68575326D02*
X140154490Y-68607074D01*
X140154490Y-68607074D02*
X140186238Y-68670569D01*
X140186238Y-68670569D02*
X140186238Y-68797559D01*
X140186238Y-68797559D02*
X140154490Y-68861055D01*
X140154490Y-68861055D02*
X140090995Y-68892802D01*
X140090995Y-68892802D02*
X140027499Y-68892802D01*
X140027499Y-68892802D02*
X139964004Y-68575326D01*
D12*
X131274285Y-119624265D02*
X131226666Y-119671885D01*
X131226666Y-119671885D02*
X131083809Y-119719504D01*
X131083809Y-119719504D02*
X130988571Y-119719504D01*
X130988571Y-119719504D02*
X130845714Y-119671885D01*
X130845714Y-119671885D02*
X130750476Y-119576646D01*
X130750476Y-119576646D02*
X130702857Y-119481408D01*
X130702857Y-119481408D02*
X130655238Y-119290932D01*
X130655238Y-119290932D02*
X130655238Y-119148075D01*
X130655238Y-119148075D02*
X130702857Y-118957599D01*
X130702857Y-118957599D02*
X130750476Y-118862361D01*
X130750476Y-118862361D02*
X130845714Y-118767123D01*
X130845714Y-118767123D02*
X130988571Y-118719504D01*
X130988571Y-118719504D02*
X131083809Y-118719504D01*
X131083809Y-118719504D02*
X131226666Y-118767123D01*
X131226666Y-118767123D02*
X131274285Y-118814742D01*
X131845714Y-119719504D02*
X131750476Y-119671885D01*
X131750476Y-119671885D02*
X131702857Y-119624265D01*
X131702857Y-119624265D02*
X131655238Y-119529027D01*
X131655238Y-119529027D02*
X131655238Y-119243313D01*
X131655238Y-119243313D02*
X131702857Y-119148075D01*
X131702857Y-119148075D02*
X131750476Y-119100456D01*
X131750476Y-119100456D02*
X131845714Y-119052837D01*
X131845714Y-119052837D02*
X131988571Y-119052837D01*
X131988571Y-119052837D02*
X132083809Y-119100456D01*
X132083809Y-119100456D02*
X132131428Y-119148075D01*
X132131428Y-119148075D02*
X132179047Y-119243313D01*
X132179047Y-119243313D02*
X132179047Y-119529027D01*
X132179047Y-119529027D02*
X132131428Y-119624265D01*
X132131428Y-119624265D02*
X132083809Y-119671885D01*
X132083809Y-119671885D02*
X131988571Y-119719504D01*
X131988571Y-119719504D02*
X131845714Y-119719504D01*
X132607619Y-119052837D02*
X132607619Y-120052837D01*
X132607619Y-119100456D02*
X132702857Y-119052837D01*
X132702857Y-119052837D02*
X132893333Y-119052837D01*
X132893333Y-119052837D02*
X132988571Y-119100456D01*
X132988571Y-119100456D02*
X133036190Y-119148075D01*
X133036190Y-119148075D02*
X133083809Y-119243313D01*
X133083809Y-119243313D02*
X133083809Y-119529027D01*
X133083809Y-119529027D02*
X133036190Y-119624265D01*
X133036190Y-119624265D02*
X132988571Y-119671885D01*
X132988571Y-119671885D02*
X132893333Y-119719504D01*
X132893333Y-119719504D02*
X132702857Y-119719504D01*
X132702857Y-119719504D02*
X132607619Y-119671885D01*
X133512381Y-119052837D02*
X133512381Y-120052837D01*
X133512381Y-119100456D02*
X133607619Y-119052837D01*
X133607619Y-119052837D02*
X133798095Y-119052837D01*
X133798095Y-119052837D02*
X133893333Y-119100456D01*
X133893333Y-119100456D02*
X133940952Y-119148075D01*
X133940952Y-119148075D02*
X133988571Y-119243313D01*
X133988571Y-119243313D02*
X133988571Y-119529027D01*
X133988571Y-119529027D02*
X133940952Y-119624265D01*
X133940952Y-119624265D02*
X133893333Y-119671885D01*
X133893333Y-119671885D02*
X133798095Y-119719504D01*
X133798095Y-119719504D02*
X133607619Y-119719504D01*
X133607619Y-119719504D02*
X133512381Y-119671885D01*
X134798095Y-119671885D02*
X134702857Y-119719504D01*
X134702857Y-119719504D02*
X134512381Y-119719504D01*
X134512381Y-119719504D02*
X134417143Y-119671885D01*
X134417143Y-119671885D02*
X134369524Y-119576646D01*
X134369524Y-119576646D02*
X134369524Y-119195694D01*
X134369524Y-119195694D02*
X134417143Y-119100456D01*
X134417143Y-119100456D02*
X134512381Y-119052837D01*
X134512381Y-119052837D02*
X134702857Y-119052837D01*
X134702857Y-119052837D02*
X134798095Y-119100456D01*
X134798095Y-119100456D02*
X134845714Y-119195694D01*
X134845714Y-119195694D02*
X134845714Y-119290932D01*
X134845714Y-119290932D02*
X134369524Y-119386170D01*
X135274286Y-119719504D02*
X135274286Y-119052837D01*
X135274286Y-119243313D02*
X135321905Y-119148075D01*
X135321905Y-119148075D02*
X135369524Y-119100456D01*
X135369524Y-119100456D02*
X135464762Y-119052837D01*
X135464762Y-119052837D02*
X135560000Y-119052837D01*
D11*
X140883812Y-126342213D02*
X140979050Y-126270785D01*
X140979050Y-126270785D02*
X141074288Y-126342213D01*
X141598097Y-126770785D02*
X141669525Y-126794594D01*
X141669525Y-126794594D02*
X141788573Y-126794594D01*
X141788573Y-126794594D02*
X141836192Y-126770785D01*
X141836192Y-126770785D02*
X141860001Y-126746975D01*
X141860001Y-126746975D02*
X141883811Y-126699356D01*
X141883811Y-126699356D02*
X141883811Y-126651737D01*
X141883811Y-126651737D02*
X141860001Y-126604118D01*
X141860001Y-126604118D02*
X141836192Y-126580308D01*
X141836192Y-126580308D02*
X141788573Y-126556499D01*
X141788573Y-126556499D02*
X141693335Y-126532689D01*
X141693335Y-126532689D02*
X141645716Y-126508880D01*
X141645716Y-126508880D02*
X141621906Y-126485070D01*
X141621906Y-126485070D02*
X141598097Y-126437451D01*
X141598097Y-126437451D02*
X141598097Y-126389832D01*
X141598097Y-126389832D02*
X141621906Y-126342213D01*
X141621906Y-126342213D02*
X141645716Y-126318404D01*
X141645716Y-126318404D02*
X141693335Y-126294594D01*
X141693335Y-126294594D02*
X141812382Y-126294594D01*
X141812382Y-126294594D02*
X141883811Y-126318404D01*
X142312382Y-126461261D02*
X142312382Y-126794594D01*
X142098096Y-126461261D02*
X142098096Y-126723165D01*
X142098096Y-126723165D02*
X142121906Y-126770785D01*
X142121906Y-126770785D02*
X142169525Y-126794594D01*
X142169525Y-126794594D02*
X142240953Y-126794594D01*
X142240953Y-126794594D02*
X142288572Y-126770785D01*
X142288572Y-126770785D02*
X142312382Y-126746975D01*
X142764763Y-126461261D02*
X142764763Y-126866023D01*
X142764763Y-126866023D02*
X142740953Y-126913642D01*
X142740953Y-126913642D02*
X142717144Y-126937451D01*
X142717144Y-126937451D02*
X142669525Y-126961261D01*
X142669525Y-126961261D02*
X142598096Y-126961261D01*
X142598096Y-126961261D02*
X142550477Y-126937451D01*
X142764763Y-126770785D02*
X142717144Y-126794594D01*
X142717144Y-126794594D02*
X142621906Y-126794594D01*
X142621906Y-126794594D02*
X142574287Y-126770785D01*
X142574287Y-126770785D02*
X142550477Y-126746975D01*
X142550477Y-126746975D02*
X142526668Y-126699356D01*
X142526668Y-126699356D02*
X142526668Y-126556499D01*
X142526668Y-126556499D02*
X142550477Y-126508880D01*
X142550477Y-126508880D02*
X142574287Y-126485070D01*
X142574287Y-126485070D02*
X142621906Y-126461261D01*
X142621906Y-126461261D02*
X142717144Y-126461261D01*
X142717144Y-126461261D02*
X142764763Y-126485070D01*
X143217144Y-126461261D02*
X143217144Y-126866023D01*
X143217144Y-126866023D02*
X143193334Y-126913642D01*
X143193334Y-126913642D02*
X143169525Y-126937451D01*
X143169525Y-126937451D02*
X143121906Y-126961261D01*
X143121906Y-126961261D02*
X143050477Y-126961261D01*
X143050477Y-126961261D02*
X143002858Y-126937451D01*
X143217144Y-126770785D02*
X143169525Y-126794594D01*
X143169525Y-126794594D02*
X143074287Y-126794594D01*
X143074287Y-126794594D02*
X143026668Y-126770785D01*
X143026668Y-126770785D02*
X143002858Y-126746975D01*
X143002858Y-126746975D02*
X142979049Y-126699356D01*
X142979049Y-126699356D02*
X142979049Y-126556499D01*
X142979049Y-126556499D02*
X143002858Y-126508880D01*
X143002858Y-126508880D02*
X143026668Y-126485070D01*
X143026668Y-126485070D02*
X143074287Y-126461261D01*
X143074287Y-126461261D02*
X143169525Y-126461261D01*
X143169525Y-126461261D02*
X143217144Y-126485070D01*
X143645715Y-126770785D02*
X143598096Y-126794594D01*
X143598096Y-126794594D02*
X143502858Y-126794594D01*
X143502858Y-126794594D02*
X143455239Y-126770785D01*
X143455239Y-126770785D02*
X143431430Y-126723165D01*
X143431430Y-126723165D02*
X143431430Y-126532689D01*
X143431430Y-126532689D02*
X143455239Y-126485070D01*
X143455239Y-126485070D02*
X143502858Y-126461261D01*
X143502858Y-126461261D02*
X143598096Y-126461261D01*
X143598096Y-126461261D02*
X143645715Y-126485070D01*
X143645715Y-126485070D02*
X143669525Y-126532689D01*
X143669525Y-126532689D02*
X143669525Y-126580308D01*
X143669525Y-126580308D02*
X143431430Y-126627927D01*
X143860001Y-126770785D02*
X143907620Y-126794594D01*
X143907620Y-126794594D02*
X144002858Y-126794594D01*
X144002858Y-126794594D02*
X144050477Y-126770785D01*
X144050477Y-126770785D02*
X144074286Y-126723165D01*
X144074286Y-126723165D02*
X144074286Y-126699356D01*
X144074286Y-126699356D02*
X144050477Y-126651737D01*
X144050477Y-126651737D02*
X144002858Y-126627927D01*
X144002858Y-126627927D02*
X143931429Y-126627927D01*
X143931429Y-126627927D02*
X143883810Y-126604118D01*
X143883810Y-126604118D02*
X143860001Y-126556499D01*
X143860001Y-126556499D02*
X143860001Y-126532689D01*
X143860001Y-126532689D02*
X143883810Y-126485070D01*
X143883810Y-126485070D02*
X143931429Y-126461261D01*
X143931429Y-126461261D02*
X144002858Y-126461261D01*
X144002858Y-126461261D02*
X144050477Y-126485070D01*
X144217144Y-126461261D02*
X144407620Y-126461261D01*
X144288572Y-126294594D02*
X144288572Y-126723165D01*
X144288572Y-126723165D02*
X144312382Y-126770785D01*
X144312382Y-126770785D02*
X144360001Y-126794594D01*
X144360001Y-126794594D02*
X144407620Y-126794594D01*
X144764762Y-126770785D02*
X144717143Y-126794594D01*
X144717143Y-126794594D02*
X144621905Y-126794594D01*
X144621905Y-126794594D02*
X144574286Y-126770785D01*
X144574286Y-126770785D02*
X144550477Y-126723165D01*
X144550477Y-126723165D02*
X144550477Y-126532689D01*
X144550477Y-126532689D02*
X144574286Y-126485070D01*
X144574286Y-126485070D02*
X144621905Y-126461261D01*
X144621905Y-126461261D02*
X144717143Y-126461261D01*
X144717143Y-126461261D02*
X144764762Y-126485070D01*
X144764762Y-126485070D02*
X144788572Y-126532689D01*
X144788572Y-126532689D02*
X144788572Y-126580308D01*
X144788572Y-126580308D02*
X144550477Y-126627927D01*
X145217143Y-126794594D02*
X145217143Y-126294594D01*
X145217143Y-126770785D02*
X145169524Y-126794594D01*
X145169524Y-126794594D02*
X145074286Y-126794594D01*
X145074286Y-126794594D02*
X145026667Y-126770785D01*
X145026667Y-126770785D02*
X145002857Y-126746975D01*
X145002857Y-126746975D02*
X144979048Y-126699356D01*
X144979048Y-126699356D02*
X144979048Y-126556499D01*
X144979048Y-126556499D02*
X145002857Y-126508880D01*
X145002857Y-126508880D02*
X145026667Y-126485070D01*
X145026667Y-126485070D02*
X145074286Y-126461261D01*
X145074286Y-126461261D02*
X145169524Y-126461261D01*
X145169524Y-126461261D02*
X145217143Y-126485070D01*
X145836190Y-126794594D02*
X145836190Y-126294594D01*
X145836190Y-126485070D02*
X145883809Y-126461261D01*
X145883809Y-126461261D02*
X145979047Y-126461261D01*
X145979047Y-126461261D02*
X146026666Y-126485070D01*
X146026666Y-126485070D02*
X146050476Y-126508880D01*
X146050476Y-126508880D02*
X146074285Y-126556499D01*
X146074285Y-126556499D02*
X146074285Y-126699356D01*
X146074285Y-126699356D02*
X146050476Y-126746975D01*
X146050476Y-126746975D02*
X146026666Y-126770785D01*
X146026666Y-126770785D02*
X145979047Y-126794594D01*
X145979047Y-126794594D02*
X145883809Y-126794594D01*
X145883809Y-126794594D02*
X145836190Y-126770785D01*
X146360000Y-126794594D02*
X146312381Y-126770785D01*
X146312381Y-126770785D02*
X146288571Y-126746975D01*
X146288571Y-126746975D02*
X146264762Y-126699356D01*
X146264762Y-126699356D02*
X146264762Y-126556499D01*
X146264762Y-126556499D02*
X146288571Y-126508880D01*
X146288571Y-126508880D02*
X146312381Y-126485070D01*
X146312381Y-126485070D02*
X146360000Y-126461261D01*
X146360000Y-126461261D02*
X146431428Y-126461261D01*
X146431428Y-126461261D02*
X146479047Y-126485070D01*
X146479047Y-126485070D02*
X146502857Y-126508880D01*
X146502857Y-126508880D02*
X146526666Y-126556499D01*
X146526666Y-126556499D02*
X146526666Y-126699356D01*
X146526666Y-126699356D02*
X146502857Y-126746975D01*
X146502857Y-126746975D02*
X146479047Y-126770785D01*
X146479047Y-126770785D02*
X146431428Y-126794594D01*
X146431428Y-126794594D02*
X146360000Y-126794594D01*
X146955238Y-126794594D02*
X146955238Y-126532689D01*
X146955238Y-126532689D02*
X146931428Y-126485070D01*
X146931428Y-126485070D02*
X146883809Y-126461261D01*
X146883809Y-126461261D02*
X146788571Y-126461261D01*
X146788571Y-126461261D02*
X146740952Y-126485070D01*
X146955238Y-126770785D02*
X146907619Y-126794594D01*
X146907619Y-126794594D02*
X146788571Y-126794594D01*
X146788571Y-126794594D02*
X146740952Y-126770785D01*
X146740952Y-126770785D02*
X146717143Y-126723165D01*
X146717143Y-126723165D02*
X146717143Y-126675546D01*
X146717143Y-126675546D02*
X146740952Y-126627927D01*
X146740952Y-126627927D02*
X146788571Y-126604118D01*
X146788571Y-126604118D02*
X146907619Y-126604118D01*
X146907619Y-126604118D02*
X146955238Y-126580308D01*
X147193333Y-126794594D02*
X147193333Y-126461261D01*
X147193333Y-126556499D02*
X147217143Y-126508880D01*
X147217143Y-126508880D02*
X147240952Y-126485070D01*
X147240952Y-126485070D02*
X147288571Y-126461261D01*
X147288571Y-126461261D02*
X147336190Y-126461261D01*
X147717143Y-126794594D02*
X147717143Y-126294594D01*
X147717143Y-126770785D02*
X147669524Y-126794594D01*
X147669524Y-126794594D02*
X147574286Y-126794594D01*
X147574286Y-126794594D02*
X147526667Y-126770785D01*
X147526667Y-126770785D02*
X147502857Y-126746975D01*
X147502857Y-126746975D02*
X147479048Y-126699356D01*
X147479048Y-126699356D02*
X147479048Y-126556499D01*
X147479048Y-126556499D02*
X147502857Y-126508880D01*
X147502857Y-126508880D02*
X147526667Y-126485070D01*
X147526667Y-126485070D02*
X147574286Y-126461261D01*
X147574286Y-126461261D02*
X147669524Y-126461261D01*
X147669524Y-126461261D02*
X147717143Y-126485070D01*
X148526666Y-126770785D02*
X148479047Y-126794594D01*
X148479047Y-126794594D02*
X148383809Y-126794594D01*
X148383809Y-126794594D02*
X148336190Y-126770785D01*
X148336190Y-126770785D02*
X148312381Y-126723165D01*
X148312381Y-126723165D02*
X148312381Y-126532689D01*
X148312381Y-126532689D02*
X148336190Y-126485070D01*
X148336190Y-126485070D02*
X148383809Y-126461261D01*
X148383809Y-126461261D02*
X148479047Y-126461261D01*
X148479047Y-126461261D02*
X148526666Y-126485070D01*
X148526666Y-126485070D02*
X148550476Y-126532689D01*
X148550476Y-126532689D02*
X148550476Y-126580308D01*
X148550476Y-126580308D02*
X148312381Y-126627927D01*
X148979047Y-126794594D02*
X148979047Y-126294594D01*
X148979047Y-126770785D02*
X148931428Y-126794594D01*
X148931428Y-126794594D02*
X148836190Y-126794594D01*
X148836190Y-126794594D02*
X148788571Y-126770785D01*
X148788571Y-126770785D02*
X148764761Y-126746975D01*
X148764761Y-126746975D02*
X148740952Y-126699356D01*
X148740952Y-126699356D02*
X148740952Y-126556499D01*
X148740952Y-126556499D02*
X148764761Y-126508880D01*
X148764761Y-126508880D02*
X148788571Y-126485070D01*
X148788571Y-126485070D02*
X148836190Y-126461261D01*
X148836190Y-126461261D02*
X148931428Y-126461261D01*
X148931428Y-126461261D02*
X148979047Y-126485070D01*
X149431428Y-126461261D02*
X149431428Y-126866023D01*
X149431428Y-126866023D02*
X149407618Y-126913642D01*
X149407618Y-126913642D02*
X149383809Y-126937451D01*
X149383809Y-126937451D02*
X149336190Y-126961261D01*
X149336190Y-126961261D02*
X149264761Y-126961261D01*
X149264761Y-126961261D02*
X149217142Y-126937451D01*
X149431428Y-126770785D02*
X149383809Y-126794594D01*
X149383809Y-126794594D02*
X149288571Y-126794594D01*
X149288571Y-126794594D02*
X149240952Y-126770785D01*
X149240952Y-126770785D02*
X149217142Y-126746975D01*
X149217142Y-126746975D02*
X149193333Y-126699356D01*
X149193333Y-126699356D02*
X149193333Y-126556499D01*
X149193333Y-126556499D02*
X149217142Y-126508880D01*
X149217142Y-126508880D02*
X149240952Y-126485070D01*
X149240952Y-126485070D02*
X149288571Y-126461261D01*
X149288571Y-126461261D02*
X149383809Y-126461261D01*
X149383809Y-126461261D02*
X149431428Y-126485070D01*
X149859999Y-126770785D02*
X149812380Y-126794594D01*
X149812380Y-126794594D02*
X149717142Y-126794594D01*
X149717142Y-126794594D02*
X149669523Y-126770785D01*
X149669523Y-126770785D02*
X149645714Y-126723165D01*
X149645714Y-126723165D02*
X149645714Y-126532689D01*
X149645714Y-126532689D02*
X149669523Y-126485070D01*
X149669523Y-126485070D02*
X149717142Y-126461261D01*
X149717142Y-126461261D02*
X149812380Y-126461261D01*
X149812380Y-126461261D02*
X149859999Y-126485070D01*
X149859999Y-126485070D02*
X149883809Y-126532689D01*
X149883809Y-126532689D02*
X149883809Y-126580308D01*
X149883809Y-126580308D02*
X149645714Y-126627927D01*
X150407618Y-126461261D02*
X150598094Y-126461261D01*
X150479046Y-126794594D02*
X150479046Y-126366023D01*
X150479046Y-126366023D02*
X150502856Y-126318404D01*
X150502856Y-126318404D02*
X150550475Y-126294594D01*
X150550475Y-126294594D02*
X150598094Y-126294594D01*
X150836189Y-126794594D02*
X150788570Y-126770785D01*
X150788570Y-126770785D02*
X150764760Y-126746975D01*
X150764760Y-126746975D02*
X150740951Y-126699356D01*
X150740951Y-126699356D02*
X150740951Y-126556499D01*
X150740951Y-126556499D02*
X150764760Y-126508880D01*
X150764760Y-126508880D02*
X150788570Y-126485070D01*
X150788570Y-126485070D02*
X150836189Y-126461261D01*
X150836189Y-126461261D02*
X150907617Y-126461261D01*
X150907617Y-126461261D02*
X150955236Y-126485070D01*
X150955236Y-126485070D02*
X150979046Y-126508880D01*
X150979046Y-126508880D02*
X151002855Y-126556499D01*
X151002855Y-126556499D02*
X151002855Y-126699356D01*
X151002855Y-126699356D02*
X150979046Y-126746975D01*
X150979046Y-126746975D02*
X150955236Y-126770785D01*
X150955236Y-126770785D02*
X150907617Y-126794594D01*
X150907617Y-126794594D02*
X150836189Y-126794594D01*
X151217141Y-126794594D02*
X151217141Y-126461261D01*
X151217141Y-126556499D02*
X151240951Y-126508880D01*
X151240951Y-126508880D02*
X151264760Y-126485070D01*
X151264760Y-126485070D02*
X151312379Y-126461261D01*
X151312379Y-126461261D02*
X151359998Y-126461261D01*
X152193331Y-126794594D02*
X152026665Y-126556499D01*
X151907617Y-126794594D02*
X151907617Y-126294594D01*
X151907617Y-126294594D02*
X152098093Y-126294594D01*
X152098093Y-126294594D02*
X152145712Y-126318404D01*
X152145712Y-126318404D02*
X152169522Y-126342213D01*
X152169522Y-126342213D02*
X152193331Y-126389832D01*
X152193331Y-126389832D02*
X152193331Y-126461261D01*
X152193331Y-126461261D02*
X152169522Y-126508880D01*
X152169522Y-126508880D02*
X152145712Y-126532689D01*
X152145712Y-126532689D02*
X152098093Y-126556499D01*
X152098093Y-126556499D02*
X151907617Y-126556499D01*
X152574284Y-126532689D02*
X152407617Y-126532689D01*
X152407617Y-126794594D02*
X152407617Y-126294594D01*
X152407617Y-126294594D02*
X152645712Y-126294594D01*
X153145712Y-126342213D02*
X153240950Y-126270785D01*
X153240950Y-126270785D02*
X153336188Y-126342213D01*
D12*
X129845714Y-129562004D02*
X129845714Y-128562004D01*
X130417142Y-129562004D02*
X129988571Y-128990575D01*
X130417142Y-128562004D02*
X129845714Y-129133432D01*
X131226666Y-129514385D02*
X131131428Y-129562004D01*
X131131428Y-129562004D02*
X130940952Y-129562004D01*
X130940952Y-129562004D02*
X130845714Y-129514385D01*
X130845714Y-129514385D02*
X130798095Y-129419146D01*
X130798095Y-129419146D02*
X130798095Y-129038194D01*
X130798095Y-129038194D02*
X130845714Y-128942956D01*
X130845714Y-128942956D02*
X130940952Y-128895337D01*
X130940952Y-128895337D02*
X131131428Y-128895337D01*
X131131428Y-128895337D02*
X131226666Y-128942956D01*
X131226666Y-128942956D02*
X131274285Y-129038194D01*
X131274285Y-129038194D02*
X131274285Y-129133432D01*
X131274285Y-129133432D02*
X130798095Y-129228670D01*
X132083809Y-129514385D02*
X131988571Y-129562004D01*
X131988571Y-129562004D02*
X131798095Y-129562004D01*
X131798095Y-129562004D02*
X131702857Y-129514385D01*
X131702857Y-129514385D02*
X131655238Y-129419146D01*
X131655238Y-129419146D02*
X131655238Y-129038194D01*
X131655238Y-129038194D02*
X131702857Y-128942956D01*
X131702857Y-128942956D02*
X131798095Y-128895337D01*
X131798095Y-128895337D02*
X131988571Y-128895337D01*
X131988571Y-128895337D02*
X132083809Y-128942956D01*
X132083809Y-128942956D02*
X132131428Y-129038194D01*
X132131428Y-129038194D02*
X132131428Y-129133432D01*
X132131428Y-129133432D02*
X131655238Y-129228670D01*
X132560000Y-128895337D02*
X132560000Y-129895337D01*
X132560000Y-128942956D02*
X132655238Y-128895337D01*
X132655238Y-128895337D02*
X132845714Y-128895337D01*
X132845714Y-128895337D02*
X132940952Y-128942956D01*
X132940952Y-128942956D02*
X132988571Y-128990575D01*
X132988571Y-128990575D02*
X133036190Y-129085813D01*
X133036190Y-129085813D02*
X133036190Y-129371527D01*
X133036190Y-129371527D02*
X132988571Y-129466765D01*
X132988571Y-129466765D02*
X132940952Y-129514385D01*
X132940952Y-129514385D02*
X132845714Y-129562004D01*
X132845714Y-129562004D02*
X132655238Y-129562004D01*
X132655238Y-129562004D02*
X132560000Y-129514385D01*
X134417143Y-128562004D02*
X134607619Y-128562004D01*
X134607619Y-128562004D02*
X134702857Y-128609623D01*
X134702857Y-128609623D02*
X134798095Y-128704861D01*
X134798095Y-128704861D02*
X134845714Y-128895337D01*
X134845714Y-128895337D02*
X134845714Y-129228670D01*
X134845714Y-129228670D02*
X134798095Y-129419146D01*
X134798095Y-129419146D02*
X134702857Y-129514385D01*
X134702857Y-129514385D02*
X134607619Y-129562004D01*
X134607619Y-129562004D02*
X134417143Y-129562004D01*
X134417143Y-129562004D02*
X134321905Y-129514385D01*
X134321905Y-129514385D02*
X134226667Y-129419146D01*
X134226667Y-129419146D02*
X134179048Y-129228670D01*
X134179048Y-129228670D02*
X134179048Y-128895337D01*
X134179048Y-128895337D02*
X134226667Y-128704861D01*
X134226667Y-128704861D02*
X134321905Y-128609623D01*
X134321905Y-128609623D02*
X134417143Y-128562004D01*
X135702857Y-128895337D02*
X135702857Y-129562004D01*
X135274286Y-128895337D02*
X135274286Y-129419146D01*
X135274286Y-129419146D02*
X135321905Y-129514385D01*
X135321905Y-129514385D02*
X135417143Y-129562004D01*
X135417143Y-129562004D02*
X135560000Y-129562004D01*
X135560000Y-129562004D02*
X135655238Y-129514385D01*
X135655238Y-129514385D02*
X135702857Y-129466765D01*
X136036191Y-128895337D02*
X136417143Y-128895337D01*
X136179048Y-128562004D02*
X136179048Y-129419146D01*
X136179048Y-129419146D02*
X136226667Y-129514385D01*
X136226667Y-129514385D02*
X136321905Y-129562004D01*
X136321905Y-129562004D02*
X136417143Y-129562004D01*
X128940952Y-130879742D02*
X128988571Y-130832123D01*
X128988571Y-130832123D02*
X129083809Y-130784504D01*
X129083809Y-130784504D02*
X129321904Y-130784504D01*
X129321904Y-130784504D02*
X129417142Y-130832123D01*
X129417142Y-130832123D02*
X129464761Y-130879742D01*
X129464761Y-130879742D02*
X129512380Y-130974980D01*
X129512380Y-130974980D02*
X129512380Y-131070218D01*
X129512380Y-131070218D02*
X129464761Y-131213075D01*
X129464761Y-131213075D02*
X128893333Y-131784504D01*
X128893333Y-131784504D02*
X129512380Y-131784504D01*
X129940952Y-131689265D02*
X129988571Y-131736885D01*
X129988571Y-131736885D02*
X129940952Y-131784504D01*
X129940952Y-131784504D02*
X129893333Y-131736885D01*
X129893333Y-131736885D02*
X129940952Y-131689265D01*
X129940952Y-131689265D02*
X129940952Y-131784504D01*
X130845713Y-131117837D02*
X130845713Y-131784504D01*
X130607618Y-130736885D02*
X130369523Y-131451170D01*
X130369523Y-131451170D02*
X130988570Y-131451170D01*
X132655237Y-130832123D02*
X132559999Y-130784504D01*
X132559999Y-130784504D02*
X132417142Y-130784504D01*
X132417142Y-130784504D02*
X132274285Y-130832123D01*
X132274285Y-130832123D02*
X132179047Y-130927361D01*
X132179047Y-130927361D02*
X132131428Y-131022599D01*
X132131428Y-131022599D02*
X132083809Y-131213075D01*
X132083809Y-131213075D02*
X132083809Y-131355932D01*
X132083809Y-131355932D02*
X132131428Y-131546408D01*
X132131428Y-131546408D02*
X132179047Y-131641646D01*
X132179047Y-131641646D02*
X132274285Y-131736885D01*
X132274285Y-131736885D02*
X132417142Y-131784504D01*
X132417142Y-131784504D02*
X132512380Y-131784504D01*
X132512380Y-131784504D02*
X132655237Y-131736885D01*
X132655237Y-131736885D02*
X132702856Y-131689265D01*
X132702856Y-131689265D02*
X132702856Y-131355932D01*
X132702856Y-131355932D02*
X132512380Y-131355932D01*
X133131428Y-131784504D02*
X133131428Y-130784504D01*
X133131428Y-131260694D02*
X133702856Y-131260694D01*
X133702856Y-131784504D02*
X133702856Y-130784504D01*
X134083809Y-131117837D02*
X134607618Y-131117837D01*
X134607618Y-131117837D02*
X134083809Y-131784504D01*
X134083809Y-131784504D02*
X134607618Y-131784504D01*
X136321904Y-131784504D02*
X135988571Y-131308313D01*
X135750476Y-131784504D02*
X135750476Y-130784504D01*
X135750476Y-130784504D02*
X136131428Y-130784504D01*
X136131428Y-130784504D02*
X136226666Y-130832123D01*
X136226666Y-130832123D02*
X136274285Y-130879742D01*
X136274285Y-130879742D02*
X136321904Y-130974980D01*
X136321904Y-130974980D02*
X136321904Y-131117837D01*
X136321904Y-131117837D02*
X136274285Y-131213075D01*
X136274285Y-131213075D02*
X136226666Y-131260694D01*
X136226666Y-131260694D02*
X136131428Y-131308313D01*
X136131428Y-131308313D02*
X135750476Y-131308313D01*
X137083809Y-131260694D02*
X136750476Y-131260694D01*
X136750476Y-131784504D02*
X136750476Y-130784504D01*
X136750476Y-130784504D02*
X137226666Y-130784504D01*
X129321904Y-60299504D02*
X129321904Y-61109027D01*
X129321904Y-61109027D02*
X129369523Y-61204265D01*
X129369523Y-61204265D02*
X129417142Y-61251885D01*
X129417142Y-61251885D02*
X129512380Y-61299504D01*
X129512380Y-61299504D02*
X129702856Y-61299504D01*
X129702856Y-61299504D02*
X129798094Y-61251885D01*
X129798094Y-61251885D02*
X129845713Y-61204265D01*
X129845713Y-61204265D02*
X129893332Y-61109027D01*
X129893332Y-61109027D02*
X129893332Y-60299504D01*
X130321904Y-61251885D02*
X130464761Y-61299504D01*
X130464761Y-61299504D02*
X130702856Y-61299504D01*
X130702856Y-61299504D02*
X130798094Y-61251885D01*
X130798094Y-61251885D02*
X130845713Y-61204265D01*
X130845713Y-61204265D02*
X130893332Y-61109027D01*
X130893332Y-61109027D02*
X130893332Y-61013789D01*
X130893332Y-61013789D02*
X130845713Y-60918551D01*
X130845713Y-60918551D02*
X130798094Y-60870932D01*
X130798094Y-60870932D02*
X130702856Y-60823313D01*
X130702856Y-60823313D02*
X130512380Y-60775694D01*
X130512380Y-60775694D02*
X130417142Y-60728075D01*
X130417142Y-60728075D02*
X130369523Y-60680456D01*
X130369523Y-60680456D02*
X130321904Y-60585218D01*
X130321904Y-60585218D02*
X130321904Y-60489980D01*
X130321904Y-60489980D02*
X130369523Y-60394742D01*
X130369523Y-60394742D02*
X130417142Y-60347123D01*
X130417142Y-60347123D02*
X130512380Y-60299504D01*
X130512380Y-60299504D02*
X130750475Y-60299504D01*
X130750475Y-60299504D02*
X130893332Y-60347123D01*
X131655237Y-60775694D02*
X131798094Y-60823313D01*
X131798094Y-60823313D02*
X131845713Y-60870932D01*
X131845713Y-60870932D02*
X131893332Y-60966170D01*
X131893332Y-60966170D02*
X131893332Y-61109027D01*
X131893332Y-61109027D02*
X131845713Y-61204265D01*
X131845713Y-61204265D02*
X131798094Y-61251885D01*
X131798094Y-61251885D02*
X131702856Y-61299504D01*
X131702856Y-61299504D02*
X131321904Y-61299504D01*
X131321904Y-61299504D02*
X131321904Y-60299504D01*
X131321904Y-60299504D02*
X131655237Y-60299504D01*
X131655237Y-60299504D02*
X131750475Y-60347123D01*
X131750475Y-60347123D02*
X131798094Y-60394742D01*
X131798094Y-60394742D02*
X131845713Y-60489980D01*
X131845713Y-60489980D02*
X131845713Y-60585218D01*
X131845713Y-60585218D02*
X131798094Y-60680456D01*
X131798094Y-60680456D02*
X131750475Y-60728075D01*
X131750475Y-60728075D02*
X131655237Y-60775694D01*
X131655237Y-60775694D02*
X131321904Y-60775694D01*
X133655237Y-61204265D02*
X133607618Y-61251885D01*
X133607618Y-61251885D02*
X133464761Y-61299504D01*
X133464761Y-61299504D02*
X133369523Y-61299504D01*
X133369523Y-61299504D02*
X133226666Y-61251885D01*
X133226666Y-61251885D02*
X133131428Y-61156646D01*
X133131428Y-61156646D02*
X133083809Y-61061408D01*
X133083809Y-61061408D02*
X133036190Y-60870932D01*
X133036190Y-60870932D02*
X133036190Y-60728075D01*
X133036190Y-60728075D02*
X133083809Y-60537599D01*
X133083809Y-60537599D02*
X133131428Y-60442361D01*
X133131428Y-60442361D02*
X133226666Y-60347123D01*
X133226666Y-60347123D02*
X133369523Y-60299504D01*
X133369523Y-60299504D02*
X133464761Y-60299504D01*
X133464761Y-60299504D02*
X133607618Y-60347123D01*
X133607618Y-60347123D02*
X133655237Y-60394742D01*
X134512380Y-61299504D02*
X134512380Y-60775694D01*
X134512380Y-60775694D02*
X134464761Y-60680456D01*
X134464761Y-60680456D02*
X134369523Y-60632837D01*
X134369523Y-60632837D02*
X134179047Y-60632837D01*
X134179047Y-60632837D02*
X134083809Y-60680456D01*
X134512380Y-61251885D02*
X134417142Y-61299504D01*
X134417142Y-61299504D02*
X134179047Y-61299504D01*
X134179047Y-61299504D02*
X134083809Y-61251885D01*
X134083809Y-61251885D02*
X134036190Y-61156646D01*
X134036190Y-61156646D02*
X134036190Y-61061408D01*
X134036190Y-61061408D02*
X134083809Y-60966170D01*
X134083809Y-60966170D02*
X134179047Y-60918551D01*
X134179047Y-60918551D02*
X134417142Y-60918551D01*
X134417142Y-60918551D02*
X134512380Y-60870932D01*
X134988571Y-61299504D02*
X134988571Y-60299504D01*
X134988571Y-60680456D02*
X135083809Y-60632837D01*
X135083809Y-60632837D02*
X135274285Y-60632837D01*
X135274285Y-60632837D02*
X135369523Y-60680456D01*
X135369523Y-60680456D02*
X135417142Y-60728075D01*
X135417142Y-60728075D02*
X135464761Y-60823313D01*
X135464761Y-60823313D02*
X135464761Y-61109027D01*
X135464761Y-61109027D02*
X135417142Y-61204265D01*
X135417142Y-61204265D02*
X135369523Y-61251885D01*
X135369523Y-61251885D02*
X135274285Y-61299504D01*
X135274285Y-61299504D02*
X135083809Y-61299504D01*
X135083809Y-61299504D02*
X134988571Y-61251885D01*
X136036190Y-61299504D02*
X135940952Y-61251885D01*
X135940952Y-61251885D02*
X135893333Y-61156646D01*
X135893333Y-61156646D02*
X135893333Y-60299504D01*
X136798095Y-61251885D02*
X136702857Y-61299504D01*
X136702857Y-61299504D02*
X136512381Y-61299504D01*
X136512381Y-61299504D02*
X136417143Y-61251885D01*
X136417143Y-61251885D02*
X136369524Y-61156646D01*
X136369524Y-61156646D02*
X136369524Y-60775694D01*
X136369524Y-60775694D02*
X136417143Y-60680456D01*
X136417143Y-60680456D02*
X136512381Y-60632837D01*
X136512381Y-60632837D02*
X136702857Y-60632837D01*
X136702857Y-60632837D02*
X136798095Y-60680456D01*
X136798095Y-60680456D02*
X136845714Y-60775694D01*
X136845714Y-60775694D02*
X136845714Y-60870932D01*
X136845714Y-60870932D02*
X136369524Y-60966170D01*
X130298095Y-123243789D02*
X130774285Y-123243789D01*
X130202857Y-123529504D02*
X130536190Y-122529504D01*
X130536190Y-122529504D02*
X130869523Y-123529504D01*
X131202857Y-122862837D02*
X131202857Y-123529504D01*
X131202857Y-122958075D02*
X131250476Y-122910456D01*
X131250476Y-122910456D02*
X131345714Y-122862837D01*
X131345714Y-122862837D02*
X131488571Y-122862837D01*
X131488571Y-122862837D02*
X131583809Y-122910456D01*
X131583809Y-122910456D02*
X131631428Y-123005694D01*
X131631428Y-123005694D02*
X131631428Y-123529504D01*
X131964762Y-122862837D02*
X132345714Y-122862837D01*
X132107619Y-122529504D02*
X132107619Y-123386646D01*
X132107619Y-123386646D02*
X132155238Y-123481885D01*
X132155238Y-123481885D02*
X132250476Y-123529504D01*
X132250476Y-123529504D02*
X132345714Y-123529504D01*
X133060000Y-123481885D02*
X132964762Y-123529504D01*
X132964762Y-123529504D02*
X132774286Y-123529504D01*
X132774286Y-123529504D02*
X132679048Y-123481885D01*
X132679048Y-123481885D02*
X132631429Y-123386646D01*
X132631429Y-123386646D02*
X132631429Y-123005694D01*
X132631429Y-123005694D02*
X132679048Y-122910456D01*
X132679048Y-122910456D02*
X132774286Y-122862837D01*
X132774286Y-122862837D02*
X132964762Y-122862837D01*
X132964762Y-122862837D02*
X133060000Y-122910456D01*
X133060000Y-122910456D02*
X133107619Y-123005694D01*
X133107619Y-123005694D02*
X133107619Y-123100932D01*
X133107619Y-123100932D02*
X132631429Y-123196170D01*
X133536191Y-122862837D02*
X133536191Y-123529504D01*
X133536191Y-122958075D02*
X133583810Y-122910456D01*
X133583810Y-122910456D02*
X133679048Y-122862837D01*
X133679048Y-122862837D02*
X133821905Y-122862837D01*
X133821905Y-122862837D02*
X133917143Y-122910456D01*
X133917143Y-122910456D02*
X133964762Y-123005694D01*
X133964762Y-123005694D02*
X133964762Y-123529504D01*
X134440953Y-122862837D02*
X134440953Y-123529504D01*
X134440953Y-122958075D02*
X134488572Y-122910456D01*
X134488572Y-122910456D02*
X134583810Y-122862837D01*
X134583810Y-122862837D02*
X134726667Y-122862837D01*
X134726667Y-122862837D02*
X134821905Y-122910456D01*
X134821905Y-122910456D02*
X134869524Y-123005694D01*
X134869524Y-123005694D02*
X134869524Y-123529504D01*
X135774286Y-123529504D02*
X135774286Y-123005694D01*
X135774286Y-123005694D02*
X135726667Y-122910456D01*
X135726667Y-122910456D02*
X135631429Y-122862837D01*
X135631429Y-122862837D02*
X135440953Y-122862837D01*
X135440953Y-122862837D02*
X135345715Y-122910456D01*
X135774286Y-123481885D02*
X135679048Y-123529504D01*
X135679048Y-123529504D02*
X135440953Y-123529504D01*
X135440953Y-123529504D02*
X135345715Y-123481885D01*
X135345715Y-123481885D02*
X135298096Y-123386646D01*
X135298096Y-123386646D02*
X135298096Y-123291408D01*
X135298096Y-123291408D02*
X135345715Y-123196170D01*
X135345715Y-123196170D02*
X135440953Y-123148551D01*
X135440953Y-123148551D02*
X135679048Y-123148551D01*
X135679048Y-123148551D02*
X135774286Y-123100932D01*
X129845714Y-121307004D02*
X129845714Y-120307004D01*
X130417142Y-121307004D02*
X129988571Y-120735575D01*
X130417142Y-120307004D02*
X129845714Y-120878432D01*
X131226666Y-121259385D02*
X131131428Y-121307004D01*
X131131428Y-121307004D02*
X130940952Y-121307004D01*
X130940952Y-121307004D02*
X130845714Y-121259385D01*
X130845714Y-121259385D02*
X130798095Y-121164146D01*
X130798095Y-121164146D02*
X130798095Y-120783194D01*
X130798095Y-120783194D02*
X130845714Y-120687956D01*
X130845714Y-120687956D02*
X130940952Y-120640337D01*
X130940952Y-120640337D02*
X131131428Y-120640337D01*
X131131428Y-120640337D02*
X131226666Y-120687956D01*
X131226666Y-120687956D02*
X131274285Y-120783194D01*
X131274285Y-120783194D02*
X131274285Y-120878432D01*
X131274285Y-120878432D02*
X130798095Y-120973670D01*
X132083809Y-121259385D02*
X131988571Y-121307004D01*
X131988571Y-121307004D02*
X131798095Y-121307004D01*
X131798095Y-121307004D02*
X131702857Y-121259385D01*
X131702857Y-121259385D02*
X131655238Y-121164146D01*
X131655238Y-121164146D02*
X131655238Y-120783194D01*
X131655238Y-120783194D02*
X131702857Y-120687956D01*
X131702857Y-120687956D02*
X131798095Y-120640337D01*
X131798095Y-120640337D02*
X131988571Y-120640337D01*
X131988571Y-120640337D02*
X132083809Y-120687956D01*
X132083809Y-120687956D02*
X132131428Y-120783194D01*
X132131428Y-120783194D02*
X132131428Y-120878432D01*
X132131428Y-120878432D02*
X131655238Y-120973670D01*
X132560000Y-120640337D02*
X132560000Y-121640337D01*
X132560000Y-120687956D02*
X132655238Y-120640337D01*
X132655238Y-120640337D02*
X132845714Y-120640337D01*
X132845714Y-120640337D02*
X132940952Y-120687956D01*
X132940952Y-120687956D02*
X132988571Y-120735575D01*
X132988571Y-120735575D02*
X133036190Y-120830813D01*
X133036190Y-120830813D02*
X133036190Y-121116527D01*
X133036190Y-121116527D02*
X132988571Y-121211765D01*
X132988571Y-121211765D02*
X132940952Y-121259385D01*
X132940952Y-121259385D02*
X132845714Y-121307004D01*
X132845714Y-121307004D02*
X132655238Y-121307004D01*
X132655238Y-121307004D02*
X132560000Y-121259385D01*
X134417143Y-120307004D02*
X134607619Y-120307004D01*
X134607619Y-120307004D02*
X134702857Y-120354623D01*
X134702857Y-120354623D02*
X134798095Y-120449861D01*
X134798095Y-120449861D02*
X134845714Y-120640337D01*
X134845714Y-120640337D02*
X134845714Y-120973670D01*
X134845714Y-120973670D02*
X134798095Y-121164146D01*
X134798095Y-121164146D02*
X134702857Y-121259385D01*
X134702857Y-121259385D02*
X134607619Y-121307004D01*
X134607619Y-121307004D02*
X134417143Y-121307004D01*
X134417143Y-121307004D02*
X134321905Y-121259385D01*
X134321905Y-121259385D02*
X134226667Y-121164146D01*
X134226667Y-121164146D02*
X134179048Y-120973670D01*
X134179048Y-120973670D02*
X134179048Y-120640337D01*
X134179048Y-120640337D02*
X134226667Y-120449861D01*
X134226667Y-120449861D02*
X134321905Y-120354623D01*
X134321905Y-120354623D02*
X134417143Y-120307004D01*
X135702857Y-120640337D02*
X135702857Y-121307004D01*
X135274286Y-120640337D02*
X135274286Y-121164146D01*
X135274286Y-121164146D02*
X135321905Y-121259385D01*
X135321905Y-121259385D02*
X135417143Y-121307004D01*
X135417143Y-121307004D02*
X135560000Y-121307004D01*
X135560000Y-121307004D02*
X135655238Y-121259385D01*
X135655238Y-121259385D02*
X135702857Y-121211765D01*
X136036191Y-120640337D02*
X136417143Y-120640337D01*
X136179048Y-120307004D02*
X136179048Y-121164146D01*
X136179048Y-121164146D02*
X136226667Y-121259385D01*
X136226667Y-121259385D02*
X136321905Y-121307004D01*
X136321905Y-121307004D02*
X136417143Y-121307004D01*
D11*
X126833812Y-117307213D02*
X126929050Y-117235785D01*
X126929050Y-117235785D02*
X127024288Y-117307213D01*
X127548097Y-117735785D02*
X127619525Y-117759594D01*
X127619525Y-117759594D02*
X127738573Y-117759594D01*
X127738573Y-117759594D02*
X127786192Y-117735785D01*
X127786192Y-117735785D02*
X127810001Y-117711975D01*
X127810001Y-117711975D02*
X127833811Y-117664356D01*
X127833811Y-117664356D02*
X127833811Y-117616737D01*
X127833811Y-117616737D02*
X127810001Y-117569118D01*
X127810001Y-117569118D02*
X127786192Y-117545308D01*
X127786192Y-117545308D02*
X127738573Y-117521499D01*
X127738573Y-117521499D02*
X127643335Y-117497689D01*
X127643335Y-117497689D02*
X127595716Y-117473880D01*
X127595716Y-117473880D02*
X127571906Y-117450070D01*
X127571906Y-117450070D02*
X127548097Y-117402451D01*
X127548097Y-117402451D02*
X127548097Y-117354832D01*
X127548097Y-117354832D02*
X127571906Y-117307213D01*
X127571906Y-117307213D02*
X127595716Y-117283404D01*
X127595716Y-117283404D02*
X127643335Y-117259594D01*
X127643335Y-117259594D02*
X127762382Y-117259594D01*
X127762382Y-117259594D02*
X127833811Y-117283404D01*
X128262382Y-117426261D02*
X128262382Y-117759594D01*
X128048096Y-117426261D02*
X128048096Y-117688165D01*
X128048096Y-117688165D02*
X128071906Y-117735785D01*
X128071906Y-117735785D02*
X128119525Y-117759594D01*
X128119525Y-117759594D02*
X128190953Y-117759594D01*
X128190953Y-117759594D02*
X128238572Y-117735785D01*
X128238572Y-117735785D02*
X128262382Y-117711975D01*
X128714763Y-117426261D02*
X128714763Y-117831023D01*
X128714763Y-117831023D02*
X128690953Y-117878642D01*
X128690953Y-117878642D02*
X128667144Y-117902451D01*
X128667144Y-117902451D02*
X128619525Y-117926261D01*
X128619525Y-117926261D02*
X128548096Y-117926261D01*
X128548096Y-117926261D02*
X128500477Y-117902451D01*
X128714763Y-117735785D02*
X128667144Y-117759594D01*
X128667144Y-117759594D02*
X128571906Y-117759594D01*
X128571906Y-117759594D02*
X128524287Y-117735785D01*
X128524287Y-117735785D02*
X128500477Y-117711975D01*
X128500477Y-117711975D02*
X128476668Y-117664356D01*
X128476668Y-117664356D02*
X128476668Y-117521499D01*
X128476668Y-117521499D02*
X128500477Y-117473880D01*
X128500477Y-117473880D02*
X128524287Y-117450070D01*
X128524287Y-117450070D02*
X128571906Y-117426261D01*
X128571906Y-117426261D02*
X128667144Y-117426261D01*
X128667144Y-117426261D02*
X128714763Y-117450070D01*
X129167144Y-117426261D02*
X129167144Y-117831023D01*
X129167144Y-117831023D02*
X129143334Y-117878642D01*
X129143334Y-117878642D02*
X129119525Y-117902451D01*
X129119525Y-117902451D02*
X129071906Y-117926261D01*
X129071906Y-117926261D02*
X129000477Y-117926261D01*
X129000477Y-117926261D02*
X128952858Y-117902451D01*
X129167144Y-117735785D02*
X129119525Y-117759594D01*
X129119525Y-117759594D02*
X129024287Y-117759594D01*
X129024287Y-117759594D02*
X128976668Y-117735785D01*
X128976668Y-117735785D02*
X128952858Y-117711975D01*
X128952858Y-117711975D02*
X128929049Y-117664356D01*
X128929049Y-117664356D02*
X128929049Y-117521499D01*
X128929049Y-117521499D02*
X128952858Y-117473880D01*
X128952858Y-117473880D02*
X128976668Y-117450070D01*
X128976668Y-117450070D02*
X129024287Y-117426261D01*
X129024287Y-117426261D02*
X129119525Y-117426261D01*
X129119525Y-117426261D02*
X129167144Y-117450070D01*
X129595715Y-117735785D02*
X129548096Y-117759594D01*
X129548096Y-117759594D02*
X129452858Y-117759594D01*
X129452858Y-117759594D02*
X129405239Y-117735785D01*
X129405239Y-117735785D02*
X129381430Y-117688165D01*
X129381430Y-117688165D02*
X129381430Y-117497689D01*
X129381430Y-117497689D02*
X129405239Y-117450070D01*
X129405239Y-117450070D02*
X129452858Y-117426261D01*
X129452858Y-117426261D02*
X129548096Y-117426261D01*
X129548096Y-117426261D02*
X129595715Y-117450070D01*
X129595715Y-117450070D02*
X129619525Y-117497689D01*
X129619525Y-117497689D02*
X129619525Y-117545308D01*
X129619525Y-117545308D02*
X129381430Y-117592927D01*
X129810001Y-117735785D02*
X129857620Y-117759594D01*
X129857620Y-117759594D02*
X129952858Y-117759594D01*
X129952858Y-117759594D02*
X130000477Y-117735785D01*
X130000477Y-117735785D02*
X130024286Y-117688165D01*
X130024286Y-117688165D02*
X130024286Y-117664356D01*
X130024286Y-117664356D02*
X130000477Y-117616737D01*
X130000477Y-117616737D02*
X129952858Y-117592927D01*
X129952858Y-117592927D02*
X129881429Y-117592927D01*
X129881429Y-117592927D02*
X129833810Y-117569118D01*
X129833810Y-117569118D02*
X129810001Y-117521499D01*
X129810001Y-117521499D02*
X129810001Y-117497689D01*
X129810001Y-117497689D02*
X129833810Y-117450070D01*
X129833810Y-117450070D02*
X129881429Y-117426261D01*
X129881429Y-117426261D02*
X129952858Y-117426261D01*
X129952858Y-117426261D02*
X130000477Y-117450070D01*
X130167144Y-117426261D02*
X130357620Y-117426261D01*
X130238572Y-117259594D02*
X130238572Y-117688165D01*
X130238572Y-117688165D02*
X130262382Y-117735785D01*
X130262382Y-117735785D02*
X130310001Y-117759594D01*
X130310001Y-117759594D02*
X130357620Y-117759594D01*
X130714762Y-117735785D02*
X130667143Y-117759594D01*
X130667143Y-117759594D02*
X130571905Y-117759594D01*
X130571905Y-117759594D02*
X130524286Y-117735785D01*
X130524286Y-117735785D02*
X130500477Y-117688165D01*
X130500477Y-117688165D02*
X130500477Y-117497689D01*
X130500477Y-117497689D02*
X130524286Y-117450070D01*
X130524286Y-117450070D02*
X130571905Y-117426261D01*
X130571905Y-117426261D02*
X130667143Y-117426261D01*
X130667143Y-117426261D02*
X130714762Y-117450070D01*
X130714762Y-117450070D02*
X130738572Y-117497689D01*
X130738572Y-117497689D02*
X130738572Y-117545308D01*
X130738572Y-117545308D02*
X130500477Y-117592927D01*
X131167143Y-117759594D02*
X131167143Y-117259594D01*
X131167143Y-117735785D02*
X131119524Y-117759594D01*
X131119524Y-117759594D02*
X131024286Y-117759594D01*
X131024286Y-117759594D02*
X130976667Y-117735785D01*
X130976667Y-117735785D02*
X130952857Y-117711975D01*
X130952857Y-117711975D02*
X130929048Y-117664356D01*
X130929048Y-117664356D02*
X130929048Y-117521499D01*
X130929048Y-117521499D02*
X130952857Y-117473880D01*
X130952857Y-117473880D02*
X130976667Y-117450070D01*
X130976667Y-117450070D02*
X131024286Y-117426261D01*
X131024286Y-117426261D02*
X131119524Y-117426261D01*
X131119524Y-117426261D02*
X131167143Y-117450070D01*
X131786190Y-117759594D02*
X131786190Y-117259594D01*
X131786190Y-117450070D02*
X131833809Y-117426261D01*
X131833809Y-117426261D02*
X131929047Y-117426261D01*
X131929047Y-117426261D02*
X131976666Y-117450070D01*
X131976666Y-117450070D02*
X132000476Y-117473880D01*
X132000476Y-117473880D02*
X132024285Y-117521499D01*
X132024285Y-117521499D02*
X132024285Y-117664356D01*
X132024285Y-117664356D02*
X132000476Y-117711975D01*
X132000476Y-117711975D02*
X131976666Y-117735785D01*
X131976666Y-117735785D02*
X131929047Y-117759594D01*
X131929047Y-117759594D02*
X131833809Y-117759594D01*
X131833809Y-117759594D02*
X131786190Y-117735785D01*
X132310000Y-117759594D02*
X132262381Y-117735785D01*
X132262381Y-117735785D02*
X132238571Y-117711975D01*
X132238571Y-117711975D02*
X132214762Y-117664356D01*
X132214762Y-117664356D02*
X132214762Y-117521499D01*
X132214762Y-117521499D02*
X132238571Y-117473880D01*
X132238571Y-117473880D02*
X132262381Y-117450070D01*
X132262381Y-117450070D02*
X132310000Y-117426261D01*
X132310000Y-117426261D02*
X132381428Y-117426261D01*
X132381428Y-117426261D02*
X132429047Y-117450070D01*
X132429047Y-117450070D02*
X132452857Y-117473880D01*
X132452857Y-117473880D02*
X132476666Y-117521499D01*
X132476666Y-117521499D02*
X132476666Y-117664356D01*
X132476666Y-117664356D02*
X132452857Y-117711975D01*
X132452857Y-117711975D02*
X132429047Y-117735785D01*
X132429047Y-117735785D02*
X132381428Y-117759594D01*
X132381428Y-117759594D02*
X132310000Y-117759594D01*
X132905238Y-117759594D02*
X132905238Y-117497689D01*
X132905238Y-117497689D02*
X132881428Y-117450070D01*
X132881428Y-117450070D02*
X132833809Y-117426261D01*
X132833809Y-117426261D02*
X132738571Y-117426261D01*
X132738571Y-117426261D02*
X132690952Y-117450070D01*
X132905238Y-117735785D02*
X132857619Y-117759594D01*
X132857619Y-117759594D02*
X132738571Y-117759594D01*
X132738571Y-117759594D02*
X132690952Y-117735785D01*
X132690952Y-117735785D02*
X132667143Y-117688165D01*
X132667143Y-117688165D02*
X132667143Y-117640546D01*
X132667143Y-117640546D02*
X132690952Y-117592927D01*
X132690952Y-117592927D02*
X132738571Y-117569118D01*
X132738571Y-117569118D02*
X132857619Y-117569118D01*
X132857619Y-117569118D02*
X132905238Y-117545308D01*
X133143333Y-117759594D02*
X133143333Y-117426261D01*
X133143333Y-117521499D02*
X133167143Y-117473880D01*
X133167143Y-117473880D02*
X133190952Y-117450070D01*
X133190952Y-117450070D02*
X133238571Y-117426261D01*
X133238571Y-117426261D02*
X133286190Y-117426261D01*
X133667143Y-117759594D02*
X133667143Y-117259594D01*
X133667143Y-117735785D02*
X133619524Y-117759594D01*
X133619524Y-117759594D02*
X133524286Y-117759594D01*
X133524286Y-117759594D02*
X133476667Y-117735785D01*
X133476667Y-117735785D02*
X133452857Y-117711975D01*
X133452857Y-117711975D02*
X133429048Y-117664356D01*
X133429048Y-117664356D02*
X133429048Y-117521499D01*
X133429048Y-117521499D02*
X133452857Y-117473880D01*
X133452857Y-117473880D02*
X133476667Y-117450070D01*
X133476667Y-117450070D02*
X133524286Y-117426261D01*
X133524286Y-117426261D02*
X133619524Y-117426261D01*
X133619524Y-117426261D02*
X133667143Y-117450070D01*
X134476666Y-117735785D02*
X134429047Y-117759594D01*
X134429047Y-117759594D02*
X134333809Y-117759594D01*
X134333809Y-117759594D02*
X134286190Y-117735785D01*
X134286190Y-117735785D02*
X134262381Y-117688165D01*
X134262381Y-117688165D02*
X134262381Y-117497689D01*
X134262381Y-117497689D02*
X134286190Y-117450070D01*
X134286190Y-117450070D02*
X134333809Y-117426261D01*
X134333809Y-117426261D02*
X134429047Y-117426261D01*
X134429047Y-117426261D02*
X134476666Y-117450070D01*
X134476666Y-117450070D02*
X134500476Y-117497689D01*
X134500476Y-117497689D02*
X134500476Y-117545308D01*
X134500476Y-117545308D02*
X134262381Y-117592927D01*
X134929047Y-117759594D02*
X134929047Y-117259594D01*
X134929047Y-117735785D02*
X134881428Y-117759594D01*
X134881428Y-117759594D02*
X134786190Y-117759594D01*
X134786190Y-117759594D02*
X134738571Y-117735785D01*
X134738571Y-117735785D02*
X134714761Y-117711975D01*
X134714761Y-117711975D02*
X134690952Y-117664356D01*
X134690952Y-117664356D02*
X134690952Y-117521499D01*
X134690952Y-117521499D02*
X134714761Y-117473880D01*
X134714761Y-117473880D02*
X134738571Y-117450070D01*
X134738571Y-117450070D02*
X134786190Y-117426261D01*
X134786190Y-117426261D02*
X134881428Y-117426261D01*
X134881428Y-117426261D02*
X134929047Y-117450070D01*
X135381428Y-117426261D02*
X135381428Y-117831023D01*
X135381428Y-117831023D02*
X135357618Y-117878642D01*
X135357618Y-117878642D02*
X135333809Y-117902451D01*
X135333809Y-117902451D02*
X135286190Y-117926261D01*
X135286190Y-117926261D02*
X135214761Y-117926261D01*
X135214761Y-117926261D02*
X135167142Y-117902451D01*
X135381428Y-117735785D02*
X135333809Y-117759594D01*
X135333809Y-117759594D02*
X135238571Y-117759594D01*
X135238571Y-117759594D02*
X135190952Y-117735785D01*
X135190952Y-117735785D02*
X135167142Y-117711975D01*
X135167142Y-117711975D02*
X135143333Y-117664356D01*
X135143333Y-117664356D02*
X135143333Y-117521499D01*
X135143333Y-117521499D02*
X135167142Y-117473880D01*
X135167142Y-117473880D02*
X135190952Y-117450070D01*
X135190952Y-117450070D02*
X135238571Y-117426261D01*
X135238571Y-117426261D02*
X135333809Y-117426261D01*
X135333809Y-117426261D02*
X135381428Y-117450070D01*
X135809999Y-117735785D02*
X135762380Y-117759594D01*
X135762380Y-117759594D02*
X135667142Y-117759594D01*
X135667142Y-117759594D02*
X135619523Y-117735785D01*
X135619523Y-117735785D02*
X135595714Y-117688165D01*
X135595714Y-117688165D02*
X135595714Y-117497689D01*
X135595714Y-117497689D02*
X135619523Y-117450070D01*
X135619523Y-117450070D02*
X135667142Y-117426261D01*
X135667142Y-117426261D02*
X135762380Y-117426261D01*
X135762380Y-117426261D02*
X135809999Y-117450070D01*
X135809999Y-117450070D02*
X135833809Y-117497689D01*
X135833809Y-117497689D02*
X135833809Y-117545308D01*
X135833809Y-117545308D02*
X135595714Y-117592927D01*
X136357618Y-117426261D02*
X136548094Y-117426261D01*
X136429046Y-117759594D02*
X136429046Y-117331023D01*
X136429046Y-117331023D02*
X136452856Y-117283404D01*
X136452856Y-117283404D02*
X136500475Y-117259594D01*
X136500475Y-117259594D02*
X136548094Y-117259594D01*
X136786189Y-117759594D02*
X136738570Y-117735785D01*
X136738570Y-117735785D02*
X136714760Y-117711975D01*
X136714760Y-117711975D02*
X136690951Y-117664356D01*
X136690951Y-117664356D02*
X136690951Y-117521499D01*
X136690951Y-117521499D02*
X136714760Y-117473880D01*
X136714760Y-117473880D02*
X136738570Y-117450070D01*
X136738570Y-117450070D02*
X136786189Y-117426261D01*
X136786189Y-117426261D02*
X136857617Y-117426261D01*
X136857617Y-117426261D02*
X136905236Y-117450070D01*
X136905236Y-117450070D02*
X136929046Y-117473880D01*
X136929046Y-117473880D02*
X136952855Y-117521499D01*
X136952855Y-117521499D02*
X136952855Y-117664356D01*
X136952855Y-117664356D02*
X136929046Y-117711975D01*
X136929046Y-117711975D02*
X136905236Y-117735785D01*
X136905236Y-117735785D02*
X136857617Y-117759594D01*
X136857617Y-117759594D02*
X136786189Y-117759594D01*
X137167141Y-117759594D02*
X137167141Y-117426261D01*
X137167141Y-117521499D02*
X137190951Y-117473880D01*
X137190951Y-117473880D02*
X137214760Y-117450070D01*
X137214760Y-117450070D02*
X137262379Y-117426261D01*
X137262379Y-117426261D02*
X137309998Y-117426261D01*
X138143331Y-117759594D02*
X137976665Y-117521499D01*
X137857617Y-117759594D02*
X137857617Y-117259594D01*
X137857617Y-117259594D02*
X138048093Y-117259594D01*
X138048093Y-117259594D02*
X138095712Y-117283404D01*
X138095712Y-117283404D02*
X138119522Y-117307213D01*
X138119522Y-117307213D02*
X138143331Y-117354832D01*
X138143331Y-117354832D02*
X138143331Y-117426261D01*
X138143331Y-117426261D02*
X138119522Y-117473880D01*
X138119522Y-117473880D02*
X138095712Y-117497689D01*
X138095712Y-117497689D02*
X138048093Y-117521499D01*
X138048093Y-117521499D02*
X137857617Y-117521499D01*
X138524284Y-117497689D02*
X138357617Y-117497689D01*
X138357617Y-117759594D02*
X138357617Y-117259594D01*
X138357617Y-117259594D02*
X138595712Y-117259594D01*
X139095712Y-117307213D02*
X139190950Y-117235785D01*
X139190950Y-117235785D02*
X139286188Y-117307213D01*
D12*
X131274285Y-127879265D02*
X131226666Y-127926885D01*
X131226666Y-127926885D02*
X131083809Y-127974504D01*
X131083809Y-127974504D02*
X130988571Y-127974504D01*
X130988571Y-127974504D02*
X130845714Y-127926885D01*
X130845714Y-127926885D02*
X130750476Y-127831646D01*
X130750476Y-127831646D02*
X130702857Y-127736408D01*
X130702857Y-127736408D02*
X130655238Y-127545932D01*
X130655238Y-127545932D02*
X130655238Y-127403075D01*
X130655238Y-127403075D02*
X130702857Y-127212599D01*
X130702857Y-127212599D02*
X130750476Y-127117361D01*
X130750476Y-127117361D02*
X130845714Y-127022123D01*
X130845714Y-127022123D02*
X130988571Y-126974504D01*
X130988571Y-126974504D02*
X131083809Y-126974504D01*
X131083809Y-126974504D02*
X131226666Y-127022123D01*
X131226666Y-127022123D02*
X131274285Y-127069742D01*
X131845714Y-127974504D02*
X131750476Y-127926885D01*
X131750476Y-127926885D02*
X131702857Y-127879265D01*
X131702857Y-127879265D02*
X131655238Y-127784027D01*
X131655238Y-127784027D02*
X131655238Y-127498313D01*
X131655238Y-127498313D02*
X131702857Y-127403075D01*
X131702857Y-127403075D02*
X131750476Y-127355456D01*
X131750476Y-127355456D02*
X131845714Y-127307837D01*
X131845714Y-127307837D02*
X131988571Y-127307837D01*
X131988571Y-127307837D02*
X132083809Y-127355456D01*
X132083809Y-127355456D02*
X132131428Y-127403075D01*
X132131428Y-127403075D02*
X132179047Y-127498313D01*
X132179047Y-127498313D02*
X132179047Y-127784027D01*
X132179047Y-127784027D02*
X132131428Y-127879265D01*
X132131428Y-127879265D02*
X132083809Y-127926885D01*
X132083809Y-127926885D02*
X131988571Y-127974504D01*
X131988571Y-127974504D02*
X131845714Y-127974504D01*
X132607619Y-127307837D02*
X132607619Y-128307837D01*
X132607619Y-127355456D02*
X132702857Y-127307837D01*
X132702857Y-127307837D02*
X132893333Y-127307837D01*
X132893333Y-127307837D02*
X132988571Y-127355456D01*
X132988571Y-127355456D02*
X133036190Y-127403075D01*
X133036190Y-127403075D02*
X133083809Y-127498313D01*
X133083809Y-127498313D02*
X133083809Y-127784027D01*
X133083809Y-127784027D02*
X133036190Y-127879265D01*
X133036190Y-127879265D02*
X132988571Y-127926885D01*
X132988571Y-127926885D02*
X132893333Y-127974504D01*
X132893333Y-127974504D02*
X132702857Y-127974504D01*
X132702857Y-127974504D02*
X132607619Y-127926885D01*
X133512381Y-127307837D02*
X133512381Y-128307837D01*
X133512381Y-127355456D02*
X133607619Y-127307837D01*
X133607619Y-127307837D02*
X133798095Y-127307837D01*
X133798095Y-127307837D02*
X133893333Y-127355456D01*
X133893333Y-127355456D02*
X133940952Y-127403075D01*
X133940952Y-127403075D02*
X133988571Y-127498313D01*
X133988571Y-127498313D02*
X133988571Y-127784027D01*
X133988571Y-127784027D02*
X133940952Y-127879265D01*
X133940952Y-127879265D02*
X133893333Y-127926885D01*
X133893333Y-127926885D02*
X133798095Y-127974504D01*
X133798095Y-127974504D02*
X133607619Y-127974504D01*
X133607619Y-127974504D02*
X133512381Y-127926885D01*
X134798095Y-127926885D02*
X134702857Y-127974504D01*
X134702857Y-127974504D02*
X134512381Y-127974504D01*
X134512381Y-127974504D02*
X134417143Y-127926885D01*
X134417143Y-127926885D02*
X134369524Y-127831646D01*
X134369524Y-127831646D02*
X134369524Y-127450694D01*
X134369524Y-127450694D02*
X134417143Y-127355456D01*
X134417143Y-127355456D02*
X134512381Y-127307837D01*
X134512381Y-127307837D02*
X134702857Y-127307837D01*
X134702857Y-127307837D02*
X134798095Y-127355456D01*
X134798095Y-127355456D02*
X134845714Y-127450694D01*
X134845714Y-127450694D02*
X134845714Y-127545932D01*
X134845714Y-127545932D02*
X134369524Y-127641170D01*
X135274286Y-127974504D02*
X135274286Y-127307837D01*
X135274286Y-127498313D02*
X135321905Y-127403075D01*
X135321905Y-127403075D02*
X135369524Y-127355456D01*
X135369524Y-127355456D02*
X135464762Y-127307837D01*
X135464762Y-127307837D02*
X135560000Y-127307837D01*
X129845714Y-63839504D02*
X129845714Y-62839504D01*
X130417142Y-63839504D02*
X129988571Y-63268075D01*
X130417142Y-62839504D02*
X129845714Y-63410932D01*
X131226666Y-63791885D02*
X131131428Y-63839504D01*
X131131428Y-63839504D02*
X130940952Y-63839504D01*
X130940952Y-63839504D02*
X130845714Y-63791885D01*
X130845714Y-63791885D02*
X130798095Y-63696646D01*
X130798095Y-63696646D02*
X130798095Y-63315694D01*
X130798095Y-63315694D02*
X130845714Y-63220456D01*
X130845714Y-63220456D02*
X130940952Y-63172837D01*
X130940952Y-63172837D02*
X131131428Y-63172837D01*
X131131428Y-63172837D02*
X131226666Y-63220456D01*
X131226666Y-63220456D02*
X131274285Y-63315694D01*
X131274285Y-63315694D02*
X131274285Y-63410932D01*
X131274285Y-63410932D02*
X130798095Y-63506170D01*
X132083809Y-63791885D02*
X131988571Y-63839504D01*
X131988571Y-63839504D02*
X131798095Y-63839504D01*
X131798095Y-63839504D02*
X131702857Y-63791885D01*
X131702857Y-63791885D02*
X131655238Y-63696646D01*
X131655238Y-63696646D02*
X131655238Y-63315694D01*
X131655238Y-63315694D02*
X131702857Y-63220456D01*
X131702857Y-63220456D02*
X131798095Y-63172837D01*
X131798095Y-63172837D02*
X131988571Y-63172837D01*
X131988571Y-63172837D02*
X132083809Y-63220456D01*
X132083809Y-63220456D02*
X132131428Y-63315694D01*
X132131428Y-63315694D02*
X132131428Y-63410932D01*
X132131428Y-63410932D02*
X131655238Y-63506170D01*
X132560000Y-63172837D02*
X132560000Y-64172837D01*
X132560000Y-63220456D02*
X132655238Y-63172837D01*
X132655238Y-63172837D02*
X132845714Y-63172837D01*
X132845714Y-63172837D02*
X132940952Y-63220456D01*
X132940952Y-63220456D02*
X132988571Y-63268075D01*
X132988571Y-63268075D02*
X133036190Y-63363313D01*
X133036190Y-63363313D02*
X133036190Y-63649027D01*
X133036190Y-63649027D02*
X132988571Y-63744265D01*
X132988571Y-63744265D02*
X132940952Y-63791885D01*
X132940952Y-63791885D02*
X132845714Y-63839504D01*
X132845714Y-63839504D02*
X132655238Y-63839504D01*
X132655238Y-63839504D02*
X132560000Y-63791885D01*
X134417143Y-62839504D02*
X134607619Y-62839504D01*
X134607619Y-62839504D02*
X134702857Y-62887123D01*
X134702857Y-62887123D02*
X134798095Y-62982361D01*
X134798095Y-62982361D02*
X134845714Y-63172837D01*
X134845714Y-63172837D02*
X134845714Y-63506170D01*
X134845714Y-63506170D02*
X134798095Y-63696646D01*
X134798095Y-63696646D02*
X134702857Y-63791885D01*
X134702857Y-63791885D02*
X134607619Y-63839504D01*
X134607619Y-63839504D02*
X134417143Y-63839504D01*
X134417143Y-63839504D02*
X134321905Y-63791885D01*
X134321905Y-63791885D02*
X134226667Y-63696646D01*
X134226667Y-63696646D02*
X134179048Y-63506170D01*
X134179048Y-63506170D02*
X134179048Y-63172837D01*
X134179048Y-63172837D02*
X134226667Y-62982361D01*
X134226667Y-62982361D02*
X134321905Y-62887123D01*
X134321905Y-62887123D02*
X134417143Y-62839504D01*
X135702857Y-63172837D02*
X135702857Y-63839504D01*
X135274286Y-63172837D02*
X135274286Y-63696646D01*
X135274286Y-63696646D02*
X135321905Y-63791885D01*
X135321905Y-63791885D02*
X135417143Y-63839504D01*
X135417143Y-63839504D02*
X135560000Y-63839504D01*
X135560000Y-63839504D02*
X135655238Y-63791885D01*
X135655238Y-63791885D02*
X135702857Y-63744265D01*
X136036191Y-63172837D02*
X136417143Y-63172837D01*
X136179048Y-62839504D02*
X136179048Y-63696646D01*
X136179048Y-63696646D02*
X136226667Y-63791885D01*
X136226667Y-63791885D02*
X136321905Y-63839504D01*
X136321905Y-63839504D02*
X136417143Y-63839504D01*
D11*
X120619526Y-133779594D02*
X120619526Y-133279594D01*
X120905240Y-133779594D02*
X120690955Y-133493880D01*
X120905240Y-133279594D02*
X120619526Y-133565308D01*
X121310002Y-133755785D02*
X121262383Y-133779594D01*
X121262383Y-133779594D02*
X121167145Y-133779594D01*
X121167145Y-133779594D02*
X121119526Y-133755785D01*
X121119526Y-133755785D02*
X121095717Y-133708165D01*
X121095717Y-133708165D02*
X121095717Y-133517689D01*
X121095717Y-133517689D02*
X121119526Y-133470070D01*
X121119526Y-133470070D02*
X121167145Y-133446261D01*
X121167145Y-133446261D02*
X121262383Y-133446261D01*
X121262383Y-133446261D02*
X121310002Y-133470070D01*
X121310002Y-133470070D02*
X121333812Y-133517689D01*
X121333812Y-133517689D02*
X121333812Y-133565308D01*
X121333812Y-133565308D02*
X121095717Y-133612927D01*
X121738573Y-133755785D02*
X121690954Y-133779594D01*
X121690954Y-133779594D02*
X121595716Y-133779594D01*
X121595716Y-133779594D02*
X121548097Y-133755785D01*
X121548097Y-133755785D02*
X121524288Y-133708165D01*
X121524288Y-133708165D02*
X121524288Y-133517689D01*
X121524288Y-133517689D02*
X121548097Y-133470070D01*
X121548097Y-133470070D02*
X121595716Y-133446261D01*
X121595716Y-133446261D02*
X121690954Y-133446261D01*
X121690954Y-133446261D02*
X121738573Y-133470070D01*
X121738573Y-133470070D02*
X121762383Y-133517689D01*
X121762383Y-133517689D02*
X121762383Y-133565308D01*
X121762383Y-133565308D02*
X121524288Y-133612927D01*
X121976668Y-133446261D02*
X121976668Y-133946261D01*
X121976668Y-133470070D02*
X122024287Y-133446261D01*
X122024287Y-133446261D02*
X122119525Y-133446261D01*
X122119525Y-133446261D02*
X122167144Y-133470070D01*
X122167144Y-133470070D02*
X122190954Y-133493880D01*
X122190954Y-133493880D02*
X122214763Y-133541499D01*
X122214763Y-133541499D02*
X122214763Y-133684356D01*
X122214763Y-133684356D02*
X122190954Y-133731975D01*
X122190954Y-133731975D02*
X122167144Y-133755785D01*
X122167144Y-133755785D02*
X122119525Y-133779594D01*
X122119525Y-133779594D02*
X122024287Y-133779594D01*
X122024287Y-133779594D02*
X121976668Y-133755785D01*
X123024287Y-133446261D02*
X123024287Y-133779594D01*
X122810001Y-133446261D02*
X122810001Y-133708165D01*
X122810001Y-133708165D02*
X122833811Y-133755785D01*
X122833811Y-133755785D02*
X122881430Y-133779594D01*
X122881430Y-133779594D02*
X122952858Y-133779594D01*
X122952858Y-133779594D02*
X123000477Y-133755785D01*
X123000477Y-133755785D02*
X123024287Y-133731975D01*
X123262382Y-133446261D02*
X123262382Y-133779594D01*
X123262382Y-133493880D02*
X123286192Y-133470070D01*
X123286192Y-133470070D02*
X123333811Y-133446261D01*
X123333811Y-133446261D02*
X123405239Y-133446261D01*
X123405239Y-133446261D02*
X123452858Y-133470070D01*
X123452858Y-133470070D02*
X123476668Y-133517689D01*
X123476668Y-133517689D02*
X123476668Y-133779594D01*
X123786192Y-133779594D02*
X123738573Y-133755785D01*
X123738573Y-133755785D02*
X123714763Y-133731975D01*
X123714763Y-133731975D02*
X123690954Y-133684356D01*
X123690954Y-133684356D02*
X123690954Y-133541499D01*
X123690954Y-133541499D02*
X123714763Y-133493880D01*
X123714763Y-133493880D02*
X123738573Y-133470070D01*
X123738573Y-133470070D02*
X123786192Y-133446261D01*
X123786192Y-133446261D02*
X123857620Y-133446261D01*
X123857620Y-133446261D02*
X123905239Y-133470070D01*
X123905239Y-133470070D02*
X123929049Y-133493880D01*
X123929049Y-133493880D02*
X123952858Y-133541499D01*
X123952858Y-133541499D02*
X123952858Y-133684356D01*
X123952858Y-133684356D02*
X123929049Y-133731975D01*
X123929049Y-133731975D02*
X123905239Y-133755785D01*
X123905239Y-133755785D02*
X123857620Y-133779594D01*
X123857620Y-133779594D02*
X123786192Y-133779594D01*
X124167144Y-133779594D02*
X124167144Y-133279594D01*
X124167144Y-133470070D02*
X124214763Y-133446261D01*
X124214763Y-133446261D02*
X124310001Y-133446261D01*
X124310001Y-133446261D02*
X124357620Y-133470070D01*
X124357620Y-133470070D02*
X124381430Y-133493880D01*
X124381430Y-133493880D02*
X124405239Y-133541499D01*
X124405239Y-133541499D02*
X124405239Y-133684356D01*
X124405239Y-133684356D02*
X124381430Y-133731975D01*
X124381430Y-133731975D02*
X124357620Y-133755785D01*
X124357620Y-133755785D02*
X124310001Y-133779594D01*
X124310001Y-133779594D02*
X124214763Y-133779594D01*
X124214763Y-133779594D02*
X124167144Y-133755785D01*
X124595716Y-133755785D02*
X124643335Y-133779594D01*
X124643335Y-133779594D02*
X124738573Y-133779594D01*
X124738573Y-133779594D02*
X124786192Y-133755785D01*
X124786192Y-133755785D02*
X124810001Y-133708165D01*
X124810001Y-133708165D02*
X124810001Y-133684356D01*
X124810001Y-133684356D02*
X124786192Y-133636737D01*
X124786192Y-133636737D02*
X124738573Y-133612927D01*
X124738573Y-133612927D02*
X124667144Y-133612927D01*
X124667144Y-133612927D02*
X124619525Y-133589118D01*
X124619525Y-133589118D02*
X124595716Y-133541499D01*
X124595716Y-133541499D02*
X124595716Y-133517689D01*
X124595716Y-133517689D02*
X124619525Y-133470070D01*
X124619525Y-133470070D02*
X124667144Y-133446261D01*
X124667144Y-133446261D02*
X124738573Y-133446261D01*
X124738573Y-133446261D02*
X124786192Y-133470070D01*
X124952859Y-133446261D02*
X125143335Y-133446261D01*
X125024287Y-133279594D02*
X125024287Y-133708165D01*
X125024287Y-133708165D02*
X125048097Y-133755785D01*
X125048097Y-133755785D02*
X125095716Y-133779594D01*
X125095716Y-133779594D02*
X125143335Y-133779594D01*
X125310001Y-133779594D02*
X125310001Y-133446261D01*
X125310001Y-133541499D02*
X125333811Y-133493880D01*
X125333811Y-133493880D02*
X125357620Y-133470070D01*
X125357620Y-133470070D02*
X125405239Y-133446261D01*
X125405239Y-133446261D02*
X125452858Y-133446261D01*
X125833811Y-133446261D02*
X125833811Y-133779594D01*
X125619525Y-133446261D02*
X125619525Y-133708165D01*
X125619525Y-133708165D02*
X125643335Y-133755785D01*
X125643335Y-133755785D02*
X125690954Y-133779594D01*
X125690954Y-133779594D02*
X125762382Y-133779594D01*
X125762382Y-133779594D02*
X125810001Y-133755785D01*
X125810001Y-133755785D02*
X125833811Y-133731975D01*
X126286192Y-133755785D02*
X126238573Y-133779594D01*
X126238573Y-133779594D02*
X126143335Y-133779594D01*
X126143335Y-133779594D02*
X126095716Y-133755785D01*
X126095716Y-133755785D02*
X126071906Y-133731975D01*
X126071906Y-133731975D02*
X126048097Y-133684356D01*
X126048097Y-133684356D02*
X126048097Y-133541499D01*
X126048097Y-133541499D02*
X126071906Y-133493880D01*
X126071906Y-133493880D02*
X126095716Y-133470070D01*
X126095716Y-133470070D02*
X126143335Y-133446261D01*
X126143335Y-133446261D02*
X126238573Y-133446261D01*
X126238573Y-133446261D02*
X126286192Y-133470070D01*
X126429049Y-133446261D02*
X126619525Y-133446261D01*
X126500477Y-133279594D02*
X126500477Y-133708165D01*
X126500477Y-133708165D02*
X126524287Y-133755785D01*
X126524287Y-133755785D02*
X126571906Y-133779594D01*
X126571906Y-133779594D02*
X126619525Y-133779594D01*
X126976667Y-133755785D02*
X126929048Y-133779594D01*
X126929048Y-133779594D02*
X126833810Y-133779594D01*
X126833810Y-133779594D02*
X126786191Y-133755785D01*
X126786191Y-133755785D02*
X126762382Y-133708165D01*
X126762382Y-133708165D02*
X126762382Y-133517689D01*
X126762382Y-133517689D02*
X126786191Y-133470070D01*
X126786191Y-133470070D02*
X126833810Y-133446261D01*
X126833810Y-133446261D02*
X126929048Y-133446261D01*
X126929048Y-133446261D02*
X126976667Y-133470070D01*
X126976667Y-133470070D02*
X127000477Y-133517689D01*
X127000477Y-133517689D02*
X127000477Y-133565308D01*
X127000477Y-133565308D02*
X126762382Y-133612927D01*
X127429048Y-133779594D02*
X127429048Y-133279594D01*
X127429048Y-133755785D02*
X127381429Y-133779594D01*
X127381429Y-133779594D02*
X127286191Y-133779594D01*
X127286191Y-133779594D02*
X127238572Y-133755785D01*
X127238572Y-133755785D02*
X127214762Y-133731975D01*
X127214762Y-133731975D02*
X127190953Y-133684356D01*
X127190953Y-133684356D02*
X127190953Y-133541499D01*
X127190953Y-133541499D02*
X127214762Y-133493880D01*
X127214762Y-133493880D02*
X127238572Y-133470070D01*
X127238572Y-133470070D02*
X127286191Y-133446261D01*
X127286191Y-133446261D02*
X127381429Y-133446261D01*
X127381429Y-133446261D02*
X127429048Y-133470070D01*
X128048095Y-133779594D02*
X128048095Y-133279594D01*
X128048095Y-133470070D02*
X128095714Y-133446261D01*
X128095714Y-133446261D02*
X128190952Y-133446261D01*
X128190952Y-133446261D02*
X128238571Y-133470070D01*
X128238571Y-133470070D02*
X128262381Y-133493880D01*
X128262381Y-133493880D02*
X128286190Y-133541499D01*
X128286190Y-133541499D02*
X128286190Y-133684356D01*
X128286190Y-133684356D02*
X128262381Y-133731975D01*
X128262381Y-133731975D02*
X128238571Y-133755785D01*
X128238571Y-133755785D02*
X128190952Y-133779594D01*
X128190952Y-133779594D02*
X128095714Y-133779594D01*
X128095714Y-133779594D02*
X128048095Y-133755785D01*
X128452857Y-133446261D02*
X128571905Y-133779594D01*
X128690952Y-133446261D02*
X128571905Y-133779594D01*
X128571905Y-133779594D02*
X128524286Y-133898642D01*
X128524286Y-133898642D02*
X128500476Y-133922451D01*
X128500476Y-133922451D02*
X128452857Y-133946261D01*
X129262380Y-133779594D02*
X129262380Y-133446261D01*
X129262380Y-133493880D02*
X129286190Y-133470070D01*
X129286190Y-133470070D02*
X129333809Y-133446261D01*
X129333809Y-133446261D02*
X129405237Y-133446261D01*
X129405237Y-133446261D02*
X129452856Y-133470070D01*
X129452856Y-133470070D02*
X129476666Y-133517689D01*
X129476666Y-133517689D02*
X129476666Y-133779594D01*
X129476666Y-133517689D02*
X129500475Y-133470070D01*
X129500475Y-133470070D02*
X129548094Y-133446261D01*
X129548094Y-133446261D02*
X129619523Y-133446261D01*
X129619523Y-133446261D02*
X129667142Y-133470070D01*
X129667142Y-133470070D02*
X129690952Y-133517689D01*
X129690952Y-133517689D02*
X129690952Y-133779594D01*
X130119523Y-133755785D02*
X130071904Y-133779594D01*
X130071904Y-133779594D02*
X129976666Y-133779594D01*
X129976666Y-133779594D02*
X129929047Y-133755785D01*
X129929047Y-133755785D02*
X129905238Y-133708165D01*
X129905238Y-133708165D02*
X129905238Y-133517689D01*
X129905238Y-133517689D02*
X129929047Y-133470070D01*
X129929047Y-133470070D02*
X129976666Y-133446261D01*
X129976666Y-133446261D02*
X130071904Y-133446261D01*
X130071904Y-133446261D02*
X130119523Y-133470070D01*
X130119523Y-133470070D02*
X130143333Y-133517689D01*
X130143333Y-133517689D02*
X130143333Y-133565308D01*
X130143333Y-133565308D02*
X129905238Y-133612927D01*
X130286190Y-133446261D02*
X130476666Y-133446261D01*
X130357618Y-133279594D02*
X130357618Y-133708165D01*
X130357618Y-133708165D02*
X130381428Y-133755785D01*
X130381428Y-133755785D02*
X130429047Y-133779594D01*
X130429047Y-133779594D02*
X130476666Y-133779594D01*
X130857618Y-133779594D02*
X130857618Y-133517689D01*
X130857618Y-133517689D02*
X130833808Y-133470070D01*
X130833808Y-133470070D02*
X130786189Y-133446261D01*
X130786189Y-133446261D02*
X130690951Y-133446261D01*
X130690951Y-133446261D02*
X130643332Y-133470070D01*
X130857618Y-133755785D02*
X130809999Y-133779594D01*
X130809999Y-133779594D02*
X130690951Y-133779594D01*
X130690951Y-133779594D02*
X130643332Y-133755785D01*
X130643332Y-133755785D02*
X130619523Y-133708165D01*
X130619523Y-133708165D02*
X130619523Y-133660546D01*
X130619523Y-133660546D02*
X130643332Y-133612927D01*
X130643332Y-133612927D02*
X130690951Y-133589118D01*
X130690951Y-133589118D02*
X130809999Y-133589118D01*
X130809999Y-133589118D02*
X130857618Y-133565308D01*
X131167142Y-133779594D02*
X131119523Y-133755785D01*
X131119523Y-133755785D02*
X131095713Y-133708165D01*
X131095713Y-133708165D02*
X131095713Y-133279594D01*
X131952856Y-133779594D02*
X131952856Y-133517689D01*
X131952856Y-133517689D02*
X131929046Y-133470070D01*
X131929046Y-133470070D02*
X131881427Y-133446261D01*
X131881427Y-133446261D02*
X131786189Y-133446261D01*
X131786189Y-133446261D02*
X131738570Y-133470070D01*
X131952856Y-133755785D02*
X131905237Y-133779594D01*
X131905237Y-133779594D02*
X131786189Y-133779594D01*
X131786189Y-133779594D02*
X131738570Y-133755785D01*
X131738570Y-133755785D02*
X131714761Y-133708165D01*
X131714761Y-133708165D02*
X131714761Y-133660546D01*
X131714761Y-133660546D02*
X131738570Y-133612927D01*
X131738570Y-133612927D02*
X131786189Y-133589118D01*
X131786189Y-133589118D02*
X131905237Y-133589118D01*
X131905237Y-133589118D02*
X131952856Y-133565308D01*
X132167142Y-133755785D02*
X132214761Y-133779594D01*
X132214761Y-133779594D02*
X132309999Y-133779594D01*
X132309999Y-133779594D02*
X132357618Y-133755785D01*
X132357618Y-133755785D02*
X132381427Y-133708165D01*
X132381427Y-133708165D02*
X132381427Y-133684356D01*
X132381427Y-133684356D02*
X132357618Y-133636737D01*
X132357618Y-133636737D02*
X132309999Y-133612927D01*
X132309999Y-133612927D02*
X132238570Y-133612927D01*
X132238570Y-133612927D02*
X132190951Y-133589118D01*
X132190951Y-133589118D02*
X132167142Y-133541499D01*
X132167142Y-133541499D02*
X132167142Y-133517689D01*
X132167142Y-133517689D02*
X132190951Y-133470070D01*
X132190951Y-133470070D02*
X132238570Y-133446261D01*
X132238570Y-133446261D02*
X132309999Y-133446261D01*
X132309999Y-133446261D02*
X132357618Y-133470070D01*
X132905237Y-133446261D02*
X133095713Y-133446261D01*
X132976665Y-133779594D02*
X132976665Y-133351023D01*
X132976665Y-133351023D02*
X133000475Y-133303404D01*
X133000475Y-133303404D02*
X133048094Y-133279594D01*
X133048094Y-133279594D02*
X133095713Y-133279594D01*
X133476665Y-133779594D02*
X133476665Y-133517689D01*
X133476665Y-133517689D02*
X133452855Y-133470070D01*
X133452855Y-133470070D02*
X133405236Y-133446261D01*
X133405236Y-133446261D02*
X133309998Y-133446261D01*
X133309998Y-133446261D02*
X133262379Y-133470070D01*
X133476665Y-133755785D02*
X133429046Y-133779594D01*
X133429046Y-133779594D02*
X133309998Y-133779594D01*
X133309998Y-133779594D02*
X133262379Y-133755785D01*
X133262379Y-133755785D02*
X133238570Y-133708165D01*
X133238570Y-133708165D02*
X133238570Y-133660546D01*
X133238570Y-133660546D02*
X133262379Y-133612927D01*
X133262379Y-133612927D02*
X133309998Y-133589118D01*
X133309998Y-133589118D02*
X133429046Y-133589118D01*
X133429046Y-133589118D02*
X133476665Y-133565308D01*
X133714760Y-133779594D02*
X133714760Y-133446261D01*
X133714760Y-133541499D02*
X133738570Y-133493880D01*
X133738570Y-133493880D02*
X133762379Y-133470070D01*
X133762379Y-133470070D02*
X133809998Y-133446261D01*
X133809998Y-133446261D02*
X133857617Y-133446261D01*
X134619522Y-133779594D02*
X134619522Y-133517689D01*
X134619522Y-133517689D02*
X134595712Y-133470070D01*
X134595712Y-133470070D02*
X134548093Y-133446261D01*
X134548093Y-133446261D02*
X134452855Y-133446261D01*
X134452855Y-133446261D02*
X134405236Y-133470070D01*
X134619522Y-133755785D02*
X134571903Y-133779594D01*
X134571903Y-133779594D02*
X134452855Y-133779594D01*
X134452855Y-133779594D02*
X134405236Y-133755785D01*
X134405236Y-133755785D02*
X134381427Y-133708165D01*
X134381427Y-133708165D02*
X134381427Y-133660546D01*
X134381427Y-133660546D02*
X134405236Y-133612927D01*
X134405236Y-133612927D02*
X134452855Y-133589118D01*
X134452855Y-133589118D02*
X134571903Y-133589118D01*
X134571903Y-133589118D02*
X134619522Y-133565308D01*
X134833808Y-133755785D02*
X134881427Y-133779594D01*
X134881427Y-133779594D02*
X134976665Y-133779594D01*
X134976665Y-133779594D02*
X135024284Y-133755785D01*
X135024284Y-133755785D02*
X135048093Y-133708165D01*
X135048093Y-133708165D02*
X135048093Y-133684356D01*
X135048093Y-133684356D02*
X135024284Y-133636737D01*
X135024284Y-133636737D02*
X134976665Y-133612927D01*
X134976665Y-133612927D02*
X134905236Y-133612927D01*
X134905236Y-133612927D02*
X134857617Y-133589118D01*
X134857617Y-133589118D02*
X134833808Y-133541499D01*
X134833808Y-133541499D02*
X134833808Y-133517689D01*
X134833808Y-133517689D02*
X134857617Y-133470070D01*
X134857617Y-133470070D02*
X134905236Y-133446261D01*
X134905236Y-133446261D02*
X134976665Y-133446261D01*
X134976665Y-133446261D02*
X135024284Y-133470070D01*
X135643331Y-133446261D02*
X135643331Y-133946261D01*
X135643331Y-133470070D02*
X135690950Y-133446261D01*
X135690950Y-133446261D02*
X135786188Y-133446261D01*
X135786188Y-133446261D02*
X135833807Y-133470070D01*
X135833807Y-133470070D02*
X135857617Y-133493880D01*
X135857617Y-133493880D02*
X135881426Y-133541499D01*
X135881426Y-133541499D02*
X135881426Y-133684356D01*
X135881426Y-133684356D02*
X135857617Y-133731975D01*
X135857617Y-133731975D02*
X135833807Y-133755785D01*
X135833807Y-133755785D02*
X135786188Y-133779594D01*
X135786188Y-133779594D02*
X135690950Y-133779594D01*
X135690950Y-133779594D02*
X135643331Y-133755785D01*
X136167141Y-133779594D02*
X136119522Y-133755785D01*
X136119522Y-133755785D02*
X136095712Y-133731975D01*
X136095712Y-133731975D02*
X136071903Y-133684356D01*
X136071903Y-133684356D02*
X136071903Y-133541499D01*
X136071903Y-133541499D02*
X136095712Y-133493880D01*
X136095712Y-133493880D02*
X136119522Y-133470070D01*
X136119522Y-133470070D02*
X136167141Y-133446261D01*
X136167141Y-133446261D02*
X136238569Y-133446261D01*
X136238569Y-133446261D02*
X136286188Y-133470070D01*
X136286188Y-133470070D02*
X136309998Y-133493880D01*
X136309998Y-133493880D02*
X136333807Y-133541499D01*
X136333807Y-133541499D02*
X136333807Y-133684356D01*
X136333807Y-133684356D02*
X136309998Y-133731975D01*
X136309998Y-133731975D02*
X136286188Y-133755785D01*
X136286188Y-133755785D02*
X136238569Y-133779594D01*
X136238569Y-133779594D02*
X136167141Y-133779594D01*
X136524284Y-133755785D02*
X136571903Y-133779594D01*
X136571903Y-133779594D02*
X136667141Y-133779594D01*
X136667141Y-133779594D02*
X136714760Y-133755785D01*
X136714760Y-133755785D02*
X136738569Y-133708165D01*
X136738569Y-133708165D02*
X136738569Y-133684356D01*
X136738569Y-133684356D02*
X136714760Y-133636737D01*
X136714760Y-133636737D02*
X136667141Y-133612927D01*
X136667141Y-133612927D02*
X136595712Y-133612927D01*
X136595712Y-133612927D02*
X136548093Y-133589118D01*
X136548093Y-133589118D02*
X136524284Y-133541499D01*
X136524284Y-133541499D02*
X136524284Y-133517689D01*
X136524284Y-133517689D02*
X136548093Y-133470070D01*
X136548093Y-133470070D02*
X136595712Y-133446261D01*
X136595712Y-133446261D02*
X136667141Y-133446261D01*
X136667141Y-133446261D02*
X136714760Y-133470070D01*
X136929046Y-133755785D02*
X136976665Y-133779594D01*
X136976665Y-133779594D02*
X137071903Y-133779594D01*
X137071903Y-133779594D02*
X137119522Y-133755785D01*
X137119522Y-133755785D02*
X137143331Y-133708165D01*
X137143331Y-133708165D02*
X137143331Y-133684356D01*
X137143331Y-133684356D02*
X137119522Y-133636737D01*
X137119522Y-133636737D02*
X137071903Y-133612927D01*
X137071903Y-133612927D02*
X137000474Y-133612927D01*
X137000474Y-133612927D02*
X136952855Y-133589118D01*
X136952855Y-133589118D02*
X136929046Y-133541499D01*
X136929046Y-133541499D02*
X136929046Y-133517689D01*
X136929046Y-133517689D02*
X136952855Y-133470070D01*
X136952855Y-133470070D02*
X137000474Y-133446261D01*
X137000474Y-133446261D02*
X137071903Y-133446261D01*
X137071903Y-133446261D02*
X137119522Y-133470070D01*
X137357617Y-133779594D02*
X137357617Y-133446261D01*
X137357617Y-133279594D02*
X137333808Y-133303404D01*
X137333808Y-133303404D02*
X137357617Y-133327213D01*
X137357617Y-133327213D02*
X137381427Y-133303404D01*
X137381427Y-133303404D02*
X137357617Y-133279594D01*
X137357617Y-133279594D02*
X137357617Y-133327213D01*
X137595712Y-133779594D02*
X137595712Y-133279594D01*
X137595712Y-133470070D02*
X137643331Y-133446261D01*
X137643331Y-133446261D02*
X137738569Y-133446261D01*
X137738569Y-133446261D02*
X137786188Y-133470070D01*
X137786188Y-133470070D02*
X137809998Y-133493880D01*
X137809998Y-133493880D02*
X137833807Y-133541499D01*
X137833807Y-133541499D02*
X137833807Y-133684356D01*
X137833807Y-133684356D02*
X137809998Y-133731975D01*
X137809998Y-133731975D02*
X137786188Y-133755785D01*
X137786188Y-133755785D02*
X137738569Y-133779594D01*
X137738569Y-133779594D02*
X137643331Y-133779594D01*
X137643331Y-133779594D02*
X137595712Y-133755785D01*
X138119522Y-133779594D02*
X138071903Y-133755785D01*
X138071903Y-133755785D02*
X138048093Y-133708165D01*
X138048093Y-133708165D02*
X138048093Y-133279594D01*
X138500474Y-133755785D02*
X138452855Y-133779594D01*
X138452855Y-133779594D02*
X138357617Y-133779594D01*
X138357617Y-133779594D02*
X138309998Y-133755785D01*
X138309998Y-133755785D02*
X138286189Y-133708165D01*
X138286189Y-133708165D02*
X138286189Y-133517689D01*
X138286189Y-133517689D02*
X138309998Y-133470070D01*
X138309998Y-133470070D02*
X138357617Y-133446261D01*
X138357617Y-133446261D02*
X138452855Y-133446261D01*
X138452855Y-133446261D02*
X138500474Y-133470070D01*
X138500474Y-133470070D02*
X138524284Y-133517689D01*
X138524284Y-133517689D02*
X138524284Y-133565308D01*
X138524284Y-133565308D02*
X138286189Y-133612927D01*
X139119521Y-133779594D02*
X139119521Y-133446261D01*
X139119521Y-133279594D02*
X139095712Y-133303404D01*
X139095712Y-133303404D02*
X139119521Y-133327213D01*
X139119521Y-133327213D02*
X139143331Y-133303404D01*
X139143331Y-133303404D02*
X139119521Y-133279594D01*
X139119521Y-133279594D02*
X139119521Y-133327213D01*
X139357616Y-133446261D02*
X139357616Y-133779594D01*
X139357616Y-133493880D02*
X139381426Y-133470070D01*
X139381426Y-133470070D02*
X139429045Y-133446261D01*
X139429045Y-133446261D02*
X139500473Y-133446261D01*
X139500473Y-133446261D02*
X139548092Y-133470070D01*
X139548092Y-133470070D02*
X139571902Y-133517689D01*
X139571902Y-133517689D02*
X139571902Y-133779594D01*
X140405235Y-133779594D02*
X140405235Y-133517689D01*
X140405235Y-133517689D02*
X140381425Y-133470070D01*
X140381425Y-133470070D02*
X140333806Y-133446261D01*
X140333806Y-133446261D02*
X140238568Y-133446261D01*
X140238568Y-133446261D02*
X140190949Y-133470070D01*
X140405235Y-133755785D02*
X140357616Y-133779594D01*
X140357616Y-133779594D02*
X140238568Y-133779594D01*
X140238568Y-133779594D02*
X140190949Y-133755785D01*
X140190949Y-133755785D02*
X140167140Y-133708165D01*
X140167140Y-133708165D02*
X140167140Y-133660546D01*
X140167140Y-133660546D02*
X140190949Y-133612927D01*
X140190949Y-133612927D02*
X140238568Y-133589118D01*
X140238568Y-133589118D02*
X140357616Y-133589118D01*
X140357616Y-133589118D02*
X140405235Y-133565308D01*
X140714759Y-133779594D02*
X140667140Y-133755785D01*
X140667140Y-133755785D02*
X140643330Y-133708165D01*
X140643330Y-133708165D02*
X140643330Y-133279594D01*
X140976664Y-133779594D02*
X140929045Y-133755785D01*
X140929045Y-133755785D02*
X140905235Y-133708165D01*
X140905235Y-133708165D02*
X140905235Y-133279594D01*
X141762378Y-133779594D02*
X141762378Y-133279594D01*
X141762378Y-133755785D02*
X141714759Y-133779594D01*
X141714759Y-133779594D02*
X141619521Y-133779594D01*
X141619521Y-133779594D02*
X141571902Y-133755785D01*
X141571902Y-133755785D02*
X141548092Y-133731975D01*
X141548092Y-133731975D02*
X141524283Y-133684356D01*
X141524283Y-133684356D02*
X141524283Y-133541499D01*
X141524283Y-133541499D02*
X141548092Y-133493880D01*
X141548092Y-133493880D02*
X141571902Y-133470070D01*
X141571902Y-133470070D02*
X141619521Y-133446261D01*
X141619521Y-133446261D02*
X141714759Y-133446261D01*
X141714759Y-133446261D02*
X141762378Y-133470070D01*
X142000473Y-133779594D02*
X142000473Y-133446261D01*
X142000473Y-133279594D02*
X141976664Y-133303404D01*
X141976664Y-133303404D02*
X142000473Y-133327213D01*
X142000473Y-133327213D02*
X142024283Y-133303404D01*
X142024283Y-133303404D02*
X142000473Y-133279594D01*
X142000473Y-133279594D02*
X142000473Y-133327213D01*
X142238568Y-133779594D02*
X142238568Y-133446261D01*
X142238568Y-133493880D02*
X142262378Y-133470070D01*
X142262378Y-133470070D02*
X142309997Y-133446261D01*
X142309997Y-133446261D02*
X142381425Y-133446261D01*
X142381425Y-133446261D02*
X142429044Y-133470070D01*
X142429044Y-133470070D02*
X142452854Y-133517689D01*
X142452854Y-133517689D02*
X142452854Y-133779594D01*
X142452854Y-133517689D02*
X142476663Y-133470070D01*
X142476663Y-133470070D02*
X142524282Y-133446261D01*
X142524282Y-133446261D02*
X142595711Y-133446261D01*
X142595711Y-133446261D02*
X142643330Y-133470070D01*
X142643330Y-133470070D02*
X142667140Y-133517689D01*
X142667140Y-133517689D02*
X142667140Y-133779594D01*
X143095711Y-133755785D02*
X143048092Y-133779594D01*
X143048092Y-133779594D02*
X142952854Y-133779594D01*
X142952854Y-133779594D02*
X142905235Y-133755785D01*
X142905235Y-133755785D02*
X142881426Y-133708165D01*
X142881426Y-133708165D02*
X142881426Y-133517689D01*
X142881426Y-133517689D02*
X142905235Y-133470070D01*
X142905235Y-133470070D02*
X142952854Y-133446261D01*
X142952854Y-133446261D02*
X143048092Y-133446261D01*
X143048092Y-133446261D02*
X143095711Y-133470070D01*
X143095711Y-133470070D02*
X143119521Y-133517689D01*
X143119521Y-133517689D02*
X143119521Y-133565308D01*
X143119521Y-133565308D02*
X142881426Y-133612927D01*
X143333806Y-133446261D02*
X143333806Y-133779594D01*
X143333806Y-133493880D02*
X143357616Y-133470070D01*
X143357616Y-133470070D02*
X143405235Y-133446261D01*
X143405235Y-133446261D02*
X143476663Y-133446261D01*
X143476663Y-133446261D02*
X143524282Y-133470070D01*
X143524282Y-133470070D02*
X143548092Y-133517689D01*
X143548092Y-133517689D02*
X143548092Y-133779594D01*
X143762378Y-133755785D02*
X143809997Y-133779594D01*
X143809997Y-133779594D02*
X143905235Y-133779594D01*
X143905235Y-133779594D02*
X143952854Y-133755785D01*
X143952854Y-133755785D02*
X143976663Y-133708165D01*
X143976663Y-133708165D02*
X143976663Y-133684356D01*
X143976663Y-133684356D02*
X143952854Y-133636737D01*
X143952854Y-133636737D02*
X143905235Y-133612927D01*
X143905235Y-133612927D02*
X143833806Y-133612927D01*
X143833806Y-133612927D02*
X143786187Y-133589118D01*
X143786187Y-133589118D02*
X143762378Y-133541499D01*
X143762378Y-133541499D02*
X143762378Y-133517689D01*
X143762378Y-133517689D02*
X143786187Y-133470070D01*
X143786187Y-133470070D02*
X143833806Y-133446261D01*
X143833806Y-133446261D02*
X143905235Y-133446261D01*
X143905235Y-133446261D02*
X143952854Y-133470070D01*
X144190949Y-133779594D02*
X144190949Y-133446261D01*
X144190949Y-133279594D02*
X144167140Y-133303404D01*
X144167140Y-133303404D02*
X144190949Y-133327213D01*
X144190949Y-133327213D02*
X144214759Y-133303404D01*
X144214759Y-133303404D02*
X144190949Y-133279594D01*
X144190949Y-133279594D02*
X144190949Y-133327213D01*
X144500473Y-133779594D02*
X144452854Y-133755785D01*
X144452854Y-133755785D02*
X144429044Y-133731975D01*
X144429044Y-133731975D02*
X144405235Y-133684356D01*
X144405235Y-133684356D02*
X144405235Y-133541499D01*
X144405235Y-133541499D02*
X144429044Y-133493880D01*
X144429044Y-133493880D02*
X144452854Y-133470070D01*
X144452854Y-133470070D02*
X144500473Y-133446261D01*
X144500473Y-133446261D02*
X144571901Y-133446261D01*
X144571901Y-133446261D02*
X144619520Y-133470070D01*
X144619520Y-133470070D02*
X144643330Y-133493880D01*
X144643330Y-133493880D02*
X144667139Y-133541499D01*
X144667139Y-133541499D02*
X144667139Y-133684356D01*
X144667139Y-133684356D02*
X144643330Y-133731975D01*
X144643330Y-133731975D02*
X144619520Y-133755785D01*
X144619520Y-133755785D02*
X144571901Y-133779594D01*
X144571901Y-133779594D02*
X144500473Y-133779594D01*
X144881425Y-133446261D02*
X144881425Y-133779594D01*
X144881425Y-133493880D02*
X144905235Y-133470070D01*
X144905235Y-133470070D02*
X144952854Y-133446261D01*
X144952854Y-133446261D02*
X145024282Y-133446261D01*
X145024282Y-133446261D02*
X145071901Y-133470070D01*
X145071901Y-133470070D02*
X145095711Y-133517689D01*
X145095711Y-133517689D02*
X145095711Y-133779594D01*
X145309997Y-133755785D02*
X145357616Y-133779594D01*
X145357616Y-133779594D02*
X145452854Y-133779594D01*
X145452854Y-133779594D02*
X145500473Y-133755785D01*
X145500473Y-133755785D02*
X145524282Y-133708165D01*
X145524282Y-133708165D02*
X145524282Y-133684356D01*
X145524282Y-133684356D02*
X145500473Y-133636737D01*
X145500473Y-133636737D02*
X145452854Y-133612927D01*
X145452854Y-133612927D02*
X145381425Y-133612927D01*
X145381425Y-133612927D02*
X145333806Y-133589118D01*
X145333806Y-133589118D02*
X145309997Y-133541499D01*
X145309997Y-133541499D02*
X145309997Y-133517689D01*
X145309997Y-133517689D02*
X145333806Y-133470070D01*
X145333806Y-133470070D02*
X145381425Y-133446261D01*
X145381425Y-133446261D02*
X145452854Y-133446261D01*
X145452854Y-133446261D02*
X145500473Y-133470070D01*
D12*
%TO.C,H3*%
X174397376Y-53815327D02*
G75*
G03*
X174397376Y-53815327I-3200000J0D01*
G01*
%TO.C,H4*%
X174636342Y-121592772D02*
G75*
G03*
X174636342Y-121592772I-3200000J0D01*
G01*
%TO.C,H2*%
X106781669Y-121118480D02*
G75*
G03*
X106781669Y-121118480I-3200000J0D01*
G01*
%TO.C,H1*%
X106781669Y-53711142D02*
G75*
G03*
X106781669Y-53711142I-3200000J0D01*
G01*
%TD*%
M02*
