M48
; DRILL file {KiCad 8.0.2-1} date 2024-05-20T08:59:52+0800
; FORMAT={-:-/ absolute / inch / decimal}
; #@! TF.CreationDate,2024-05-20T08:59:52+08:00
; #@! TF.GenerationSoftware,Kicad,Pcbnew,8.0.2-1
; #@! TF.FileFunction,Plated,1,4,PTH
FMAT,2
INCH
; #@! TA.AperFunction,Plated,PTH,ViaDrill
T1C0.0157
; #@! TA.AperFunction,Plated,PTH,ComponentDrill
T2C0.0197
; #@! TA.AperFunction,Plated,PTH,ComponentDrill
T3C0.0374
; #@! TA.AperFunction,Plated,PTH,ComponentDrill
T4C0.0394
; #@! TA.AperFunction,Plated,PTH,ComponentDrill
T5C0.0472
%
G90
G05
T1
X4.4592Y-2.8665
X4.7607Y-4.669
X4.9564Y-3.17
X4.9583Y-4.1749
X4.9603Y-3.6729
X5.5176Y-3.7153
X5.5216Y-3.1728
X5.5274Y-4.171
X5.7176Y-4.6711
X5.7789Y-3.7797
X5.782Y-3.373
X5.8172Y-3.9507
X5.8526Y-3.797
X5.8589Y-4.4195
X5.8926Y-3.8653
X5.936Y-3.3638
X5.942Y-3.7544
X6.0238Y-4.3009
X6.0358Y-3.2397
X6.1006Y-3.6913
X6.1409Y-3.1259
X6.2169Y-3.1253
X6.2676Y-3.4653
X6.2935Y-3.1244
X6.2945Y-2.8523
T2
X5.8351Y-3.1343
X5.9676Y-3.8653
X6.0655Y-2.8835
X6.2634Y-3.7743
T3
X4.3176Y-4.17
X4.3176Y-4.2685
X4.3176Y-4.3669
X4.3176Y-4.4653
X4.3177Y-3.6017
X4.3177Y-3.7001
X4.3177Y-3.7985
X4.3177Y-3.8969
X4.3191Y-3.0127
X4.3191Y-3.1111
X4.3191Y-3.2095
X4.3191Y-3.3079
X4.6058Y-4.1677
X4.6058Y-4.2661
X4.6058Y-4.3645
X4.6058Y-4.4629
X4.6068Y-3.5973
X4.6068Y-3.6957
X4.6068Y-3.7942
X4.6068Y-3.8926
X6.1926Y-3.9403
X6.1926Y-4.0387
X6.1926Y-4.1372
X6.1926Y-4.2356
X6.1926Y-4.495
X6.1926Y-4.5935
X6.1926Y-4.6919
X6.1926Y-4.7903
X6.4926Y-3.7403
X6.4926Y-3.8387
X6.4926Y-3.9372
X6.4973Y-3.0935
X6.4973Y-3.1919
X6.4973Y-3.2903
T4
X4.6426Y-3.1153
X4.6426Y-3.2153
X4.6426Y-3.3153
X5.6676Y-2.7903
X5.7676Y-2.7903
X5.7899Y-4.7657
X5.8676Y-2.7903
X5.8899Y-4.7657
X5.9899Y-4.7657
X6.3928Y-3.5153
X6.4926Y-4.2403
X6.4926Y-4.3387
X6.4928Y-3.5153
T5
X4.6048Y-2.7403
X4.7426Y-2.7403
X4.8804Y-2.7403
M30
