%TF.GenerationSoftware,KiCad,Pcbnew,7.0.9*%
%TF.CreationDate,2023-12-26T12:13:05+08:00*%
%TF.ProjectId,amp_controller,616d705f-636f-46e7-9472-6f6c6c65722e,rev?*%
%TF.SameCoordinates,Original*%
%TF.FileFunction,Soldermask,Bot*%
%TF.FilePolarity,Negative*%
%FSLAX46Y46*%
G04 Gerber Fmt 4.6, Leading zero omitted, Abs format (unit mm)*
G04 Created by KiCad (PCBNEW 7.0.9) date 2023-12-26 12:13:05*
%MOMM*%
%LPD*%
G01*
G04 APERTURE LIST*
G04 Aperture macros list*
%AMRoundRect*
0 Rectangle with rounded corners*
0 $1 Rounding radius*
0 $2 $3 $4 $5 $6 $7 $8 $9 X,Y pos of 4 corners*
0 Add a 4 corners polygon primitive as box body*
4,1,4,$2,$3,$4,$5,$6,$7,$8,$9,$2,$3,0*
0 Add four circle primitives for the rounded corners*
1,1,$1+$1,$2,$3*
1,1,$1+$1,$4,$5*
1,1,$1+$1,$6,$7*
1,1,$1+$1,$8,$9*
0 Add four rect primitives between the rounded corners*
20,1,$1+$1,$2,$3,$4,$5,0*
20,1,$1+$1,$4,$5,$6,$7,0*
20,1,$1+$1,$6,$7,$8,$9,0*
20,1,$1+$1,$8,$9,$2,$3,0*%
G04 Aperture macros list end*
%ADD10R,2.500000X1.500000*%
%ADD11O,2.500000X1.500000*%
%ADD12RoundRect,0.250000X0.600000X0.725000X-0.600000X0.725000X-0.600000X-0.725000X0.600000X-0.725000X0*%
%ADD13O,1.700000X1.950000*%
%ADD14RoundRect,0.250000X0.725000X-0.600000X0.725000X0.600000X-0.725000X0.600000X-0.725000X-0.600000X0*%
%ADD15O,1.950000X1.700000*%
%ADD16RoundRect,0.250000X-0.750000X0.600000X-0.750000X-0.600000X0.750000X-0.600000X0.750000X0.600000X0*%
%ADD17O,2.000000X1.700000*%
%ADD18C,3.200000*%
%ADD19R,2.400000X2.400000*%
%ADD20C,2.400000*%
%ADD21R,1.700000X1.700000*%
%ADD22O,1.700000X1.700000*%
%ADD23RoundRect,0.250000X-0.725000X0.600000X-0.725000X-0.600000X0.725000X-0.600000X0.725000X0.600000X0*%
%ADD24R,1.500000X1.050000*%
%ADD25O,1.500000X1.050000*%
G04 APERTURE END LIST*
D10*
%TO.C,U2*%
X146497597Y-56239255D03*
D11*
X146497597Y-58779255D03*
X146497597Y-61319255D03*
%TD*%
D12*
%TO.C,FP_LED1*%
X164722047Y-122806760D03*
D13*
X162222047Y-122806760D03*
X159722047Y-122806760D03*
X157222047Y-122806760D03*
%TD*%
D14*
%TO.C,AMP2*%
X104103296Y-114546777D03*
D15*
X104103296Y-112046777D03*
X104103296Y-109546777D03*
X104103296Y-107046777D03*
%TD*%
D14*
%TO.C,AMP1*%
X111774370Y-121370371D03*
D15*
X111774370Y-118870371D03*
X111774370Y-116370371D03*
X111774370Y-113870371D03*
%TD*%
D16*
%TO.C,TRIGGER1*%
X172588655Y-97851212D03*
D17*
X172588655Y-100351212D03*
%TD*%
D18*
%TO.C,H3*%
X171197376Y-53815327D03*
%TD*%
%TO.C,H4*%
X171436342Y-121592772D03*
%TD*%
D19*
%TO.C,POWER1*%
X119605020Y-56152903D03*
D20*
X116105020Y-56152903D03*
X112605020Y-56152903D03*
%TD*%
D21*
%TO.C,GPIO16\u002C17*%
X148564694Y-122507219D03*
D22*
X148564694Y-119967219D03*
%TD*%
D14*
%TO.C,MUSIC_IN1*%
X166784304Y-85995563D03*
D15*
X166784304Y-83495563D03*
X166784304Y-80995563D03*
%TD*%
D23*
%TO.C,DISPLAY1*%
X104892442Y-72412621D03*
D15*
X104892442Y-74912621D03*
X104892442Y-77412621D03*
X104892442Y-79912621D03*
%TD*%
D24*
%TO.C,U3*%
X118120802Y-62098029D03*
D25*
X118120802Y-63368029D03*
X118120802Y-64638029D03*
%TD*%
D14*
%TO.C,AMP3*%
X111760000Y-105163725D03*
D15*
X111760000Y-102663725D03*
X111760000Y-100163725D03*
X111760000Y-97663725D03*
%TD*%
D18*
%TO.C,H2*%
X103581669Y-121118480D03*
%TD*%
D14*
%TO.C,MUSIC_THRU1*%
X172038734Y-86015172D03*
D15*
X172038734Y-83515172D03*
X172038734Y-81015172D03*
%TD*%
D21*
%TO.C,GPIO2\u002C3*%
X118214756Y-82976485D03*
D22*
X118214756Y-85516485D03*
%TD*%
D23*
%TO.C,FP_BUTTON1*%
X172583225Y-107027622D03*
D15*
X172583225Y-109527622D03*
X172583225Y-112027622D03*
X172583225Y-114527622D03*
%TD*%
D18*
%TO.C,H1*%
X103581669Y-53711142D03*
%TD*%
D14*
%TO.C,AMP4*%
X104140000Y-97543725D03*
D15*
X104140000Y-95043725D03*
X104140000Y-92543725D03*
X104140000Y-90043725D03*
%TD*%
M02*
